<svg width="417" height="402" viewBox="0 0 417 402" fill="none" xmlns="http://www.w3.org/2000/svg">
<path d="M333.043 279.901C350.936 280.794 370.018 282.856 383.597 292.874C393.581 300.24 399.225 310.981 403.511 321.653C412.318 343.582 416.686 366.812 416.362 390L0 389.509C1.321 372.115 9.203 354.109 18.547 338.624C24.648 328.513 31.212 318.415 40.519 310.291C56.501 296.341 79.029 289.447 101.232 284.934H221.794C220.212 278.881 220.609 272.454 222.435 266.452C231.387 268.393 240.952 267.568 249.819 269.775C255.081 271.084 259.904 273.415 264.672 275.727C282.409 284.322 313.115 283.557 333.043 279.901Z" fill="#826D99"/>
<path d="M332.74 279.934C350.617 280.858 369.681 282.995 383.248 293.374C393.223 301.006 398.862 312.133 403.144 323.19C411.943 345.909 416.307 369.976 415.983 394L0 393.492C1.3198 375.47 9.19463 356.816 18.5301 340.772C24.6256 330.297 31.1836 319.835 40.4821 311.418C56.4496 296.966 78.9571 289.823 101.14 285.147H221.592C220.012 278.876 220.408 272.218 222.233 266C231.176 268.01 240.733 267.156 249.592 269.442C254.849 270.799 259.668 273.214 264.431 275.609C282.152 284.514 312.83 283.722 332.74 279.934Z" fill="#826D99"/>
<path d="M85.3565 256.99C77.7755 235.799 75.9435 212.582 80.1055 190.464C80.4155 188.817 81.1436 186.81 82.8146 186.67C83.7356 186.593 84.5786 187.161 85.2926 187.748C90.1536 191.749 92.9595 197.658 95.5955 203.375C103.698 220.949 111.737 238.799 123.703 254.008C130.429 262.557 138.351 270.21 144.096 279.447C149.84 288.685 153.246 300.199 149.772 310.508C149.459 311.438 149.06 312.393 148.29 313.001C147.374 313.723 146.123 313.81 144.957 313.833C138.324 313.966 129.149 313.535 122.952 310.812C117.096 308.238 111.705 300.716 107.679 295.901C98.0386 284.371 90.4195 271.144 85.3565 256.99Z" fill="#826D99"/>
<path opacity="0.25" d="M85.3565 256.99C77.7755 235.799 75.9435 212.582 80.1055 190.464C80.4155 188.817 81.1436 186.81 82.8146 186.67C83.7356 186.593 84.5786 187.161 85.2926 187.748C90.1536 191.749 92.9595 197.658 95.5955 203.375C103.698 220.949 111.737 238.799 123.703 254.008C130.429 262.557 138.351 270.21 144.096 279.447C149.84 288.685 153.246 300.199 149.772 310.508C149.459 311.438 149.06 312.393 148.29 313.001C147.374 313.723 146.123 313.81 144.957 313.833C138.324 313.966 129.149 313.535 122.952 310.812C117.096 308.238 111.705 300.716 107.679 295.901C98.0386 284.371 90.4195 271.144 85.3565 256.99Z" fill="#826D99"/>
<path d="M109.057 198.506C111.42 206.61 114.342 214.551 117.795 222.254C120.924 229.236 124.485 236.014 128.044 242.787C137.198 260.21 146.352 277.632 155.506 295.055C157.174 298.23 159.118 301.657 162.474 302.923C166.217 304.335 170.597 302.407 173.08 299.269C175.562 296.132 176.5 292.054 176.995 288.084C178.975 272.215 174.998 256.261 170.754 240.843C165.711 222.522 160.122 204.045 149.896 188.028C145.073 180.474 138.955 173.319 130.746 169.722C124.513 166.992 111.836 165.821 107.172 172.396C102.794 178.568 107.169 192.031 109.057 198.506Z" fill="#826D99"/>
<path d="M109.057 198.506C111.42 206.61 114.342 214.551 117.795 222.254C120.924 229.236 124.485 236.014 128.044 242.787C137.198 260.21 146.352 277.632 155.506 295.055C157.174 298.23 159.118 301.657 162.474 302.923C166.217 304.335 170.597 302.407 173.08 299.269C175.562 296.132 176.5 292.054 176.995 288.084C178.975 272.215 174.998 256.261 170.754 240.843C165.711 222.522 160.122 204.045 149.896 188.028C145.073 180.474 138.955 173.319 130.746 169.722C124.513 166.992 111.836 165.821 107.172 172.396C102.794 178.568 107.169 192.031 109.057 198.506Z" fill="#826D99"/>
<path d="M111.122 162.273C109.54 172.181 108.045 182.53 111.12 192.081C113.091 198.204 116.82 203.578 120.348 208.956C136.594 233.718 149.594 260.606 158.912 288.717C159.051 289.137 159.187 289.609 158.996 290.007C158.758 290.502 158.139 290.654 157.598 290.749C155.837 291.058 154.076 291.367 152.315 291.676C151.098 291.89 149.82 292.099 148.651 291.701C146.464 290.957 145.504 288.47 144.729 286.294C141.596 277.492 135.585 269.973 128.02 264.491C109.741 251.242 102.71 227.879 93.4318 207.298C89.6108 198.822 85.2398 190.587 81.8618 181.926C78.2018 172.542 75.7408 162.743 73.2888 152.974C68.6858 134.634 64.0658 116.193 62.5128 97.348C62.0568 91.817 61.8808 86.149 63.4288 80.819C65.8508 72.48 72.1758 65.924 78.4458 59.916C101.271 38.043 124.279 20.407 151.089 3.65503C151.716 9.99703 152.947 14.243 151.259 20.388C142.549 52.096 128.258 82.167 121.175 114.277C117.864 129.296 113.547 147.086 111.122 162.273Z" fill="#826D99"/>
<path opacity="0.5" d="M85.0914 134.848C82.0214 146.991 75.7554 162.735 81.8374 173.684C80.8814 160.792 92.9644 145.996 98.6654 134.392C102.682 126.215 107.001 118.091 109.703 109.355C111.214 104.469 127.493 67.856 117.053 73.666C112.537 76.179 98.2044 106.398 95.6904 110.613C91.1554 118.217 87.2694 126.23 85.0914 134.848Z" fill="#826D99"/>
<g opacity="0.5">
<path d="M111.12 192.081C108.045 182.53 109.54 172.181 111.122 162.273C113.547 147.086 117.864 129.296 121.176 114.278C123.074 105.672 125.499 97.2151 128.187 88.8311C114.152 107.788 104.339 129.88 99.8751 153.046C97.6381 164.656 96.7131 176.584 98.0331 188.335C100.522 210.487 110.958 231.225 124.976 248.557C133.905 259.597 144.251 269.36 155.281 278.332C146.324 253.98 134.582 230.652 120.348 208.957C116.82 203.578 113.091 198.204 111.12 192.081Z" fill="#826D99"/>
<path d="M139.804 55.4999C142.861 46.9609 145.845 38.3979 148.514 29.7419C141.87 34.5399 134.899 38.9129 127.945 43.2619C106.2 56.8629 84.4558 70.4639 62.7108 84.0649C62.6988 84.1339 62.6858 84.2029 62.6748 84.2719C72.2648 84.1099 81.5038 80.7769 90.4418 77.2789C107.195 70.7239 123.666 63.4509 139.804 55.4999Z" fill="#826D99"/>
</g>
<path opacity="0.25" d="M135.381 16.798C137.373 15.265 140.035 13.68 142.218 14.925C124.136 31.416 106.045 47.915 87.1734 63.495C82.1394 67.651 76.8994 71.824 70.6914 73.84C70.8204 73.798 71.7704 70.862 72.0864 70.47C73.1494 69.156 74.2364 69.184 75.4534 68.328C78.1794 66.412 80.5324 64.068 82.9934 61.721C88.5444 56.426 94.1894 51.229 99.9244 46.134C111.394 35.943 123.222 26.156 135.381 16.798Z" fill="#C0A4D8"/>
<path opacity="0.25" d="M100.099 89.9381C94.5103 98.7821 88.6823 107.878 80.0403 113.776C78.6993 114.691 76.4933 115.327 75.7653 113.875C75.5433 113.431 75.5563 112.91 75.6073 112.416C76.0733 107.924 79.1463 104.195 82.0853 100.766C87.7673 94.1361 93.4503 87.5052 99.1323 80.8752C100.602 79.1602 105.868 73.3191 107.34 77.0301C108.435 79.7861 101.461 87.7831 100.099 89.9381Z" fill="#C0A4D8"/>
<path d="M153.696 3.19519C157.19 2.93619 160.579 4.31219 163.786 5.72519C172.313 9.48219 180.693 13.7232 188.134 19.3322C189.238 20.1652 190.391 21.1332 190.696 22.4822C191.032 23.9652 190.201 25.5202 189.005 26.4602C187.81 27.4002 186.307 27.8432 184.836 28.2262C175.02 30.7852 164.844 31.5832 154.731 32.3702C152.774 32.5222 150.776 32.6712 148.874 32.1862C144.137 30.9762 141.118 25.9212 140.983 21.0342C140.806 14.5712 146.464 3.73219 153.696 3.19519Z" fill="#826D99"/>
<path opacity="0.5" d="M153.696 3.19519C157.19 2.93619 160.579 4.31219 163.786 5.72519C172.313 9.48219 180.693 13.7232 188.134 19.3322C189.238 20.1652 190.391 21.1332 190.696 22.4822C191.032 23.9652 190.201 25.5202 189.005 26.4602C187.81 27.4002 186.307 27.8432 184.836 28.2262C175.02 30.7852 164.844 31.5832 154.731 32.3702C152.774 32.5222 150.776 32.6712 148.874 32.1862C144.137 30.9762 141.118 25.9212 140.983 21.0342C140.806 14.5712 146.464 3.73219 153.696 3.19519Z" fill="#826D99"/>
<path d="M128.693 204.046C141.065 210.103 147.682 223.653 152.535 236.545C160.665 258.144 166.388 280.649 169.562 303.509C177.66 301.875 184.998 296.903 192.609 293.692C202.537 289.503 212.464 285.315 222.392 281.126C223.537 280.643 224.753 280.102 225.419 279.052C225.955 278.207 226.047 277.163 226.12 276.165C228.23 247.1 226.28 217.743 220.342 189.213C219.527 185.295 218.466 181.102 215.4 178.531C211.405 175.181 205.518 175.763 200.4 176.757C178.988 180.917 158.573 189.017 138.303 197.074C135.669 198.119 129.92 201.49 128.693 204.046Z" fill="white"/>
<path d="M220.342 189.212C219.527 185.294 218.466 181.101 215.4 178.53C211.405 175.18 205.518 175.762 200.4 176.756C178.988 180.916 158.573 189.016 138.303 197.073C135.669 198.12 129.92 201.49 128.693 204.046C134.723 206.998 139.379 211.737 143.136 217.305C144.967 217.753 146.855 218.034 148.717 218.223C158.844 219.253 169.193 218.031 178.802 214.672C180.421 214.106 182.161 213.473 183.808 213.954C187.12 214.922 187.64 219.328 187.513 222.777C186.993 237.009 186.472 251.241 185.952 265.473C185.876 267.568 185.788 269.714 184.995 271.654C183.497 275.317 179.676 277.613 175.788 278.351C172.219 279.028 168.555 278.604 164.949 278.089C166.836 286.494 168.377 294.977 169.562 303.509C177.66 301.875 184.998 296.903 192.609 293.692C202.537 289.503 212.464 285.315 222.392 281.126C223.538 280.643 224.753 280.102 225.419 279.052C225.955 278.207 226.047 277.163 226.12 276.165C228.23 247.099 226.279 217.742 220.342 189.212Z" fill="white"/>
<path d="M216.286 186.763C201.542 195.979 185.175 202.591 168.167 206.202C159.089 208.129 149.745 209.209 140.517 208.223C131.289 207.237 121.728 206.092 115.479 199.231C111.634 195.01 109.857 189.347 108.359 183.837C104.421 169.355 101.654 154.555 100.095 139.628C99.3956 132.943 98.9466 126.121 100.381 119.554C102.337 110.597 107.668 102.687 109.907 93.796C111.562 87.225 111.479 80.304 113.228 73.758C115.154 66.548 119.211 60.113 123.389 53.93C127.817 47.377 132.495 40.906 138.363 35.604C144.231 30.302 151.421 26.194 159.26 25.147C163.99 24.515 169.251 25.116 173.844 26.406C190.316 31.034 207.285 36.549 219.618 48.409C229.023 57.453 234.945 69.47 240.021 81.491C241.81 85.728 243.524 90.016 244.648 94.476C246.796 102.999 246.735 111.949 245.685 120.677C242.695 145.521 237.506 173.499 216.286 186.763Z" fill="white"/>
<g opacity="0.25">
<path d="M116.949 98.851C119.807 100.684 123.328 101.082 126.714 101.325C127.762 101.4 128.957 101.544 129.555 102.408C130.056 103.132 129.933 104.145 129.497 104.909C129.061 105.673 128.365 106.248 127.697 106.821C126.172 108.131 124.719 109.525 123.347 110.994C121.747 112.708 120.216 114.601 119.604 116.865C118.863 119.609 119.585 122.584 120.961 125.071C122.337 127.558 124.321 129.645 126.283 131.702C123.754 127.854 120.886 124.148 120.987 119.544C121.051 116.626 123.585 114.47 125.727 112.487C128.794 109.647 131.441 106.39 134.076 103.144C135.176 101.789 136.287 100.417 137.033 98.839C138.066 96.652 138.343 94.187 138.412 91.77C138.565 86.381 137.714 80.863 135.164 76.112C134.641 75.137 134.041 74.189 133.249 73.416C132.077 72.272 130.546 71.569 128.995 71.043C124.347 69.468 119.45 69.337 114.535 69.811C114.041 71.104 113.587 72.414 113.228 73.757C111.842 78.946 111.596 84.367 110.734 89.665C111.019 90.562 111.329 91.45 111.71 92.312C112.855 94.905 114.564 97.322 116.949 98.851Z" fill="white"/>
</g>
<path opacity="0.25" d="M152.32 126.076C151.882 121.643 148.799 117.575 144.649 115.955C147.563 108.552 150.477 101.148 153.391 93.7439C155.76 87.7259 158.332 81.4249 163.382 77.3829C169.974 72.1069 179.206 71.9039 187.618 72.6239C190.776 72.8939 193.936 73.2619 197.014 74.0189C208.506 76.8449 223.978 82.3579 228.497 93.2959C228.751 93.9109 225.986 103.413 218.78 106.711C209.199 111.096 197.121 113.666 187.353 109.717C185.174 108.836 183.102 107.704 180.908 106.86C176.926 105.329 172.569 104.782 168.331 105.281C165.425 105.623 162.535 106.473 160.11 108.109C157.685 109.746 155.757 112.224 155.14 115.083C154.573 117.709 155.12 120.433 155.126 123.12C155.133 126.156 154.434 129.19 153.1 131.917C151.663 134.855 149.154 137.79 145.785 138.416C149.943 135.924 152.802 130.967 152.32 126.076Z" fill="white"/>
<path d="M129.701 117.751C136.381 119.737 141.677 125.049 145.101 131.119C145.634 132.065 146.137 133.054 146.308 134.126C146.479 135.199 146.275 136.38 145.54 137.179C144.793 137.99 143.612 138.286 142.512 138.21C141.412 138.133 140.363 137.732 139.334 137.335C137.665 136.691 135.996 136.047 134.327 135.403C132.915 134.858 131.451 134.305 129.94 134.385C128.672 134.453 127.476 134.963 126.241 135.257C124.595 135.648 122.818 135.643 121.253 134.999C119.688 134.355 118.368 133.019 117.971 131.374C117.647 130.033 117.939 128.625 118.291 127.291C118.953 124.784 119.807 120.5 121.562 118.53C123.377 116.493 127.442 117.079 129.701 117.751Z" fill="white"/>
<path d="M136.064 132.888C136.803 133.357 137.66 133.606 138.516 133.789C139.978 134.101 141.477 134.235 142.971 134.188C142.823 132.742 142.156 131.354 141.118 130.336C139.866 129.107 136.21 127.191 134.376 127.818C132.035 128.619 134.839 132.11 136.064 132.888Z" fill="white"/>
<path d="M121.225 118.845C119.838 120.573 119.051 123.029 118.566 125.167C118.064 127.382 117.534 130.11 118.378 132.298C119.065 134.079 120.686 135.374 122.489 135.914C123.561 136.235 124.689 136.278 125.792 136.124C126.776 135.987 128.223 135.802 128.75 134.842C128.877 134.611 128.767 134.301 128.502 134.232C127.65 134.012 126.819 134.501 125.99 134.665C124.965 134.868 123.861 134.89 122.844 134.627C121.06 134.166 119.605 132.858 119.224 131.022C118.812 129.042 119.184 126.785 119.575 124.832C119.985 122.785 120.805 120.916 121.366 118.926C121.388 118.851 121.28 118.777 121.225 118.845Z" fill="white"/>
<path d="M131.952 134.617C132.748 135.753 134.33 136.431 135.527 137.066C136.816 137.751 138.176 138.364 139.591 138.738C142.35 139.468 145.414 139.3 147.865 137.745C152.705 134.674 154.269 127.681 152.435 122.46C152.31 122.103 151.761 122.147 151.757 122.552C151.734 125.426 152.066 128.222 151.12 131.003C150.373 133.202 148.984 135.293 146.983 136.528C144.656 137.964 141.829 137.935 139.253 137.284C137.926 136.949 136.652 136.438 135.418 135.851C134.355 135.345 133.259 134.535 132.068 134.416C131.97 134.407 131.897 134.538 131.952 134.617Z" fill="white"/>
<path d="M122.587 124.957C121.905 126.326 121.904 127.945 122.198 129.446C122.363 130.287 122.635 131.145 123.232 131.761C124.336 132.9 126.168 132.864 127.716 132.521C125.865 129.933 123.99 127.811 122.587 124.957Z" fill="white"/>
<g opacity="0.25">
<path d="M126.552 115.016C126.782 114.984 126.882 114.968 127.097 114.974C127.341 114.981 126.967 114.944 127.203 114.989C127.309 115.007 127.416 115.02 127.523 115.028C127.429 115.015 127.435 115.018 127.544 115.037C127.975 115.151 128.398 115.292 128.815 115.45C129.332 115.646 129.842 115.86 130.354 116.066C130.955 116.307 131.569 116.637 132.217 116.696C132.694 116.74 133.219 116.311 133.323 115.854C133.442 115.333 133.234 114.856 132.796 114.559C132.477 114.343 132.049 114.259 131.683 114.144C131.382 114.049 131.08 113.955 130.778 113.86C130.194 113.677 129.612 113.47 129.017 113.325C127.965 113.068 126.323 113.176 125.956 114.419C125.84 114.811 126.206 115.064 126.552 115.016Z" fill="white"/>
</g>
<path d="M131.861 68.711C133.93 73.768 136.386 78.735 137.576 84.098C138.736 89.324 138.342 94.657 135.986 99.497C133.886 103.812 130.653 107.454 127.024 110.55C123.975 113.152 120.153 116.186 120.698 120.679C121.019 123.324 122.488 125.919 123.78 128.203C125.219 130.748 126.858 133.215 128.792 135.413C129.428 136.136 130.429 135.093 129.837 134.368C128.103 132.244 126.457 130.076 125.092 127.692C123.853 125.527 122.334 122.993 122.063 120.47C121.557 115.753 126.81 112.717 129.74 109.9C133.011 106.757 135.856 103.074 137.618 98.871C139.456 94.488 139.805 89.769 138.952 85.111C137.872 79.215 135.18 73.696 132.09 68.612C132.021 68.496 131.805 68.573 131.861 68.711Z" fill="white"/>
<path d="M220.48 90.7449C213.179 83.4109 203.331 78.6619 193.046 77.5139C184.435 76.5529 174.99 77.3749 166.454 78.8579C167.762 75.8269 169.542 72.9999 171.712 70.5119C177.974 70.3279 184.139 69.8679 190.389 70.3019C193.279 70.5029 196.188 70.7069 198.992 71.4359C204.127 72.7729 208.708 75.8499 212.346 79.7129C215.983 83.5759 218.263 85.9239 220.48 90.7449Z" fill="white"/>
<path d="M165.759 78.5299C165.931 78.2749 165.952 77.9049 166.003 77.6049C166.063 77.2519 166.104 76.8989 166.18 76.5489C166.336 75.8239 166.578 75.1239 166.851 74.4359C167.116 73.7689 167.46 73.1299 167.855 72.5309C168.053 72.2309 168.273 71.9479 168.481 71.6549C168.69 71.3629 168.952 71.0829 169.064 70.7389C169.143 70.4969 168.881 70.2129 168.631 70.3059C167.949 70.5599 167.443 71.3349 167.06 71.9199C166.62 72.5929 166.26 73.3129 165.967 74.0619C165.683 74.7859 165.516 75.5489 165.413 76.3189C165.363 76.6909 165.315 77.0739 165.316 77.4499C165.317 77.7839 165.329 78.2529 165.527 78.5309C165.588 78.6129 165.7 78.6169 165.759 78.5299Z" fill="white"/>
<path d="M164.215 79.1149C164.268 78.5389 164.376 77.9689 164.454 77.3959C164.532 76.8299 164.657 76.2589 164.807 75.7069C165.108 74.6029 165.566 73.5269 166.051 72.4919C166.21 72.1519 165.788 71.7519 165.498 72.0659C164.618 73.0199 164.068 74.1629 163.766 75.4209C163.62 76.0289 163.54 76.6449 163.521 77.2699C163.502 77.9239 163.625 78.5439 163.8 79.1709C163.867 79.4119 164.194 79.3439 164.215 79.1149Z" fill="white"/>
<path d="M134.539 74.5529C134.155 73.3749 133.727 72.2119 133.257 71.0659C132.873 70.1289 132.436 69.1699 131.66 68.5199C130.793 67.7929 129.628 67.5549 128.515 67.3489C125.934 66.8719 123.329 66.4339 120.704 66.4709C118.968 66.4949 117.217 66.7449 115.577 67.2969C114.715 69.2139 113.971 71.1789 113.396 73.2069C120.321 71.0409 128.067 71.3209 134.539 74.5529Z" fill="white"/>
<path d="M136.29 74.8679C136.301 73.5369 136.073 72.2729 135.569 71.0399C135.324 70.4419 135.045 69.8599 134.722 69.2999C134.551 69.0039 134.351 68.7269 134.145 68.4549C133.944 68.1889 133.738 67.9119 133.41 67.8049C133.2 67.7369 132.924 67.9249 132.947 68.1579C132.977 68.4629 133.138 68.6959 133.31 68.9429C133.494 69.2069 133.661 69.4819 133.838 69.7509C134.181 70.2729 134.488 70.8189 134.755 71.3829C135.285 72.5039 135.727 73.7029 136.055 74.8999C136.09 75.0299 136.289 75.0029 136.29 74.8679Z" fill="white"/>
<path d="M137.586 74.964C137.864 73.929 137.928 72.878 137.885 71.808C137.841 70.714 137.731 69.662 137.438 68.605C137.306 68.129 136.556 68.215 136.567 68.723C136.59 69.779 136.695 70.817 136.788 71.869C136.879 72.912 136.97 73.94 137.192 74.964C137.236 75.165 137.535 75.153 137.586 74.964Z" fill="white"/>
<path opacity="0.25" d="M173.94 100.913C183.238 105.638 193.311 109.66 203.734 109.274C214.157 108.889 224.966 103.11 228.498 93.2961C224.431 95.6941 219.416 95.9601 214.75 95.2381C210.084 94.5161 205.614 92.8881 201.042 91.7061C194.871 90.1111 188.358 89.3321 182.12 90.6431C175.882 91.9531 169.933 95.5691 166.837 101.141C169.01 100.729 171.968 99.9111 173.94 100.913Z" fill="white"/>
<path d="M170.558 96.781C176.951 91.84 184.752 89.339 192.828 90.342C201.517 91.421 209.702 95.104 218.464 95.798C218.764 95.822 218.828 95.338 218.535 95.273C214.038 94.275 209.606 93.057 205.179 91.789C200.753 90.521 196.227 89.292 191.624 88.908C183.897 88.264 175.803 90.976 170.419 96.642C170.328 96.737 170.46 96.857 170.558 96.781Z" fill="white"/>
<g opacity="0.25">
<path d="M183.554 93.696C186.711 93.922 189.887 94.453 192.918 95.374C194.425 95.832 195.918 96.344 197.386 96.914C198.904 97.504 200.383 98.204 201.998 98.471C202.823 98.607 203.768 97.536 202.932 96.866C201.577 95.78 200.025 95.119 198.418 94.484C196.789 93.841 195.14 93.252 193.438 92.833C190.117 92.015 186.728 91.707 183.431 92.782C182.922 92.948 183.03 93.659 183.554 93.696Z" fill="white"/>
</g>
<path d="M200.53 105.871C202.098 106.796 202.718 108.423 203.047 110.033C202.622 109.401 202.141 108.81 201.597 108.356C201.056 107.899 200.448 107.605 199.881 107.552L200.53 105.871Z" fill="white"/>
<path d="M196.44 107.797C197.3 109.365 197.487 111.134 197.103 112.651C196.887 111.101 196.08 109.755 195.029 108.919L196.44 107.797Z" fill="white"/>
<path d="M192.599 108.438C193.009 109.944 192.786 111.466 192.142 112.635C192.209 111.302 191.731 110.063 190.985 109.239L192.599 108.438Z" fill="white"/>
<path d="M187.966 109.057L186.65 112.274L186.191 108.744L187.966 109.057Z" fill="white"/>
<path d="M183.452 108.703C182.576 109.012 181.714 109.586 181.02 110.398C181.167 109.34 181.602 108.251 182.335 107.289L183.452 108.703Z" fill="white"/>
<path d="M179.868 106.642C178.809 106.559 177.596 106.903 176.604 107.702C177.121 106.537 178.129 105.48 179.492 104.88L179.868 106.642Z" fill="white"/>
<path d="M175.3 104.42C174.587 104.313 173.676 104.588 173.005 105.284C173.135 104.327 173.743 103.316 174.792 102.691L175.3 104.42Z" fill="white"/>
<path d="M199.825 100.482C203.234 101.237 207.464 100.009 210.221 96.905C208.469 100.665 204.475 103.661 199.677 104.083L199.825 100.482Z" fill="white"/>
<path d="M191.392 97.5619C193.742 97.0769 196.149 95.1919 197.251 92.4219C197.331 95.3999 195.874 98.6759 192.996 100.79L191.392 97.5619Z" fill="white"/>
<path d="M182.73 97.686C182.493 95.388 182.933 93.204 183.83 91.418C184.119 93.396 184.965 95.133 186.094 96.395L182.73 97.686Z" fill="white"/>
<path d="M176.383 100.078C174.645 98.3059 173.021 96.1249 172.811 93.6169C173.994 95.3919 176.205 96.4189 178.181 96.9539L176.383 100.078Z" fill="white"/>
<path d="M203.984 104.051C202.635 106.42 199.881 107.586 197.249 108.298C193.196 109.394 188.855 109.792 184.808 108.674C178.374 106.898 173.172 101.474 166.533 100.791C167.07 100.42 173.389 97.9031 175.966 97.5511C185.594 96.2381 195.093 100.131 203.984 104.051Z" fill="white"/>
<path d="M172.038 98.6182C169.495 99.4772 166.871 100.558 166.533 100.792C168.649 101.01 170.618 101.711 172.528 102.62C172.366 102.241 172.228 101.851 172.143 101.45C171.946 100.52 171.94 99.5642 172.038 98.6182Z" fill="white"/>
<g opacity="0.5">
<path d="M172.143 101.449C171.946 100.521 171.94 99.5652 172.038 98.6182C171.567 98.7772 171.093 98.9442 170.631 99.1122C170.688 100.077 170.833 101.036 171.064 101.975C171.557 102.174 172.044 102.39 172.528 102.62C172.366 102.24 172.228 101.85 172.143 101.449Z" fill="white"/>
</g>
<mask id="mask0_1163_2222" style="mask-type:luminance" maskUnits="userSpaceOnUse" x="166" y="97" width="38" height="13">
<path d="M203.984 104.051C202.635 106.42 199.881 107.586 197.249 108.298C193.196 109.394 188.855 109.792 184.808 108.674C178.374 106.898 173.172 101.474 166.533 100.791C167.07 100.42 173.389 97.9031 175.966 97.5511C185.594 96.2381 195.093 100.131 203.984 104.051Z" fill="white"/>
</mask>
<g mask="url(#mask0_1163_2222)">
<path d="M193.731 91.426C198.223 93.882 199.874 99.515 197.418 104.007C194.962 108.499 189.329 110.15 184.837 107.694C180.345 105.238 178.694 99.605 181.15 95.113C183.606 90.621 189.239 88.97 193.731 91.426Z" fill="white"/>
<path d="M193.137 92.513C197.029 94.641 198.459 99.521 196.331 103.412C194.203 107.304 189.323 108.734 185.432 106.606C181.54 104.478 180.11 99.598 182.238 95.707C184.365 91.816 189.245 90.386 193.137 92.513Z" fill="white"/>
<path d="M188.547 106.449C189.933 106.689 191.271 106.271 192.445 105.531C193.035 105.159 193.566 104.706 194.014 104.171C194.238 103.903 194.447 103.621 194.631 103.323C194.815 103.025 195.035 102.683 195.09 102.334C195.158 101.909 194.665 101.698 194.406 102.046C194.22 102.296 194.112 102.606 193.951 102.874C193.791 103.141 193.614 103.397 193.414 103.635C193.013 104.114 192.544 104.556 192.033 104.917C191.012 105.638 189.767 106.06 188.546 106.294C188.47 106.308 188.469 106.436 188.547 106.449Z" fill="white"/>
<path d="M191.525 95.8379C193.852 97.1099 194.707 100.028 193.435 102.354C192.163 104.681 189.246 105.536 186.919 104.264C184.592 102.992 183.737 100.074 185.009 97.7479C186.281 95.4209 189.198 94.5659 191.525 95.8379Z" fill="white"/>
<path d="M190.464 97.7779C191.719 98.4639 192.18 100.038 191.494 101.294C190.808 102.549 189.234 103.011 187.979 102.324C186.724 101.638 186.262 100.064 186.949 98.8079C187.635 97.5539 189.209 97.0919 190.464 97.7779Z" fill="white"/>
</g>
<path d="M179.717 97.292C188.411 97.044 196.713 100.461 204.546 103.865C202.793 107.295 198.829 108.439 195.371 109.197C187.935 110.96 181.983 108.708 175.794 104.763C172.886 103.06 169.863 101.408 166.512 101.018L165.77 100.932C166.739 100.398 167.773 99.988 168.761 99.631C171.117 98.798 173.488 97.916 175.968 97.552C172.77 98.288 169.606 99.572 166.665 100.979L166.559 100.565C173.501 101.225 178.724 106.711 185.276 108.362C190.31 109.641 200.704 108.639 203.643 103.855L203.827 104.413C196.149 101.004 188.249 97.519 179.717 97.292Z" fill="white"/>
<g opacity="0.5">
<path d="M175.966 97.552C173.714 97.859 168.605 99.82 166.994 100.557C169.645 100.236 172.337 100.269 175.012 100.309C180.407 100.39 185.887 100.483 191.042 102.074C194.173 103.04 197.121 104.542 200.265 105.466C198.03 107.416 195.273 108.555 192.36 109.212C194.011 109.047 195.653 108.73 197.25 108.298C199.882 107.586 202.635 106.42 203.985 104.051C195.093 100.131 185.594 96.238 175.966 97.552Z" fill="white"/>
</g>
<path d="M166.359 100.877C174.292 95.6819 184.846 94.8839 193.802 97.9689C202.514 100.979 209.862 107.14 219.439 105.02C217.478 106.302 215.06 106.88 212.666 107.008C205.617 107.371 198.827 103.544 192.626 101.375C184.163 98.4529 175.093 98.5129 166.359 100.877Z" fill="white"/>
<g opacity="0.25">
<path d="M214.165 88.605C211.19 85.181 206.636 83.111 202.474 81.516C200.293 80.681 198.041 80.056 195.752 79.595C193.538 79.149 191.217 78.703 188.989 79.235C188.341 79.39 188.456 80.233 188.989 80.438C191.083 81.24 193.389 81.36 195.576 81.827C197.649 82.269 199.69 82.862 201.696 83.544C205.941 84.987 209.661 87.378 213.745 89.15C214.1 89.303 214.436 88.916 214.165 88.605Z" fill="white"/>
</g>
<path opacity="0.25" d="M125.842 82.8828C121.497 80.9468 116.695 80.3678 111.921 80.6658C111.513 83.6628 111.218 86.6838 110.733 89.6658C110.968 90.4048 111.23 91.1348 111.525 91.8518C113.26 93.6708 115.227 95.2498 117.463 96.3868C123.395 99.4038 130.45 99.1618 137.107 98.6658C137.261 98.3238 137.396 97.9758 137.516 97.6218C136.739 91.1568 131.832 85.5518 125.842 82.8828Z" fill="white"/>
<path d="M135.918 92.8088C134.438 88.4968 131.202 85.0338 127.368 82.6438C125.431 81.4358 123.309 80.5038 121.107 79.9028C119.123 79.3618 116.344 78.6938 114.345 79.4318C113.96 79.5738 113.902 80.1548 114.345 80.2738C115.291 80.5258 116.293 80.4648 117.262 80.5518C118.39 80.6538 119.513 80.8378 120.614 81.1048C122.737 81.6208 124.77 82.4508 126.655 83.5548C130.468 85.7888 133.449 89.1188 135.661 92.9178C135.739 93.0518 135.971 92.9628 135.918 92.8088Z" fill="white"/>
<g opacity="0.25">
<path d="M115.662 84.9918C117.55 85.0928 119.416 85.4318 121.243 85.9048C122.13 86.1348 123.002 86.4068 123.852 86.7488C124.244 86.9068 124.64 87.0578 125.027 87.2308C125.562 87.4698 126.065 87.8238 126.668 87.8068C127.424 87.7858 128.059 86.9008 127.586 86.2058C127.228 85.6798 126.754 85.4858 126.191 85.2388C125.683 85.0158 125.168 84.7958 124.639 84.6268C123.676 84.3198 122.676 84.1068 121.677 83.9618C119.629 83.6648 117.57 83.8438 115.578 84.3698C115.222 84.4638 115.312 84.9728 115.662 84.9918Z" fill="white"/>
</g>
<g opacity="0.25">
<path d="M113.861 75.7419C115.486 75.6569 117.112 75.4089 118.743 75.4679C120.373 75.5269 121.981 75.8309 123.505 76.4169C124.226 76.6939 125.529 77.2189 125.851 76.1039C126.159 75.0349 124.86 74.5529 124.097 74.2689C122.492 73.6729 120.744 73.3429 119.03 73.3569C117.134 73.3729 115.177 73.6899 113.611 74.8199C113.247 75.0819 113.327 75.7699 113.861 75.7419Z" fill="white"/>
</g>
<path d="M115.48 95.094C114.065 94.826 112.369 95.223 111.065 96.321C111.908 94.84 113.495 93.647 115.434 93.293L115.48 95.094Z" fill="white"/>
<path d="M117.397 97.143C116.127 97.336 114.793 98.373 114.278 99.903C114.199 98.293 115.049 96.501 116.707 95.479L117.397 97.143Z" fill="white"/>
<path d="M121.018 98.778C120.492 98.837 119.831 99.25 119.315 99.762C118.798 100.286 118.334 100.927 118.164 101.712C117.992 99.954 118.749 98.205 120.321 97.116L121.018 98.778Z" fill="white"/>
<path d="M124.707 99.1291C123.759 99.8051 122.713 101.036 122.687 102.33C122.131 100.876 122.625 99.2801 123.386 97.9031L124.707 99.1291Z" fill="white"/>
<path d="M128.107 98.884C127.355 99.628 126.868 100.974 126.86 102.107C126.27 100.818 126.123 99.4421 126.544 97.9871L128.107 98.884Z" fill="white"/>
<path d="M121.595 90.9748C118.6 88.7648 117.459 85.1488 118.12 82.2358C118.658 85.1788 120.983 87.3268 123.216 87.7558L121.595 90.9748Z" fill="white"/>
<path d="M126.168 91.3289C124.612 88.4899 125.187 85.2899 126.827 83.4509C126.248 85.8519 127.417 88.1819 128.931 89.0139L126.168 91.3289Z" fill="white"/>
<path d="M130.347 94.1518C130.179 92.3428 130.565 91.1518 130.982 89.5648C131.421 88.2468 131.858 86.7858 132.869 85.8018C132.264 87.6728 132.752 89.7438 133.176 91.5988C133.336 92.1788 133.562 92.8388 133.788 93.0828L130.347 94.1518Z" fill="white"/>
<mask id="mask1_1163_2222" style="mask-type:luminance" maskUnits="userSpaceOnUse" x="114" y="89" width="24" height="11">
<path d="M118.44 89.6877C123.622 88.9217 129.073 90.1567 133.42 93.0807C135.498 94.4787 137.452 96.5087 137.57 99.0097C134.729 98.1527 131.685 98.4497 128.733 98.7527C125.781 99.0557 122.736 99.3497 119.897 98.4857C117.058 97.6217 114.448 95.2967 114.197 92.3397C115.537 91.1907 116.695 89.9457 118.44 89.6877Z" fill="white"/>
</mask>
<g mask="url(#mask1_1163_2222)">
<path d="M118.44 89.6877C123.622 88.9217 129.073 90.1567 133.42 93.0807C135.498 94.4787 137.452 96.5087 137.57 99.0097C134.729 98.1527 131.685 98.4497 128.733 98.7527C125.781 99.0557 122.736 99.3497 119.897 98.4857C117.058 97.6217 114.448 95.2967 114.197 92.3397C115.537 91.1907 116.695 89.9457 118.44 89.6877Z" fill="white"/>
</g>
<mask id="mask2_1163_2222" style="mask-type:luminance" maskUnits="userSpaceOnUse" x="114" y="89" width="24" height="11">
<path d="M118.44 89.6877C123.622 88.9217 129.073 90.1567 133.42 93.0807C135.498 94.4787 137.452 96.5087 137.57 99.0097C134.729 98.1527 131.685 98.4497 128.733 98.7527C125.781 99.0557 122.736 99.3497 119.897 98.4857C117.058 97.6217 114.448 95.2967 114.197 92.3397C115.537 91.1907 116.695 89.9457 118.44 89.6877Z" fill="white"/>
</mask>
<g mask="url(#mask2_1163_2222)">
<path d="M139.827 90.4826C140.344 95.5766 136.633 100.125 131.539 100.641C126.445 101.158 121.897 97.4467 121.381 92.3527C120.865 87.2587 124.575 82.7106 129.669 82.1946C134.763 81.6786 139.311 85.3886 139.827 90.4826Z" fill="white"/>
<path d="M138.594 90.6077C139.042 95.0207 135.827 98.9607 131.414 99.4077C127.001 99.8547 123.061 96.6407 122.614 92.2277C122.167 87.8147 125.381 83.8747 129.794 83.4277C134.207 82.9807 138.147 86.1947 138.594 90.6077Z" fill="white"/>
<path d="M124.513 94.7218C125.447 96.7528 127.791 97.8818 129.952 97.9598C130.447 97.9778 131.168 98.0137 131.615 97.7697C131.797 97.6697 131.911 97.4608 131.811 97.2598C131.667 96.9698 131.316 97.0458 131.06 97.0848C129.955 97.2518 128.819 97.0987 127.769 96.7247C126.588 96.3037 125.527 95.4988 124.641 94.6238C124.571 94.5558 124.476 94.6418 124.513 94.7218Z" fill="white"/>
<path d="M134.941 91.1605C135.209 93.7985 133.287 96.1545 130.648 96.4215C128.01 96.6885 125.654 94.7675 125.387 92.1285C125.12 89.4895 127.041 87.1345 129.68 86.8675C132.318 86.6005 134.674 88.5225 134.941 91.1605Z" fill="white"/>
<path d="M132.741 91.3835C132.885 92.8065 131.848 94.0776 130.425 94.2226C129.002 94.3666 127.731 93.3296 127.587 91.9066C127.443 90.4836 128.479 89.2126 129.903 89.0676C131.326 88.9236 132.597 89.9605 132.741 91.3835Z" fill="white"/>
</g>
<mask id="mask3_1163_2222" style="mask-type:luminance" maskUnits="userSpaceOnUse" x="114" y="89" width="24" height="11">
<path d="M118.44 89.6877C123.622 88.9217 129.073 90.1567 133.42 93.0807C135.498 94.4787 137.452 96.5087 137.57 99.0097C134.729 98.1527 131.685 98.4497 128.733 98.7527C125.781 99.0557 122.736 99.3497 119.897 98.4857C117.058 97.6217 114.448 95.2967 114.197 92.3397C115.537 91.1907 116.695 89.9457 118.44 89.6877Z" fill="white"/>
</mask>
<g mask="url(#mask3_1163_2222)">
<path d="M135.877 95.2178C135.407 96.3998 134.744 97.5038 133.908 98.4618C135.15 98.4998 136.378 98.6488 137.57 99.0088C137.503 97.5788 136.825 96.3098 135.877 95.2178Z" fill="white"/>
<g opacity="0.5">
<path d="M135.877 95.2178C135.407 96.3998 134.744 97.5038 133.908 98.4618C134.416 98.4778 134.921 98.5178 135.423 98.5778C135.925 97.8738 136.35 97.1158 136.686 96.3178C136.45 95.9348 136.18 95.5658 135.877 95.2178Z" fill="white"/>
</g>
</g>
<mask id="mask4_1163_2222" style="mask-type:luminance" maskUnits="userSpaceOnUse" x="114" y="89" width="24" height="11">
<path d="M118.44 89.6877C123.622 88.9217 129.073 90.1567 133.42 93.0807C135.498 94.4787 137.452 96.5087 137.57 99.0097C134.729 98.1527 131.685 98.4497 128.733 98.7527C125.781 99.0557 122.736 99.3497 119.897 98.4857C117.058 97.6217 114.448 95.2967 114.197 92.3397C115.537 91.1907 116.695 89.9457 118.44 89.6877Z" fill="white"/>
</mask>
<g mask="url(#mask4_1163_2222)">
<g opacity="0.5">
<path d="M116.695 93.4806C121.277 92.6206 126.174 91.7896 130.469 93.6046C133.17 94.7456 135.34 96.8256 137.365 98.9576C137.433 98.9766 137.503 98.9886 137.571 99.0086C137.453 96.5076 135.498 94.4776 133.421 93.0796C129.075 90.1556 123.623 88.9216 118.441 89.6866C116.695 89.9446 115.538 91.1896 114.198 92.3386C114.449 95.2956 117.059 97.6206 119.898 98.4846C121.322 98.9176 122.798 99.0596 124.288 99.0556C121.246 98.0736 118.512 96.1146 116.695 93.4806Z" fill="white"/>
</g>
</g>
<path d="M136.126 95.4968C137.02 96.5008 137.671 97.7978 137.724 99.1938C135.533 98.5838 133.237 98.6287 130.979 98.8447C126.595 99.2877 121.767 100.323 117.661 97.9767C115.663 96.8437 113.974 94.8098 113.779 92.3758L113.762 92.1588C114.48 91.5638 115.147 90.9127 115.95 90.3407C118.16 88.7387 121.195 89.0808 123.769 89.2938C127.258 89.7078 130.618 91.0388 133.42 93.0808C129.018 90.3988 123.702 89.2678 118.609 90.0568C116.986 90.2408 115.781 91.5088 114.471 92.6588L114.616 92.3048C114.796 94.3868 116.311 96.1418 118.106 97.2208C121.955 99.4858 126.658 98.4598 130.932 98.2448C133.155 98.1128 135.464 98.1428 137.61 98.8758L137.431 99.0158C137.418 97.7548 136.883 96.5318 136.126 95.4968Z" fill="white"/>
<path d="M117.554 156.086C125.812 153.079 135.497 152.476 143.034 156.996C147.711 159.801 151.182 164.326 155.917 167.032C152.845 170.149 149.003 172.373 145.211 174.559C143.406 175.599 141.548 176.659 139.49 176.982C137.752 177.255 135.98 176.984 134.241 176.714C130.417 176.119 126.593 175.525 122.768 174.93C121.345 174.709 119.885 174.475 118.634 173.761C117.165 172.923 116.123 171.5 115.286 170.03C113.446 166.797 112.386 163.123 112.222 159.406C113.681 158.131 115.732 156.75 117.554 156.086Z" fill="white"/>
<path opacity="0.5" d="M118.167 162.208C119.299 163.436 120.87 164.154 122.431 164.75C129.624 167.494 137.564 168.252 145.146 166.917C146.026 166.762 146.963 166.545 147.563 165.884C148.789 164.531 147.824 162.31 146.459 161.096C144.687 159.521 142.396 158.686 140.165 157.886C134.233 155.759 127.704 153.623 121.782 155.777C118.581 156.942 114.537 158.271 118.167 162.208Z" fill="white"/>
<path d="M117.753 159.6C126.74 161.131 136.077 160.804 144.771 163.545C142.824 160.21 140.276 157.097 136.613 155.873C134.749 155.25 132.767 155.08 130.804 154.981C128.441 154.862 126.041 154.844 123.747 155.422C121.453 156 119.08 157.642 117.753 159.6Z" fill="white"/>
<path d="M155.072 166.886C150.381 167.48 146.053 164.527 142.268 161.694C138.482 158.861 134.222 155.851 129.516 156.308C126.482 156.603 123.804 158.314 121.009 159.531C118.214 160.748 114.804 161.437 112.241 159.786C113.682 156.04 115.149 152.133 117.771 149.093C120.076 146.421 123.182 143.956 126.706 144.147C128.33 144.235 129.88 144.889 131.502 145.009C133 145.12 134.49 144.774 135.989 144.678C139.097 144.48 142.267 145.125 144.493 147.304C146.719 149.483 148.153 152.324 149.547 155.109C151.284 158.579 153.336 163.418 155.072 166.886Z" fill="white"/>
<path opacity="0.5" d="M155.072 166.886C150.381 167.48 146.053 164.527 142.268 161.694C138.482 158.861 134.222 155.851 129.516 156.308C126.482 156.603 123.804 158.314 121.009 159.531C118.214 160.748 114.804 161.437 112.241 159.786C113.682 156.04 115.149 152.133 117.771 149.093C120.076 146.421 123.182 143.956 126.706 144.147C128.33 144.235 129.88 144.889 131.502 145.009C133 145.12 134.49 144.774 135.989 144.678C139.097 144.48 142.267 145.125 144.493 147.304C146.719 149.483 148.153 152.324 149.547 155.109C151.284 158.579 153.336 163.418 155.072 166.886Z" fill="white"/>
<path opacity="0.5" d="M149.547 155.11C149.276 154.569 149.002 154.027 148.723 153.488C148.758 153.708 148.805 153.926 148.828 154.148C148.997 155.832 148.662 157.77 147.258 158.716C145.639 159.807 143.437 159.076 141.744 158.102C139.593 156.865 137.65 155.284 135.459 154.12C133.268 152.955 130.699 152.22 128.301 152.855C126.387 153.362 124.722 154.702 122.753 154.908C120.719 155.121 118.612 153.941 117.731 152.095C117.377 151.355 117.24 150.529 117.286 149.711C114.973 152.653 113.591 156.286 112.244 159.787C114.806 161.439 118.217 160.75 121.011 159.532C123.806 158.315 126.484 156.604 129.518 156.309C134.224 155.852 138.484 158.862 142.27 161.695C146.056 164.528 150.384 167.48 155.074 166.887C153.336 163.417 151.284 158.579 149.547 155.11Z" fill="white"/>
<path d="M110.687 159.092C114.996 159.722 118.998 159.001 122.867 157.114C133.983 151.252 138.555 158.355 147.622 163.054C151.343 164.832 155.434 165.933 159.789 166.4C155.517 167.44 150.864 167.116 146.571 165.663C142.399 164.406 138.793 161.436 135.051 159.613C131.219 157.561 127.871 158.38 123.848 159.739C119.652 161.211 114.628 161.255 110.687 159.092Z" fill="white"/>
<g opacity="0.25">
<path d="M120.833 148.893C120.704 149.38 120.686 149.878 120.792 150.372C120.891 150.835 121.112 151.457 121.6 151.634C122.11 151.82 122.552 151.501 122.841 151.101C123.208 150.592 123.493 150.025 123.847 149.508C123.484 149.555 123.121 149.601 122.758 149.648C123.044 149.995 123.387 150.27 123.727 150.563C124.238 151.003 125.046 150.717 125.066 150.009C125.066 150.021 125.083 150.078 125.024 150.026C125.119 150.111 125.309 150.148 125.423 150.245C125.866 150.621 126.486 150.574 126.811 150.066C126.908 149.915 126.994 149.738 127.106 149.599C126.673 149.599 126.239 149.599 125.806 149.599C126.138 149.867 126.497 150.052 126.872 150.252C127.711 150.699 128.749 149.777 128.216 148.907C128.466 149.315 128.2 149.602 127.889 149.65C128.224 149.599 127.648 149.704 127.664 149.667C127.663 149.669 127.917 150.031 127.941 150.07C128.26 150.577 128.601 150.939 129.162 151.165C130.114 151.548 130.989 150.049 130.183 149.411C129.822 149.126 129.716 148.913 129.374 148.492C129.019 148.056 128.546 147.733 127.975 147.683C126.863 147.584 125.817 148.882 126.518 149.899C126.966 149.451 127.414 149.003 127.862 148.555C127.484 148.379 127.104 148.164 126.699 148.062C126.341 147.972 125.825 148.113 125.661 148.485C125.555 148.724 125.414 148.947 125.284 149.174C125.687 149.068 126.09 148.963 126.493 148.857C125.423 148.032 123.47 148.424 123.497 150.009C123.943 149.824 124.389 149.639 124.836 149.455C124.434 149.139 124.049 148.804 123.598 148.56C123.166 148.327 122.752 148.557 122.58 148.974C122.444 149.305 122.277 149.626 122.126 149.95C122.06 150.092 121.997 150.237 121.927 150.377C121.89 150.45 121.733 150.636 121.828 150.621C121.916 150.607 121.689 150.372 121.643 150.297C121.568 150.176 121.504 150.048 121.453 149.914C121.335 149.606 121.294 149.285 121.3 148.956C121.305 148.688 120.902 148.633 120.833 148.893Z" fill="white"/>
</g>
<g opacity="0.25">
<path d="M131.951 149.237C132.221 149.372 132.248 149.638 132.346 149.873C132.378 149.95 132.334 149.797 132.366 149.93C132.38 149.99 132.387 150.182 132.387 149.988C132.387 150.144 132.401 150.295 132.394 150.452C132.371 150.949 132.792 151.372 133.261 151.435C133.704 151.494 134.285 151.211 134.359 150.718C134.388 150.52 134.441 150.335 134.499 150.145C134.541 150.037 134.539 150.039 134.493 150.152C134.517 150.101 134.542 150.05 134.568 150.001C134.614 149.914 134.665 149.829 134.72 149.747C134.743 149.712 134.767 149.677 134.793 149.643C134.719 149.738 134.718 149.741 134.792 149.652C134.861 149.581 134.925 149.507 134.998 149.44C135.038 149.402 135.278 149.23 135.083 149.361C135.177 149.298 135.271 149.238 135.37 149.182C134.861 148.975 134.353 148.768 133.844 148.561C134.175 149.439 134.506 150.317 134.836 151.194C135.006 151.645 135.37 151.985 135.876 151.986C136.615 151.987 137.204 151.506 137.518 150.863C137.597 150.701 137.665 150.532 137.732 150.365C137.75 150.321 137.765 150.276 137.784 150.232C137.731 150.358 137.745 150.371 137.8 150.243C137.85 150.125 137.682 150.353 137.776 150.268C137.815 150.233 137.866 150.145 137.92 150.131C137.88 150.142 137.746 150.246 137.878 150.182C137.729 150.254 138.443 149.775 138.022 150.056C138.645 149.641 138.674 148.756 138.022 148.347C137.19 147.824 136.255 148.43 135.857 149.203C135.772 149.367 135.707 149.542 135.643 149.715C135.626 149.76 135.609 149.805 135.593 149.851C135.526 150.038 135.675 149.721 135.601 149.828C135.575 149.866 135.554 149.916 135.533 149.957C135.461 150.098 135.487 150.017 135.562 149.935C135.466 150.041 135.594 149.921 135.636 149.893C135.558 149.935 135.564 149.935 135.652 149.89C135.721 149.849 135.796 149.829 135.878 149.83C136.225 150.094 136.571 150.358 136.918 150.622C136.562 149.751 136.205 148.88 135.849 148.01C135.721 147.698 135.568 147.472 135.248 147.337C134.948 147.21 134.609 147.218 134.324 147.389C133.204 148.06 132.551 149.174 132.398 150.453C133.065 150.453 133.732 150.453 134.399 150.453C134.366 149.773 133.994 149.158 133.376 148.848C132.893 148.606 132.415 148.722 131.956 148.947C131.841 149 131.842 149.182 131.951 149.237Z" fill="white"/>
</g>
<g opacity="0.25">
<path d="M139.356 150.121C139.361 150.611 139.336 151.107 139.361 151.596C139.373 151.842 139.387 152.088 139.404 152.333C139.435 152.77 139.585 153.188 139.979 153.427C140.664 153.842 141.405 153.468 141.828 152.884C141.926 152.749 141.979 152.597 142.057 152.45C142.075 152.415 142.098 152.381 142.116 152.346C142.193 152.197 141.958 152.488 142.076 152.393C142.205 152.288 141.867 152.506 142.011 152.438C141.835 152.521 141.695 152.524 141.502 152.497C141.277 152.272 141.051 152.046 140.826 151.821C141.009 152.468 141.279 153.108 141.864 153.49C142.522 153.92 143.634 153.915 144.033 153.126C144.205 152.786 144.199 152.402 143.96 152.093C143.721 151.784 143.358 151.686 142.982 151.76C143.407 151.676 142.936 151.761 142.858 151.781C142.816 151.791 142.776 151.807 142.733 151.816C142.821 151.804 142.908 151.793 142.996 151.781C142.906 151.793 142.818 151.788 142.728 151.779C142.816 151.791 142.905 151.803 142.993 151.815C142.934 151.806 142.871 151.778 142.813 151.772C142.97 151.843 143.014 151.861 142.944 151.826C142.923 151.816 142.903 151.805 142.883 151.792C142.736 151.72 143.076 151.974 142.914 151.81C142.754 151.648 143.008 151.979 142.917 151.822C142.89 151.776 142.86 151.731 142.834 151.683C142.817 151.651 142.801 151.619 142.785 151.586C142.743 151.493 142.754 151.52 142.819 151.669C142.796 151.549 142.73 151.424 142.691 151.307C142.544 150.867 142.206 150.639 141.758 150.597C141.181 150.542 140.663 150.977 140.424 151.469C140.364 151.593 140.313 151.721 140.261 151.849C140.248 151.881 140.24 151.928 140.22 151.956C140.247 151.92 140.326 151.74 140.244 151.876C140.155 152.021 140.29 151.849 140.291 151.821C140.289 151.847 140.132 151.958 140.283 151.844C140.443 151.722 140.278 151.851 140.268 151.843C140.317 151.821 140.366 151.799 140.415 151.777C140.501 151.75 140.587 151.745 140.673 151.764C140.764 151.764 140.844 151.796 140.913 151.862C141.019 151.897 141.099 151.963 141.153 152.058C141.147 152.033 141.123 151.993 141.107 151.972C141.163 152.108 141.175 152.139 141.145 152.065C141.136 152.044 141.127 152.022 141.119 152.001C141.097 151.948 141.075 151.894 141.053 151.841C140.95 151.59 140.854 151.334 140.738 151.089C140.551 150.692 140.353 150.3 140.167 149.903C139.979 149.499 139.352 149.71 139.356 150.121Z" fill="white"/>
</g>
<g opacity="0.25">
<path d="M145.845 155.794C145.995 155.589 146.145 155.384 146.294 155.18C146.26 155.224 146.225 155.269 146.191 155.314C146.195 155.31 146.2 155.306 146.204 155.301C146.159 155.336 146.114 155.371 146.069 155.405C146.088 155.395 146.106 155.385 146.125 155.375C146.134 155.37 146.144 155.365 146.153 155.36C146.203 155.321 146.253 155.283 146.303 155.244C146.375 155.177 146.426 155.098 146.456 155.006C146.501 154.899 146.496 154.917 146.511 154.801C146.517 154.755 146.523 154.719 146.525 154.676C146.526 154.649 146.528 154.622 146.529 154.596C146.521 154.534 146.513 154.473 146.504 154.411C146.481 154.356 146.457 154.3 146.434 154.245C146.398 154.198 146.361 154.151 146.325 154.104C146.262 154.036 146.187 153.988 146.101 153.96C146.047 153.929 145.988 153.913 145.925 153.912C145.863 153.896 145.802 153.896 145.74 153.912C145.677 153.912 145.619 153.928 145.564 153.96C145.478 153.988 145.403 154.036 145.34 154.104C145.323 154.121 145.306 154.139 145.289 154.156C145.281 154.165 145.272 154.173 145.264 154.182C145.226 154.232 145.187 154.281 145.149 154.331C145.127 154.363 145.111 154.398 145.101 154.436C145.067 154.494 145.051 154.556 145.05 154.623C145.032 154.689 145.032 154.754 145.05 154.82C145.057 154.868 145.058 154.899 145.069 154.94C145.075 154.962 145.08 154.984 145.086 155.006C145.078 154.947 145.07 154.888 145.062 154.828C145.062 154.834 145.062 154.84 145.061 154.846C145.069 154.788 145.077 154.729 145.085 154.67C145.036 154.917 144.987 155.165 144.938 155.412C144.913 155.538 144.915 155.681 144.988 155.793C145.047 155.885 145.123 155.953 145.225 155.995C145.323 156.037 145.443 156.054 145.547 156.02C145.586 156.003 145.626 155.987 145.665 155.97C145.742 155.927 145.801 155.868 145.845 155.794Z" fill="white"/>
</g>
<g opacity="0.25">
<path d="M117.323 163.998C116.964 164.091 116.617 164.303 116.368 164.578C116.237 164.723 116.107 164.887 116.022 165.065C115.911 165.295 115.859 165.452 115.84 165.707C115.834 165.783 115.835 165.857 115.842 165.933C115.843 166.118 115.889 166.291 115.982 166.451C116.046 166.571 116.135 166.667 116.246 166.739C116.496 166.932 116.83 167.021 117.141 166.923C117.494 166.812 117.837 166.647 118.143 166.439C118.449 166.23 118.743 165.994 118.992 165.719C118.407 165.565 117.823 165.41 117.238 165.256C117.289 165.404 117.325 165.554 117.346 165.709C117.334 165.616 117.321 165.522 117.308 165.429C117.331 165.62 117.331 165.811 117.308 166.002C117.32 165.908 117.333 165.815 117.346 165.721C117.31 165.982 117.226 166.222 117.215 166.49C117.227 166.582 117.24 166.673 117.252 166.765C117.284 166.899 117.346 167.017 117.437 167.117C117.569 167.288 117.757 167.438 117.974 167.487C118.156 167.528 118.342 167.528 118.523 167.487C118.797 167.425 118.982 167.226 119.141 167.012C119.269 166.84 119.329 166.618 119.365 166.408C119.402 166.193 119.435 165.971 119.436 165.752C119.437 165.399 119.383 165.031 119.263 164.699C119.135 164.347 118.904 164.069 118.53 163.966C118.186 163.871 117.753 163.961 117.509 164.236C117.355 164.409 117.187 164.567 117.004 164.708C117.075 164.653 117.145 164.599 117.215 164.545C116.947 164.749 116.654 164.905 116.349 165.047C116.852 165.252 117.355 165.456 117.858 165.661C117.849 165.622 117.842 165.583 117.836 165.543C117.848 165.633 117.86 165.724 117.872 165.814C117.848 165.619 117.817 165.425 117.79 165.231C117.801 165.315 117.813 165.399 117.824 165.484C117.81 165.369 117.809 165.255 117.823 165.14C117.813 165.214 117.803 165.288 117.793 165.362C117.809 165.247 117.838 165.136 117.882 165.029C117.858 165.087 117.833 165.144 117.809 165.202C117.833 165.148 117.859 165.096 117.889 165.046C117.904 165.022 117.92 164.998 117.935 164.975C117.991 164.889 117.836 165.097 117.909 165.01C118.077 164.81 118.156 164.515 118.003 164.278C117.858 164.048 117.591 163.929 117.323 163.998Z" fill="white"/>
</g>
<g opacity="0.25">
<path d="M119.93 167.402C119.438 168.032 119.154 168.901 119.439 169.684C119.573 170.051 119.98 170.391 120.4 170.23C121.199 169.924 121.769 169.453 122.34 168.83C121.845 168.625 121.35 168.42 120.854 168.215C120.882 168.865 120.994 169.567 121.16 170.198C121.378 171.027 122.212 171.569 123.034 171.153C123.288 171.024 123.489 170.822 123.691 170.625C123.772 170.546 123.757 170.587 123.682 170.631C123.627 170.663 123.536 170.675 123.649 170.649C123.589 170.663 123.478 170.656 123.602 170.659C123.732 170.662 123.607 170.673 123.558 170.65C123.596 170.668 123.652 170.679 123.694 170.69C123.625 170.672 123.569 170.629 123.665 170.687C123.809 170.775 123.618 170.609 123.68 170.69C123.706 170.723 123.75 170.765 123.782 170.793C123.875 170.872 123.699 170.674 123.761 170.776C123.83 170.892 123.695 170.624 123.753 170.743C123.778 170.796 123.756 170.895 123.771 170.788C123.798 170.59 123.702 171.031 123.771 170.695C123.676 171.154 123.866 171.627 124.318 171.809C124.741 171.979 125.266 171.842 125.497 171.422C125.547 171.341 125.552 171.327 125.512 171.38C125.469 171.431 125.48 171.421 125.545 171.352C125.525 171.368 125.504 171.384 125.484 171.399C125.569 171.354 125.58 171.345 125.518 171.372C125.455 171.396 125.469 171.393 125.56 171.364C125.53 171.367 125.5 171.37 125.47 171.373C125.567 171.376 125.579 171.373 125.508 171.365C125.468 171.363 125.431 171.351 125.397 171.329C125.379 171.312 125.361 171.295 125.343 171.278C125.412 171.351 125.425 171.36 125.384 171.306C125.303 171.216 125.44 171.402 125.455 171.423C125.813 171.946 125.299 171.305 125.71 171.763C125.758 171.817 125.811 171.865 125.857 171.921C126.21 172.349 126.905 172.17 127.163 171.753C127.742 170.815 126.981 169.753 126.013 169.536C125.173 169.349 124.284 169.695 123.867 170.469C124.443 170.712 125.018 170.954 125.594 171.197C125.724 170.539 125.554 169.926 125.09 169.435C124.696 169.018 124.08 168.74 123.502 168.785C123.115 168.815 122.787 168.946 122.485 169.193C122.397 169.265 122.317 169.343 122.235 169.423C122.2 169.457 122.127 169.504 122.104 169.546C122.162 169.438 122.849 169.571 122.906 169.634C122.955 169.688 122.949 169.761 122.964 169.703C122.973 169.669 122.933 169.564 122.925 169.529C122.889 169.356 122.855 169.183 122.821 169.01C122.751 168.661 122.684 168.321 122.567 167.985C122.452 167.656 122.202 167.404 121.844 167.362C121.522 167.324 121.128 167.464 120.977 167.777C120.754 168.239 120.299 168.57 119.802 168.804C120.158 168.897 120.515 168.991 120.871 169.084C120.689 168.679 120.602 168.309 120.727 167.867C120.845 167.438 120.234 167.013 119.93 167.402Z" fill="white"/>
</g>
<g opacity="0.25">
<path d="M129.944 171.112C129.396 170.723 129.108 171.695 129.323 172.071C129.8 172.907 130.658 171.916 131.205 171.73C130.954 171.588 130.703 171.445 130.452 171.303C130.586 171.782 130.833 172.215 130.949 172.703C131.004 172.933 131.227 173.182 131.469 173.223C131.875 173.291 132.216 173.231 132.558 172.998C132.704 172.899 132.83 172.776 132.969 172.669C132.961 172.675 133.07 172.578 133.035 172.618C133.147 172.489 133.102 172.62 133.031 172.613C132.901 172.578 132.77 172.543 132.64 172.507C132.566 172.382 132.569 172.388 132.648 172.524C132.67 172.559 132.693 172.594 132.715 172.629C132.825 172.808 132.936 172.986 133.046 173.165C133.251 173.497 133.449 173.834 133.668 174.157C134.008 174.661 134.688 174.79 135.146 174.347C135.728 173.785 136.289 173.162 136.92 172.655C136.414 172.59 135.908 172.525 135.402 172.459C135.794 173.106 136.262 173.69 136.729 174.285C137.104 174.762 137.938 174.68 138.325 174.285C138.617 173.986 138.776 173.613 138.778 173.194C138.779 173.098 138.765 173.006 138.756 172.911C138.723 172.585 138.764 172.853 138.667 172.989C138.533 173.123 138.4 173.256 138.266 173.39C138.078 173.528 137.716 173.438 137.522 173.369C137.636 173.41 137.551 173.392 137.487 173.335C137.579 173.418 137.667 173.506 137.761 173.587C138.043 173.832 138.344 173.963 138.722 173.918C138.935 173.893 139.083 173.786 139.274 173.705C139.531 173.595 139.715 173.232 139.699 172.963C139.679 172.616 139.529 172.383 139.236 172.197C139.382 172.451 139.527 172.705 139.673 172.959C139.726 172.118 138.725 171.234 137.893 171.231C137.307 171.228 136.752 171.628 136.578 172.187C136.515 172.389 136.491 172.604 136.501 172.816C136.504 172.88 136.515 172.944 136.52 173.007C136.548 173.41 136.419 172.994 136.729 172.689C137.261 172.689 137.793 172.689 138.325 172.689C137.873 172.198 137.429 171.72 136.92 171.287C136.548 170.97 135.912 170.863 135.553 171.287C135.03 171.904 134.393 172.449 133.816 173.015C134.309 173.078 134.801 173.142 135.294 173.205C134.987 172.758 134.649 172.329 134.323 171.896C133.999 171.465 133.658 171.073 133.073 171.061C132.706 171.053 132.397 171.185 132.114 171.407C131.988 171.506 131.875 171.617 131.752 171.718C131.631 171.818 131.794 171.773 131.667 171.757C131.906 171.939 132.145 172.121 132.384 172.303C132.195 171.638 131.915 171.028 131.351 170.607C131.105 170.423 130.639 170.549 130.514 170.826C130.361 171.164 129.914 171.392 129.605 171.572C129.756 171.572 129.907 171.572 130.058 171.572C130.017 171.554 130.077 171.206 129.944 171.112Z" fill="white"/>
</g>
<g opacity="0.25">
<path d="M140.01 171.511C140.14 171.6 140.304 171.837 140.554 171.939C140.888 172.075 141.204 172.069 141.557 172.01C141.779 171.973 141.998 171.921 142.216 171.864C142.309 171.84 142.401 171.815 142.493 171.789C142.609 171.758 142.626 171.753 142.543 171.774C142.665 171.776 142.787 171.763 142.907 171.737C143.376 171.64 143.837 171.461 144.295 171.321C144.883 171.141 145.525 171.016 146.005 170.614C146.307 170.362 146.352 169.864 146.211 169.528C146.05 169.148 145.707 168.946 145.302 168.917C144.788 168.88 144.226 169.167 143.747 169.331C143.323 169.476 142.891 169.608 142.472 169.766C142.323 169.822 142.184 169.877 142.054 169.967C141.958 170.026 141.941 170.041 142.003 170.011C141.958 170.028 141.913 170.044 141.868 170.061C141.672 170.133 141.475 170.203 141.274 170.262C141.017 170.338 140.779 170.394 140.538 170.522C140.433 170.578 140.329 170.634 140.243 170.72C140.12 170.883 140.092 170.918 140.159 170.826C140.209 170.815 140.189 170.821 140.098 170.843C139.774 170.924 139.76 171.341 140.01 171.511Z" fill="white"/>
</g>
<g opacity="0.25">
<path d="M129.231 136.815C127.211 138.228 126.908 141.302 128.756 142.996C129.664 143.828 130.943 144.299 132.176 144.164C133.502 144.019 134.622 143.316 135.348 142.197C135.747 141.583 135.969 140.889 136.004 140.159C136.022 139.777 135.994 139.347 135.845 138.993C135.703 138.655 135.499 138.236 135.146 138.085C134.835 137.951 134.431 137.976 134.252 138.319C134.12 138.573 134.101 138.835 134.086 139.115C134.095 138.941 134.092 139.062 134.086 139.105C134.066 139.236 134.056 139.318 134.05 139.434C134.044 139.569 134.034 139.702 134.021 139.837C134.016 139.891 133.983 140.021 134.027 139.811C134.019 139.85 134.014 139.89 134.006 139.929C133.984 140.034 133.96 140.139 133.93 140.242C133.866 140.463 133.802 140.683 133.717 140.897C133.808 140.667 133.681 140.955 133.648 141.015C133.597 141.11 133.541 141.203 133.481 141.292C133.451 141.337 133.418 141.38 133.389 141.424C133.501 141.255 133.433 141.369 133.399 141.407C133.309 141.508 133.22 141.607 133.121 141.699C133.065 141.751 132.83 141.905 133.013 141.796C132.92 141.851 132.834 141.917 132.74 141.97C132.682 142.003 132.404 142.124 132.613 142.044C132.512 142.082 132.411 142.119 132.307 142.148C132.203 142.177 132.099 142.199 131.993 142.22C131.81 142.258 131.978 142.222 132.014 142.219C131.96 142.223 131.907 142.229 131.853 142.232C131.745 142.238 131.638 142.239 131.53 142.236C131.476 142.235 131.422 142.233 131.368 142.23C131.336 142.228 131.069 142.196 131.3 142.231C131.086 142.199 130.875 142.149 130.669 142.08C130.618 142.063 130.568 142.043 130.517 142.025C130.552 142.037 130.672 142.101 130.513 142.023C130.404 141.969 130.296 141.915 130.191 141.853C130.099 141.798 130.009 141.739 129.923 141.676C129.812 141.594 130.016 141.757 129.913 141.665C129.883 141.638 129.852 141.612 129.822 141.585C129.743 141.512 129.672 141.432 129.596 141.355C129.487 141.245 129.551 141.307 129.577 141.341C129.527 141.277 129.482 141.208 129.438 141.14C129.38 141.049 129.331 140.953 129.28 140.858C129.27 140.839 129.214 140.714 129.265 140.835C129.244 140.786 129.226 140.734 129.209 140.684C129.135 140.469 129.086 140.245 129.044 140.021C129.041 140.005 129.019 139.843 129.028 139.925C129.036 140 129.02 139.803 129.019 139.785C129.011 139.65 129.012 139.516 129.019 139.381C129.03 139.155 129.052 139.009 129.118 138.766C129.242 138.308 129.473 137.9 129.804 137.56C130.169 137.188 129.687 136.495 129.231 136.815Z" fill="white"/>
</g>
<g opacity="0.25">
<path d="M244.647 94.476C243.523 90.016 241.809 85.728 240.02 81.491C234.944 69.47 229.022 57.453 219.617 48.409C207.284 36.549 190.315 31.034 173.843 26.406C169.249 25.115 163.988 24.515 159.259 25.147C155.233 25.685 151.381 27.034 147.789 28.933C160.025 26.762 173.185 29.718 184.136 35.88C197.929 43.641 208.636 55.941 217.495 69.056C223.297 77.645 228.566 87.117 229.162 97.464C229.432 102.15 228.727 106.832 228.024 111.473C226.791 119.616 225.293 128.316 219.589 134.256C215.525 138.488 209.851 140.723 204.307 142.646C193.135 146.52 181.7 149.633 170.105 151.955C177.927 154.252 186.091 155.383 194.243 155.3C196.839 155.273 199.48 155.129 201.99 155.79C204.501 156.451 206.922 158.093 207.743 160.556C208.368 162.43 207.994 164.475 207.583 166.407C205.406 176.631 202.299 186.653 198.346 196.33C204.533 193.551 210.533 190.359 216.284 186.764C237.504 173.5 242.693 145.522 245.682 120.678C246.734 111.949 246.795 102.999 244.647 94.476Z" fill="white"/>
<path d="M99.4805 126.953C99.3165 131.167 99.6555 135.424 100.096 139.628C100.4 142.541 100.765 145.447 101.161 148.349C103.701 150.859 106.461 153.145 109.413 155.155C104.467 146.442 101.101 136.84 99.4805 126.953Z" fill="white"/>
</g>
<path d="M247.623 97.032C244.891 86.305 242.16 75.577 239.429 64.85C237.969 59.116 236.45 53.249 233.104 48.37C230.872 45.116 227.911 42.432 224.845 39.949C220.668 36.566 216.241 33.493 211.612 30.762C202.443 25.353 192.512 21.308 182.328 18.209C174.958 15.967 167.247 14.199 159.598 15.114C152.095 16.012 145.082 19.465 138.984 23.927C132.886 28.389 127.603 33.853 122.353 39.287C119.955 41.77 117.517 44.307 115.996 47.406C114.704 50.038 114.133 52.956 113.576 55.835C112.137 63.266 110.691 70.846 111.621 78.357C116.148 66.359 121.866 54.025 130.567 44.605C139.268 35.185 151.475 28.391 164.297 28.575C179.226 28.789 192.323 38.032 204.289 46.962C208.018 49.745 211.747 52.539 215.235 55.619C228.737 67.544 238.433 81.537 247.623 97.032Z" fill="#281A10"/>
<path d="M196.787 293.762C193.653 265.792 190.576 237.004 198.106 209.885C201.643 197.146 207.43 185.164 213.186 173.261C219.953 159.269 233.2 146.583 233.75 131.05C234.545 108.611 233.49 85.9441 228.097 64.1481C226.243 56.6561 223.762 49.0661 218.743 43.2031C214.127 37.8101 207.739 34.3081 201.499 30.9231C195.987 27.9331 190.476 24.9441 184.964 21.9551C176.219 17.2121 167.474 12.4681 158.729 7.72509C156.193 6.35009 153.657 4.97409 151.091 3.65509C156.474 1.34309 161.857 0.113096 167.716 0.067096C179.558 -0.025904 191.408 -0.119902 203.234 0.508098C207.438 0.731098 211.681 1.0531 215.702 2.2981C221.338 4.0431 226.252 7.50209 231.349 10.4731C236.291 13.3541 241.48 15.8101 246.841 17.8051C251.274 19.4551 255.887 20.8211 259.819 23.4501C263.626 25.9961 266.624 29.6211 270.47 32.1071C276.069 35.7271 283.041 36.6761 288.75 40.1211C294.221 43.4221 298.19 48.8691 300.509 54.8231C302.829 60.7771 303.603 67.2331 303.688 73.6221C306.027 75.6601 308.377 77.8531 310.402 80.2031C327.348 99.8741 336.999 125.69 337.113 151.653C337.134 156.402 336.843 161.179 335.746 165.799C334.38 171.548 331.8 176.922 329.749 182.463C322.438 202.217 321.948 223.776 322.387 244.835C322.525 251.466 322.173 259.281 316.668 262.981C295.003 277.54 267.093 278.644 241.365 283.047C225.696 285.728 210.675 286.03 196.787 293.762Z" fill="#826D99"/>
<g opacity="0.25">
<path d="M209.935 265.324C210.166 267.213 212.973 267.329 214.374 266.997C216.365 266.525 218.03 264.915 219.096 263.235C220.255 261.409 220.874 259.299 221.161 257.171C221.327 255.936 221.388 254.705 221.367 253.459C221.347 252.245 221.362 250.694 220.64 249.667C220.176 249.007 219.145 248.883 218.707 249.667C218.191 250.591 218.22 251.692 218.221 252.725C218.222 253.752 218.236 254.775 218.182 255.801C218.094 257.464 217.802 259.162 217.112 260.689C216.516 262.011 215.597 263.436 214.355 264.234C213.831 264.57 213.238 264.863 212.616 264.956C212.29 265.004 211.93 265.008 211.611 264.922C211.253 264.826 211.009 264.63 210.62 264.637C210.284 264.643 209.889 264.949 209.935 265.324Z" fill="#C0A4D8"/>
</g>
<g opacity="0.5">
<path opacity="0.5" d="M286.051 60.5979C281.506 52.2339 277.76 43.4399 274.838 34.3809C273.325 33.7339 271.855 33.0029 270.47 32.1069C268.581 30.8849 266.896 29.3889 265.22 27.8809C270.938 39.6829 276.551 51.6969 286.051 60.5979Z" fill="#826D99"/>
<path opacity="0.5" d="M228.713 8.89498C224.529 6.35298 220.362 3.73897 215.702 2.29697C215.561 2.25297 215.418 2.21898 215.277 2.17798C224.464 19.607 233.048 37.354 240.996 55.382C238.628 39.498 234.49 23.88 228.713 8.89498Z" fill="#826D99"/>
<path opacity="0.5" d="M268.08 217.083C267.226 219.888 266.575 222.748 266.239 225.693C266.697 222.782 267.332 219.918 268.08 217.083Z" fill="#826D99"/>
<path opacity="0.5" d="M283.29 175.718C278.599 189.638 271.806 202.956 268.079 217.083C271.081 207.226 276.741 198.099 281.368 188.764C284.181 183.088 286.639 177.236 288.722 171.254C290.416 166.391 291.861 161.446 293.257 156.49C300.304 131.474 306.113 106.11 310.669 80.523C310.579 80.417 310.491 80.309 310.4 80.203C308.375 77.853 306.024 75.66 303.686 73.622C303.681 73.242 303.665 72.861 303.655 72.48C302.354 100.17 296.014 127.448 289.27 154.381C287.477 161.548 285.65 168.716 283.29 175.718Z" fill="#826D99"/>
<path opacity="0.5" d="M235.315 170.051C234.18 174.587 231.918 178.743 230.038 183.024C220.837 203.971 221.009 228.832 230.497 249.65C237.867 230.363 245.351 210.433 244.66 189.797C244.397 181.952 242.95 174.2 241.507 166.484C239.427 155.365 237.316 144.151 233.549 133.517C233.173 136.606 232.322 139.587 231.147 142.495C235.04 151.418 237.629 160.805 235.315 170.051Z" fill="#826D99"/>
<path opacity="0.5" d="M319.002 115.865C325.825 127.17 325.784 141.178 324.121 154.037C322.802 164.231 319.29 174.307 312.879 182.343C309.24 186.903 304.749 190.721 300.009 194.121C298.48 195.217 296.889 196.306 295.806 197.844C294.723 199.382 294.245 201.504 295.142 203.158C295.81 204.39 297.088 205.14 298.261 205.906C303.501 209.326 307.849 214.425 309.37 220.495C310.89 226.565 309.189 233.585 304.369 237.574C307.969 234.455 311.628 231.269 314.122 227.211C316.616 223.153 317.808 218.01 316.1 213.563C314.361 209.034 309.786 205.353 310.2 200.52C310.364 198.609 311.323 196.866 312.33 195.235C315.632 189.885 319.686 184.984 322.46 179.342C324.878 174.423 326.261 169.059 327.293 163.675C328.875 155.419 329.667 146.932 328.565 138.598C327.482 130.416 324.484 122.146 319.002 115.865Z" fill="#826D99"/>
<path opacity="0.5" d="M251.146 147.706C252.584 163.498 254.023 179.379 252.805 195.19C253.399 187.474 256.598 179.621 257.404 171.766C258.259 163.441 258.323 155.037 257.611 146.699C256.91 138.493 255.458 130.352 253.261 122.415C251.751 116.958 250.186 108.774 246.54 104.42C246.049 109.041 247.886 114.301 248.468 118.915C249.674 128.464 250.273 138.121 251.146 147.706Z" fill="#826D99"/>
<path opacity="0.5" d="M259.116 208.137C256.233 211.512 253.479 215.016 251.144 218.797C249.631 221.248 247.776 228.927 245.826 230.419C247.885 228.843 249.944 227.268 252.003 225.692C254.674 223.648 257.373 221.576 259.469 218.946C261.77 216.06 264.59 211.176 264.831 207.392C265.193 201.695 261.375 205.492 259.116 208.137Z" fill="#826D99"/>
<g opacity="0.5">
<g opacity="0.5">
<path d="M311.666 156.314C307.283 161.306 302.88 166.285 298.633 171.394C294.733 176.086 290.612 180.67 287.069 185.642C283.969 189.992 281.379 194.869 280.929 200.278C280.43 206.284 282.768 211.885 284.612 217.468C285.755 220.927 286.66 224.452 287.127 228.07C287.591 231.668 287.433 235.254 287.642 238.861C287.692 239.731 289.054 240.029 289.246 239.078C289.848 236.094 289.705 232.955 289.42 229.939C289.131 226.883 288.597 223.847 287.801 220.882C286.262 215.15 283.352 209.735 282.685 203.78C282.035 197.975 284.362 192.586 287.504 187.839C290.794 182.867 294.762 178.325 298.491 173.683C303.043 168.017 307.445 162.237 311.842 156.451C311.92 156.349 311.75 156.219 311.666 156.314Z" fill="#826D99"/>
</g>
<g opacity="0.5">
<path d="M270.281 231.926C271.079 233.645 271.662 235.457 272.016 237.319C272.185 238.207 272.338 239.099 272.421 240C272.462 240.448 272.481 240.896 272.506 241.345C272.532 241.823 272.497 242.383 272.771 242.793C273.016 243.159 273.525 243.17 273.768 242.793C274.262 242.027 273.913 240.664 273.794 239.815C273.661 238.862 273.483 237.914 273.208 236.991C272.646 235.104 271.846 233.291 270.84 231.599C270.624 231.235 270.108 231.554 270.281 231.926Z" fill="#826D99"/>
</g>
<g opacity="0.5">
<path d="M234.656 248.546C237.861 249.36 240.688 248.636 243.504 246.983C246.457 245.25 248.993 242.816 251.394 240.4C253.785 237.994 256.028 235.448 258.074 232.743C260.063 230.111 262.494 226.908 263.147 223.618C263.255 223.075 262.563 222.535 262.135 223.029C260.155 225.311 258.806 228.19 257.03 230.648C255.104 233.313 252.99 235.823 250.718 238.2C246.726 242.376 241.163 248.702 234.735 247.966C234.4 247.927 234.339 248.465 234.656 248.546Z" fill="#826D99"/>
</g>
<g opacity="0.5">
<path d="M202.297 215.092C206.115 213.324 209.575 216.973 210.585 220.327C211.768 224.255 211.702 228.687 211.877 232.752C212.069 237.205 212.082 241.662 211.888 246.115C211.79 248.381 211.64 250.646 211.439 252.905C211.339 254.034 211.23 255.163 211.119 256.291C211.02 257.29 210.791 258.396 211.159 259.35C211.356 259.859 211.959 259.94 212.278 259.496C212.918 258.606 212.946 257.357 213.073 256.291C213.227 255.003 213.354 253.713 213.461 252.421C213.674 249.838 213.819 247.249 213.899 244.658C214.057 239.475 213.962 234.282 213.549 229.113C213.218 224.962 213.173 219.982 210.533 216.52C208.585 213.965 204.806 212.538 202.006 214.594C201.706 214.813 201.956 215.249 202.297 215.092Z" fill="#826D99"/>
</g>
<g opacity="0.5">
<path d="M198.789 250.204C198.843 253.987 200.192 257.476 201.987 260.758C203.629 263.759 205.426 267.026 208.417 268.88C211.228 270.622 214.567 270.583 217.284 268.675C220.206 266.624 221.804 263.207 222.643 259.831C222.777 259.29 222.016 258.943 221.729 259.446C220.257 262.036 219.189 264.966 216.848 266.942C214.26 269.127 211.001 269.018 208.352 266.997C205.904 265.13 204.246 262.238 202.72 259.619C201.018 256.698 199.528 253.598 199.125 250.205C199.102 249.994 198.786 249.981 198.789 250.204Z" fill="#826D99"/>
</g>
<g opacity="0.5">
<path d="M244.515 20.259C251.955 33.34 258.056 47.055 262.098 61.573C262.656 63.576 263.174 65.59 263.651 67.613C264.139 69.68 264.482 71.883 265.29 73.851C265.571 74.534 266.659 74.513 266.659 73.666C266.659 71.818 266.172 69.977 265.773 68.182C265.37 66.371 264.894 64.574 264.405 62.785C263.385 59.059 262.226 55.375 260.919 51.74C258.381 44.684 255.33 37.834 251.78 31.229C249.701 27.362 247.428 23.628 244.941 20.01C244.763 19.752 244.356 19.98 244.515 20.259Z" fill="#826D99"/>
</g>
</g>
</g>
<path opacity="0.25" d="M278.186 94.531C278.851 114.066 274.423 133.36 271.627 152.706C271.359 154.559 271.342 156.905 273.004 157.767C275.118 156.15 276.424 153.714 277.57 151.312C286.216 133.193 289.308 112.706 288.136 92.664C287.802 86.95 287.119 81.204 285.258 75.791C283.712 71.295 281.384 67.116 279.034 62.984C275.761 57.23 272.421 51.515 269.015 45.839C267.478 43.279 265.819 40.618 263.222 39.144C262.982 39.008 263.929 43.337 264.147 43.887C265.058 46.19 266.539 48.378 267.595 50.63C269.74 55.204 271.574 59.924 273.085 64.744C276.108 74.385 277.842 84.433 278.186 94.531Z" fill="#C0A4D8"/>
<path opacity="0.25" d="M236.937 65.2501C242.195 85.7251 244.062 106.895 245.91 127.953C247.668 147.984 249.428 168.08 248.648 188.173C236.352 142.669 242.962 92.8821 225.477 49.1091C221.112 38.1821 214.862 27.3691 204.796 21.2761C200.756 18.8301 196.201 17.2111 192.504 14.2721C191.658 13.5991 190.828 12.8061 190.525 11.7681C189.884 9.56706 192.014 7.36406 194.272 6.96306C198.336 6.24206 206.472 8.27306 209.833 10.8221C214.73 14.5361 218.585 21.9151 221.658 27.1281C228.638 38.9681 233.525 51.9651 236.937 65.2501Z" fill="#C0A4D8"/>
<path opacity="0.25" d="M270.358 127.593C270.648 130.626 270.835 133.906 269.218 136.488C266.247 133.264 264.758 128.98 263.407 124.809C256.647 103.938 251.413 82.61 246.186 61.303C244.613 54.891 243.032 48.419 242.364 41.87C242.068 38.973 245.962 37.708 247.397 40.242C249.718 44.341 251.669 49.798 252.456 51.781C255.654 59.841 258.34 68.137 260.713 76.474C265.466 93.174 268.704 110.308 270.358 127.593Z" fill="#C0A4D8"/>
<path opacity="0.25" d="M220.492 229.447C221.275 234.409 222.555 239.687 220.543 244.29C209.833 216.573 216.906 192.988 225.622 164.581C228.514 155.156 231.151 163.331 231.086 164.051C230.874 166.383 229.141 169.369 228.438 171.634C226.48 177.938 224.6 184.272 223.083 190.699C220.096 203.353 218.45 216.509 220.492 229.447Z" fill="#C0A4D8"/>
<path opacity="0.25" d="M264.155 186.184C259.999 193.152 254.274 199.163 250.785 206.487C250.339 207.424 250.133 208.881 251.121 209.197C251.776 209.407 252.415 208.873 252.898 208.382C259.811 201.352 266.813 194.202 271.556 185.559C273.499 182.019 275.05 178.229 275.742 174.251C276.767 168.368 272.394 165.844 270.09 171.852C268.199 176.782 266.901 181.579 264.155 186.184Z" fill="#C0A4D8"/>
<path opacity="0.25" d="M297.69 159.862C297.442 160.574 297.224 161.454 297.734 162.01C298.553 162.905 299.981 161.901 300.713 160.934C311.817 146.277 317.403 127.539 316.138 109.195C315.976 106.85 314.711 103.741 312.424 104.284C307.521 105.448 308.041 125.009 307.229 128.945C305.043 139.528 301.239 149.684 297.69 159.862Z" fill="#C0A4D8"/>
<path opacity="0.25" d="M296.148 96.7211C295.866 98.5791 295.439 100.623 293.923 101.734C290.138 87.4732 293.678 71.6322 287.763 58.1142C287.045 56.4732 286.124 54.7901 285.43 53.0551C284.375 50.4161 287.589 48.2932 289.631 50.2692C293.802 54.3042 295.334 61.9952 296.305 67.1222C298.15 76.8662 297.631 86.9661 296.148 96.7211Z" fill="#C0A4D8"/>
<path opacity="0.25" d="M299.85 187.455C295.383 191.219 289.974 195.473 290.249 201.308C290.415 204.834 292.732 207.88 295.229 210.375C297.726 212.871 300.559 215.144 302.263 218.236C303.967 221.328 304.202 225.607 301.673 228.07C301.235 228.496 300.701 228.864 300.094 228.932C298.722 229.086 297.7 227.743 296.986 226.562C294.958 223.211 292.931 219.861 290.903 216.51C287.804 211.389 284.591 205.807 285.124 199.845C285.646 194.005 289.656 189.135 293.65 184.843C302.184 175.674 311.883 166.588 315.036 154.466C315.457 152.848 315.777 151.142 316.766 149.795C317.755 148.448 319.677 147.596 321.138 148.41C326.731 151.526 317.66 165.781 315.627 169.092C311.387 175.998 306.049 182.233 299.85 187.455Z" fill="#C0A4D8"/>
<g opacity="0.25">
<path d="M332.104 157.045C330.64 164.953 328.34 172.774 324.418 179.829C320.863 186.225 315.738 192.245 315.64 199.932C315.612 202.144 315.982 204.377 316.589 206.5C316.901 207.592 317.282 208.667 317.711 209.719C318.167 210.835 318.762 211.521 319.499 212.43C320.05 213.109 320.943 212.347 320.823 211.659C320.658 210.715 320.598 209.934 320.263 209.015C319.899 208.018 319.546 207.021 319.257 205.999C318.718 204.092 318.369 202.143 318.382 200.156C318.407 196.464 319.844 193.045 321.63 189.877C323.392 186.754 325.466 183.818 327.178 180.666C329.007 177.299 330.465 173.698 331.535 170.019C332.754 165.829 333.266 161.537 333.12 157.182C333.102 156.626 332.215 156.447 332.104 157.045Z" fill="#C0A4D8"/>
</g>
<g opacity="0.25">
<path d="M333.848 148.365C333.697 144.571 333.47 140.91 332.805 137.16C332.147 133.45 331.332 129.768 330.363 126.127C329.396 122.491 328.202 118.912 326.885 115.388C325.572 111.873 324.251 108.195 322.246 105.009C321.621 104.016 319.872 104.637 320.277 105.839C321.45 109.319 323.114 112.633 324.428 116.065C325.775 119.584 326.947 123.162 328.039 126.767C329.107 130.295 330.03 133.868 330.802 137.473C331.585 141.128 332.469 144.788 333.143 148.46C333.216 148.859 333.864 148.767 333.848 148.365Z" fill="#C0A4D8"/>
</g>
<g opacity="0.25">
<path d="M203.398 219.136C203.762 220.388 204.589 221.525 205.051 222.758C205.539 224.062 205.8 225.426 206.004 226.798C206.426 229.632 206.363 232.507 206.303 235.363C206.229 238.88 206.222 242.4 206.188 245.918C206.154 249.439 205.943 252.993 206.418 256.488C206.547 257.433 208.166 257.418 208.312 256.488C208.882 252.845 208.712 249.106 208.748 245.427C208.784 241.699 208.847 237.971 208.832 234.243C208.82 231.319 208.791 228.287 208.085 225.433C207.526 223.17 206.37 219.687 204.065 218.624C203.724 218.466 203.279 218.727 203.398 219.136Z" fill="#C0A4D8"/>
</g>
<g opacity="0.5">
<path d="M322.356 227.686C297.522 226.792 272.468 231.906 250.031 242.605C238.259 248.219 227.254 255.295 216.315 262.396C209.478 266.835 202.41 271.372 194.711 273.784C195.307 280.467 196.044 287.137 196.786 293.761C210.674 286.029 225.695 285.727 241.362 283.046C267.09 278.644 295 277.539 316.665 262.98C322.17 259.28 322.522 251.466 322.384 244.834C322.267 239.14 322.223 233.409 322.356 227.686Z" fill="#826D99"/>
</g>
<path d="M130.424 279.496C157.756 289.159 188.963 287.29 214.947 274.434C225.235 269.344 234.654 262.659 244.788 257.269C267.504 245.187 293.451 239.886 319.179 239.68C336.533 239.541 353.817 241.654 370.821 245.217C384.594 248.103 393.302 261.861 390.031 275.547C390.013 275.623 389.995 275.699 389.977 275.774C389.656 277.107 389.298 278.509 388.341 279.489C387.237 280.619 385.575 280.953 384.019 281.223C375.151 282.761 366.234 283.994 357.338 285.361C322.638 290.692 288.25 298.056 254.409 307.404C239.35 311.564 224.324 316.132 208.832 318.153C193.34 320.175 177.159 319.528 162.73 313.535C148.302 307.541 134.591 294.553 130.424 279.496Z" fill="#826D99"/>
<g opacity="0.5">
<path d="M371.229 262.278C335.492 272.725 295.906 268.964 262.242 284.872C251.788 289.812 242.256 296.514 231.928 301.712C221.6 306.911 210.001 310.628 198.563 308.933C192.017 307.963 185.858 305.273 179.426 303.719C171.569 301.822 163.345 301.631 155.6 299.318C145.516 296.307 136.602 289.598 130.816 280.817C135.398 295.309 148.725 307.715 162.729 313.532C177.157 319.525 193.338 320.172 208.831 318.151C224.323 316.13 239.348 311.562 254.408 307.402C288.248 298.054 322.636 290.69 357.337 285.359C366.233 283.992 375.15 282.759 384.018 281.221C385.574 280.951 387.236 280.617 388.34 279.487C389.298 278.507 389.656 277.105 389.976 275.772C391.784 268.261 379.675 259.809 371.229 262.278Z" fill="#826D99"/>
</g>
<path d="M81.4794 172.412C77.6424 204.862 70.1734 233.889 60.7584 265.179C57.5394 275.877 53.9584 286.839 54.9704 297.965C56.4544 314.283 67.4914 328.099 71.9764 343.859C74.8234 353.863 75.0894 364.814 80.3984 373.759C91.5014 392.467 120.517 395.224 141.954 398.927C163.391 402.63 185.354 401.89 207.022 399.955C216.084 399.146 225.257 398.099 233.712 394.741C242.659 391.188 250.42 385.197 257.611 378.797C287.393 352.294 310.94 316.658 347.851 301.594C363.536 295.193 380.941 292.897 395.492 284.222C398.582 282.38 401.852 279.585 401.558 276C401.243 272.162 397.032 269.939 393.256 269.182C384.067 267.341 374.617 269.847 365.627 272.494C313.552 287.826 262.884 308.623 209.455 318.229C191.508 321.456 172.189 323.225 155.749 315.336C145.925 310.622 137.927 302.787 131.047 294.339C121.367 282.452 113.526 269.072 107.886 254.817C102.706 241.723 99.3984 227.979 96.1074 214.288C92.0114 197.255 85.5744 189.446 81.4794 172.412Z" fill="#826D99"/>
<path opacity="0.25" d="M401.558 276.001C401.243 272.163 397.032 269.94 393.256 269.183C384.067 267.342 374.617 269.848 365.627 272.494C313.552 287.826 262.884 308.623 209.455 318.229C191.508 321.456 172.189 323.225 155.749 315.336C148.645 311.927 142.499 306.882 137.037 301.157C121.642 292.542 109.41 278.061 101.725 261.972C91.6034 240.781 88.4284 216.961 87.1734 193.51C72.5914 231.337 74.2694 275.125 91.7014 311.725C96.4444 321.684 102.51 331.357 111.389 337.904C124.443 347.528 141.586 349.101 157.783 349.936C173.831 350.763 189.9 351.2 205.97 351.247C210.842 351.261 215.734 351.233 220.614 351.048C209.397 355.865 197.903 359.936 185.978 362.493C164.508 367.097 141.287 366.464 121.586 356.768C102.116 347.186 87.4534 329.312 79.1674 309.256C70.8824 289.2 68.5804 267.07 69.6024 245.394C64.9274 275.02 68.1564 305.437 84.3904 330.657C100.623 355.877 128.913 373.809 158.898 374.488C166.403 374.658 173.895 373.794 181.316 372.662C199.797 369.843 218.176 365.29 234.946 357.028C242.026 353.54 248.764 349.418 255.415 345.16C264.653 341.919 273.442 337.4 282.101 332.786C320.164 312.505 358.403 289.484 400.076 280.411C401.076 279.117 401.693 277.643 401.558 276.001Z" fill="#826D99"/>
<path d="M359.443 273.011C324.436 273.134 289.493 281.925 258.596 298.384C253.164 301.278 247.851 304.405 242.282 307.026C232.8 311.488 224.057 315.063 213.661 316.382C195.65 318.668 178.6 308.232 160.627 305.665C152.623 304.522 144.394 304.944 136.545 303.007C131.761 301.826 127.221 299.79 122.935 297.358C104.337 286.808 90.3833 268.376 85.2773 247.612C87.1233 268.986 93.3333 289.243 101.363 309.137C105.474 319.323 110.101 330.151 119.338 336.095C126.728 340.851 135.896 341.682 144.664 342.27C185.693 345.024 227.931 345.19 266.637 331.307C300.762 319.067 330.593 296.427 365.241 285.758C367.105 285.184 369.136 284.534 370.205 282.902C371.636 280.716 370.617 277.611 368.653 275.887C366.69 274.165 362.057 273.002 359.443 273.011Z" fill="#826D99"/>
<g opacity="0.25">
<path d="M94.5643 278.928C103.433 292.096 115.449 304.5 130.957 309.418C139.924 312.262 149.394 312.05 158.629 313.297C163.259 313.923 167.786 315.027 172.094 316.853C176.351 318.657 180.389 320.931 184.634 322.762C201.964 330.236 220.925 326.921 238.183 320.977C247.053 317.922 255.68 314.191 264.313 310.532C272.967 306.865 281.608 303.164 290.335 299.67C307.546 292.779 325.282 286.808 343.707 284.233C346.052 283.905 348.398 283.575 350.751 283.312C352.177 283.152 352.239 280.933 350.751 281.031C332.443 282.24 314.58 287.705 297.46 294.034C280.07 300.463 263.255 308.299 245.982 315.017C229.313 321.5 210.591 327.168 192.724 322.402C183.848 320.034 176.262 314.473 167.408 312.065C158.465 309.633 149.1 309.986 139.972 308.815C131.507 307.729 123.765 304.654 116.783 299.76C110.142 295.106 104.484 289.171 99.1843 283.073C97.8473 281.535 96.4913 280.015 95.1783 278.455C94.8933 278.117 94.3163 278.56 94.5643 278.928Z" fill="#C0A4D8"/>
</g>
<path opacity="0.15" d="M137.035 315.774C142.754 316.522 148.629 316.276 154.196 317.785C161.021 319.634 166.866 323.973 173.317 326.867C187.715 333.327 204.212 332.289 219.95 331.126C202.143 337.097 182.317 336.848 164.666 330.431C159.229 328.454 154 325.916 148.486 324.164C141.872 322.063 134.921 321.117 128.379 318.802C115.374 314.2 104.447 304.026 98.9287 291.382C106.092 304.254 122.763 313.907 137.035 315.774Z" fill="#826D99"/>
<g opacity="0.25">
<path d="M232.446 329.548C239.977 331.006 247.356 327.997 254.209 325.198C260.864 322.481 267.387 319.426 273.884 316.353C287.01 310.145 300.061 303.695 313.722 298.72C317.578 297.316 321.479 296.033 325.428 294.915C327.404 294.356 329.391 293.838 331.39 293.367C333.3 292.917 335.265 292.613 337.067 291.827C337.657 291.57 337.305 290.723 336.761 290.699C335.067 290.623 333.408 291.03 331.757 291.386C329.892 291.788 328.039 292.247 326.195 292.734C322.795 293.632 319.429 294.655 316.096 295.776C309.321 298.054 302.683 300.727 296.146 303.614C283.009 309.415 270.229 315.986 257.104 321.814C249.368 325.249 241.214 329.537 232.509 329.078C232.244 329.063 232.179 329.496 232.446 329.548Z" fill="#826D99"/>
</g>
<path opacity="0.25" d="M311.732 265.565C290.843 270.228 269.844 274.924 249.993 282.923C245.059 284.911 240.152 287.132 235.966 290.414C232.475 293.151 229.54 296.583 225.846 299.04C216.836 305.032 204.959 304.24 194.426 301.76C183.893 299.28 173.471 295.321 162.658 295.713C156.342 295.942 150.353 292.538 145.521 288.464C157.834 294.056 172.089 290.733 185.535 292.168C195.519 293.233 205.75 296.769 215.336 293.784C222.222 291.64 227.633 286.439 233.413 282.125C251.976 268.272 275.569 263.028 298.621 260.77C321.673 258.512 345.026 258.872 367.79 254.595C349.497 260.846 330.598 261.354 311.732 265.565Z" fill="#826D99"/>
<g opacity="0.25">
<path d="M62.5885 281.726C61.5565 288.022 60.7135 294.575 62.7795 300.767C64.6615 306.406 68.7075 310.923 71.5975 316.033C77.1455 325.844 79.4275 337.042 83.1605 347.579C84.9925 352.75 87.1705 357.85 90.2015 362.443C93.2535 367.067 97.1365 371.012 101.548 374.346C111.114 381.577 122.834 386.022 134.303 389.188C148.283 393.049 163.294 395.071 177.787 393.795C178.754 393.71 178.791 392.25 177.787 392.26C164.955 392.397 152.285 391.573 139.761 388.615C128.161 385.875 116.414 381.826 106.329 375.36C101.644 372.356 97.3355 368.716 93.8835 364.332C90.5085 360.045 88.0455 355.098 86.0785 350.031C82.1745 339.975 79.9635 329.317 75.3545 319.525C74.0315 316.714 72.4865 314.037 70.7535 311.459C68.9155 308.725 66.9595 306.054 65.4705 303.105C62.1155 296.465 62.7485 289.003 63.2525 281.815C63.2785 281.441 62.6505 281.349 62.5885 281.726Z" fill="#826D99"/>
</g>
<g opacity="0.25">
<path d="M190.892 390.006C211.839 389.471 232.451 382.25 249.553 370.22C258.506 363.922 266.755 356.567 274.277 348.625C281.036 341.489 287.259 333.872 293.86 326.593C301.343 318.342 309.429 310.824 318.597 304.467C319.194 304.053 318.676 303.129 318.021 303.482C309.567 308.047 302.477 314.752 295.919 321.688C289.215 328.778 283.032 336.336 276.478 343.562C262.091 359.423 245.207 373.446 225.182 381.508C214.26 385.906 202.612 388.546 190.892 389.598C190.635 389.621 190.625 390.013 190.892 390.006Z" fill="#826D99"/>
</g>
<path opacity="0.25" d="M137.705 325.751C145.796 327.908 153.212 332.086 161.213 334.557C170.743 337.501 180.838 337.949 190.803 338.376C177.121 341.485 162.811 339.951 149.025 337.342C140.396 335.709 131.739 333.622 123.968 329.53C117.444 326.095 107.421 318.907 106.279 310.999C109.855 312.774 112.682 316.47 115.995 318.809C122.453 323.371 130.252 323.764 137.705 325.751Z" fill="#C0A4D8"/>
<path opacity="0.25" d="M75.4181 271.481C77.1811 285.333 81.2731 298.886 87.4701 311.4C90.0251 316.56 92.9451 321.558 96.4711 326.11C107.34 340.139 123.706 349.358 140.989 353.385C158.272 357.413 176.438 356.516 193.8 352.845C167.376 363.307 134.819 360.491 110.761 345.362C104.028 341.128 97.8131 335.961 92.9661 329.655C87.7851 322.914 84.282 315.042 81.325 307.071C75.98 292.665 72.2261 277.193 74.4271 261.986C74.8971 264.595 75.0831 268.849 75.4181 271.481Z" fill="#C0A4D8"/>
</svg>
