<svg width="130" height="72" viewBox="0 0 130 72" fill="none" xmlns="http://www.w3.org/2000/svg">
<g filter="url(#filter0_d_762_5066)">
<path d="M125.603 33.4941C121.88 22.2786 115.778 13.2686 109.375 4.86429L107.8 5.88746C112.983 13.3373 118.579 21.2516 123.172 34.2564L125.603 33.4941Z" fill="url(#paint0_linear_762_5066)"/>
<path d="M123.007 34.4664C123.007 33.6646 123.676 33.0143 124.501 33.0143C125.326 33.0143 125.995 33.6646 125.995 34.4664C125.995 34.5224 125.969 34.5694 125.962 34.6242L125.995 34.6254C125.982 36.5153 125.36 38.0958 120.636 39.0796L120.348 35.8115C121.719 35.6791 122.558 35.1816 123.007 34.4664Z" fill="#313856"/>
<path d="M109.515 4.57033C109.515 4.57033 106.959 1.66879 105.557 0.881047C104.155 0.0945776 102.201 -0.441186 98.7551 1.46008C95.5184 3.24555 95.1151 3.85894 94.1331 4.81339C93.1511 5.76784 94.158 8.97736 95.2212 8.97736C96.5306 8.97736 101.53 -0.567172 104.41 2.23383C105.515 3.30791 107.469 6.00201 107.469 6.00201C107.469 6.00201 107.837 6.35961 108.778 6.00201C109.72 5.64314 109.515 4.57033 109.515 4.57033Z" fill="#313856"/>
<path d="M71.7147 37.051C71.3533 37.051 71.06 36.7659 71.06 36.4147V32.7954C71.06 32.1451 69.9928 30.2897 65.2491 30.2897C60.5067 30.2897 59.4382 32.1451 59.4382 32.7954V36.4147C59.4382 36.7659 59.145 37.051 58.7836 37.051C58.4222 37.051 58.1289 36.7659 58.1289 36.4147V32.7954C58.1289 32.7572 58.2101 29.0171 65.2491 29.0171C72.2881 29.0171 72.3693 32.7572 72.3693 32.7954V36.4147C72.3693 36.7659 72.0773 37.051 71.7147 37.051Z" fill="#313856"/>
<path d="M65.2504 29.6037C70.7849 29.6037 72.0105 31.9122 72.2842 32.9189C72.2292 32.3678 71.6347 29.2296 65.2504 29.2296C58.866 29.2296 58.2715 32.3678 58.2166 32.9189C58.4902 31.9122 59.7158 29.6037 65.2504 29.6037Z" fill="url(#paint1_linear_762_5066)"/>
<path d="M81.3895 24.0463C73.5714 24.0463 71.8601 32.2177 72.4886 37.1401C73.7639 47.1351 79.1191 55.3383 87.9454 60.668C95.3026 65.1107 107.521 63.7948 113.175 58.301C123.015 48.7373 120.963 24.0463 99.6129 24.0463C93.9591 24.0463 81.3895 24.0463 81.3895 24.0463Z" fill="url(#paint2_radial_762_5066)"/>
<path d="M98.6204 62.8276C94.6819 62.8276 90.9896 61.9062 88.2216 60.2353C79.5315 54.9884 74.2719 46.9799 73.0084 37.0777C72.6339 34.1368 73.0869 29.7221 75.6009 26.9554C77.0477 25.3634 78.996 24.5553 81.3895 24.5553H99.6116C107.731 24.5553 113.783 28.265 116.654 35.0009C119.899 42.6136 118.208 52.6901 112.805 57.9408C109.701 60.9543 104.268 62.8276 98.6204 62.8276Z" fill="url(#paint3_radial_762_5066)"/>
<path d="M7.49282 34.4664C7.49282 33.6646 6.82376 33.0143 5.99887 33.0143C5.17399 33.0143 4.50488 33.6646 4.50488 34.4664C4.50488 34.5224 4.5311 34.5694 4.53765 34.6242L4.50488 34.6254C4.51798 36.5153 5.13994 38.0958 9.86405 39.0796L10.1521 35.8115C8.78253 35.6791 7.94323 35.1816 7.49282 34.4664Z" fill="#313856"/>
<path d="M4.89648 33.4941C8.62025 22.2786 14.7218 13.2686 21.1245 4.86429L22.6996 5.88746C17.5173 13.3373 11.9211 21.2516 7.32793 34.2564L4.89648 33.4941Z" fill="url(#paint4_linear_762_5066)"/>
<path d="M20.9857 4.57033C20.9857 4.57033 23.5416 1.66879 24.9452 0.881047C26.3475 0.0945776 28.301 -0.441186 31.7472 1.46008C34.9839 3.24555 35.3872 3.85894 36.3692 4.81339C37.3512 5.76784 36.3443 8.97736 35.2811 8.97736C33.9718 8.97736 28.9727 -0.567172 26.0921 2.23383C24.9871 3.30791 23.0335 6.00201 23.0335 6.00201C23.0335 6.00201 22.6656 6.35961 21.7242 6.00201C20.7814 5.64314 20.9857 4.57033 20.9857 4.57033Z" fill="#313856"/>
<path d="M49.1116 24.0463C56.9296 24.0463 58.641 32.2177 58.0125 37.1401C56.7372 47.1351 51.3806 55.3383 42.5557 60.668C35.1985 65.1107 22.9797 63.7948 17.326 58.301C7.48624 48.7373 9.53798 24.0463 30.8881 24.0463C36.5419 24.0463 49.1116 24.0463 49.1116 24.0463Z" fill="url(#paint5_radial_762_5066)"/>
<path d="M31.8806 62.8276C26.2334 62.8276 20.7983 60.9543 17.6978 57.9408C12.2941 52.6901 10.6038 42.6123 13.8483 34.9996C16.7184 28.2649 22.7702 24.5553 30.8894 24.5553H49.1128C51.505 24.5553 53.452 25.3621 54.8988 26.9542C57.4141 29.7208 57.8684 34.1367 57.4939 37.0765C56.2291 46.9799 50.9695 54.9884 42.2807 60.2341C39.5101 61.9075 35.8178 62.8276 31.8806 62.8276Z" fill="url(#paint6_radial_762_5066)"/>
<path d="M121.669 38.0461C119.9 30.002 113.786 22.0075 101.044 22.0075H65.2508H29.4573C16.6847 22.0075 10.57 30.0428 8.81945 38.106C8.62698 38.993 8.84039 39.9169 9.40471 40.6397C9.96904 41.3613 10.828 41.8131 11.7589 41.8703L11.8165 41.8742C12.0496 41.8882 12.2525 41.7189 12.2709 41.4911C12.9124 33.8415 17.7387 24.6825 29.456 24.6825H101.043C112.76 24.6825 117.587 33.8415 118.228 41.4911C118.246 41.7176 118.449 41.8882 118.682 41.8742C119.629 41.8156 120.504 41.36 121.077 40.6257C121.652 39.8902 121.867 38.9484 121.669 38.0461Z" fill="url(#paint7_linear_762_5066)"/>
<path d="M121.669 37.7688C119.9 29.7246 113.786 21.7301 101.044 21.7301H65.2508H29.4573C16.6847 21.7301 10.57 29.7654 8.81945 37.8286C8.62698 38.7156 8.84039 39.6395 9.40471 40.3623C9.96904 41.0839 10.828 41.5357 11.7589 41.5929L11.8165 41.5968C12.0496 41.6108 12.2525 41.4415 12.2709 41.215C12.9124 33.5653 17.7387 24.4064 29.456 24.4064H101.043C112.76 24.4064 117.587 33.5653 118.228 41.215C118.246 41.4415 118.449 41.612 118.682 41.5968C119.629 41.5382 120.504 41.0826 121.077 40.3483C121.652 39.6115 121.867 38.6698 121.669 37.7688Z" fill="url(#paint8_linear_762_5066)"/>
<path opacity="0.53" d="M14.1584 34.2577C16.5715 29.0425 21.3729 24.6826 29.4568 24.6826H101.044C109.128 24.6826 113.929 29.0425 116.342 34.2577H116.525C114.18 28.8529 109.35 24.2461 101.044 24.2461H29.4568C21.1503 24.2461 16.3201 28.8529 13.9751 34.2577H14.1584Z" fill="#6B718D"/>
<path opacity="0.1" d="M75.8065 45.5113C74.6753 42.8592 73.9093 40.0034 73.5283 37.0154C73.1682 34.1787 73.5963 29.9321 75.9951 27.2927C77.3385 25.8139 79.1545 25.0644 81.3909 25.0644H99.613C106.683 25.0644 112.04 27.8628 115.138 33.1645C106.707 39.6611 92.426 44.1471 75.8065 45.5113Z" fill="#8F94AA"/>
<path opacity="0.1" d="M54.6945 45.5126C38.0764 44.1496 23.7928 39.6649 15.3606 33.1696C18.4585 27.8653 23.8177 25.0644 30.8881 25.0644H49.1115C51.3466 25.0644 53.1613 25.8139 54.5047 27.2914C56.9047 29.9308 57.3342 34.18 56.9741 37.0154C56.5931 39.9996 55.8271 42.8566 54.6945 45.5126Z" fill="#8F94AA"/>
</g>
<defs>
<filter id="filter0_d_762_5066" x="0.504883" y="0.162598" width="129.49" height="71.1748" filterUnits="userSpaceOnUse" color-interpolation-filters="sRGB">
<feFlood flood-opacity="0" result="BackgroundImageFix"/>
<feColorMatrix in="SourceAlpha" type="matrix" values="0 0 0 0 0 0 0 0 0 0 0 0 0 0 0 0 0 0 127 0" result="hardAlpha"/>
<feOffset dy="4"/>
<feGaussianBlur stdDeviation="2"/>
<feComposite in2="hardAlpha" operator="out"/>
<feColorMatrix type="matrix" values="0 0 0 0 0 0 0 0 0 0 0 0 0 0 0 0 0 0 0.25 0"/>
<feBlend mode="normal" in2="BackgroundImageFix" result="effect1_dropShadow_762_5066"/>
<feBlend mode="normal" in="SourceGraphic" in2="effect1_dropShadow_762_5066" result="shape"/>
</filter>
<linearGradient id="paint0_linear_762_5066" x1="116.702" y1="34.257" x2="116.702" y2="4.86467" gradientUnits="userSpaceOnUse">
<stop stop-color="#585F7D"/>
<stop offset="1" stop-color="#B9BDCD"/>
</linearGradient>
<linearGradient id="paint1_linear_762_5066" x1="58.2163" y1="31.0741" x2="72.2842" y2="31.0741" gradientUnits="userSpaceOnUse">
<stop stop-color="#585F7D"/>
<stop offset="0.5" stop-color="#B9BDCD"/>
<stop offset="1" stop-color="#585F7D"/>
</linearGradient>
<radialGradient id="paint2_radial_762_5066" cx="0" cy="0" r="1" gradientUnits="userSpaceOnUse" gradientTransform="translate(98.7309 50.9398) scale(29.8134 28.9769)">
<stop stop-color="#82A2F1"/>
<stop offset="0.1225" stop-color="#819FEA"/>
<stop offset="0.3021" stop-color="#7E96D6"/>
<stop offset="0.5167" stop-color="#7987B6"/>
<stop offset="0.7583" stop-color="#727289"/>
<stop offset="1" stop-color="#6A5A55"/>
</radialGradient>
<radialGradient id="paint3_radial_762_5066" cx="0" cy="0" r="1" gradientUnits="userSpaceOnUse" gradientTransform="translate(98.652 50.7517) scale(29.1067 28.29)">
<stop stop-color="#324678"/>
<stop offset="0.1678" stop-color="#314371"/>
<stop offset="0.4138" stop-color="#2E3A5D"/>
<stop offset="0.7069" stop-color="#292B3D"/>
<stop offset="1" stop-color="#231916"/>
</radialGradient>
<linearGradient id="paint4_linear_762_5066" x1="13.799" y1="34.257" x2="13.799" y2="4.86467" gradientUnits="userSpaceOnUse">
<stop stop-color="#585F7D"/>
<stop offset="1" stop-color="#B9BDCD"/>
</linearGradient>
<radialGradient id="paint5_radial_762_5066" cx="0" cy="0" r="1" gradientUnits="userSpaceOnUse" gradientTransform="translate(31.7698 50.9398) rotate(180) scale(29.8133 28.9768)">
<stop stop-color="#82A2F1"/>
<stop offset="0.1225" stop-color="#819FEA"/>
<stop offset="0.3021" stop-color="#7E96D6"/>
<stop offset="0.5167" stop-color="#7987B6"/>
<stop offset="0.7583" stop-color="#727289"/>
<stop offset="1" stop-color="#6A5A55"/>
</radialGradient>
<radialGradient id="paint6_radial_762_5066" cx="0" cy="0" r="1" gradientUnits="userSpaceOnUse" gradientTransform="translate(31.849 50.7517) rotate(180) scale(29.1065 28.2899)">
<stop stop-color="#324678"/>
<stop offset="0.1678" stop-color="#314371"/>
<stop offset="0.4138" stop-color="#2E3A5D"/>
<stop offset="0.7069" stop-color="#292B3D"/>
<stop offset="1" stop-color="#231916"/>
</radialGradient>
<linearGradient id="paint7_linear_762_5066" x1="8.74992" y1="31.941" x2="121.741" y2="31.941" gradientUnits="userSpaceOnUse">
<stop stop-color="#2F354F"/>
<stop offset="0.0217" stop-color="#333952"/>
<stop offset="0.345" stop-color="#6D7283"/>
<stop offset="0.5" stop-color="#848896"/>
<stop offset="0.5932" stop-color="#7C808F"/>
<stop offset="0.7373" stop-color="#666B7D"/>
<stop offset="0.9133" stop-color="#434960"/>
<stop offset="1" stop-color="#2F354F"/>
</linearGradient>
<linearGradient id="paint8_linear_762_5066" x1="8.74992" y1="31.6625" x2="121.741" y2="31.6625" gradientUnits="userSpaceOnUse">
<stop stop-color="#2F354F"/>
<stop offset="0.0217" stop-color="#333952"/>
<stop offset="0.345" stop-color="#6D7283"/>
<stop offset="0.5" stop-color="#848896"/>
<stop offset="0.5932" stop-color="#7C808F"/>
<stop offset="0.7373" stop-color="#666B7D"/>
<stop offset="0.9133" stop-color="#434960"/>
<stop offset="1" stop-color="#2F354F"/>
</linearGradient>
</defs>
</svg>
