<svg width="139" height="74" viewBox="0 0 139 74" fill="none" xmlns="http://www.w3.org/2000/svg">
<g filter="url(#filter0_d_762_5141)">
<path d="M73.6786 1.62017V5.14145L65.0784 5.14145V1.62017C68.0781 0.454994 70.9436 0.465133 73.6786 1.62017Z" fill="#EE9F4D"/>
<path d="M65.0784 1.62017V5.14145L73.6786 5.14145V1.62017L65.0784 1.62017Z" fill="#D67D4A"/>
<path d="M134.25 22.2791C134.25 30.2474 134.25 38.2157 134.25 46.184C90.9842 49.9057 47.517 49.9057 4.25098 46.184C4.25098 38.2157 4.25098 30.2474 4.25098 22.2791C47.517 18.5574 90.9835 18.5574 134.25 22.2791Z" fill="#6E2E26"/>
<path d="M37.201 12.3211C36.3733 12.5145 35.7832 13.3202 35.7832 14.2459V16.8009H40.0559V52.3904H35.7832V54.9453C35.7832 55.8703 36.3733 56.6767 37.201 56.8701C58.3017 61.7968 80.1174 61.7968 101.218 56.8701C102.046 56.6767 102.636 55.8711 102.636 54.9453C102.636 54.0937 102.636 53.242 102.636 52.3904H98.3632V16.8009H102.636C102.636 15.9493 102.636 15.0976 102.636 14.2459C102.636 13.321 102.046 12.5145 101.218 12.3211C80.1174 7.39447 58.3024 7.39447 37.201 12.3211Z" fill="#EE9F4D"/>
<path d="M69.3779 34.4151L46.9607 58.4292L43.2817 61.7204C43.8269 62.4489 44.5954 62.9768 45.4894 63.1734C61.1301 66.6089 77.2896 66.6089 92.9311 63.1734C93.8315 62.9753 94.6036 62.4403 95.1494 61.7033L91.4598 58.0689L69.3779 34.4151Z" fill="#EE9F4D"/>
<path d="M69.3782 34.4151L46.961 10.401L43.4597 7.26888C42.8147 8.02226 42.4172 9.02209 42.4172 10.1147V59.0757C42.4172 60.0693 42.7383 60.9943 43.2813 61.7204L46.9603 58.4291L69.3782 34.4151Z" fill="#D67D4A"/>
<path d="M69.3782 34.4153L91.4593 58.0691L95.149 61.7034C95.6849 60.9797 96.0024 60.0625 96.0024 59.0759V10.115C96.0024 9.03403 95.6142 8.04278 94.9806 7.29251L91.4586 10.7615L69.3782 34.4153Z" fill="#D67D4A"/>
<path d="M92.9304 6.01805C77.2897 2.58256 61.1302 2.58256 45.4888 6.01805C44.6832 6.19508 43.9889 6.65055 43.4587 7.26902L46.9601 10.4011L69.378 34.4152L91.4591 10.7614L94.9811 7.29241C94.4488 6.66147 93.746 6.19742 92.9304 6.01805Z" fill="#EE9F4D"/>
<path d="M69.2104 34.5955L48.5835 56.9616L46.9609 58.4302C61.7276 61.5904 76.6926 61.5904 91.4592 58.4302L89.8367 56.9616L69.2104 34.5955Z" fill="#D67D4A"/>
<path d="M69.2104 34.5953L48.5835 12.23L46.9609 10.7614V58.4293L48.5835 56.9615L69.2104 34.5953Z" fill="#AD653C"/>
<path d="M69.2104 34.5953L89.8367 56.9615L91.4592 58.4293V10.7614L89.8367 12.23L69.2104 34.5953Z" fill="#AD653C"/>
<path d="M46.9609 10.7612L48.5835 12.2298L69.2097 34.5951L89.8359 12.2298L91.4585 10.7612C76.6926 7.6018 61.7276 7.6018 46.9609 10.7612Z" fill="#D67D4A"/>
<path d="M89.8364 56.9613C76.1429 59.7128 62.2775 59.7128 48.584 56.9613V12.2298C62.2775 9.47826 76.1429 9.47826 89.8364 12.2298V56.9613Z" fill="#EDEDED"/>
<path d="M51.3418 32.5239C51.3418 32.5301 51.3418 32.5363 51.3411 32.5426C51.3318 32.6401 51.2519 32.7103 51.1627 32.7001L49.2155 32.4763C49.1263 32.4661 49.0599 32.3866 49.0713 32.2813C49.0806 32.1838 49.1605 32.1136 49.2497 32.1238L51.197 32.3476C51.2805 32.357 51.3418 32.4349 51.3418 32.5239ZM51.2134 30.2325L49.2661 29.7801C49.1784 29.7599 49.0928 29.8215 49.0735 29.9166C49.0564 30.0118 49.1106 30.1061 49.1984 30.1272L51.1456 30.5796C51.2334 30.5998 51.319 30.539 51.3382 30.4431C51.3404 30.4314 51.3418 30.4181 51.3418 30.4064C51.3418 30.3245 51.2897 30.2504 51.2134 30.2325ZM51.2298 28.0238L49.2826 27.3328C49.1976 27.3024 49.1056 27.3539 49.0785 27.4467C49.0499 27.5395 49.0977 27.6401 49.1827 27.6697L51.1299 28.3607C51.2148 28.3911 51.3069 28.3397 51.334 28.2469C51.3397 28.2289 51.3418 28.2102 51.3418 28.1923C51.3418 28.1174 51.2983 28.048 51.2298 28.0238ZM51.2455 25.6591L49.2982 24.7115C49.2162 24.6718 49.1206 24.7123 49.0842 24.802C49.0478 24.8909 49.0842 24.9962 49.1662 25.036L51.1135 25.9836C51.1955 26.0233 51.2912 25.9836 51.3275 25.8931C51.3368 25.8697 51.3418 25.8455 51.3418 25.8213C51.3418 25.7535 51.3061 25.6888 51.2455 25.6591ZM55.155 25.5211L49.3132 21.8345C49.2355 21.7853 49.1363 21.8142 49.092 21.8992C49.0471 21.9826 49.0742 22.0926 49.1513 22.1418L54.993 25.8284C55.0708 25.8775 55.1699 25.8486 55.2149 25.7636C55.2299 25.7356 55.237 25.7051 55.237 25.6747C55.2363 25.6139 55.207 25.5538 55.155 25.5211ZM51.2747 20.1343L49.3275 18.5877C49.2547 18.53 49.1534 18.5479 49.1006 18.6267C49.0485 18.7055 49.0635 18.8162 49.1363 18.8747L51.0835 20.4213C51.1563 20.479 51.2576 20.4611 51.3104 20.3823C51.3311 20.3511 51.3418 20.3144 51.3418 20.2778C51.3418 20.2224 51.319 20.1686 51.2747 20.1343ZM51.2883 16.7198L49.3411 14.8036C49.274 14.7381 49.1719 14.7436 49.112 14.8161C49.0521 14.8886 49.0585 15.0009 49.1241 15.0664L51.0714 16.9827C51.1385 17.0482 51.2405 17.0427 51.3004 16.9702C51.3283 16.9359 51.3425 16.8938 51.3425 16.8516C51.3418 16.8025 51.324 16.7542 51.2883 16.7198ZM52.6768 14.26L51.122 12.3727C51.0621 12.3001 50.9594 12.2939 50.8923 12.3594C50.8259 12.4257 50.8195 12.538 50.8802 12.6105L52.435 14.4979C52.4949 14.5704 52.5976 14.5767 52.6647 14.5111C52.7004 14.4761 52.7182 14.4277 52.7182 14.3793C52.7182 14.3364 52.7047 14.2943 52.6768 14.26ZM55.6095 13.8334L54.3058 11.872C54.253 11.7924 54.1517 11.7752 54.0789 11.833C54.0055 11.8907 53.9905 12.0014 54.0433 12.081L55.3469 14.0424C55.3997 14.122 55.501 14.1391 55.5731 14.0814C55.6166 14.0463 55.6402 13.9925 55.6402 13.9379C55.6409 13.9013 55.6309 13.8654 55.6095 13.8334ZM60.4102 17.5824L57.2007 11.5054C57.1557 11.4204 57.0565 11.3915 56.9795 11.4407C56.9017 11.4898 56.8746 11.5982 56.9202 11.6824L60.1297 17.7595C60.1747 17.8445 60.2739 17.8733 60.3509 17.8242C60.403 17.7914 60.4323 17.7314 60.4323 17.6705C60.4323 17.6409 60.4251 17.6105 60.4102 17.5824ZM60.7141 13.3023L59.8743 11.241C59.8379 11.1513 59.7416 11.1108 59.6602 11.1505C59.5782 11.1911 59.5411 11.2964 59.5775 11.3845L60.4173 13.4458C60.4537 13.5355 60.55 13.576 60.6314 13.5363C60.692 13.5066 60.7277 13.4419 60.7277 13.374C60.7277 13.3499 60.7234 13.3257 60.7141 13.3023ZM76.3449 58.0229L75.7234 55.9312C75.6955 55.8384 75.6042 55.7869 75.5193 55.8173C75.4344 55.8469 75.3873 55.9476 75.4151 56.0404L76.0366 58.1321C76.0644 58.2249 76.1558 58.2764 76.2407 58.2459C76.3092 58.2218 76.3527 58.1523 76.3527 58.0775C76.3527 58.0595 76.3506 58.0408 76.3449 58.0229ZM63.0053 13.1494L62.3838 11.0577C62.356 10.9649 62.2646 10.9134 62.1797 10.9439C62.0948 10.9735 62.0477 11.0741 62.0755 11.1669L62.697 13.2586C62.7249 13.3514 62.8162 13.4029 62.9011 13.3725C62.9696 13.3483 63.0131 13.2789 63.0131 13.204C63.0131 13.1869 63.011 13.1681 63.0053 13.1494ZM78.8422 57.8053L78.0024 55.744C77.966 55.6543 77.8697 55.6138 77.7883 55.6535C77.7063 55.6933 77.6699 55.7994 77.7063 55.8875L78.5461 57.9488C78.5825 58.0385 78.6788 58.079 78.7602 58.0393C78.8208 58.0096 78.8565 57.9449 78.8565 57.877C78.8558 57.8536 78.8515 57.8287 78.8422 57.8053ZM73.9609 58.1757L73.5499 56.063C73.5314 55.9671 73.445 55.9054 73.3573 55.9265C73.2695 55.9468 73.2146 56.0419 73.2324 56.1371L73.6434 58.2498C73.662 58.3458 73.7483 58.4074 73.8361 58.3863C73.9124 58.3684 73.9645 58.2951 73.9645 58.2132C73.9645 58.1999 73.9638 58.1874 73.9609 58.1757ZM65.1866 13.0543L64.7756 10.9415C64.757 10.8456 64.6707 10.784 64.5829 10.8043C64.4959 10.8245 64.4395 10.9197 64.4581 11.0148L64.869 13.1276C64.8876 13.2235 64.9739 13.2851 65.0617 13.2641C65.1381 13.2461 65.1901 13.1728 65.1901 13.0909C65.1901 13.0792 65.1887 13.0668 65.1866 13.0543ZM71.6498 58.2709L71.4457 56.1464C71.4364 56.0489 71.3565 55.9788 71.2673 55.9889C71.1781 55.999 71.1132 56.0872 71.1232 56.1839L71.3273 58.3091C71.3365 58.4066 71.4165 58.4768 71.5057 58.4666C71.5891 58.4573 71.6505 58.3801 71.6505 58.2904C71.6505 58.2834 71.6505 58.2771 71.6498 58.2709ZM69.2102 51.7517C69.1203 51.7517 69.0482 51.8312 69.0482 51.9287V58.3146C69.0482 58.4128 69.121 58.4916 69.2102 58.4916C69.2994 58.4916 69.3722 58.4121 69.3722 58.3146V51.9287C69.3722 51.8312 69.2994 51.7517 69.2102 51.7517ZM67.1531 55.9881C67.0639 55.978 66.984 56.0482 66.9747 56.1457L66.7699 58.2701C66.7585 58.3754 66.8249 58.455 66.914 58.4651C67.0032 58.4752 67.0832 58.405 67.0924 58.3075L67.2965 56.1823C67.2972 56.1761 67.2972 56.1698 67.2972 56.1636C67.2979 56.0747 67.2366 55.9975 67.1531 55.9881ZM65.0617 55.9257C64.9739 55.9054 64.8883 55.9663 64.869 56.0622L64.4581 58.175C64.4395 58.2701 64.4959 58.3645 64.5829 58.3855C64.6707 58.4058 64.7563 58.345 64.7756 58.2491L65.1866 56.1363C65.1887 56.1246 65.1901 56.1113 65.1901 56.0996C65.1901 56.0177 65.1381 55.9437 65.0617 55.9257ZM62.9011 55.8173C62.8162 55.7869 62.7242 55.8384 62.697 55.9312L62.0755 58.0229C62.0477 58.1149 62.0948 58.2155 62.1797 58.2459C62.2646 58.2764 62.3567 58.2249 62.3838 58.1321L63.0053 56.0404C63.011 56.0224 63.0131 56.0037 63.0131 55.9858C63.0131 55.9117 62.9696 55.8423 62.9011 55.8173ZM73.8361 10.805C73.7483 10.7848 73.6627 10.8456 73.6434 10.9423L73.2324 13.0551C73.2146 13.1502 73.2695 13.2446 73.3573 13.2656C73.445 13.2859 73.5307 13.2251 73.5499 13.1292L73.9609 11.0164C73.9631 11.0047 73.9645 10.9922 73.9645 10.9797C73.9645 10.8963 73.9124 10.823 73.8361 10.805ZM60.6314 55.6543C60.5493 55.6145 60.4537 55.6543 60.4173 55.7448L59.5775 57.8061C59.5411 57.895 59.5775 58.0003 59.6602 58.04C59.7423 58.0798 59.8379 58.04 59.8743 57.9496L60.7141 55.8883C60.7234 55.8649 60.7284 55.8407 60.7284 55.8165C60.7277 55.7487 60.692 55.6839 60.6314 55.6543ZM78.7595 11.1513C78.6774 11.1115 78.5818 11.1521 78.5454 11.2418L77.7056 13.3031C77.6692 13.392 77.7063 13.4973 77.7876 13.537C77.8697 13.5768 77.9653 13.537 78.0017 13.4466L78.8415 11.3853C78.8508 11.3619 78.8558 11.3377 78.8558 11.3135C78.8558 11.2457 78.8201 11.181 78.7595 11.1513ZM71.5057 10.7247C71.4165 10.7146 71.3365 10.7848 71.3273 10.8822L71.1232 13.0067C71.1132 13.1112 71.1781 13.1923 71.2673 13.2017C71.3565 13.2118 71.4364 13.1416 71.4457 13.0441L71.6498 10.9197C71.6505 10.9134 71.6505 10.9072 71.6505 10.901C71.6505 10.8121 71.5891 10.7341 71.5057 10.7247ZM60.3509 51.3664C60.2732 51.3173 60.174 51.3461 60.1297 51.4311L56.9202 57.5081C56.8753 57.5924 56.9017 57.7008 56.9795 57.7507C57.0572 57.7998 57.1564 57.771 57.2007 57.686L60.4102 51.6089C60.4251 51.5809 60.4323 51.5504 60.4323 51.52C60.4323 51.4592 60.403 51.3991 60.3509 51.3664ZM69.2102 10.699C69.1203 10.699 69.0482 10.7785 69.0482 10.876V17.2619C69.0482 17.3601 69.121 17.4389 69.2102 17.4389C69.2994 17.4389 69.3722 17.3594 69.3722 17.2619V10.876C69.3722 10.7777 69.2994 10.699 69.2102 10.699ZM55.5738 55.1099C55.501 55.0522 55.3997 55.0694 55.3476 55.1489L54.044 57.1104C53.9912 57.1899 54.0069 57.3007 54.0797 57.3584C54.1524 57.4161 54.2538 57.3982 54.3066 57.3194L55.6102 55.3579C55.6309 55.3267 55.6416 55.2901 55.6416 55.2534C55.6409 55.1981 55.6173 55.1442 55.5738 55.1099ZM84.3408 11.833C84.268 11.7752 84.1667 11.7932 84.1139 11.872L82.8102 13.8334C82.7581 13.913 82.7731 14.0237 82.8459 14.0814C82.9187 14.1391 83.02 14.1212 83.0728 14.0424L84.3764 12.081C84.3971 12.0498 84.4078 12.0131 84.4078 11.9765C84.4071 11.9219 84.3843 11.8673 84.3408 11.833ZM81.4409 11.4407C81.3632 11.3915 81.264 11.4204 81.219 11.5054L78.0095 17.5824C77.9646 17.6659 77.991 17.7758 78.0688 17.8242C78.1465 17.8733 78.2457 17.8445 78.29 17.7595L81.4995 11.6824C81.5144 11.6544 81.5216 11.6239 81.5216 11.5935C81.5216 11.5335 81.4923 11.4734 81.4409 11.4407ZM76.2407 10.9446C76.1558 10.9142 76.0637 10.9657 76.0366 11.0585L75.4151 13.1502C75.3873 13.243 75.4344 13.3436 75.5193 13.3733C75.6042 13.4037 75.6963 13.3522 75.7234 13.2594L76.3449 11.1677C76.3506 11.1498 76.3527 11.131 76.3527 11.1131C76.3527 11.0382 76.3092 10.9688 76.2407 10.9446ZM67.2972 13.0075L67.0931 10.883C67.0839 10.7855 67.004 10.7153 66.9148 10.7255C66.8256 10.7356 66.7592 10.8222 66.7706 10.9205L66.9754 13.0449C66.9847 13.1424 67.0646 13.2126 67.1538 13.2025C67.2373 13.1931 67.2986 13.1159 67.2986 13.0262C67.2979 13.02 67.2979 13.0137 67.2972 13.0075ZM52.6647 54.6802C52.5976 54.6147 52.4956 54.6209 52.435 54.6935L50.8802 56.5808C50.8209 56.6534 50.8259 56.7649 50.8923 56.832C50.9594 56.8975 51.0614 56.8912 51.122 56.8187L52.6768 54.9313C52.7047 54.897 52.7182 54.8549 52.7182 54.8128C52.7182 54.7637 52.6997 54.7153 52.6647 54.6802ZM87.5274 12.3602C87.4611 12.2947 87.3583 12.3001 87.2984 12.3727L85.7436 14.26C85.6843 14.3326 85.6893 14.4441 85.7557 14.5104C85.8221 14.5759 85.9248 14.5704 85.9847 14.4971L87.5395 12.6097C87.5674 12.5754 87.5816 12.5333 87.5816 12.4912C87.5809 12.4428 87.5624 12.3953 87.5274 12.3602ZM51.3004 52.2212C51.2405 52.1486 51.1377 52.1424 51.0714 52.2087L49.1241 54.1257C49.0578 54.1912 49.0514 54.3035 49.112 54.376C49.1719 54.4486 49.2747 54.4548 49.3411 54.3885L51.2883 52.4715C51.324 52.4364 51.3418 52.3881 51.3418 52.3397C51.3418 52.2976 51.3283 52.2547 51.3004 52.2212ZM89.3077 14.8161C89.2477 14.7436 89.1457 14.7373 89.0786 14.8036L87.1314 16.7198C87.065 16.7854 87.0593 16.8977 87.1193 16.9702C87.1792 17.0427 87.2812 17.049 87.3483 16.9827L89.2956 15.0664C89.3312 15.0313 89.3498 14.983 89.3498 14.9346C89.3491 14.8925 89.3355 14.8496 89.3077 14.8161ZM87.5388 56.5801L85.984 54.6927C85.9248 54.6202 85.8221 54.6139 85.755 54.6802C85.6886 54.7457 85.6829 54.858 85.7429 54.9306L87.2976 56.8179C87.3576 56.8905 87.4596 56.8967 87.5267 56.8304C87.5624 56.7953 87.5809 56.747 87.5809 56.6986C87.5809 56.6573 87.5674 56.6144 87.5388 56.5801ZM51.3111 48.8091C51.2583 48.7295 51.157 48.7124 51.0842 48.7701L49.137 50.3166C49.0642 50.3743 49.0492 50.4851 49.1013 50.5646C49.1541 50.6442 49.2554 50.6613 49.3282 50.6036L51.2755 49.0571C51.319 49.0228 51.3425 48.9682 51.3425 48.9136C51.3418 48.8769 51.3318 48.8411 51.3111 48.8091ZM89.3184 18.6267C89.2656 18.5472 89.1643 18.53 89.0922 18.5877L87.145 20.1343C87.0722 20.192 87.0565 20.3027 87.1086 20.3823C87.1606 20.4618 87.2627 20.479 87.3348 20.4213L89.282 18.8747C89.3255 18.8404 89.3491 18.7858 89.3491 18.7312C89.3491 18.6946 89.3391 18.6587 89.3184 18.6267ZM89.2956 54.1241L87.3483 52.2079C87.282 52.1424 87.1792 52.1479 87.1193 52.2204C87.06 52.2929 87.0657 52.4044 87.1314 52.4707L89.0786 54.387C89.145 54.4525 89.2477 54.447 89.3077 54.3745C89.3355 54.3402 89.3498 54.2981 89.3498 54.2559C89.3491 54.2076 89.3312 54.1592 89.2956 54.1241ZM89.2684 47.0488L83.4267 43.3622C83.3489 43.3131 83.2498 43.3419 83.2055 43.4269C83.1613 43.5112 83.1877 43.6204 83.2647 43.6695L89.1065 47.3561C89.1835 47.4052 89.2834 47.3764 89.3284 47.2914C89.3427 47.2633 89.3498 47.2329 89.3498 47.2025C89.3491 47.1416 89.3205 47.0816 89.2684 47.0488ZM89.2206 39.0634L87.2734 38.611C87.1856 38.5907 87.1 38.6516 87.0815 38.7475C87.0622 38.8419 87.1186 38.9378 87.2063 38.9581L89.1536 39.4104C89.2413 39.4307 89.327 39.3699 89.3455 39.2739C89.3476 39.2615 89.3491 39.249 89.3491 39.2373C89.3491 39.1546 89.2977 39.0813 89.2206 39.0634ZM89.1871 34.4182H83.3454C83.2555 34.4182 83.1834 34.4978 83.1834 34.5953C83.1834 34.6936 83.2562 34.7723 83.3454 34.7723H89.1871C89.2763 34.7723 89.3491 34.6928 89.3491 34.5953C89.3491 34.4978 89.2763 34.4182 89.1871 34.4182ZM89.237 41.5216L87.2898 40.8299C87.2049 40.7994 87.1128 40.8509 87.0857 40.9437C87.0565 41.0357 87.105 41.1371 87.1899 41.1668L89.1371 41.8586C89.2221 41.889 89.3141 41.8375 89.3412 41.7447C89.3469 41.7267 89.3498 41.708 89.3498 41.6901C89.3491 41.616 89.3055 41.5458 89.237 41.5216ZM84.3764 57.1104L83.0728 55.1489C83.02 55.0694 82.9187 55.0522 82.8459 55.1099C82.7731 55.1684 82.7574 55.2784 82.8102 55.3572L84.1139 57.3186C84.1667 57.3982 84.268 57.4153 84.3408 57.3576C84.3843 57.3233 84.4078 57.2687 84.4078 57.2141C84.4071 57.1782 84.3971 57.1416 84.3764 57.1104ZM55.2142 43.4269C55.1692 43.3419 55.07 43.3131 54.9923 43.3622L49.1505 47.0488C49.0728 47.098 49.0457 47.2064 49.0913 47.2906C49.1363 47.3756 49.2355 47.4045 49.3125 47.3553L55.1542 43.6687C55.2063 43.636 55.2356 43.5759 55.2356 43.5151C55.2363 43.4862 55.2292 43.455 55.2142 43.4269ZM89.3277 21.9C89.2827 21.815 89.1835 21.7861 89.1057 21.8352L83.264 25.5211C83.1862 25.5694 83.1591 25.6786 83.2048 25.7636C83.2498 25.8486 83.3489 25.8775 83.426 25.8284L89.2677 22.1425C89.3198 22.1098 89.3491 22.0497 89.3491 21.9889C89.3491 21.9585 89.3426 21.9281 89.3277 21.9ZM89.282 50.3166L87.3348 48.7701C87.2627 48.7124 87.1614 48.7295 87.1086 48.8091C87.0558 48.8878 87.0722 48.9986 87.145 49.0563L89.0922 50.6029C89.1643 50.6606 89.2656 50.6434 89.3184 50.5639C89.3391 50.5327 89.3498 50.496 89.3498 50.4594C89.3491 50.4055 89.3262 50.3509 89.282 50.3166ZM51.3283 43.2975C51.2919 43.2078 51.1955 43.1672 51.1142 43.207L49.167 44.1546C49.0849 44.1944 49.0485 44.3004 49.0849 44.3886C49.1213 44.4783 49.2176 44.5188 49.299 44.4783L51.2462 43.5307C51.3069 43.501 51.3425 43.4363 51.3425 43.3684C51.3418 43.3458 51.3375 43.3209 51.3283 43.2975ZM89.3355 24.802C89.2984 24.7123 89.2028 24.6718 89.1214 24.7115L87.1742 25.6591C87.0922 25.6989 87.0558 25.805 87.0922 25.8931C87.1293 25.9828 87.2249 26.0233 87.3062 25.9836L89.2535 25.036C89.3134 25.0063 89.3498 24.9416 89.3498 24.8738C89.3491 24.8496 89.3448 24.8246 89.3355 24.802ZM51.334 40.9437C51.3061 40.8509 51.2148 40.7994 51.1299 40.8299L49.1827 41.5216C49.0977 41.5521 49.0499 41.6519 49.0785 41.7447C49.1063 41.8375 49.1976 41.889 49.2826 41.8586L51.2298 41.1668C51.2983 41.1426 51.3418 41.0732 51.3418 40.9983C51.3418 40.9804 51.3397 40.9617 51.334 40.9437ZM89.3412 27.4459C89.3141 27.3531 89.2221 27.3016 89.1371 27.332L87.1899 28.023C87.105 28.0527 87.0572 28.1525 87.0857 28.2461C87.1128 28.3389 87.2049 28.3904 87.2898 28.3599L89.237 27.6689C89.3055 27.6448 89.3491 27.5754 89.3491 27.5005C89.3491 27.4825 89.3469 27.4638 89.3412 27.4459ZM81.5002 57.5081L78.2907 51.4311C78.2457 51.3461 78.1465 51.3173 78.0695 51.3664C77.9917 51.4155 77.9639 51.5239 78.0103 51.6089L81.2197 57.686C81.2647 57.771 81.3639 57.7998 81.4417 57.7507C81.4937 57.7179 81.523 57.6579 81.523 57.5971C81.5216 57.5666 81.5151 57.5362 81.5002 57.5081ZM51.3382 38.7475C51.3197 38.6516 51.2334 38.59 51.1456 38.611L49.1984 39.0634C49.1106 39.0836 49.0564 39.1788 49.0735 39.2739C49.092 39.3699 49.1784 39.4315 49.2661 39.4104L51.2134 38.9581C51.2897 38.9401 51.3418 38.8668 51.3418 38.7842C51.3418 38.7725 51.3411 38.76 51.3382 38.7475ZM89.3455 29.9174C89.327 29.8215 89.2406 29.7599 89.1536 29.7809L87.2063 30.2333C87.1186 30.2536 87.0622 30.3495 87.0815 30.4438C87.1 30.5398 87.1863 30.6014 87.2734 30.5803L89.2206 30.128C89.297 30.1101 89.3491 30.0367 89.3491 29.9548C89.3491 29.9416 89.3484 29.9291 89.3455 29.9174ZM89.2535 44.1554L87.3062 43.2078C87.2242 43.168 87.1285 43.2086 87.0922 43.2983C87.0558 43.3864 87.0929 43.4925 87.1742 43.5322L89.1214 44.4798C89.2035 44.5196 89.2991 44.4798 89.3355 44.3901C89.3448 44.3667 89.3498 44.3426 89.3498 44.3184C89.3491 44.249 89.3134 44.1842 89.2535 44.1554ZM51.3411 36.6488C51.3318 36.5513 51.2519 36.4803 51.1627 36.4912L49.2155 36.7143C49.1256 36.7244 49.0606 36.8165 49.0713 36.9093C49.0806 37.0068 49.1605 37.0777 49.2497 37.0668L51.197 36.8438C51.2805 36.8344 51.3425 36.7572 51.3425 36.6675C51.3418 36.6613 51.3418 36.655 51.3411 36.6488ZM89.3491 32.2821C89.3398 32.1846 89.2599 32.1144 89.17 32.1245L87.2227 32.3484C87.1343 32.3585 87.0665 32.4451 87.0786 32.5434C87.0879 32.6408 87.1678 32.711 87.2577 32.7009L89.2049 32.4771C89.2877 32.4677 89.3498 32.3905 89.3498 32.3008C89.3491 32.2946 89.3491 32.2883 89.3491 32.2821ZM55.0743 34.4182H49.2326C49.1427 34.4182 49.0706 34.4978 49.0706 34.5953C49.0706 34.6936 49.1434 34.7723 49.2326 34.7723H55.0743C55.1642 34.7723 55.2363 34.6928 55.2363 34.5953C55.2363 34.4978 55.1635 34.4182 55.0743 34.4182ZM89.2042 36.7143L87.257 36.4912C87.1678 36.4811 87.0879 36.5513 87.0779 36.6488C87.065 36.7478 87.1335 36.8336 87.222 36.8438L89.1693 37.0668C89.2584 37.077 89.3384 37.0068 89.3484 36.9093C89.3491 36.903 89.3491 36.8968 89.3491 36.8906C89.3491 36.8009 89.287 36.7237 89.2042 36.7143Z" fill="#3C3C3B"/>
<path d="M76.0988 43.1748C71.5215 43.9898 66.8978 43.9898 62.3204 43.1748C61.8167 43.0851 61.4492 42.6016 61.4492 42.0439V27.1462C61.4492 26.5885 61.8167 26.105 62.3204 26.0153C66.8978 25.2003 71.5215 25.2003 76.0988 26.0153C76.6019 26.105 76.9701 26.5885 76.9701 27.1462V42.0439C76.9701 42.6016 76.6026 43.0851 76.0988 43.1748Z" fill="#DADADA"/>
<path d="M74.699 28.2962V40.8955L74.4164 40.9353C70.9622 41.4243 67.4594 41.4243 64.0045 40.9353L63.7219 40.8955V28.2962L64.0045 28.2556C67.4587 27.7666 70.9615 27.7666 74.4164 28.2556L74.699 28.2962ZM74.0497 40.2708V28.9209C70.8366 28.4911 67.5836 28.4911 64.3705 28.9209V40.2708C67.5836 40.7006 70.8366 40.7006 74.0497 40.2708Z" fill="white"/>
<path d="M62.1454 45.4278L63.2407 46.1888L69.7577 34.9823L68.6623 34.2213L62.1454 45.4278Z" fill="#45354C"/>
<path d="M60.4675 20.1521L68.6545 34.9637L69.7654 34.2301L61.5784 19.4185L60.4675 20.1521Z" fill="#45354C"/>
<path d="M60.5425 39.855C60.5425 39.8862 60.5339 39.915 60.5175 39.9415C60.5004 39.968 60.4754 39.9821 60.4419 39.9821H57.8118C57.7782 39.9821 57.7547 39.968 57.7404 39.94C57.7261 39.9119 57.719 39.8791 57.719 39.8433C57.719 39.8097 57.7261 39.7777 57.7404 39.7481C57.7547 39.7185 57.7782 39.7037 57.8118 39.7037H60.3063V38.5003C60.3063 38.4698 60.3184 38.4464 60.3427 38.4308C60.3676 38.4153 60.394 38.4075 60.4219 38.4075C60.4533 38.4075 60.4804 38.4153 60.5046 38.4308C60.5296 38.4464 60.541 38.4698 60.541 38.5003V39.855H60.5425Z" fill="#3C3C3B"/>
<path d="M60.5663 37.2499C60.5663 37.3739 60.5513 37.4885 60.5221 37.5962C60.4928 37.703 60.445 37.7958 60.3793 37.8746C60.3137 37.9533 60.2288 38.0157 60.1246 38.0602C60.0204 38.1054 59.892 38.1281 59.74 38.1281H58.5427C58.3936 38.1281 58.2666 38.1054 58.1624 38.0602C58.0582 38.0157 57.9733 37.9533 57.9077 37.8746C57.842 37.7958 57.7942 37.703 57.7649 37.5962C57.735 37.4893 57.7207 37.3739 57.7207 37.2499C57.7207 37.1259 57.735 37.0112 57.7649 36.9036C57.7942 36.7967 57.842 36.7039 57.9077 36.6252C57.9733 36.5464 58.0582 36.4848 58.1624 36.4396C58.2666 36.3951 58.3936 36.3717 58.5427 36.3717H59.74C59.892 36.3717 60.0204 36.3943 60.1246 36.4396C60.2288 36.4848 60.3137 36.5464 60.3793 36.6252C60.445 36.7039 60.4928 36.7967 60.5221 36.9036C60.5513 37.0112 60.5663 37.1266 60.5663 37.2499ZM58.5427 36.6509C58.3415 36.6509 58.1938 36.7039 58.0989 36.8092C58.0033 36.9145 57.9562 37.0619 57.9562 37.2499C57.9562 37.4386 58.004 37.5852 58.0989 37.6905C58.1938 37.7958 58.3422 37.8488 58.5427 37.8488H59.74C59.9434 37.8488 60.0932 37.7958 60.1881 37.6905C60.2837 37.5852 60.3308 37.4378 60.3308 37.2499C60.3308 37.0611 60.283 36.9145 60.1881 36.8092C60.0932 36.7039 59.9434 36.6509 59.74 36.6509H58.5427Z" fill="#3C3C3B"/>
<path d="M57.8125 35.7651C57.7561 35.7651 57.7247 35.73 57.7197 35.6598V34.9127C57.7197 34.7887 57.7319 34.6717 57.7561 34.5617C57.7811 34.4518 57.8225 34.3558 57.8817 34.2724C57.9409 34.1897 58.0194 34.1234 58.1172 34.0743C58.2149 34.0251 58.3355 34.0002 58.4804 34.0002C58.6017 34.0002 58.7051 34.0166 58.7915 34.0509C58.8778 34.0844 58.9513 34.1312 59.0119 34.1905C59.0726 34.2498 59.119 34.3192 59.1525 34.3995C59.186 34.4798 59.2103 34.5664 59.226 34.6592L60.3691 34.0095C60.3819 33.9986 60.3983 33.9924 60.419 33.9924C60.4526 33.9924 60.4825 34.0095 60.5097 34.0431C60.5368 34.0774 60.5503 34.1141 60.5503 34.1531C60.5503 34.1874 60.5361 34.2154 60.5061 34.2396C60.4768 34.2638 60.4462 34.2841 60.4155 34.3012L59.2567 34.9509V35.4875H60.4426C60.4761 35.4875 60.5011 35.5023 60.5182 35.5319C60.5346 35.5616 60.5432 35.5928 60.5432 35.6271C60.5432 35.6637 60.5346 35.6957 60.5182 35.7238C60.5011 35.7519 60.4761 35.7659 60.4426 35.7659L57.8125 35.7651ZM57.9552 35.4859H59.0369V34.9119C59.0369 34.7232 58.9948 34.5703 58.9113 34.4533C58.8278 34.3363 58.688 34.2786 58.4925 34.2786C58.2991 34.2786 58.1614 34.3371 58.0793 34.4533C57.9966 34.5703 57.9559 34.7224 57.9559 34.9119L57.9552 35.4859Z" fill="#3C3C3B"/>
<path d="M59.0176 33.253V32.5901C59.0176 32.5558 59.029 32.53 59.0526 32.5121C59.0754 32.4934 59.1025 32.4848 59.1332 32.4848C59.1589 32.4848 59.1832 32.4926 59.2046 32.5082C59.2267 32.5238 59.2374 32.5511 59.2374 32.5908V33.2538H60.307V31.903C60.307 31.8694 60.3191 31.8437 60.3434 31.825C60.3684 31.8063 60.3955 31.7977 60.4262 31.7977C60.4547 31.7977 60.4811 31.8055 60.5054 31.8211C60.5303 31.8367 60.5417 31.864 60.5417 31.903V33.4059C60.5417 33.4371 60.5332 33.4659 60.5168 33.4924C60.4996 33.5189 60.4747 33.533 60.4411 33.533H57.8153C57.7818 33.533 57.7575 33.5197 57.7418 33.4924C57.7261 33.4659 57.719 33.4371 57.719 33.4059V31.903C57.719 31.864 57.7304 31.8367 57.7532 31.8211C57.7761 31.8055 57.8025 31.7977 57.8303 31.7977C57.8638 31.7977 57.8931 31.8063 57.9174 31.825C57.9416 31.8429 57.9537 31.8694 57.9537 31.903V33.253H59.0176Z" fill="#3C3C3B"/>
<path d="M59.4846 30.1887C59.5388 30.2199 59.5659 30.2573 59.5659 30.3025C59.5659 30.3446 59.5388 30.3813 59.4846 30.4125L58.2609 31.1089H60.4428C60.4764 31.1089 60.5014 31.1238 60.5185 31.1534C60.5349 31.183 60.5435 31.2142 60.5435 31.2485C60.5435 31.2852 60.5349 31.3172 60.5185 31.3453C60.5014 31.3733 60.4764 31.3874 60.4428 31.3874H57.8441C57.7978 31.3874 57.7657 31.3733 57.7478 31.3453C57.73 31.3172 57.7207 31.2844 57.7207 31.2485C57.7207 31.1978 57.7378 31.155 57.7728 31.1199C57.8078 31.0848 57.8499 31.0528 57.8984 31.0247L59.1806 30.2986L57.8984 29.5725C57.8499 29.5445 57.8078 29.5133 57.7728 29.4774C57.7378 29.4423 57.7207 29.3994 57.7207 29.3487C57.7207 29.3089 57.7293 29.2762 57.7478 29.2496C57.7657 29.2231 57.7978 29.2091 57.8441 29.2091H60.4428C60.4764 29.2091 60.5014 29.2231 60.5185 29.2512C60.5349 29.2801 60.5435 29.312 60.5435 29.3487C60.5435 29.3822 60.5349 29.4142 60.5185 29.4438C60.5014 29.4735 60.4764 29.4883 60.4428 29.4883H58.2723L59.4846 30.1887Z" fill="#3C3C3B"/>
<path d="M78.4463 42.5263C78.4463 42.4475 78.4556 42.3742 78.4741 42.3063C78.4934 42.2385 78.5234 42.1792 78.5647 42.1277C78.6061 42.0762 78.6604 42.0373 78.7267 42.0092C78.7931 41.9803 78.8737 41.9663 78.9679 41.9663H79.7128C79.8092 41.9663 79.8905 41.9803 79.9561 42.0092C80.0225 42.038 80.076 42.077 80.1181 42.1277C80.1595 42.1784 80.1902 42.2385 80.2087 42.3063C80.228 42.3742 80.2373 42.4475 80.2373 42.5263V42.9997C80.2373 43.0246 80.2309 43.0441 80.2187 43.0589C80.2066 43.073 80.1923 43.08 80.1759 43.08H78.5055C78.4891 43.08 78.4756 43.073 78.4641 43.0589C78.4527 43.0449 78.447 43.0246 78.447 42.9997V42.5263H78.4463ZM78.5954 42.9037H80.0867V42.5263C80.0867 42.4069 80.056 42.3133 79.9947 42.2447C79.9333 42.1769 79.8391 42.1433 79.7121 42.1433H78.9672C78.8402 42.1433 78.746 42.1769 78.6853 42.2447C78.6247 42.3126 78.5947 42.4061 78.5947 42.5263L78.5954 42.9037Z" fill="#3C3C3B"/>
<path d="M80.2515 41.0461C80.2515 41.1249 80.2423 41.1974 80.223 41.2661C80.2044 41.3339 80.1738 41.3924 80.1324 41.4423C80.091 41.4922 80.0368 41.532 79.9704 41.5601C79.904 41.589 79.8234 41.603 79.7271 41.603H78.9679C78.873 41.603 78.7924 41.589 78.7267 41.5601C78.6604 41.5312 78.6068 41.4922 78.5647 41.4423C78.5234 41.3924 78.4934 41.3331 78.4741 41.2661C78.4556 41.1982 78.4463 41.1249 78.4463 41.0461C78.4463 40.9674 78.4556 40.8941 78.4741 40.8262C78.4934 40.7584 78.5234 40.6999 78.5647 40.6492C78.6061 40.5993 78.6604 40.5603 78.7267 40.5314C78.7931 40.5025 78.8737 40.4885 78.9679 40.4885H79.7271C79.8234 40.4885 79.9048 40.5025 79.9704 40.5314C80.0368 40.5603 80.0903 40.5993 80.1324 40.6492C80.1738 40.6991 80.2044 40.7584 80.223 40.8262C80.2423 40.8941 80.2515 40.9674 80.2515 41.0461ZM78.9679 40.6663C78.8409 40.6663 78.7467 40.6999 78.686 40.7669C78.6254 40.834 78.5954 40.9276 78.5954 41.0469C78.5954 41.1663 78.6254 41.2598 78.686 41.3261C78.7467 41.3932 78.8402 41.4267 78.9679 41.4267H79.7271C79.8562 41.4267 79.9511 41.3932 80.0111 41.3261C80.0717 41.2591 80.1017 41.1663 80.1017 41.0469C80.1017 40.9276 80.0717 40.834 80.0111 40.7669C79.9504 40.6999 79.8562 40.6663 79.7271 40.6663H78.9679Z" fill="#3C3C3B"/>
<path d="M80.2368 40.0237C80.2368 40.0432 80.2318 40.0619 80.2204 40.0783C80.2104 40.0955 80.194 40.104 80.1725 40.104H78.5043C78.4829 40.104 78.4679 40.0955 78.4586 40.0775C78.4501 40.0596 78.4451 40.0393 78.4451 40.0159C78.4451 39.9948 78.4501 39.9746 78.4586 39.9559C78.4679 39.9371 78.4829 39.9278 78.5043 39.9278H80.0862V39.165C80.0862 39.1455 80.0941 39.1307 80.109 39.1206C80.1247 39.1112 80.1411 39.1058 80.1597 39.1058C80.179 39.1058 80.1968 39.1112 80.2125 39.1206C80.2282 39.1307 80.236 39.1455 80.236 39.165V40.0237H80.2368Z" fill="#3C3C3B"/>
<path d="M80.2515 38.3717C80.2515 38.4504 80.2423 38.523 80.223 38.5916C80.2044 38.6595 80.1738 38.718 80.1324 38.7679C80.091 38.8178 80.0368 38.8568 79.9704 38.8856C79.904 38.9145 79.8234 38.9285 79.7271 38.9285H78.9679C78.873 38.9285 78.7924 38.9145 78.7267 38.8856C78.6604 38.8568 78.6068 38.8178 78.5647 38.7679C78.5234 38.718 78.4934 38.6587 78.4741 38.5916C78.4556 38.5238 78.4463 38.4504 78.4463 38.3717C78.4463 38.2929 78.4556 38.2196 78.4741 38.1517C78.4934 38.0839 78.5234 38.0254 78.5647 37.9747C78.6061 37.9248 78.6604 37.8858 78.7267 37.8569C78.7931 37.8281 78.8737 37.814 78.9679 37.814H79.7271C79.8234 37.814 79.9048 37.8281 79.9704 37.8569C80.0368 37.8858 80.0903 37.9248 80.1324 37.9747C80.1738 38.0246 80.2044 38.0839 80.223 38.1517C80.2423 38.2196 80.2515 38.2929 80.2515 38.3717ZM78.9679 37.9911C78.8409 37.9911 78.7467 38.0246 78.686 38.0917C78.6254 38.1588 78.5954 38.2524 78.5954 38.3717C78.5954 38.491 78.6254 38.5846 78.686 38.6509C78.7467 38.718 78.8402 38.7515 78.9679 38.7515H79.7271C79.8562 38.7515 79.9511 38.718 80.0111 38.6509C80.0717 38.5838 80.1017 38.491 80.1017 38.3717C80.1017 38.2524 80.0717 38.1588 80.0111 38.0917C79.9504 38.0246 79.8562 37.9911 79.7271 37.9911H78.9679Z" fill="#3C3C3B"/>
<path d="M78.5048 37.4289C78.4691 37.4289 78.4491 37.4062 78.4463 37.3618V36.8876C78.4463 36.8088 78.4541 36.7347 78.4691 36.6653C78.4848 36.5959 78.5112 36.5343 78.549 36.4821C78.5869 36.4298 78.6361 36.3877 78.6982 36.3565C78.7602 36.3253 78.8366 36.3097 78.9286 36.3097C79.0057 36.3097 79.0713 36.3206 79.1256 36.3417C79.1805 36.3635 79.2269 36.3924 79.2654 36.4298C79.304 36.4672 79.3339 36.5109 79.3546 36.5624C79.376 36.6131 79.391 36.6685 79.401 36.7269L80.126 36.3144C80.1345 36.3074 80.1445 36.3035 80.1581 36.3035C80.1795 36.3035 80.1987 36.3144 80.2159 36.3354C80.233 36.3565 80.2416 36.3799 80.2416 36.4048C80.2416 36.4259 80.2323 36.4446 80.213 36.4594C80.1945 36.475 80.1752 36.4875 80.1552 36.4984L79.4203 36.911V37.251H80.1723C80.1937 37.251 80.2094 37.2604 80.2201 37.2791C80.2309 37.2978 80.2366 37.3181 80.2366 37.3392C80.2366 37.3626 80.2316 37.3828 80.2201 37.4008C80.2102 37.4187 80.1937 37.4273 80.1723 37.4273H78.5048V37.4289ZM78.5954 37.2526H79.2811V36.8884C79.2811 36.7691 79.2547 36.6724 79.2012 36.5975C79.1484 36.5234 79.0599 36.4867 78.9358 36.4867C78.8131 36.4867 78.726 36.5242 78.6739 36.5975C78.6218 36.6716 78.5954 36.7683 78.5954 36.8884V37.2526Z" fill="#3C3C3B"/>
<path d="M80.1018 35.0461C80.1018 34.9214 80.0733 34.8239 80.0169 34.7529C79.9605 34.6827 79.8763 34.6476 79.7636 34.6476C79.6737 34.6476 79.603 34.6694 79.5517 34.7131C79.5003 34.7568 79.4589 34.8122 79.4268 34.8777C79.3947 34.944 79.3676 35.0149 79.3447 35.0922C79.3219 35.1686 79.2934 35.2403 79.2591 35.3066C79.2249 35.3729 79.1792 35.4275 79.1221 35.4712C79.065 35.5156 78.9865 35.5367 78.8874 35.5367C78.7975 35.5367 78.724 35.5188 78.6669 35.4829C78.6098 35.447 78.5641 35.4018 78.5306 35.3464C78.4971 35.291 78.4742 35.2294 78.4607 35.1631C78.4478 35.0961 78.4414 35.0313 78.4414 34.9689C78.4414 34.919 78.445 34.8668 78.4521 34.8137C78.4592 34.7599 78.47 34.7116 78.4828 34.6679C78.4956 34.6242 78.512 34.5891 78.5306 34.561C78.5499 34.5337 78.5698 34.5197 78.5905 34.5197C78.6069 34.5197 78.6262 34.5259 78.6483 34.5392C78.6705 34.5525 78.6812 34.572 78.6812 34.5969C78.6812 34.6094 78.6762 34.625 78.6669 34.6437C78.6569 34.6624 78.6462 34.6866 78.6348 34.7147C78.6234 34.7435 78.6127 34.7786 78.6027 34.82C78.5927 34.8621 78.5877 34.9128 78.5877 34.9713C78.5877 35.0212 78.5927 35.0695 78.6012 35.1155C78.6105 35.1623 78.6255 35.2037 78.6476 35.2396C78.6697 35.2762 78.699 35.3051 78.7361 35.3269C78.7725 35.348 78.8182 35.3589 78.8724 35.3589C78.9473 35.3589 79.0058 35.337 79.0472 35.2934C79.0886 35.2497 79.1236 35.1951 79.1514 35.1288C79.1792 35.0625 79.2042 34.9915 79.227 34.9143C79.2499 34.8379 79.2812 34.7662 79.3212 34.6999C79.3612 34.6336 79.414 34.579 79.4803 34.5353C79.5467 34.4916 79.6359 34.4698 79.7486 34.4698C79.8349 34.4698 79.9106 34.4838 79.9741 34.5111C80.0376 34.5392 80.0904 34.5782 80.1318 34.6273C80.1732 34.6772 80.2046 34.7373 80.2238 34.8067C80.2438 34.8761 80.2531 34.9526 80.2531 35.0344C80.2531 35.1202 80.2431 35.1967 80.2238 35.2645C80.2046 35.3324 80.181 35.3901 80.1539 35.4369C80.1268 35.4844 80.099 35.5203 80.0683 35.5453C80.0383 35.5702 80.0119 35.5827 79.9891 35.5827C79.9698 35.5827 79.9498 35.5741 79.9291 35.557C79.9092 35.5406 79.8985 35.5219 79.8985 35.5024C79.8985 35.4844 79.9092 35.4665 79.9306 35.4486C79.952 35.4306 79.9755 35.4057 80.0005 35.3737C80.0262 35.3417 80.049 35.2996 80.0704 35.2481C80.0918 35.1982 80.1018 35.1304 80.1018 35.0461Z" fill="#3C3C3B"/>
<path d="M78.505 34.1548C78.4836 34.1548 78.4686 34.1462 78.4594 34.1283C78.4508 34.1103 78.4458 34.0901 78.4458 34.0667C78.4458 34.0448 78.4508 34.0253 78.4594 34.0066C78.4686 33.9879 78.4836 33.9785 78.505 33.9785H80.1733C80.1947 33.9785 80.2104 33.9879 80.2211 34.0066C80.2318 34.0253 80.2375 34.0456 80.2375 34.0667C80.2375 34.0901 80.2325 34.1103 80.2211 34.1283C80.2111 34.1462 80.1947 34.1548 80.1733 34.1548H78.505Z" fill="#3C3C3B"/>
<path d="M78.4463 32.5944C78.4463 32.571 78.4541 32.5547 78.4691 32.5437C78.4848 32.5328 78.5012 32.5274 78.5198 32.5274C78.5398 32.5274 78.5576 32.5328 78.574 32.5437C78.5904 32.5547 78.5983 32.571 78.5983 32.5944V33.0413H80.173C80.1945 33.0413 80.2102 33.0507 80.2209 33.0694C80.2316 33.0881 80.2373 33.1084 80.2373 33.1294C80.2373 33.1528 80.2323 33.1731 80.2209 33.1911C80.2109 33.209 80.1945 33.2176 80.173 33.2176H78.5983V33.6676C78.5983 33.6886 78.5904 33.7058 78.5747 33.7167C78.5597 33.7284 78.5419 33.7339 78.5219 33.7339C78.5041 33.7339 78.487 33.7284 78.4705 33.7175C78.4541 33.7066 78.4463 33.6902 78.4463 33.6668V32.5944Z" fill="#3C3C3B"/>
<path d="M80.2366 31.7941C80.2366 31.8175 80.2302 31.8401 80.2181 31.862C80.206 31.8846 80.1896 31.8955 80.1681 31.8955C80.1596 31.8955 80.1539 31.8947 80.151 31.8924L78.4878 31.3332C78.4685 31.3262 78.4542 31.3129 78.445 31.2934C78.4364 31.2739 78.4314 31.2521 78.4314 31.2295C78.4314 31.2045 78.4364 31.1819 78.4464 31.1624C78.4564 31.1429 78.4699 31.1296 78.4878 31.1226L80.151 30.5658C80.1546 30.5658 80.1567 30.5658 80.1582 30.5642C80.1596 30.5634 80.1624 30.5626 80.1653 30.5626C80.1853 30.5626 80.2017 30.5743 80.2152 30.5977C80.2295 30.6211 80.2359 30.6453 80.2359 30.6703C80.2359 30.7046 80.2217 30.7264 80.1945 30.7373L79.8171 30.8606V31.6023L80.1945 31.7255C80.2095 31.7294 80.2202 31.7372 80.2267 31.7504C80.2338 31.7629 80.2366 31.7785 80.2366 31.7941ZM79.6787 30.905L78.6918 31.2287L79.6787 31.5555V30.905Z" fill="#3C3C3B"/>
<path d="M79.5658 29.5425C79.6001 29.562 79.6172 29.5862 79.6172 29.615C79.6172 29.6415 79.6001 29.6649 79.5658 29.6844L78.7895 30.1259H80.173C80.1945 30.1259 80.2102 30.1352 80.2209 30.1539C80.2316 30.1726 80.2373 30.1929 80.2373 30.214C80.2373 30.2374 80.2323 30.2577 80.2209 30.2756C80.2109 30.2935 80.1945 30.3021 80.173 30.3021H78.5248C78.4955 30.3021 78.4748 30.2935 78.4634 30.2756C78.452 30.2577 78.4463 30.2374 78.4463 30.214C78.4463 30.182 78.457 30.1547 78.4791 30.1321C78.5012 30.1103 78.5276 30.09 78.559 30.072L79.3725 29.6119L78.559 29.1517C78.5283 29.1338 78.5012 29.1143 78.4791 29.0917C78.457 29.0699 78.4463 29.0426 78.4463 29.0106C78.4463 28.9856 78.452 28.9646 78.4634 28.9474C78.4748 28.931 78.4955 28.9225 78.5248 28.9225H80.173C80.1945 28.9225 80.2102 28.931 80.2209 28.949C80.2316 28.9669 80.2373 28.9872 80.2373 29.0106C80.2373 29.0316 80.2323 29.0519 80.2209 29.0706C80.2109 29.0894 80.1945 29.0987 80.173 29.0987H78.7966L79.5658 29.5425Z" fill="#3C3C3B"/>
<path d="M79.2692 28.3381V27.9178C79.2692 27.8967 79.2763 27.8803 79.2913 27.8679C79.3063 27.8569 79.3234 27.8507 79.3427 27.8507C79.3591 27.8507 79.3741 27.8562 79.3876 27.8655C79.4019 27.8757 79.4083 27.8928 79.4083 27.9178V28.3381H80.0869V27.4818C80.0869 27.4608 80.0948 27.4444 80.1098 27.4319C80.1255 27.421 80.1426 27.4147 80.1625 27.4147C80.1804 27.4147 80.1975 27.4202 80.2125 27.4296C80.2282 27.4397 80.236 27.4569 80.236 27.4818V28.4349C80.236 28.4544 80.2311 28.4731 80.2196 28.4894C80.2096 28.5066 80.1932 28.5152 80.1718 28.5152H78.5064C78.485 28.5152 78.47 28.5066 78.46 28.4894C78.4501 28.4731 78.4451 28.4544 78.4451 28.4349V27.4818C78.4451 27.4569 78.4522 27.4397 78.4672 27.4296C78.4822 27.4202 78.4986 27.4147 78.5164 27.4147C78.5378 27.4147 78.5564 27.421 78.5714 27.4319C78.5871 27.4436 78.5949 27.46 78.5949 27.4818V28.3381H79.2692Z" fill="#3C3C3B"/>
<path d="M78.4463 26.1772C78.4463 26.1538 78.4541 26.1367 78.4691 26.1265C78.4848 26.1156 78.5012 26.1102 78.5198 26.1102C78.5398 26.1102 78.5576 26.1156 78.574 26.1265C78.5904 26.1375 78.5983 26.1538 78.5983 26.1772V26.6241H80.173C80.1945 26.6241 80.2102 26.6335 80.2209 26.6522C80.2316 26.6709 80.2373 26.6912 80.2373 26.7123C80.2373 26.7357 80.2323 26.7559 80.2209 26.7739C80.2109 26.7918 80.1945 26.8004 80.173 26.8004H78.5983V27.2504C78.5983 27.2722 78.5904 27.2886 78.5747 27.2995C78.5597 27.3112 78.5419 27.3167 78.5219 27.3167C78.5041 27.3167 78.487 27.3112 78.4705 27.3003C78.4541 27.2894 78.4463 27.273 78.4463 27.2496V26.1772Z" fill="#3C3C3B"/>
<path d="M59.7258 41.6988C59.7258 41.3788 59.4885 41.1193 59.1957 41.1193C58.9029 41.1193 58.6655 41.3788 58.6655 41.6988C58.6655 42.0188 58.9029 42.2783 59.1957 42.2783C59.4885 42.2783 59.7258 42.0188 59.7258 41.6988Z" fill="#3C3C3B"/>
<path d="M59.7258 27.5004C59.7258 27.1804 59.4885 26.921 59.1957 26.921C58.9029 26.921 58.6655 27.1804 58.6655 27.5004C58.6655 27.8205 58.9029 28.0799 59.1957 28.0799C59.4885 28.0799 59.7258 27.8205 59.7258 27.5004Z" fill="#3C3C3B"/>
<path d="M9.9917 49.4807L16.3201 50.1062V19.0854L9.9917 19.7101L9.9917 49.4807Z" fill="#9C4236"/>
<path d="M24.028 50.8671V18.324L16.9697 19.0212L16.9697 50.1699L24.028 50.8671Z" fill="#9C4236"/>
<path d="M4.25098 20.2769L4.25098 48.9135L9.34278 49.4166L9.34278 19.7747L4.25098 20.2769Z" fill="#9C4236"/>
<path d="M31.7355 51.6285V17.563L24.6765 18.2602L24.6765 50.9313L31.7355 51.6285Z" fill="#9C4236"/>
<path d="M35.1347 51.6806H39.4074V17.5098H35.1347H32.384V51.6806H35.1347Z" fill="#9C4236"/>
<path d="M128.428 19.7101L122.1 19.0854V50.1062L128.428 49.4807V19.7101Z" fill="#9C4236"/>
<path d="M114.392 18.324V50.8671L121.45 50.1699V19.0212L114.392 18.324Z" fill="#9C4236"/>
<path d="M134.169 48.9135V20.2769L129.077 19.7747V49.4166L134.169 48.9135Z" fill="#9C4236"/>
<path d="M106.685 17.563V51.6285L113.744 50.9313V18.2602L106.685 17.563Z" fill="#9C4236"/>
<path d="M103.285 17.5098H99.0127V51.6806H103.285H106.036V17.5098H103.285Z" fill="#9C4236"/>
<path d="M70.3206 30.6342L65.7297 53.2983L69.6849 30.4915L70.3206 30.6342Z" fill="#9C4236"/>
<path opacity="0.75" d="M49.8823 55.7737C62.7139 58.2156 75.7074 58.2156 88.5389 55.7737V44.1422C79.1751 49.6686 66.1602 52.5183 49.8823 52.9769V55.7737Z" fill="white"/>
<path opacity="0.75" d="M49.8823 13.4172V20.0893C56.4925 15.7483 66.0282 13.2901 77.2358 11.9065C68.1132 11.1913 58.9571 11.6905 49.8823 13.4172Z" fill="white"/>
<path d="M70.4681 34.5951C70.4681 33.8357 69.9049 33.2201 69.2101 33.2201C68.5154 33.2201 67.9521 33.8357 67.9521 34.5951C67.9521 35.3544 68.5154 35.97 69.2101 35.97C69.9049 35.97 70.4681 35.3544 70.4681 34.5951Z" fill="#45354C"/>
<g opacity="0.2">
<path d="M122.1 50.1062L128.429 49.4815V19.7109L125.606 19.4317C124.785 23.5949 123.622 27.6324 122.101 31.4321V50.1062H122.1Z" fill="#1D1D1B"/>
<path d="M122.1 31.4312C123.621 27.6315 124.785 23.5939 125.605 19.4308L122.1 19.0845V31.4312Z" fill="#1D1D1B"/>
<path d="M114.392 50.8672L121.451 50.17V33.0019C119.59 37.2836 117.245 41.219 114.392 44.6357V50.8672Z" fill="#1D1D1B"/>
<path d="M134.169 48.9139V20.2773L129.078 19.775V49.4169L134.169 48.9139Z" fill="#1D1D1B"/>
<path d="M106.693 51.6278L113.744 50.9313V45.3877C111.659 47.7633 109.311 49.8621 106.693 51.6278Z" fill="#1D1D1B"/>
</g>
<g opacity="0.1">
<path d="M16.3201 19.0853L9.9917 19.71L9.9917 38.7904C11.777 35.0328 13.9654 31.4546 16.3201 28.0215V19.0853Z" fill="white"/>
<path d="M16.9697 19.0215V27.0842C19.0675 24.0831 21.2716 21.1912 23.4194 18.3843L16.9697 19.0215Z" fill="white"/>
<path d="M9.34251 19.7749L4.25 20.2779L4.25 48.9137L6.39561 49.1259C7.06062 46.0374 8.07813 43.0699 9.34251 40.2069L9.34251 19.7749Z" fill="white"/>
</g>
</g>
<defs>
<filter id="filter0_d_762_5141" x="0.25" y="0.750084" width="138" height="72.9999" filterUnits="userSpaceOnUse" color-interpolation-filters="sRGB">
<feFlood flood-opacity="0" result="BackgroundImageFix"/>
<feColorMatrix in="SourceAlpha" type="matrix" values="0 0 0 0 0 0 0 0 0 0 0 0 0 0 0 0 0 0 127 0" result="hardAlpha"/>
<feOffset dy="4"/>
<feGaussianBlur stdDeviation="2"/>
<feComposite in2="hardAlpha" operator="out"/>
<feColorMatrix type="matrix" values="0 0 0 0 0 0 0 0 0 0 0 0 0 0 0 0 0 0 0.25 0"/>
<feBlend mode="normal" in2="BackgroundImageFix" result="effect1_dropShadow_762_5141"/>
<feBlend mode="normal" in="SourceGraphic" in2="effect1_dropShadow_762_5141" result="shape"/>
</filter>
</defs>
</svg>
