<svg width="1681" height="1680" viewBox="0 0 1681 1680" fill="none" xmlns="http://www.w3.org/2000/svg">
<g clip-path="url(#clip0_1166_2121)">
<path d="M1555.8 523.217L1593.32 466.989C1583.67 447.632 1573.38 428.76 1562.33 410.314L1526.23 463.577C1536.9 482.974 1546.78 502.872 1555.8 523.217Z" fill="#ECB453"/>
<path d="M1555.81 523.233C1571.47 558.434 1584.58 595.03 1594.95 632.721L1636.59 571.279C1624.47 535.355 1609.95 500.502 1593.32 466.989L1555.8 523.217C1555.8 523.222 1555.81 523.228 1555.81 523.233Z" fill="#FAD67C"/>
<path d="M1555.8 523.217L1515.33 583.869C1529.63 621.466 1540.88 660.557 1548.78 700.855L1594.95 632.721C1584.58 595.029 1571.47 558.433 1555.81 523.233C1555.81 523.228 1555.8 523.222 1555.8 523.217Z" fill="#DBB360"/>
<path d="M1397.41 450.67C1274.07 276.225 1070.24 162.232 839.651 162.232C463.232 162.232 158.06 465.95 158.054 840.65C158.057 1065.72 268.191 1265.14 437.703 1388.55C550.402 1470.59 689.33 1519.07 839.651 1519.07C1216.07 1519.07 1521.24 1215.35 1521.25 840.65C1521.24 695.486 1475.41 560.994 1397.41 450.67ZM1379.55 443.044C1461.38 552.927 1510.12 688.637 1511.21 835.672H1477.38C1476.14 676.72 1416.24 531.701 1318.14 420.98C1311.45 413.434 1304.59 406.047 1297.56 398.827L1321.41 374.977C1342.26 396.34 1361.7 419.07 1379.55 443.044ZM1467.46 840.651C1467.46 1013.2 1397.2 1169.38 1283.59 1282.47C1169.96 1395.55 1013.04 1465.49 839.65 1465.49C671.132 1465.49 518.176 1399.42 405.399 1291.89C402.14 1288.78 398.903 1285.65 395.712 1282.47C282.095 1169.38 211.841 1013.2 211.838 840.651C211.841 668.098 282.095 511.924 395.712 398.832C509.337 285.749 666.262 215.815 839.65 215.813C1013.04 215.815 1169.96 285.748 1283.59 398.832C1289.08 404.303 1294.45 409.906 1299.74 415.576C1403.81 527.103 1467.46 676.445 1467.46 840.651ZM853.668 172.387C1033.51 176.055 1195.95 250.023 1314.42 367.856L1290.57 391.704C1178.23 279.918 1024.18 209.673 853.669 206.011L853.668 172.387ZM839.65 172.211C841.001 172.211 842.34 172.254 843.689 172.262V205.887C842.34 205.879 841 205.836 839.65 205.836C668.17 205.836 512.507 273.215 397.887 382.807L374.041 358.958C494.788 243.322 658.842 172.213 839.65 172.211ZM364.736 368C365.444 367.296 366.174 366.614 366.885 365.912L390.732 389.761C275.217 503.707 203.277 661.313 201.925 835.672H168.095C169.439 653.058 244.287 487.892 364.736 368ZM364.736 1313.3C244.292 1193.41 169.444 1028.26 168.095 845.649H201.925C203.283 1020.25 275.43 1178.04 391.23 1292.02L367.383 1315.87C366.506 1315.01 365.608 1314.17 364.736 1313.3ZM843.69 1509.04C842.341 1509.05 841.001 1509.09 839.651 1509.09C685.701 1509.09 543.911 1457.51 430.639 1370.82C411.063 1355.84 392.326 1339.83 374.54 1322.83L398.387 1298.98C402.335 1302.75 406.325 1306.47 410.369 1310.14C523.686 1412.85 674.322 1475.47 839.651 1475.47C841.002 1475.47 842.342 1475.43 843.69 1475.42V1509.04ZM853.668 1508.91V1475.29C1024.18 1471.63 1178.23 1401.38 1290.57 1289.6L1314.42 1313.44C1195.95 1431.28 1033.51 1505.24 853.668 1508.91ZM1321.41 1306.32L1297.56 1282.48C1407.8 1169.31 1476.05 1015.43 1477.38 845.649H1511.21C1509.88 1024.75 1437.82 1187.04 1321.41 1306.32Z" fill="black"/>
<path d="M1299.74 415.576C1237.89 398.331 1172.71 389.078 1105.36 389.078C1037.58 389.078 971.986 398.434 909.777 415.882C942.895 421.258 974.747 430.373 1004.88 442.787C1061.51 436.816 1123.08 456.481 1180.4 496.378L1217.82 478.654L1200.41 511.268C1255.08 554.635 1304.69 616.45 1340.68 691.803C1359.94 732.141 1373.7 773.076 1382.28 813.121H1431.35C1435.21 813.121 1437.44 824.802 1432.64 824.802H1384.61C1385.19 827.869 1385.82 830.945 1386.34 833.998H1431.35C1435.21 833.998 1437.44 845.679 1432.64 845.679H1388.12C1388.56 848.713 1388.99 851.742 1389.37 854.761H1431.35C1435.21 854.761 1437.44 866.442 1432.64 866.442H1390.71C1403.42 992.704 1362.17 1102.43 1274.4 1144.35C1232.37 1164.42 1184.93 1166.33 1137 1153.16C1059.5 1226.25 954.834 1271.08 839.649 1271.08C623.371 1271.08 444.166 1113.04 412.264 906.63C393.045 971.664 382.681 1040.5 382.681 1111.76C382.681 1173.96 390.61 1234.3 405.399 1291.89C518.176 1399.42 671.132 1465.49 839.65 1465.49C1013.04 1465.49 1169.96 1395.55 1283.59 1282.47C1397.2 1169.38 1467.46 1013.21 1467.46 840.651C1467.46 676.445 1403.81 527.103 1299.74 415.576Z" fill="#FEFADE"/>
<path d="M718.207 501.455L841.087 799.784C841.178 799.782 841.266 799.764 841.357 799.763C808.179 658.223 840.148 526.399 927.656 469.848C899.389 463.228 869.953 459.617 839.65 459.616C821.367 459.616 803.411 460.975 785.813 463.441C762.546 474.931 739.977 487.616 718.207 501.455Z" fill="#FEFADE"/>
<path d="M460.995 784.26C458.252 802.663 456.794 821.485 456.793 840.651C456.795 945.88 499.632 1041.1 568.921 1110.07C638.218 1179.04 733.904 1221.68 839.65 1221.69C933.064 1221.68 1018.59 1188.37 1085.05 1133.06C1005.99 1093.63 930.432 1015.4 880.78 911.436C877.505 904.577 874.433 897.698 871.472 890.811C865.667 894.161 859.032 896.234 851.942 896.61C851.162 896.651 850.375 896.671 849.584 896.671C848.61 896.671 847.64 896.64 846.68 896.576C845.335 896.488 844.007 896.34 842.697 896.13C841.138 895.886 839.608 895.56 838.11 895.153C836.987 894.851 835.886 894.505 834.802 894.12C830.89 892.717 827.233 890.778 823.922 888.388C823.194 887.862 822.483 887.313 821.788 886.744C820.482 885.674 819.24 884.532 818.068 883.321C816.709 881.92 815.444 880.425 814.282 878.853C813.514 877.815 812.831 876.712 812.155 875.606C811.619 875.105 811.045 874.643 810.535 874.115C809.176 872.715 807.912 871.221 806.75 869.647C805.758 868.308 804.84 866.907 804.005 865.455C803.216 864.086 802.499 862.673 801.861 861.219C801.243 859.815 800.723 858.36 800.254 856.883C800.223 856.782 800.196 856.678 800.165 856.577C799.717 855.129 799.351 853.65 799.052 852.143C798.659 850.16 798.359 848.144 798.243 846.076C798.197 845.25 798.175 844.422 798.175 843.587C798.175 824.98 809.764 809.104 826.108 802.721L705.446 509.773C602.194 578.504 517.623 673.065 460.995 784.26Z" fill="#FEFADE"/>
<path d="M1283.59 398.832C1169.96 285.749 1013.04 215.815 839.65 215.813C666.262 215.815 509.337 285.748 395.712 398.832C282.095 511.923 211.841 668.098 211.838 840.651C211.841 1013.2 282.095 1169.38 395.712 1282.47C398.904 1285.65 402.14 1288.78 405.399 1291.89C390.61 1234.3 382.681 1173.96 382.681 1111.76C382.681 1040.5 393.046 971.663 412.264 906.63C408.939 885.121 407.21 863.088 407.209 840.653C407.213 660.052 518.96 505.476 677.36 441.591L673.428 432.047L625.959 412.942L617.345 270.569L709.16 379.721L687.552 427.036L691.331 436.21C737.592 419.398 787.544 410.22 839.65 410.22C863.53 410.22 886.949 412.178 909.777 415.884C971.986 398.435 1037.58 389.08 1105.36 389.08C1172.71 389.08 1237.89 398.333 1299.74 415.578C1294.45 409.906 1289.08 404.303 1283.59 398.832Z" fill="#E8E1BC"/>
<path d="M841.358 799.762C841.594 799.759 841.818 799.708 842.055 799.708L842.72 799.713C844.355 799.737 845.965 799.852 847.551 800.049C849.439 800.286 851.295 800.644 853.103 801.114C854.801 801.552 856.46 802.091 858.07 802.724C859.846 803.418 861.563 804.23 863.217 805.141C863.997 805.57 864.754 806.023 865.503 806.498L1105.91 573.914L1105.82 566.903C1057.09 519.965 995.917 485.835 927.658 469.848C840.149 526.398 808.18 658.222 841.358 799.762Z" fill="white"/>
<path d="M879.625 820.929C880.331 821.595 881.075 822.22 881.735 822.93C882.632 823.895 883.484 824.901 884.29 825.941C885.374 827.341 886.38 828.808 887.289 830.338C887.864 831.3 888.403 832.284 888.906 833.296C889.774 835.045 890.531 836.862 891.162 838.736C892.653 843.148 893.461 847.876 893.461 852.792C893.461 869.049 884.609 883.228 871.471 890.81C874.432 897.696 877.504 904.576 880.779 911.435C930.432 1015.4 1005.99 1093.63 1085.05 1133.06C1093.82 1125.76 1102.3 1118.12 1110.38 1110.08C1179.67 1041.1 1222.5 945.88 1222.5 840.651C1222.5 742.266 1185.04 652.639 1123.54 585.023L1116.2 584.788L876.614 816.568C876.659 816.626 876.711 816.677 876.756 816.735C877.244 817.364 877.649 818.055 878.103 818.71C878.093 818.658 878.089 818.604 878.078 818.552C878.622 819.327 879.137 820.12 879.625 820.929Z" fill="white"/>
<path d="M893.463 852.792C893.463 847.876 892.654 843.148 891.164 838.736C890.533 836.863 889.775 835.046 888.908 833.296C888.404 832.285 887.866 831.301 887.291 830.338C886.383 828.808 885.376 827.342 884.292 825.941C883.486 824.901 882.633 823.894 881.737 822.93C881.078 822.22 880.333 821.594 879.627 820.929C879.669 820.998 879.718 821.063 879.759 821.133C880.336 822.095 880.872 823.082 881.376 824.091C882.243 825.84 883.001 827.657 883.634 829.533C885.125 833.945 885.934 838.67 885.934 843.587C885.934 867.026 867.549 886.179 844.414 887.404C843.632 887.445 842.847 887.465 842.056 887.465C841.079 887.465 840.112 887.434 839.152 887.37C837.805 887.282 836.477 887.136 835.167 886.924C833.61 886.683 832.08 886.354 830.58 885.95C829.46 885.648 828.356 885.299 827.274 884.915C823.36 883.512 819.703 881.575 816.395 879.183C815.664 878.657 814.953 878.109 814.261 877.541C813.523 876.936 812.855 876.257 812.159 875.607C812.835 876.714 813.518 877.817 814.286 878.854C815.448 880.425 816.712 881.921 818.072 883.322C819.244 884.533 820.486 885.675 821.792 886.745C822.486 887.315 823.198 887.863 823.926 888.389C827.237 890.779 830.893 892.717 834.806 894.121C835.89 894.506 836.991 894.852 838.114 895.154C839.612 895.561 841.142 895.887 842.701 896.131C844.012 896.34 845.339 896.489 846.684 896.577C847.644 896.64 848.613 896.672 849.588 896.672C850.38 896.672 851.166 896.652 851.946 896.611C859.035 896.235 865.67 894.162 871.476 890.812C884.611 883.228 893.463 869.048 893.463 852.792Z" fill="#C6BDA3"/>
<path d="M1548.78 700.855C1540.88 660.557 1529.63 621.466 1515.33 583.869C1507.1 562.221 1497.86 541.074 1487.67 520.479C1482.24 509.518 1476.54 498.716 1470.59 488.078C1447.03 474.253 1422.57 461.807 1397.41 450.67C1475.41 560.994 1521.25 695.486 1521.25 840.65C1521.24 1215.35 1216.07 1519.07 839.651 1519.07C689.331 1519.07 550.402 1470.59 437.703 1388.55C448.523 1414.6 460.764 1439.92 474.438 1464.34C521.113 1491.75 571.129 1514.07 623.748 1530.52C645.311 1537.26 667.319 1543 689.699 1547.72C719.937 1554.1 750.863 1558.61 782.366 1561.08C801.271 1562.57 820.374 1563.34 839.66 1563.34C847.136 1563.34 854.575 1563.19 861.996 1562.97C899.644 1561.82 936.562 1557.79 972.548 1551.1C1308.19 1488.71 1562.34 1194.38 1562.34 840.661C1562.34 792.825 1557.65 746.093 1548.78 700.855Z" fill="#FEFADE"/>
<path d="M474.438 1464.34C460.764 1439.92 448.523 1414.6 437.703 1388.55C268.191 1265.14 158.057 1065.72 158.054 840.65C158.059 465.95 463.231 162.233 839.651 162.232C1070.24 162.232 1274.07 276.224 1397.41 450.67C1422.57 461.807 1447.03 474.253 1470.58 488.078C1439.71 432.958 1401.83 382.296 1358.15 337.299C1357.99 337.139 1357.83 336.98 1357.68 336.82C1341.54 320.231 1324.61 304.419 1306.96 289.435C1306.51 289.053 1306.06 288.673 1305.61 288.292C1288.2 273.592 1270.09 259.708 1251.34 246.682C1250.6 246.169 1249.86 245.654 1249.12 245.143C1236.7 236.589 1224.01 228.406 1211.05 220.625C1210.38 220.222 1209.7 219.83 1209.03 219.43C1203.29 216.01 1197.5 212.673 1191.66 209.41C1190.64 208.838 1189.62 208.262 1188.59 207.694C1175.61 200.521 1162.39 193.737 1148.93 187.355C1147.72 186.781 1146.5 186.222 1145.29 185.654C1139.63 183.007 1133.93 180.433 1128.18 177.929C1126.95 177.391 1125.72 176.842 1124.49 176.311C1110.98 170.512 1097.26 165.123 1083.34 160.139C1081.71 159.552 1080.06 158.979 1078.42 158.404C1072.72 156.41 1066.99 154.487 1061.23 152.633C1059.87 152.194 1058.51 151.737 1057.14 151.306C1050.11 149.09 1043.04 146.97 1035.92 144.965C1034.89 144.675 1033.85 144.41 1032.81 144.124C1026.78 142.453 1020.7 140.864 1014.6 139.347C1012.66 138.864 1010.71 138.39 1008.76 137.923C1002.85 136.504 996.9 135.157 990.927 133.885C989.612 133.605 988.307 133.3 986.99 133.028C979.796 131.537 972.561 130.161 965.292 128.886C963.636 128.596 961.969 128.34 960.309 128.06C954.575 127.096 948.817 126.199 943.037 125.371C940.904 125.065 938.771 124.762 936.633 124.475C930.206 123.612 923.755 122.828 917.275 122.136C916.306 122.032 915.345 121.904 914.375 121.805C906.992 121.046 899.57 120.422 892.123 119.888C890.107 119.743 888.084 119.632 886.064 119.504C880.366 119.143 874.651 118.848 868.918 118.619C866.742 118.533 864.569 118.438 862.387 118.371C854.838 118.138 847.269 117.98 839.662 117.98C816.761 117.98 794.123 119.095 771.766 121.179C654.649 132.094 545.642 170.921 451.486 230.994C289.055 334.625 170.822 501.377 131.337 696.693C121.931 743.22 116.977 791.36 116.977 840.661C116.977 848.145 117.128 855.592 117.354 863.02C117.421 865.22 117.518 867.412 117.604 869.607C117.82 875.102 118.097 880.581 118.436 886.044C118.57 888.212 118.694 890.382 118.848 892.544C119.368 899.885 119.963 907.205 120.702 914.483C120.702 914.483 120.703 914.489 120.703 914.493C121.445 921.807 122.331 929.078 123.29 936.326C123.564 938.402 123.867 940.468 124.159 942.539C124.925 947.967 125.751 953.376 126.637 958.765C126.97 960.79 127.293 962.818 127.643 964.837C130.132 979.202 133.041 993.423 136.365 1007.48C136.805 1009.34 137.269 1011.19 137.723 1013.05C139.052 1018.47 140.44 1023.88 141.89 1029.25C142.378 1031.06 142.855 1032.87 143.356 1034.67C147.244 1048.65 151.539 1062.47 156.233 1076.09C156.777 1077.67 157.342 1079.24 157.897 1080.82C159.824 1086.29 161.813 1091.73 163.867 1097.13C164.445 1098.66 165.014 1100.18 165.602 1101.7C170.861 1115.27 176.515 1128.64 182.556 1141.8C183.124 1143.03 183.707 1144.26 184.282 1145.49C186.865 1151.03 189.515 1156.54 192.234 1162.01C192.824 1163.19 193.405 1164.38 194 1165.56C200.61 1178.67 207.602 1191.55 214.971 1204.18C215.478 1205.05 215.997 1205.91 216.508 1206.78C219.809 1212.39 223.183 1217.94 226.631 1223.45C227.15 1224.28 227.664 1225.11 228.187 1225.94C236.123 1238.51 244.43 1250.82 253.104 1262.84C253.48 1263.36 253.862 1263.88 254.238 1264.4C258.296 1269.99 262.432 1275.53 266.645 1281C267.04 1281.52 267.431 1282.03 267.828 1282.55C277.048 1294.46 286.627 1306.08 296.557 1317.38C296.757 1317.61 296.96 1317.83 297.161 1318.06C301.99 1323.54 306.902 1328.95 311.893 1334.28C312.12 1334.52 312.346 1334.77 312.573 1335.01C323.021 1346.14 333.812 1356.95 344.94 1367.4C344.949 1367.41 344.958 1367.42 344.967 1367.43C350.532 1372.66 356.182 1377.8 361.911 1382.85C361.982 1382.91 362.053 1382.97 362.124 1383.04C396.774 1413.57 434.372 1440.83 474.438 1464.34Z" fill="#E8E1BC"/>
<path d="M1217.82 478.653L1180.4 496.377L1128.95 520.743L1119.07 525.424L1105.36 531.915L1105.64 552.977L1105.82 566.901L1105.91 573.912L865.503 806.496C864.754 806.022 863.997 805.569 863.217 805.139C861.563 804.228 859.845 803.417 858.07 802.722C856.46 802.089 854.801 801.55 853.103 801.112C851.295 800.642 849.439 800.284 847.551 800.047C845.965 799.85 844.355 799.735 842.72 799.711L842.055 799.706C841.818 799.706 841.594 799.756 841.358 799.76C841.266 799.762 841.179 799.779 841.088 799.781L718.208 501.452L710.194 482L706.387 472.757L695.141 445.455L691.332 436.207L687.553 427.033L683.429 436.064L682.289 385.45L617.346 270.566L625.96 412.939L673.429 432.044L677.361 441.588L681.191 450.887L692.415 478.139L696.215 487.364L705.446 509.774L826.109 802.721C809.765 809.103 798.176 824.98 798.176 843.587C798.176 844.423 798.198 845.251 798.244 846.076C798.36 848.144 798.66 850.159 799.053 852.142L799.791 853.267C800.951 854.841 802.215 856.334 803.577 857.735C804.749 858.946 805.991 860.088 807.297 861.16C807.991 861.728 808.7 862.276 809.431 862.802C812.741 865.194 816.396 867.131 820.31 868.534C821.392 868.919 822.495 869.267 823.616 869.569C825.117 869.973 826.646 870.302 828.205 870.543C829.514 870.755 830.844 870.901 832.188 870.989C833.148 871.052 834.115 871.084 835.092 871.084C835.884 871.084 836.67 871.064 837.45 871.023C860.585 869.798 878.97 850.645 878.97 827.206C878.97 824.293 878.647 821.464 878.105 818.711C877.651 818.056 877.246 817.365 876.758 816.736C876.713 816.678 876.661 816.627 876.616 816.569L1116.2 584.789L1106.06 584.464L1146.68 567.036L1217.82 478.653Z" fill="#ECB453"/>
<path d="M1423.05 318.184C1439.91 336.984 1455.86 356.632 1470.82 377.026L1504.85 326.028C1489.41 306.082 1473.06 286.832 1455.9 268.333L1423.04 318.172C1423.04 318.176 1423.05 318.18 1423.05 318.184Z" fill="#ECB453"/>
<path d="M1016.89 77.6109C1104.24 97.8169 1185.96 132.635 1259.39 179.377C1270.18 163.253 1280.92 147.187 1291.56 131.228C1276.44 121.579 1261.05 112.463 1245.28 103.776C1213.6 86.2969 1180.68 70.7479 1146.63 57.4489C1115.74 45.3319 1083.94 34.9839 1051.4 26.5649L1016.88 77.6069C1016.88 77.6069 1016.89 77.6099 1016.89 77.6109Z" fill="#ECB453"/>
<path d="M197.547 1289.2C197.542 1289.19 197.537 1289.18 197.532 1289.18L163.045 1340.17C185.296 1370.31 209.532 1398.94 235.591 1425.8C258.059 1449.02 281.864 1470.89 306.904 1491.43C320.202 1502.31 333.82 1512.82 347.815 1522.9C358.438 1507.03 369.205 1490.98 380.042 1474.84C309.346 1423.6 247.636 1360.79 197.547 1289.2Z" fill="#ECB453"/>
<path d="M525.369 123.112C544.439 95.2229 563.443 67.4049 582.289 39.7549C243.688 148.442 -1.34912 465.918 -1.34912 840.66C-1.34912 856.691 -0.920125 872.562 -0.00912476 888.38C18.8759 860.732 38.0259 832.752 57.3099 804.604C71.0979 499.344 259.725 239.619 525.369 123.112Z" fill="#ECB453"/>
<path d="M813.841 57.9061C822.423 57.6071 831.054 57.455 839.685 57.455C863.023 57.455 886.11 58.4521 908.898 60.4461L945.02 6.19106C914.618 2.38306 883.734 0.186057 852.421 -0.241943L813.792 57.9091C813.808 57.9081 813.824 57.9071 813.841 57.9061Z" fill="#ECB453"/>
<path d="M146.509 1205.53C131.99 1178.09 119.118 1149.76 107.944 1120.52C107.94 1120.51 107.937 1120.5 107.933 1120.49L69.3184 1178.62C81.5454 1206.5 95.2724 1233.58 110.392 1259.8L146.515 1205.54C146.515 1205.54 146.511 1205.53 146.509 1205.53Z" fill="#ECB453"/>
<path d="M589.234 1582.95C589.22 1582.95 589.206 1582.94 589.192 1582.94L556.338 1632.77C577.088 1640.17 598.213 1646.82 619.714 1652.61L653.713 1601.65C631.82 1596.32 610.328 1590.08 589.234 1582.95Z" fill="#ECB453"/>
<path d="M1636.59 571.279L1594.95 632.721C1594.96 632.745 1594.97 632.768 1594.98 632.791C1613.13 698.995 1622.86 768.691 1622.86 840.683C1622.86 1243.9 1318.18 1575.92 926.494 1619.12C926.479 1619.12 926.464 1619.12 926.449 1619.13L884.862 1680.49C1328.29 1657.01 1680.67 1289.93 1680.67 840.66C1680.67 746.451 1665.17 655.835 1636.59 571.279Z" fill="#ECB453"/>
<path d="M743.794 1618.07C743.777 1618.07 743.76 1618.07 743.743 1618.07L707.65 1671.32C732.744 1675.34 758.212 1678.18 784.003 1679.84L821.494 1623.66C795.263 1623.06 769.329 1621.17 743.794 1618.07Z" fill="#ECB453"/>
<path d="M380.045 1474.84C380.045 1474.84 380.042 1474.84 380.041 1474.84C369.205 1490.98 358.437 1507.03 347.814 1522.9C411.246 1568.75 481.324 1605.91 556.337 1632.77L589.191 1582.94C513.625 1557.44 443.245 1520.78 380.045 1474.84Z" fill="#FBD27B"/>
<path d="M1259.41 179.389C1320.17 218 1375.25 264.792 1423.04 318.171L1455.9 268.332C1407.27 216.001 1352.04 169.835 1291.56 131.228C1280.92 147.187 1270.18 163.253 1259.39 179.377C1259.4 179.381 1259.4 179.385 1259.41 179.389Z" fill="#FBD27B"/>
<path d="M525.475 123.063C614.165 84.1529 711.535 61.2049 813.791 57.9079L852.42 -0.243088C848.183 -0.297088 843.894 -0.350098 839.66 -0.350098C749.901 -0.350098 663.414 13.6959 582.289 39.7539C563.443 67.4039 544.439 95.2219 525.369 123.111C525.405 123.096 525.439 123.079 525.475 123.063Z" fill="#FAD67C"/>
<path d="M56.4562 840.684C56.4562 828.611 56.7072 816.587 57.3062 804.662C57.3072 804.642 57.3092 804.623 57.3092 804.603C38.0252 832.752 18.8762 860.732 -0.00976562 888.379C5.72723 991.112 29.9102 1088.97 69.3182 1178.62L107.933 1120.49C74.6642 1033.59 56.4562 939.255 56.4562 840.684Z" fill="#FAD67C"/>
<path d="M653.743 1601.66C653.733 1601.66 653.723 1601.65 653.713 1601.65L619.714 1652.61C648.454 1660.38 677.785 1666.66 707.651 1671.32L743.744 1618.07C713.179 1614.33 683.113 1608.84 653.743 1601.66Z" fill="#FAD67C"/>
<path d="M1470.85 377.053C1491.15 404.592 1509.66 433.479 1526.23 463.564C1526.23 463.568 1526.23 463.573 1526.23 463.577L1562.33 410.314C1544.91 380.984 1525.66 352.889 1504.85 326.027L1470.83 377.025C1470.83 377.035 1470.84 377.044 1470.85 377.053Z" fill="#FAD67C"/>
<path d="M839.684 1623.86C833.596 1623.86 827.56 1623.81 821.523 1623.66C821.513 1623.66 821.503 1623.66 821.494 1623.66L784.003 1679.84C802.393 1681.08 820.946 1681.67 839.659 1681.67C854.833 1681.67 869.901 1681.29 884.86 1680.49L926.447 1619.13C897.975 1622.27 869.004 1623.86 839.684 1623.86Z" fill="#FAD67C"/>
<path d="M908.932 60.4489C945.697 63.6909 981.762 69.4779 1016.88 77.6079L1051.4 26.5659C1016.76 17.5569 981.213 10.6949 945.021 6.19092L908.898 60.4459C908.909 60.4469 908.92 60.4479 908.932 60.4489Z" fill="#FAD67C"/>
<path d="M146.514 1205.54L110.391 1259.8C126.423 1287.62 144.009 1314.49 163.044 1340.17L197.531 1289.18C178.831 1262.45 161.775 1234.57 146.514 1205.54Z" fill="#FAD67C"/>
<path d="M623.748 1530.52L589.192 1582.94C589.206 1582.94 589.221 1582.95 589.234 1582.95C610.328 1590.08 631.82 1596.32 653.713 1601.65L689.699 1547.72C667.319 1543 645.311 1537.27 623.748 1530.52Z" fill="#D1872F"/>
<path d="M839.66 117.977C847.266 117.977 854.835 118.134 862.385 118.368C864.566 118.435 866.739 118.53 868.916 118.616C869.323 118.632 869.732 118.646 870.139 118.662L908.898 60.4471C886.11 58.4531 863.023 57.4561 839.685 57.4561C831.054 57.4561 822.423 57.6071 813.841 57.9071C813.825 57.9081 813.808 57.9081 813.792 57.9101L771.764 121.177C794.12 119.092 816.759 117.977 839.66 117.977Z" fill="#D1872F"/>
<path d="M362.123 1383.04C362.052 1382.97 361.981 1382.91 361.91 1382.85C356.181 1377.8 350.531 1372.66 344.966 1367.43C344.957 1367.42 344.948 1367.41 344.939 1367.4C333.812 1356.95 323.019 1346.15 312.572 1335.01C312.345 1334.77 312.119 1334.52 311.892 1334.28C306.901 1328.95 301.989 1323.54 297.16 1318.06C296.959 1317.83 296.756 1317.61 296.556 1317.38C286.626 1306.07 277.046 1294.46 267.827 1282.55C267.43 1282.03 267.039 1281.52 266.644 1281C262.431 1275.53 258.295 1269.99 254.237 1264.4C253.861 1263.88 253.479 1263.36 253.103 1262.84C246.554 1253.76 240.216 1244.52 234.085 1235.12L197.531 1289.18C197.536 1289.18 197.541 1289.19 197.546 1289.2C247.635 1360.79 309.345 1423.6 380.04 1474.83C391.197 1458.22 402.479 1441.45 413.847 1424.57C395.966 1411.51 378.707 1397.65 362.123 1383.04Z" fill="#D1872F"/>
<path d="M1515.33 583.87L1555.8 523.218C1546.78 502.872 1536.9 482.974 1526.23 463.578L1487.67 520.48C1497.86 541.074 1507.1 562.222 1515.33 583.87Z" fill="#D1872F"/>
<path d="M839.66 1563.34C820.374 1563.34 801.271 1562.57 782.366 1561.08L743.743 1618.07C743.76 1618.07 743.777 1618.07 743.794 1618.07C769.329 1621.17 795.263 1623.06 821.494 1623.66L861.995 1562.96C854.575 1563.19 847.135 1563.34 839.66 1563.34Z" fill="#D1872F"/>
<path d="M184.282 1145.49C183.707 1144.26 183.124 1143.03 182.556 1141.8C176.516 1128.64 170.861 1115.27 165.602 1101.7C165.014 1100.18 164.445 1098.66 163.867 1097.13C161.813 1091.73 159.823 1086.29 157.897 1080.82C157.342 1079.24 156.778 1077.67 156.233 1076.09C154.074 1069.82 151.981 1063.52 149.991 1057.18L107.933 1120.49C107.937 1120.5 107.94 1120.51 107.944 1120.52C119.118 1149.76 131.99 1178.09 146.509 1205.53C146.511 1205.54 146.512 1205.54 146.512 1205.54L185.193 1147.45C184.889 1146.8 184.585 1146.14 184.282 1145.49Z" fill="#D1872F"/>
<path d="M986.986 133.025C988.303 133.297 989.609 133.602 990.923 133.882C996.897 135.154 1002.84 136.501 1008.76 137.92C1010.71 138.387 1012.66 138.861 1014.6 139.344C1020.7 140.861 1026.77 142.451 1032.81 144.121C1033.84 144.407 1034.89 144.672 1035.92 144.962C1043.04 146.967 1050.11 149.087 1057.14 151.303C1058.51 151.735 1059.87 152.191 1061.23 152.63C1066.99 154.484 1072.72 156.408 1078.41 158.401C1080.06 158.976 1081.7 159.549 1083.34 160.136C1097.26 165.119 1110.98 170.51 1124.48 176.308C1125.72 176.839 1126.95 177.388 1128.18 177.926C1133.92 180.43 1139.62 183.005 1145.29 185.651C1146.5 186.219 1147.72 186.778 1148.93 187.352C1162.38 193.733 1175.61 200.519 1188.59 207.691C1189.62 208.258 1190.64 208.835 1191.66 209.407C1197.5 212.671 1203.29 216.009 1209.03 219.427C1209.7 219.828 1210.38 220.219 1211.05 220.622C1215.97 223.575 1220.85 226.586 1225.69 229.653C1236.99 212.819 1248.23 196.047 1259.39 179.374C1185.96 132.632 1104.24 97.8129 1016.89 77.6079C1016.89 77.6069 1016.88 77.6069 1016.88 77.6069L980.3 131.7C982.53 132.14 984.764 132.565 986.986 133.025Z" fill="#D1872F"/>
<path d="M451.483 230.991C476.228 194.914 500.871 158.938 525.369 123.112C259.725 239.619 71.0976 499.344 57.3086 804.604C81.7246 768.965 106.415 732.977 131.337 696.693C170.822 501.377 289.055 334.625 451.483 230.991Z" fill="#D1872F"/>
<path d="M1562.34 840.66C1562.34 1194.38 1308.19 1488.71 972.548 1551.1L926.447 1619.13C926.462 1619.12 926.477 1619.12 926.492 1619.12C1318.18 1575.92 1622.86 1243.9 1622.86 840.683C1622.86 768.691 1613.13 698.995 1594.97 632.791C1594.97 632.768 1594.96 632.745 1594.95 632.721L1548.78 700.855C1557.65 746.093 1562.34 792.825 1562.34 840.66Z" fill="#D1872F"/>
<path d="M1434.92 430.835L1470.83 377.026C1455.86 356.631 1439.91 336.984 1423.05 318.184C1423.05 318.18 1423.05 318.176 1423.04 318.172L1388.51 370.551C1405 389.792 1420.49 409.919 1434.92 430.835Z" fill="#D1872F"/>
<path d="M413.848 1424.57C402.48 1441.45 391.199 1458.22 380.041 1474.84L380.044 1474.84C443.245 1520.78 513.625 1557.44 589.192 1582.94L623.748 1530.52C547.583 1506.71 476.863 1470.6 413.848 1424.57Z" fill="#DBB360"/>
<path d="M1249.12 245.143C1249.86 245.654 1250.6 246.168 1251.34 246.682C1270.1 259.706 1288.2 273.594 1305.61 288.292C1306.06 288.673 1306.51 289.053 1306.96 289.435C1324.62 304.418 1341.54 320.232 1357.68 336.82C1357.83 336.981 1357.99 337.139 1358.15 337.299C1368.6 348.067 1378.73 359.148 1388.51 370.55L1423.04 318.171C1375.25 264.792 1320.17 218 1259.41 179.389C1259.4 179.385 1259.4 179.381 1259.39 179.377C1248.24 196.05 1236.99 212.822 1225.7 229.656C1233.61 234.667 1241.42 239.837 1249.12 245.143Z" fill="#DBB360"/>
<path d="M143.356 1034.67C142.855 1032.87 142.377 1031.06 141.89 1029.25C140.44 1023.88 139.052 1018.48 137.723 1013.05C137.269 1011.2 136.805 1009.34 136.365 1007.48C133.042 993.423 130.131 979.204 127.643 964.838C127.293 962.819 126.97 960.791 126.637 958.766C125.751 953.377 124.925 947.968 124.159 942.54C123.867 940.469 123.564 938.403 123.29 936.327C122.332 929.079 121.445 921.808 120.703 914.494C120.703 914.49 120.702 914.487 120.702 914.487C119.963 907.205 119.368 899.885 118.848 892.544C118.694 890.382 118.57 888.211 118.436 886.044C118.097 880.581 117.82 875.102 117.604 869.607C117.518 867.412 117.42 865.22 117.354 863.02C117.128 855.591 116.977 848.144 116.977 840.661C116.977 791.36 121.932 743.22 131.337 696.693C106.415 732.978 81.7251 768.965 57.3091 804.604C57.3091 804.624 57.3061 804.643 57.3061 804.663C56.7071 816.588 56.4561 828.612 56.4561 840.685C56.4561 939.256 74.6641 1033.59 107.933 1120.49L149.991 1057.18C147.655 1049.73 145.455 1042.22 143.356 1034.67Z" fill="#DBB360"/>
<path d="M771.764 121.175L813.792 57.908C711.535 61.204 614.166 84.153 525.476 123.063C525.44 123.079 525.406 123.096 525.37 123.112C500.873 158.938 476.229 194.914 451.484 230.991C545.639 170.917 654.647 132.09 771.764 121.175Z" fill="#DBB360"/>
<path d="M1470.58 488.077C1476.54 498.715 1482.24 509.517 1487.66 520.479L1526.23 463.577C1526.23 463.573 1526.22 463.568 1526.22 463.564C1509.66 433.479 1491.15 404.592 1470.84 377.053C1470.84 377.044 1470.83 377.035 1470.82 377.026L1434.92 430.835C1447.67 449.312 1459.57 468.41 1470.58 488.077Z" fill="#DBB360"/>
<path d="M689.699 1547.72L653.713 1601.65C653.723 1601.65 653.733 1601.66 653.743 1601.66C683.112 1608.84 713.179 1614.33 743.743 1618.07L782.366 1561.08C750.863 1558.61 719.937 1554.1 689.699 1547.72Z" fill="#DBB360"/>
<path d="M861.996 1562.96L821.495 1623.66C821.504 1623.66 821.514 1623.66 821.524 1623.66C827.561 1623.81 833.597 1623.86 839.685 1623.86C869.004 1623.86 897.975 1622.27 926.448 1619.13L972.549 1551.1C936.561 1557.79 899.644 1561.82 861.996 1562.96Z" fill="#DBB360"/>
<path d="M228.186 1225.94C227.663 1225.11 227.15 1224.28 226.63 1223.45C223.183 1217.94 219.808 1212.39 216.507 1206.78C215.996 1205.91 215.478 1205.05 214.97 1204.18C207.601 1191.55 200.608 1178.67 193.999 1165.56C193.403 1164.38 192.823 1163.19 192.233 1162.01C189.834 1157.18 187.487 1152.33 185.193 1147.44L146.514 1205.54C161.775 1234.57 178.83 1262.44 197.531 1289.18L234.085 1235.12C232.097 1232.08 230.129 1229.02 228.186 1225.94Z" fill="#DBB360"/>
<path d="M886.061 119.5C888.081 119.628 890.104 119.74 892.12 119.884C899.568 120.418 906.989 121.043 914.372 121.801C915.342 121.9 916.303 122.029 917.272 122.132C923.752 122.824 930.202 123.609 936.63 124.471C938.769 124.758 940.901 125.061 943.034 125.367C948.814 126.195 954.571 127.092 960.306 128.056C961.966 128.335 963.633 128.591 965.289 128.882C970.314 129.763 975.313 130.715 980.301 131.699L1016.88 77.6071C981.763 69.4771 945.698 63.6901 908.933 60.4481C908.921 60.4471 908.91 60.4461 908.899 60.4451L870.14 118.66C875.462 118.883 880.769 119.165 886.061 119.5Z" fill="#DBB360"/>
<path d="M1290.57 1289.6C1178.23 1401.38 1024.18 1471.63 853.668 1475.29V1508.91C1033.51 1505.25 1195.95 1431.28 1314.42 1313.44L1290.57 1289.6Z" fill="#FEFADE"/>
<path d="M541.56 1138.56L562.443 1117.68C494.012 1049.84 450.668 957.022 447.156 854.131H430.01C426.267 863.938 422.718 873.84 419.395 883.846C429.531 982.704 474.063 1071.4 540.916 1137.95C541.126 1138.16 541.35 1138.35 541.56 1138.56Z" fill="#FEFADE"/>
<path d="M843.69 1475.42C842.341 1475.42 841.001 1475.47 839.651 1475.47C674.323 1475.47 523.686 1412.85 410.369 1310.14C416.249 1330.76 423.018 1351 430.639 1370.82C543.91 1457.51 685.701 1509.09 839.651 1509.09C841.002 1509.09 842.341 1509.05 843.69 1509.04V1475.42Z" fill="#FEFADE"/>
<path d="M840.922 1231.63C840.495 1231.63 840.077 1231.66 839.65 1231.66C735.056 1231.66 640.083 1190.9 569.685 1124.55L548.802 1145.43C624.568 1217.07 726.888 1261.1 839.651 1261.1C840.078 1261.1 840.496 1261.07 840.923 1261.07L840.922 1231.63Z" fill="#FEFADE"/>
<path d="M985.309 445.864C953.973 434.408 920.876 426.61 886.555 422.835C874.529 426.651 862.645 430.784 850.9 435.203V449.921C881.621 450.784 911.471 455.079 940.038 462.574C942.364 461.33 944.657 460.037 947.054 458.893C959.38 453.005 972.179 448.716 985.309 445.864Z" fill="#FEFADE"/>
<path d="M1094.87 1137.77C1028.87 1193.99 943.95 1228.77 850.9 1231.38V1260.82C956.913 1258.05 1053.16 1216.53 1125.86 1149.83C1115.52 1146.49 1105.18 1142.47 1094.87 1137.77Z" fill="#FEFADE"/>
<path d="M1477.38 845.65C1476.05 1015.43 1407.8 1169.31 1297.56 1282.48L1321.41 1306.33C1437.82 1187.05 1509.88 1024.76 1511.21 845.65H1477.38Z" fill="#FEFADE"/>
<path d="M839.65 449.638C840.077 449.638 840.495 449.668 840.922 449.67V438.997C831.581 442.671 822.354 446.57 813.208 450.618C821.956 450.038 830.754 449.638 839.65 449.638Z" fill="#FEFADE"/>
<path d="M1318.14 420.979C1416.24 531.701 1476.14 676.719 1477.38 835.671H1511.2C1510.12 688.636 1461.38 552.927 1379.55 443.043C1359.51 434.813 1339.04 427.413 1318.14 420.979Z" fill="#FEFADE"/>
<path d="M446.904 844.153C446.894 842.981 446.815 841.825 446.815 840.65C446.815 830.688 447.314 820.848 448.049 811.074C443.061 821.959 438.332 832.985 433.877 844.152L446.904 844.153Z" fill="#FEFADE"/>
<path d="M548.484 536.171L569.367 557.054C604.779 523.605 646.418 496.668 692.415 478.139L681.191 450.887C631.558 470.896 586.649 500.011 548.484 536.171Z" fill="#E8E1BC"/>
<path d="M850.9 420.479V435.203C862.644 430.784 874.529 426.651 886.555 422.835C874.812 421.544 862.913 420.792 850.9 420.479Z" fill="#E8E1BC"/>
<path d="M398.387 1298.98L374.54 1322.83C392.326 1339.83 411.063 1355.84 430.639 1370.82C423.018 1351 416.249 1330.76 410.369 1310.14C406.324 1306.47 402.335 1302.75 398.387 1298.98Z" fill="#E8E1BC"/>
<path d="M391.23 1292.03C275.43 1178.05 203.283 1020.25 201.925 845.65H168.095C169.444 1028.26 244.291 1193.42 364.736 1313.3C365.608 1314.17 366.507 1315.01 367.384 1315.88L391.23 1292.03Z" fill="#E8E1BC"/>
<path d="M1321.41 374.976L1297.56 398.826C1304.59 406.047 1311.45 413.433 1318.14 420.979C1339.04 427.413 1359.51 434.813 1379.55 443.044C1361.7 419.07 1342.26 396.34 1321.41 374.976Z" fill="#E8E1BC"/>
<path d="M397.888 382.806C512.508 273.214 668.17 205.836 839.651 205.835C841.002 205.835 842.342 205.878 843.69 205.886V172.261C842.341 172.253 841.001 172.21 839.651 172.21C658.843 172.212 494.788 243.321 374.042 358.957L397.888 382.806Z" fill="#E8E1BC"/>
<path d="M201.924 835.671C203.276 661.313 275.216 503.707 390.731 389.76L366.884 365.911C366.173 366.612 365.443 367.294 364.735 367.999C244.286 487.89 169.438 653.057 168.094 835.67L201.924 835.671Z" fill="#E8E1BC"/>
<path d="M417.276 844.153H433.877C438.332 832.986 443.061 821.96 448.049 811.075C455.294 714.776 497.458 628.178 562.125 563.924L541.242 543.041C541.135 543.147 541.022 543.246 540.916 543.352C464.46 619.458 417.191 724.536 417.188 840.651C417.188 841.825 417.266 842.981 417.276 844.153Z" fill="#E8E1BC"/>
<path d="M853.668 206.012C1024.18 209.673 1178.23 279.918 1290.57 391.705L1314.42 367.857C1195.95 250.024 1033.51 176.056 853.667 172.388L853.668 206.012Z" fill="#E8E1BC"/>
<path d="M813.208 450.618C822.354 446.57 831.582 442.671 840.922 438.997V420.228C840.495 420.227 840.077 420.196 839.65 420.196C788.882 420.197 740.222 429.123 695.14 445.456L706.386 472.758C740.09 460.659 775.943 453.086 813.208 450.618Z" fill="#E8E1BC"/>
<path d="M460.995 784.26C517.623 673.065 602.193 578.505 705.446 509.774L696.215 487.364C648.192 506.697 604.964 535.357 568.921 571.227C512.252 627.637 473.314 701.618 460.995 784.26Z" fill="#E8E1BC"/>
<path d="M785.814 463.44C759.666 467.104 734.364 473.357 710.194 482L718.207 501.455C739.977 487.616 762.546 474.931 785.814 463.44Z" fill="#E8E1BC"/>
<path d="M417.531 854.131C417.848 864.118 418.391 874.047 419.396 883.846C422.719 873.84 426.267 863.938 430.011 854.131H417.531Z" fill="#E8E1BC"/>
<path d="M1232.36 835.666H1261.99C1260.83 736.597 1225.32 645.796 1166.67 574.495L1160.42 586.202L1137.15 585.458C1195.49 652.779 1231.15 740.061 1232.36 835.666Z" fill="white"/>
<path d="M1144.2 1131.88C1216.1 1057.42 1260.68 956.761 1261.99 845.644H1232.36C1231.05 948.59 1189.8 1041.89 1123.31 1110.99L1144.2 1131.88Z" fill="white"/>
<path d="M1137.24 1139.04L1116.36 1118.15C1109.46 1124.97 1102.26 1131.47 1094.87 1137.77C1105.18 1142.47 1115.52 1146.49 1125.86 1149.83C1129.72 1146.3 1133.52 1142.71 1137.24 1139.04Z" fill="white"/>
<path d="M1128.95 520.743L1180.4 496.377C1123.08 456.48 1061.51 436.815 1004.88 442.786C1050.75 461.678 1092.63 488.186 1128.95 520.743Z" fill="white"/>
<path d="M1272.09 840.651C1272.09 963.725 1220.19 1074.72 1137 1153.16C1184.93 1166.33 1232.37 1164.42 1274.41 1144.35C1362.17 1102.43 1403.42 992.704 1390.71 866.441C1359.77 866.441 1328.83 866.441 1297.9 866.441C1294.04 866.441 1291.8 854.76 1296.61 854.76C1302.26 854.76 1307.91 854.76 1313.56 854.76C1338.83 854.76 1364.1 854.76 1389.37 854.76C1388.99 851.742 1388.56 848.713 1388.12 845.678C1358.04 845.678 1327.97 845.678 1297.9 845.678C1294.04 845.678 1291.8 833.997 1296.61 833.997C1302.26 833.997 1307.91 833.997 1313.56 833.997C1337.82 833.997 1362.08 833.997 1386.34 833.997C1385.82 830.944 1385.19 827.867 1384.61 824.801C1355.7 824.801 1326.8 824.801 1297.9 824.801C1294.04 824.801 1291.8 813.12 1296.61 813.12C1302.26 813.12 1307.91 813.12 1313.56 813.12C1336.47 813.12 1359.38 813.12 1382.28 813.12C1373.7 773.075 1359.94 732.14 1340.68 691.802C1304.69 616.449 1255.08 554.634 1200.41 511.267L1171.75 564.975C1234.38 639.649 1272.09 735.758 1272.09 840.651Z" fill="white"/>
<path d="M1119.07 525.425C1080.16 491.241 1034.96 464.013 985.31 445.864C972.18 448.716 959.381 453.005 947.054 458.892C944.658 460.036 942.365 461.329 940.038 462.573C1002.76 479.03 1059.33 510.531 1105.64 552.977L1105.36 531.915L1119.07 525.425Z" fill="white"/>
<path d="M691.332 436.207L695.141 445.455C740.223 429.122 788.883 420.197 839.651 420.195C840.078 420.195 840.496 420.226 840.923 420.227V438.996V449.669C840.496 449.667 840.078 449.637 839.651 449.637C830.755 449.637 821.957 450.038 813.208 450.617C775.944 453.085 740.09 460.658 706.387 472.756L710.194 481.999C734.364 473.356 759.667 467.103 785.814 463.439C803.412 460.973 821.367 459.614 839.651 459.614C869.954 459.614 899.391 463.226 927.657 469.846C995.917 485.833 1057.09 519.963 1105.82 566.901L1105.64 552.977C1059.33 510.531 1002.76 479.03 940.037 462.573C911.471 455.078 881.62 450.784 850.899 449.92V435.202V420.478C862.912 420.791 874.811 421.543 886.554 422.834C920.875 426.609 953.972 434.407 985.308 445.863C1034.95 464.012 1080.16 491.24 1119.07 525.424L1128.95 520.743C1092.63 488.186 1050.75 461.678 1004.88 442.786C974.746 430.372 942.894 421.257 909.777 415.881C886.949 412.175 863.53 410.217 839.65 410.217C787.545 410.217 737.593 419.395 691.332 436.207Z" fill="black"/>
<path d="M1272.09 840.651C1272.09 735.758 1234.38 639.649 1171.75 564.976L1166.67 574.496C1225.32 645.796 1260.82 736.598 1261.99 835.667H1232.36C1231.15 740.062 1195.49 652.78 1137.15 585.459L1123.54 585.024C1185.05 652.639 1222.5 742.266 1222.51 840.652C1222.5 945.881 1179.67 1041.1 1110.38 1110.08C1102.3 1118.12 1093.82 1125.76 1085.05 1133.06C1018.59 1188.37 933.065 1221.68 839.651 1221.69C733.905 1221.68 638.218 1179.04 568.922 1110.07C499.633 1041.1 456.796 945.88 456.794 840.651C456.795 821.485 458.253 802.663 460.996 784.26C473.314 701.619 512.252 627.638 568.922 571.227C604.965 535.357 648.193 506.696 696.216 487.364L692.416 478.139C646.419 496.667 604.78 523.605 569.368 557.054L548.485 536.171C586.65 500.012 631.559 470.896 681.192 450.887L677.362 441.588C518.962 505.473 407.215 660.049 407.211 840.65C407.211 863.086 408.941 885.118 412.266 906.627C444.168 1113.04 623.373 1271.08 839.651 1271.08C954.836 1271.08 1059.5 1226.25 1137 1153.16C1220.19 1074.72 1272.09 963.725 1272.09 840.651ZM1232.36 845.645H1261.99C1260.68 956.761 1216.1 1057.42 1144.2 1131.88L1123.31 1111C1189.8 1041.89 1231.05 948.591 1232.36 845.645ZM540.916 543.352C541.022 543.246 541.137 543.147 541.243 543.041L562.126 563.924C497.459 628.178 455.294 714.776 448.049 811.075C447.314 820.849 446.815 830.689 446.815 840.651C446.815 841.826 446.894 842.982 446.904 844.154H433.877H417.277C417.267 842.982 417.188 841.826 417.188 840.651C417.191 724.536 464.46 619.458 540.916 543.352ZM419.396 883.846C418.391 874.047 417.848 864.118 417.531 854.131H430.01H447.158C450.67 957.022 494.014 1049.84 562.445 1117.68L541.562 1138.56C541.351 1138.35 541.127 1138.16 540.917 1137.95C474.063 1071.4 429.531 982.704 419.396 883.846ZM548.802 1145.43L569.685 1124.55C640.083 1190.9 735.057 1231.66 839.65 1231.66C840.077 1231.66 840.495 1231.63 840.922 1231.63V1261.07C840.495 1261.07 840.077 1261.11 839.65 1261.11C726.887 1261.1 624.568 1217.07 548.802 1145.43ZM850.9 1260.82V1231.38C943.95 1228.77 1028.87 1193.99 1094.87 1137.77C1102.26 1131.47 1109.46 1124.97 1116.36 1118.15L1137.24 1139.04C1133.52 1142.71 1129.72 1146.3 1125.86 1149.83C1053.16 1216.53 956.913 1258.05 850.9 1260.82Z" fill="black"/>
<path d="M800.93 244.081C800.228 241.574 789.39 244.498 790.087 246.985C796.72 270.648 803.353 294.311 809.986 317.973C803.379 341.542 796.774 365.111 790.168 388.68C789.593 390.727 800.098 389.421 800.853 386.729C805.587 369.839 810.322 352.948 815.056 336.057C820.017 353.757 824.979 371.457 829.94 389.155C830.642 391.662 841.48 388.738 840.783 386.251C834.15 362.588 827.517 338.926 820.884 315.263C827.49 291.694 834.096 268.125 840.702 244.556C841.277 242.51 830.773 243.816 830.018 246.508C825.284 263.398 820.55 280.289 815.816 297.18C810.852 279.48 805.891 261.78 800.93 244.081Z" fill="black"/>
<path d="M854.632 388.098C854.632 393.835 865.626 392.276 865.626 387.309C865.626 339.918 865.626 292.527 865.626 245.139C865.626 239.402 854.632 240.961 854.632 245.928C854.632 293.319 854.632 340.71 854.632 388.098Z" fill="black"/>
<path d="M878.357 388.261C878.357 393.323 889.263 391.304 889.263 387.148C889.263 339.757 889.263 292.366 889.263 244.975C889.263 239.913 878.357 241.933 878.357 246.089C878.357 293.479 878.357 340.87 878.357 388.261Z" fill="black"/>
<path d="M246.716 847.014C241.403 848.502 244.526 860.157 249.839 858.668C273.339 852.081 296.841 845.493 320.342 838.905C338.03 843.863 355.718 848.822 373.406 853.778C379.275 855.422 385.14 857.067 391.006 858.711C396.005 860.112 394.521 848.265 389.893 846.967C373.507 842.374 357.121 837.781 340.734 833.188C351.959 830.042 363.185 826.895 374.409 823.749C380.277 822.105 386.143 820.46 392.009 818.816C397.322 817.328 394.199 805.674 388.888 807.162C365.386 813.75 341.885 820.337 318.385 826.924C300.697 821.966 283.009 817.009 265.32 812.051C259.454 810.407 253.588 808.762 247.72 807.118C242.724 805.717 244.205 817.564 248.836 818.862C265.221 823.455 281.608 828.047 297.993 832.64C286.768 835.787 275.542 838.933 264.317 842.08C258.45 843.725 252.584 845.369 246.716 847.014Z" fill="black"/>
<path d="M391.13 879.62C396.197 879.62 393.837 867.942 389.768 867.942C348.343 867.942 306.918 867.942 265.49 867.942C259.527 867.942 253.561 867.942 247.597 867.942C242.53 867.942 244.89 879.62 248.956 879.62C290.383 879.62 331.808 879.62 373.233 879.62C379.2 879.62 385.164 879.62 391.13 879.62Z" fill="black"/>
<path d="M854.678 1297.51C854.432 1295.47 844.157 1297.91 843.835 1300.41C837.691 1348.25 831.548 1396.1 825.404 1443.94C825.265 1445.01 835.84 1444.19 836.247 1441.03C840.464 1408.2 844.68 1375.36 848.897 1342.52C852.968 1376.39 857.038 1410.26 861.11 1444.12C861.334 1445.99 872.272 1443.89 871.953 1441.22C866.194 1393.31 860.437 1345.41 854.678 1297.51Z" fill="black"/>
<path d="M818.211 1297.51C818.211 1295.62 807.368 1297.2 807.368 1300.41C807.368 1347.8 807.368 1395.19 807.368 1442.58C807.368 1444.47 818.211 1442.9 818.211 1439.68C818.211 1392.29 818.211 1344.9 818.211 1297.51Z" fill="black"/>
<path d="M1313.56 813.12C1307.91 813.12 1302.26 813.12 1296.61 813.12C1291.8 813.12 1294.04 824.801 1297.9 824.801C1326.8 824.801 1355.7 824.801 1384.61 824.801C1394.97 824.801 1405.32 824.801 1415.68 824.801C1421.34 824.801 1426.99 824.801 1432.64 824.801C1437.45 824.801 1435.21 813.12 1431.35 813.12C1415 813.12 1398.64 813.12 1382.28 813.12C1359.38 813.12 1336.47 813.12 1313.56 813.12Z" fill="black"/>
<path d="M1313.56 833.998C1307.91 833.998 1302.26 833.998 1296.61 833.998C1291.8 833.998 1294.04 845.679 1297.9 845.679C1327.97 845.679 1358.05 845.679 1388.12 845.679C1397.31 845.679 1406.5 845.679 1415.68 845.679C1421.34 845.679 1426.99 845.679 1432.64 845.679C1437.45 845.679 1435.21 833.998 1431.35 833.998C1416.35 833.998 1401.35 833.998 1386.34 833.998C1362.08 833.998 1337.82 833.998 1313.56 833.998Z" fill="black"/>
<path d="M1313.56 854.76C1307.91 854.76 1302.26 854.76 1296.61 854.76C1291.8 854.76 1294.04 866.441 1297.9 866.441C1328.83 866.441 1359.77 866.441 1390.71 866.441C1399.04 866.441 1407.36 866.441 1415.68 866.441C1421.34 866.441 1426.99 866.441 1432.64 866.441C1437.45 866.441 1435.21 854.76 1431.35 854.76C1417.36 854.76 1403.36 854.76 1389.37 854.76C1364.1 854.76 1338.83 854.76 1313.56 854.76Z" fill="black"/>
<path d="M682.289 385.45L683.429 436.064L687.553 427.033L709.161 379.718L617.346 270.566L682.289 385.45Z" fill="#D1872F"/>
<path d="M621.375 283.993L631.115 404.329L670.06 423.864L621.375 283.993Z" fill="#FBD27B"/>
<path d="M1146.68 567.036L1106.06 584.463L1116.2 584.788L1123.54 585.023L1137.15 585.458L1160.42 586.202L1166.67 574.496L1171.75 564.976L1200.41 511.268L1217.82 478.653L1146.68 567.036Z" fill="#D1872F"/>
<path d="M1114.08 533.138L1111.42 570.013L1208.3 486.195L1114.08 533.138Z" fill="#FBD27B"/>
<path d="M854.306 812.378C852.184 810.432 849.768 808.967 847.176 807.969C846.075 807.546 844.94 807.207 843.785 806.951C843.115 806.802 842.443 806.683 841.76 806.593C840.681 806.445 839.585 806.369 838.479 806.359C837.658 806.352 836.83 806.383 836.001 806.451C833.651 806.646 831.282 807.14 828.959 807.93C828.377 808.128 827.802 808.344 827.227 808.578C826.07 809.048 824.927 809.589 823.809 810.207C822.793 810.768 821.794 811.389 820.822 812.068C819.786 812.791 818.775 813.581 817.804 814.438C816.988 815.156 816.196 815.922 815.434 816.735L815.125 817.066C812.964 819.422 811.203 821.982 809.839 824.65C804.146 835.778 805.408 848.767 813.854 856.511L814.963 857.461C817.416 859.432 820.205 860.82 823.172 861.639C824.095 861.895 825.035 862.095 825.99 862.238C827.003 862.392 828.032 862.487 829.067 862.518C830.283 862.557 831.511 862.51 832.743 862.384C833.808 862.272 834.872 862.102 835.937 861.868C836.502 861.744 837.067 861.605 837.63 861.445C840.19 860.728 842.714 859.657 845.124 858.244C845.789 857.854 846.447 857.435 847.095 856.992C847.962 856.397 848.808 855.759 849.631 855.07C850.325 854.495 851.002 853.886 851.66 853.243C852.131 852.787 852.591 852.312 853.039 851.821L854.101 850.613C864.232 838.49 864.435 821.661 854.306 812.378Z" fill="#FBD27B"/>
<path d="M799.054 852.142C799.353 853.648 799.729 855.125 800.167 856.576C800.198 856.678 800.224 856.781 800.256 856.882C800.715 858.363 801.246 859.813 801.863 861.218C802.501 862.672 803.218 864.085 804.007 865.454C804.842 866.906 805.761 868.307 806.754 869.646C807.914 871.22 809.178 872.713 810.537 874.114C811.047 874.641 811.621 875.104 812.157 875.605C812.854 876.255 813.521 876.934 814.259 877.539C814.951 878.107 815.662 878.655 816.393 879.181C819.701 881.573 823.358 883.51 827.272 884.913C828.354 885.298 829.457 885.646 830.578 885.948C832.079 886.352 833.609 886.681 835.165 886.922C836.476 887.134 837.803 887.28 839.15 887.368C840.11 887.431 841.077 887.463 842.054 887.463C842.846 887.463 843.63 887.444 844.412 887.402C867.547 886.177 885.932 867.024 885.932 843.585C885.932 838.669 885.123 833.943 883.632 829.531C882.999 827.655 882.241 825.838 881.374 824.089C880.87 823.08 880.334 822.094 879.757 821.131C879.716 821.062 879.666 820.997 879.625 820.927C879.137 820.118 878.622 819.325 878.081 818.551C878.091 818.603 878.095 818.657 878.106 818.709C878.647 821.462 878.971 824.292 878.971 827.204C878.971 850.643 860.586 869.796 837.451 871.021C836.671 871.062 835.884 871.082 835.093 871.082C834.116 871.082 833.149 871.05 832.189 870.987C830.845 870.899 829.514 870.753 828.206 870.541C826.647 870.3 825.117 869.971 823.617 869.567C822.497 869.265 821.393 868.916 820.311 868.532C816.397 867.129 812.742 865.192 809.432 862.8C808.701 862.274 807.992 861.726 807.298 861.158C805.992 860.086 804.75 858.944 803.578 857.733C802.217 856.333 800.952 854.839 799.792 853.265L799.054 852.142Z" fill="#D1872F"/>
<path d="M841.018 814.222C839.963 813.258 838.714 812.588 837.328 812.2C836.741 812.034 836.129 811.92 835.499 811.854L834.39 811.793C833.796 811.784 833.184 811.818 832.566 811.89C832.105 811.944 831.64 812.019 831.17 812.117C829.84 812.394 828.475 812.845 827.116 813.461L826.098 813.956C825.419 814.307 824.739 814.699 824.068 815.133C823.459 815.525 822.855 815.951 822.261 816.409C821.63 816.896 821.008 817.42 820.404 817.981C819.895 818.451 819.394 818.945 818.91 819.464L818.712 819.676C817.336 821.179 816.167 822.77 815.214 824.395C811.236 831.175 811.027 838.529 815.216 842.371L815.772 842.839C817.007 843.794 818.474 844.393 820.081 844.653C820.58 844.734 821.092 844.782 821.618 844.797C822.174 844.814 822.746 844.795 823.323 844.738C824.003 844.675 824.694 844.563 825.394 844.402C825.998 844.265 826.61 844.09 827.222 843.883L828.203 843.52C829.686 842.928 831.177 842.136 832.629 841.157L833.822 840.299C834.351 839.897 834.87 839.471 835.381 839.02L836.649 837.829L837.52 836.916L838.202 836.149C844.741 828.487 846.041 818.828 841.018 814.222Z" fill="#FEFADE"/>
</g>
<defs>
<clipPath id="clip0_1166_2121">
<rect width="1681" height="1680" fill="white"/>
</clipPath>
</defs>
</svg>
