<svg width="48" height="81" viewBox="0 0 48 81" fill="none" xmlns="http://www.w3.org/2000/svg">
<path d="M14.7363 2.12H14.1533V5.806H14.7363V2.12Z" fill="#B0771A"/>
<path d="M10.7367 11.612C7.53566 11.612 4.93066 9.008 4.93066 5.806C4.93066 2.604 7.53566 0 10.7367 0C12.2767 0 13.7287 0.596992 14.8227 1.68199C15.0297 1.88699 15.0307 2.21999 14.8267 2.42699C14.6227 2.63299 14.2897 2.63399 14.0827 2.42999C13.1857 1.54199 11.9987 1.05299 10.7377 1.05299C8.11567 1.05299 5.98468 3.185 5.98468 5.806C5.98468 8.427 8.11667 10.559 10.7377 10.559C13.1797 10.559 15.1977 8.70699 15.4607 6.33299H13.5867C13.2957 6.33299 13.0597 6.097 13.0597 5.806C13.0597 5.515 13.2957 5.27899 13.5867 5.27899H16.5427V5.806C16.5417 9.007 13.9377 11.612 10.7367 11.612Z" fill="#FFAD26"/>
<path d="M8.39258 29.463V28.008C8.39258 26.508 9.33758 25.46 10.6896 25.46H10.7286C12.0816 25.46 13.0256 26.508 13.0256 28.008V29.463C13.0256 30.963 12.0806 32.011 10.7286 32.011H10.6896C9.33658 32.012 8.39258 30.964 8.39258 29.463ZM10.6896 26.72C9.92458 26.72 9.65158 27.386 9.65158 28.009V29.464C9.65158 30.087 9.92458 30.753 10.6896 30.753H10.7286C11.4936 30.753 11.7666 30.087 11.7666 29.464V28.009C11.7666 27.386 11.4936 26.72 10.7286 26.72H10.6896Z" fill="#FFAD26"/>
<path opacity="0.3" d="M10.173 25.6299C8.63297 25.9379 8.54297 27.5229 8.54297 27.5229C8.54297 27.5229 8.72597 26.1879 10.173 25.6299Z" fill="white"/>
<path opacity="0.2" d="M11.2158 31.7919C12.7558 31.4839 12.8458 29.8989 12.8458 29.8989C12.8458 29.8989 12.6638 31.2339 11.2158 31.7919Z" fill="black"/>
<path opacity="0.2" d="M10.7424 26.5769C9.1454 26.5179 9.49039 28.0999 9.49039 28.0999C9.49039 28.0999 9.3184 26.7879 10.7424 26.5769Z" fill="black"/>
<path opacity="0.3" d="M10.6113 30.94C12.2083 30.999 11.8633 29.417 11.8633 29.417C11.8633 29.417 12.0353 30.729 10.6113 30.94Z" fill="white"/>
<path d="M8.39258 22.71V21.255C8.39258 19.755 9.33758 18.707 10.6896 18.707H10.7286C12.0816 18.707 13.0256 19.755 13.0256 21.255V22.71C13.0256 24.21 12.0806 25.258 10.7286 25.258H10.6896C9.33658 25.258 8.39258 24.21 8.39258 22.71ZM10.6896 19.966C9.92458 19.966 9.65158 20.632 9.65158 21.255V22.71C9.65158 23.333 9.92458 23.999 10.6896 23.999H10.7286C11.4936 23.999 11.7666 23.333 11.7666 22.71V21.255C11.7666 20.632 11.4936 19.966 10.7286 19.966H10.6896Z" fill="#FFAD26"/>
<path opacity="0.3" d="M10.173 18.877C8.63297 19.185 8.54297 20.7699 8.54297 20.7699C8.54297 20.7699 8.72597 19.435 10.173 18.877Z" fill="white"/>
<path opacity="0.2" d="M11.2158 25.039C12.7558 24.731 12.8458 23.146 12.8458 23.146C12.8458 23.146 12.6638 24.481 11.2158 25.039Z" fill="black"/>
<path opacity="0.2" d="M10.7424 19.823C9.1454 19.764 9.49039 21.346 9.49039 21.346C9.49039 21.346 9.3184 20.034 10.7424 19.823Z" fill="black"/>
<path opacity="0.3" d="M10.6113 24.186C12.2083 24.245 11.8633 22.663 11.8633 22.663C11.8633 22.663 12.0353 23.975 10.6113 24.186Z" fill="white"/>
<path d="M8.39258 16.004V14.549C8.39258 13.049 9.33758 12.001 10.6896 12.001H10.7286C12.0816 12.001 13.0256 13.049 13.0256 14.549V16.004C13.0256 17.504 12.0806 18.552 10.7286 18.552H10.6896C9.33658 18.552 8.39258 17.504 8.39258 16.004ZM10.6896 13.26C9.92458 13.26 9.65158 13.926 9.65158 14.549V16.004C9.65158 16.627 9.92458 17.293 10.6896 17.293H10.7286C11.4936 17.293 11.7666 16.627 11.7666 16.004V14.549C11.7666 13.926 11.4936 13.26 10.7286 13.26H10.6896Z" fill="#FFAD26"/>
<path opacity="0.3" d="M10.173 12.17C8.63297 12.478 8.54297 14.063 8.54297 14.063C8.54297 14.063 8.72597 12.729 10.173 12.17Z" fill="white"/>
<path opacity="0.2" d="M11.2158 18.332C12.7558 18.024 12.8458 16.439 12.8458 16.439C12.8458 16.439 12.6638 17.774 11.2158 18.332Z" fill="black"/>
<path opacity="0.2" d="M10.7424 13.117C9.1454 13.058 9.49039 14.64 9.49039 14.64C9.49039 14.64 9.3184 13.328 10.7424 13.117Z" fill="black"/>
<path opacity="0.3" d="M10.6113 17.48C12.2083 17.539 11.8633 15.957 11.8633 15.957C11.8633 15.957 12.0353 17.269 10.6113 17.48Z" fill="white"/>
<path d="M10.6999 28.068H10.7179C11.2179 28.068 11.6229 27.663 11.6229 27.163V23.352C11.6229 22.852 11.2179 22.447 10.7179 22.447H10.6999C10.1999 22.447 9.79492 22.852 9.79492 23.352V27.163C9.79492 27.663 10.1999 28.068 10.6999 28.068Z" fill="#FFAD26"/>
<path opacity="0.2" d="M10.7002 27.852H10.7172C11.1782 27.852 11.5522 27.478 11.5522 27.017V23.5C11.5522 23.039 11.1782 22.665 10.7172 22.665H10.7002C10.7002 22.665 10.7172 27.852 10.7002 27.852Z" fill="black"/>
<path opacity="0.3" d="M9.91406 24.999C9.91406 26.078 9.94608 26.953 9.98508 26.953C10.0241 26.953 10.0561 26.078 10.0561 24.999C10.0561 23.92 10.0241 23.045 9.98508 23.045C9.94608 23.046 9.91406 23.92 9.91406 24.999Z" fill="white"/>
<path d="M10.6999 21.662H10.7179C11.2179 21.662 11.6229 21.257 11.6229 20.757V16.946C11.6229 16.446 11.2179 16.041 10.7179 16.041H10.6999C10.1999 16.041 9.79492 16.446 9.79492 16.946V20.757C9.79492 21.257 10.1999 21.662 10.6999 21.662Z" fill="#FFAD26"/>
<path opacity="0.2" d="M10.7002 21.446H10.7172C11.1782 21.446 11.5522 21.072 11.5522 20.611V17.094C11.5522 16.633 11.1782 16.259 10.7172 16.259H10.7002C10.7002 16.259 10.7172 21.446 10.7002 21.446Z" fill="black"/>
<path opacity="0.3" d="M9.91406 18.593C9.91406 19.672 9.94608 20.547 9.98508 20.547C10.0241 20.547 10.0561 19.672 10.0561 18.593C10.0561 17.514 10.0241 16.639 9.98508 16.639C9.94608 16.64 9.91406 17.515 9.91406 18.593Z" fill="white"/>
<path d="M10.6999 14.941H10.7179C11.2179 14.941 11.6229 14.536 11.6229 14.036V10.225C11.6229 9.72501 11.2179 9.32001 10.7179 9.32001H10.6999C10.1999 9.32001 9.79492 9.72501 9.79492 10.225V14.036C9.79492 14.536 10.1999 14.941 10.6999 14.941Z" fill="#FFAD26"/>
<path opacity="0.2" d="M10.7002 14.724H10.7172C11.1782 14.724 11.5522 14.35 11.5522 13.889V10.372C11.5522 9.91099 11.1782 9.53699 10.7172 9.53699H10.7002C10.7002 9.53699 10.7172 14.724 10.7002 14.724Z" fill="black"/>
<path opacity="0.3" d="M9.91406 11.872C9.91406 12.951 9.94608 13.826 9.98508 13.826C10.0241 13.826 10.0561 12.951 10.0561 11.872C10.0561 10.793 10.0241 9.91803 9.98508 9.91803C9.94608 9.91803 9.91406 10.793 9.91406 11.872Z" fill="white"/>
<path d="M10.7229 28.578H10.6959C9.94686 28.578 9.33887 29.276 9.33887 30.137V33.412H12.0799V30.137C12.0799 29.276 11.4719 28.578 10.7229 28.578Z" fill="#FFAD26"/>
<path opacity="0.2" d="M10.7229 28.578H10.6959C9.94686 28.578 9.33887 29.276 9.33887 30.137V33.412H10.7229C10.7229 33.412 10.6959 28.578 10.7229 28.578Z" fill="black"/>
<path d="M21.419 66.565L10.709 74.461L0 66.565V39.72L10.709 31.823L21.419 39.72V66.565Z" fill="#FFAD26"/>
<path d="M20.4887 65.4L10.7087 72.611L0.928711 65.4V40.884L10.7087 33.673L20.4887 40.884V65.4Z" fill="#FF9D00"/>
<path d="M16.7592 60.751L10.7092 65.211L4.66016 60.751V45.585L10.7092 41.125L16.7592 45.585V60.751Z" fill="#FFBB4D"/>
<path opacity="0.4" d="M10.709 33.673V41.125L16.759 45.585L20.489 40.884L10.709 33.673Z" fill="white"/>
<path opacity="0.1" d="M10.7087 33.673V41.125L4.6597 45.585L0.928711 40.884L10.7087 33.673Z" fill="black"/>
<path opacity="0.4" d="M10.7087 72.611V65.211L4.6597 60.751L0.928711 65.4L10.7087 72.611Z" fill="white"/>
<path opacity="0.2" d="M10.709 72.611V65.211L16.759 60.751L20.489 65.4L10.709 72.611Z" fill="black"/>
<path opacity="0.1" d="M16.7592 60.034L4.66016 51.798V47.86L16.7592 56.097V60.034Z" fill="white"/>
<path opacity="0.1" d="M16.7592 52.522L5.57715 44.909L6.84317 43.976L16.7592 50.722V52.522Z" fill="white"/>
<path opacity="0.2" d="M20.489 40.884L10.709 33.673V31.823L21.419 39.72L20.489 40.884Z" fill="white"/>
<path opacity="0.1" d="M0.929016 40.884L10.709 33.673V31.823L0 39.72L0.929016 40.884Z" fill="black"/>
<path opacity="0.2" d="M0.929016 65.4L10.709 72.611V74.461L0 66.565L0.929016 65.4Z" fill="black"/>
<path opacity="0.05" d="M20.489 65.4L10.709 72.611V74.461L21.419 66.565L20.489 65.4Z" fill="black"/>
<path opacity="0.5" d="M10.709 31.823L21.419 39.72V66.565L21.081 39.881L10.709 31.823Z" fill="white"/>
<path opacity="0.2" d="M10.709 74.461L0 66.565V39.72L0.338013 66.403L10.709 74.461Z" fill="black"/>
<path d="M5.19446 46.985H5.13046C5.13046 45.222 3.70148 43.793 1.93848 43.793V43.729C3.70148 43.729 5.13046 42.3 5.13046 40.537H5.19446C5.19446 42.3 6.62347 43.729 8.38647 43.729V43.793C6.62347 43.793 5.19446 45.222 5.19446 46.985Z" fill="white"/>
<path d="M8.99435 66.165H8.95135C8.95135 64.987 7.99634 64.033 6.81934 64.033V63.99C7.99734 63.99 8.95135 63.035 8.95135 61.858H8.99435C8.99435 63.036 9.94934 63.99 11.1263 63.99V64.033C9.94834 64.033 8.99435 64.988 8.99435 66.165Z" fill="white"/>
<path d="M19.1349 59.221H19.1079C19.1079 58.473 18.5019 57.867 17.7539 57.867V57.84C18.5019 57.84 19.1079 57.234 19.1079 56.486H19.1349C19.1349 57.234 19.7409 57.84 20.4889 57.84V57.867C19.7409 57.866 19.1349 58.473 19.1349 59.221Z" fill="white"/>
<path d="M40.3965 8.17603H39.8135V11.862H40.3965V8.17603Z" fill="#B0771A"/>
<path d="M36.3968 17.668C33.1958 17.668 30.5908 15.064 30.5908 11.862C30.5908 8.66103 33.1958 6.05603 36.3968 6.05603C37.9368 6.05603 39.3888 6.65302 40.4828 7.73802C40.6898 7.94302 40.6908 8.27602 40.4868 8.48302C40.2828 8.68902 39.9488 8.69002 39.7418 8.48602C38.8448 7.59802 37.6578 7.10902 36.3968 7.10902C33.7758 7.10902 31.6428 9.24103 31.6428 11.862C31.6428 14.483 33.7748 16.615 36.3968 16.615C38.8388 16.615 40.8568 14.763 41.1198 12.389H39.2458C38.9548 12.389 38.7198 12.153 38.7198 11.862C38.7198 11.571 38.9558 11.336 39.2458 11.336H42.2018V11.862C42.2018 15.063 39.5978 17.668 36.3968 17.668Z" fill="#FFAD26"/>
<path d="M34.0527 35.519V34.064C34.0527 32.564 34.9967 31.516 36.3497 31.516H36.3887C37.7417 31.516 38.6857 32.564 38.6857 34.064V35.519C38.6857 37.019 37.7407 38.067 36.3887 38.067H36.3497C34.9967 38.068 34.0527 37.02 34.0527 35.519ZM36.3497 32.776C35.5847 32.776 35.3117 33.442 35.3117 34.065V35.52C35.3117 36.143 35.5847 36.809 36.3497 36.809H36.3887C37.1537 36.809 37.4267 36.143 37.4267 35.52V34.065C37.4267 33.442 37.1537 32.776 36.3887 32.776H36.3497Z" fill="#FFAD26"/>
<path opacity="0.3" d="M35.8331 31.686C34.2931 31.994 34.2031 33.579 34.2031 33.579C34.2031 33.579 34.3861 32.244 35.8331 31.686Z" fill="white"/>
<path opacity="0.2" d="M36.876 37.848C38.416 37.54 38.506 35.955 38.506 35.955C38.506 35.955 38.323 37.29 36.876 37.848Z" fill="black"/>
<path opacity="0.2" d="M36.4026 32.633C34.8056 32.574 35.1505 34.156 35.1505 34.156C35.1505 34.156 34.9776 32.844 36.4026 32.633Z" fill="black"/>
<path opacity="0.3" d="M36.2715 36.996C37.8685 37.055 37.5235 35.473 37.5235 35.473C37.5235 35.473 37.6955 36.785 36.2715 36.996Z" fill="white"/>
<path d="M34.0527 28.7661V27.3111C34.0527 25.8111 34.9967 24.7631 36.3497 24.7631H36.3887C37.7417 24.7631 38.6857 25.8111 38.6857 27.3111V28.7661C38.6857 30.2661 37.7407 31.3141 36.3887 31.3141H36.3497C34.9967 31.3141 34.0527 30.2661 34.0527 28.7661ZM36.3497 26.022C35.5847 26.022 35.3117 26.6871 35.3117 27.3101V28.7651C35.3117 29.3881 35.5847 30.054 36.3497 30.054H36.3887C37.1537 30.054 37.4267 29.3881 37.4267 28.7651V27.3101C37.4267 26.6871 37.1537 26.022 36.3887 26.022H36.3497Z" fill="#FFAD26"/>
<path opacity="0.3" d="M35.8331 24.933C34.2931 25.241 34.2031 26.826 34.2031 26.826C34.2031 26.826 34.3861 25.491 35.8331 24.933Z" fill="white"/>
<path opacity="0.2" d="M36.876 31.095C38.416 30.787 38.506 29.202 38.506 29.202C38.506 29.202 38.323 30.537 36.876 31.095Z" fill="black"/>
<path opacity="0.2" d="M36.4026 25.8791C34.8056 25.8201 35.1505 27.402 35.1505 27.402C35.1505 27.402 34.9776 26.0901 36.4026 25.8791Z" fill="black"/>
<path opacity="0.3" d="M36.2715 30.2421C37.8685 30.3011 37.5235 28.7191 37.5235 28.7191C37.5235 28.7191 37.6955 30.0311 36.2715 30.2421Z" fill="white"/>
<path d="M34.0527 22.06V20.605C34.0527 19.105 34.9967 18.057 36.3497 18.057H36.3887C37.7417 18.057 38.6857 19.105 38.6857 20.605V22.06C38.6857 23.56 37.7407 24.608 36.3887 24.608H36.3497C34.9967 24.608 34.0527 23.56 34.0527 22.06ZM36.3497 19.316C35.5847 19.316 35.3117 19.982 35.3117 20.605V22.06C35.3117 22.683 35.5847 23.349 36.3497 23.349H36.3887C37.1537 23.349 37.4267 22.683 37.4267 22.06V20.605C37.4267 19.982 37.1537 19.316 36.3887 19.316H36.3497Z" fill="#FFAD26"/>
<path opacity="0.3" d="M35.8331 18.226C34.2931 18.534 34.2031 20.119 34.2031 20.119C34.2031 20.119 34.3861 18.785 35.8331 18.226Z" fill="white"/>
<path opacity="0.2" d="M36.876 24.388C38.416 24.08 38.506 22.495 38.506 22.495C38.506 22.495 38.323 23.83 36.876 24.388Z" fill="black"/>
<path opacity="0.2" d="M36.4026 19.173C34.8056 19.114 35.1505 20.696 35.1505 20.696C35.1505 20.696 34.9776 19.384 36.4026 19.173Z" fill="black"/>
<path opacity="0.3" d="M36.2715 23.536C37.8685 23.595 37.5235 22.013 37.5235 22.013C37.5235 22.013 37.6955 23.325 36.2715 23.536Z" fill="white"/>
<path d="M36.3601 34.1241H36.3781C36.8781 34.1241 37.2831 33.7191 37.2831 33.2191V29.4081C37.2831 28.9081 36.8781 28.5031 36.3781 28.5031H36.3601C35.8601 28.5031 35.4551 28.9081 35.4551 29.4081V33.2191C35.4551 33.7191 35.8601 34.1241 36.3601 34.1241Z" fill="#FFAD26"/>
<path opacity="0.2" d="M36.3604 33.9081H36.3773C36.8383 33.9081 37.2123 33.5341 37.2123 33.0731V29.5561C37.2123 29.0951 36.8383 28.7211 36.3773 28.7211H36.3604C36.3604 28.7211 36.3774 33.9081 36.3604 33.9081Z" fill="black"/>
<path opacity="0.3" d="M35.5742 31.0551C35.5742 32.1341 35.6062 33.0091 35.6452 33.0091C35.6842 33.0091 35.7162 32.1341 35.7162 31.0551C35.7162 29.9761 35.6842 29.1011 35.6452 29.1011C35.6062 29.1021 35.5742 29.9761 35.5742 31.0551Z" fill="white"/>
<path d="M36.3601 27.718H36.3781C36.8781 27.718 37.2831 27.313 37.2831 26.813V23.002C37.2831 22.502 36.8781 22.097 36.3781 22.097H36.3601C35.8601 22.097 35.4551 22.502 35.4551 23.002V26.813C35.4551 27.313 35.8601 27.718 36.3601 27.718Z" fill="#FFAD26"/>
<path opacity="0.2" d="M36.3604 27.5021H36.3773C36.8383 27.5021 37.2123 27.1281 37.2123 26.6671V23.1501C37.2123 22.6891 36.8383 22.3151 36.3773 22.3151H36.3604C36.3604 22.3151 36.3774 27.5021 36.3604 27.5021Z" fill="black"/>
<path opacity="0.3" d="M35.5742 24.6491C35.5742 25.7281 35.6062 26.6031 35.6452 26.6031C35.6842 26.6031 35.7162 25.7281 35.7162 24.6491C35.7162 23.5701 35.6842 22.6951 35.6452 22.6951C35.6062 22.6961 35.5742 23.5711 35.5742 24.6491Z" fill="white"/>
<path d="M36.3601 20.997H36.3781C36.8781 20.997 37.2831 20.592 37.2831 20.092V16.28C37.2831 15.78 36.8781 15.375 36.3781 15.375H36.3601C35.8601 15.375 35.4551 15.78 35.4551 16.28V20.092C35.4551 20.592 35.8601 20.997 36.3601 20.997Z" fill="#FFAD26"/>
<path opacity="0.2" d="M36.3604 20.78H36.3773C36.8383 20.78 37.2123 20.406 37.2123 19.945V16.428C37.2123 15.967 36.8383 15.593 36.3773 15.593H36.3604C36.3604 15.593 36.3774 20.78 36.3604 20.78Z" fill="black"/>
<path opacity="0.3" d="M35.6452 19.882C35.6844 19.882 35.7162 19.0072 35.7162 17.928C35.7162 16.8488 35.6844 15.974 35.6452 15.974C35.606 15.974 35.5742 16.8488 35.5742 17.928C35.5742 19.0072 35.606 19.882 35.6452 19.882Z" fill="white"/>
<path d="M36.383 34.634H36.356C35.607 34.634 35 35.332 35 36.193V39.468H37.74V36.193C37.739 35.332 37.132 34.634 36.383 34.634Z" fill="#FFAD26"/>
<path opacity="0.2" d="M36.383 34.634H36.356C35.607 34.634 35 35.332 35 36.193V39.468H36.384C36.384 39.468 36.355 34.634 36.383 34.634Z" fill="black"/>
<path d="M47.0782 72.621L36.3692 80.517L25.6602 72.621V45.776L36.3692 37.879L47.0782 45.776V72.621Z" fill="#FFAD26"/>
<path d="M46.1489 71.456L36.3689 78.667L26.5889 71.456V46.94L36.3689 39.729L46.1489 46.94V71.456Z" fill="#FF9D00"/>
<path d="M42.4193 66.807L36.3694 71.267L30.3193 66.807V51.641L36.3694 47.181L42.4193 51.641V66.807Z" fill="#FFBB4D"/>
<path opacity="0.4" d="M36.3691 39.729V47.181L42.4191 51.641L46.1491 46.94L36.3691 39.729Z" fill="white"/>
<path opacity="0.1" d="M36.3689 39.729V47.181L30.3188 51.641L26.5889 46.94L36.3689 39.729Z" fill="black"/>
<path opacity="0.4" d="M36.3689 78.667V71.267L30.3188 66.807L26.5889 71.456L36.3689 78.667Z" fill="white"/>
<path opacity="0.2" d="M36.3691 78.667V71.267L42.4191 66.807L46.1491 71.456L36.3691 78.667Z" fill="black"/>
<path opacity="0.1" d="M42.4193 66.09L30.3193 57.854V53.916L42.4193 62.153V66.09Z" fill="white"/>
<path opacity="0.1" d="M42.4193 58.578L31.2363 50.965L32.5033 50.032L42.4193 56.778V58.578Z" fill="white"/>
<path opacity="0.2" d="M46.1491 46.94L36.3691 39.729V37.879L47.0781 45.776L46.1491 46.94Z" fill="white"/>
<path opacity="0.1" d="M26.5892 46.94L36.3692 39.729V37.879L25.6602 45.776L26.5892 46.94Z" fill="black"/>
<path opacity="0.2" d="M26.5892 71.4561L36.3692 78.6671V80.5171L25.6602 72.621L26.5892 71.4561Z" fill="black"/>
<path opacity="0.05" d="M46.1491 71.4561L36.3691 78.6671V80.5171L47.0781 72.621L46.1491 71.4561Z" fill="black"/>
<path opacity="0.5" d="M36.3691 37.879L47.0781 45.776V72.621L46.7411 45.937L36.3691 37.879Z" fill="white"/>
<path opacity="0.2" d="M36.3692 80.517L25.6602 72.621V45.776L25.9972 72.459L36.3692 80.517Z" fill="black"/>
<path d="M42.4431 69.19H42.3951C42.3951 67.887 41.3391 66.831 40.0361 66.831V66.783C41.3391 66.783 42.3951 65.727 42.3951 64.424H42.4431C42.4431 65.727 43.4991 66.783 44.8021 66.783V66.831C43.4991 66.831 42.4431 67.887 42.4431 69.19Z" fill="white"/>
<path d="M30.0793 61.427H30.0363C30.0363 60.249 29.0813 59.295 27.9043 59.295V59.252C29.0823 59.252 30.0363 58.297 30.0363 57.12H30.0793C30.0793 58.298 31.0343 59.252 32.2113 59.252V59.295C31.0343 59.295 30.0793 60.25 30.0793 61.427Z" fill="white"/>
</svg>
