<svg width="109" height="74" viewBox="0 0 109 74" fill="none" xmlns="http://www.w3.org/2000/svg">
<g filter="url(#filter0_d_580_61552)">
<path d="M69.42 3.09648C71.5291 3.36495 73.2419 3.58528 73.443 2.39092C73.6441 1.19483 71.9331 0.976244 69.8221 0.704327C67.715 0.435853 66.0021 0.213851 65.8011 1.40994C65.6 2.60431 67.3109 2.82456 69.42 3.09648ZM98.3773 17.5597C89.8976 6.68306 77.8188 4.4268 68.9982 3.05173C61.4134 1.86769 47.7459 3.92603 40.8155 9.26626C33.6743 14.7683 25.9377 27.717 26.673 38.3527C22.2873 39.9171 4.42526 49.1278 5.0363 51.6783C5.58032 54.8742 13.1986 53.1377 18.8714 50.2792C19.9318 50.4788 21.0632 50.7438 22.2873 51.0966C32.1289 53.9225 40.8707 64.5927 52.0645 64.9919C62.5291 65.3654 71.9745 57.8619 82.6539 48.0195L82.6302 48.0143C88.9101 48.9385 103.137 50.3377 103.34 49.725C106.072 43.1267 103.727 24.4213 98.3773 17.5597Z" fill="#EF4836"/>
<g opacity="0.4">
<path d="M5.03662 51.6819C5.45843 54.8123 12.7988 53.291 18.8737 50.2827C7.87303 48.2054 5.7265 53.5698 5.03662 51.6819Z" fill="black"/>
</g>
<g opacity="0.3">
<path d="M91.4017 16.417C91.0469 17.1106 89.8485 17.3205 88.7249 16.8834C87.6014 16.4497 86.9766 15.529 87.3314 14.8371C87.6842 14.1401 88.8846 13.9302 90.0081 14.3673C91.1316 14.8044 91.7565 15.7217 91.4017 16.417Z" fill="black"/>
</g>
<g opacity="0.3">
<path d="M69.8877 14.0472C69.4659 14.7872 68.2339 15.0023 67.1321 14.5239C66.0283 14.0506 65.4744 13.0627 65.8943 12.3244C66.3121 11.5827 67.546 11.3693 68.6479 11.846C69.7517 12.3227 70.3056 13.3089 69.8877 14.0472Z" fill="black"/>
</g>
<g opacity="0.3">
<path d="M46.2321 10.0441C46.3523 10.6723 45.6289 11.3039 44.6099 11.4553C43.5928 11.6068 42.6703 11.2195 42.5481 10.5897C42.4259 9.95977 43.1513 9.32821 44.1683 9.17848C45.1854 9.02876 46.1098 9.41596 46.2321 10.0441Z" fill="black"/>
</g>
<path d="M102.128 50.1192C98.4027 50.1192 86.8127 48.9334 81.7627 48.1297C80.0026 47.8492 75.7785 46.8097 70.429 45.4932C60.0453 42.9392 45.8278 39.4353 38.1622 38.6591C36.3646 38.4784 34.4132 38.3837 32.3633 38.3837C29.9428 38.3837 28.0111 38.5111 26.9743 38.5782L26.4145 38.6127L26.3988 38.37C25.6793 27.9666 33.1793 14.8303 40.636 9.08563C46.5197 4.55254 57.0413 2.48738 64.3245 2.48738C66.0689 2.48738 67.6556 2.59752 69.0472 2.81264C79.0545 4.37186 90.4178 6.9189 98.6077 17.4238C104.062 24.4214 106.309 43.261 103.602 49.8077C103.526 50.0434 103.181 50.1192 102.128 50.1192ZM32.3633 37.9036C34.4369 37.9036 36.408 37.9983 38.2253 38.1807C45.9342 38.9603 60.1793 42.4677 70.5768 45.0285C75.9125 46.3416 80.1287 47.3776 81.8633 47.6564C86.8915 48.4533 98.4283 49.6356 102.128 49.6356C102.773 49.6356 103.021 49.5977 103.11 49.5788C105.735 43.0304 103.51 24.5711 98.1484 17.694C90.0788 7.34401 78.8455 4.8296 68.9487 3.28932C67.5886 3.07591 66.0315 2.96752 64.3206 2.96752C57.1359 2.96752 46.7739 4.99654 40.9967 9.44702C33.6957 15.0695 26.3534 27.8737 26.931 38.0963C27.9776 38.0309 29.9211 37.9036 32.3633 37.9036Z" fill="#0F0F0F"/>
<path d="M103.055 48.1572C102.945 48.1572 102.827 48.1555 102.696 48.1521L102.702 47.9129C102.828 47.9146 102.947 47.9146 103.055 47.9146C103.591 47.9146 103.698 47.8784 103.714 47.8733L103.883 48.0609C103.82 48.1073 103.7 48.1572 103.055 48.1572ZM102.141 48.1349C101.811 48.1211 101.441 48.1039 101.033 48.0781L101.053 47.8354C101.457 47.8612 101.827 47.8785 102.154 47.8922L102.141 48.1349ZM100.481 48.042C100.134 48.0196 99.7654 47.9938 99.3771 47.9662L99.4008 47.7235C99.7871 47.7528 100.156 47.7786 100.503 47.801L100.481 48.042ZM98.8252 47.9232C98.4704 47.894 98.1038 47.8664 97.7234 47.8337L97.751 47.591C98.1274 47.6237 98.496 47.653 98.8508 47.684L98.8252 47.9232ZM97.1734 47.7872C96.8147 47.7545 96.4461 47.7253 96.0736 47.6874L96.1012 47.4482C96.4757 47.4844 96.8423 47.5153 97.201 47.5463L97.1734 47.7872ZM95.5236 47.641C95.161 47.6066 94.7943 47.5738 94.4238 47.5377L94.4533 47.2985C94.8239 47.3329 95.1905 47.3656 95.5532 47.4035L95.5236 47.641ZM93.8738 47.4844L92.774 47.3742L92.8075 47.135L93.9054 47.2434L93.8738 47.4844ZM92.226 47.3209C91.8594 47.283 91.4947 47.2434 91.1261 47.2073L91.1596 46.968C91.5243 47.0059 91.8929 47.042 92.2575 47.0799L92.226 47.3209ZM90.5782 47.1487C90.2115 47.1109 89.8449 47.0696 89.4803 47.03L89.5158 46.7908C89.8784 46.8304 90.2451 46.8716 90.6137 46.9078L90.5782 47.1487ZM88.9323 46.968C88.5617 46.9284 88.1971 46.8872 87.8364 46.8459L87.8719 46.6084C88.2326 46.6479 88.5992 46.6892 88.9678 46.7305L88.9323 46.968ZM87.2884 46.7839C86.9159 46.7409 86.5493 46.6961 86.1905 46.6514L86.23 46.4139C86.5887 46.4569 86.9514 46.5017 87.3259 46.543L87.2884 46.7839ZM85.6426 46.5843C85.2681 46.5395 84.9014 46.4913 84.5486 46.4483L84.59 46.2074C84.9428 46.2521 85.3075 46.3003 85.6839 46.3468L85.6426 46.5843ZM84.0026 46.3743C83.6183 46.3244 83.2516 46.2745 82.9067 46.2229L82.952 45.9871C83.295 46.0336 83.6597 46.0869 84.042 46.1385L84.0026 46.3743ZM82.3627 46.1454C82.1281 46.111 81.9054 46.0749 81.6984 46.0439C81.5683 46.0198 81.4244 45.9974 81.2687 45.9664L81.3239 45.7341C81.4776 45.7616 81.6196 45.784 81.7477 45.8046C81.9527 45.8391 82.1754 45.8717 82.408 45.9062L82.3627 46.1454ZM80.7247 45.8597C80.4034 45.7961 80.0427 45.7152 79.6485 45.6274L79.7155 45.3916C80.1097 45.4828 80.4684 45.5603 80.7897 45.6274L80.7247 45.8597ZM79.1143 45.5035C78.7773 45.4278 78.4205 45.3417 78.044 45.2522L78.1169 45.0182C78.4914 45.1094 78.8482 45.192 79.1833 45.2694L79.1143 45.5035ZM77.5098 45.1231C77.1688 45.0388 76.8121 44.951 76.4435 44.8633L76.5184 44.6327C76.889 44.7204 77.2418 44.8082 77.5828 44.8891L77.5098 45.1231ZM75.9133 44.729L74.8508 44.464L74.9258 44.2317L75.9882 44.4984L75.9133 44.729ZM74.3561 44.2179L74.2911 44.3263L73.2582 44.0664L73.3331 43.8341L74.3679 44.0957L74.3561 44.2179ZM72.726 43.9305L71.6636 43.6654L71.7405 43.4331L72.8029 43.6982L72.726 43.9305ZM71.1334 43.5295L70.0709 43.261L70.1478 43.0287L71.2083 43.2972L71.1334 43.5295ZM69.5388 43.1285L68.4783 42.86L68.5552 42.6294L69.6156 42.8944L69.5388 43.1285ZM67.9481 42.7275L66.8876 42.4625L66.9625 42.2302L68.025 42.4969L67.9481 42.7275ZM66.3554 42.33L65.293 42.0649L65.3679 41.8326L66.4303 42.0976L66.3554 42.33ZM64.7628 41.9324L63.6984 41.6708L63.7733 41.4385L64.8377 41.7001L64.7628 41.9324ZM63.1662 41.5418C62.8134 41.4557 62.4606 41.3679 62.1038 41.2853L62.1748 41.0496C62.5335 41.1373 62.8863 41.2217 63.2411 41.3112L63.1662 41.5418ZM61.5696 41.1528C61.2148 41.0685 60.86 40.9807 60.5052 40.8981L60.5782 40.6658C60.9349 40.7501 61.2878 40.8345 61.6426 40.9205L61.5696 41.1528ZM59.9731 40.7708C59.6183 40.6864 59.2654 40.6004 58.9087 40.5195L58.9796 40.2872C59.3364 40.3715 59.6912 40.4541 60.046 40.5384L59.9731 40.7708ZM58.3745 40.3922L57.3042 40.1426L57.3771 39.9085L58.4455 40.1581L58.3745 40.3922ZM56.772 40.0204L55.7037 39.7743L55.7727 39.542L56.841 39.7863L56.772 40.0204ZM55.1675 39.6538C54.8108 39.5729 54.454 39.4955 54.0972 39.4163L54.1662 39.1823C54.523 39.2597 54.8778 39.3406 55.2365 39.4215L55.1675 39.6538ZM53.5631 39.2976C53.2043 39.2201 52.8495 39.1427 52.4908 39.0653L52.5578 38.8295C52.9146 38.9069 53.2713 38.9861 53.6301 39.0653L53.5631 39.2976ZM51.9586 38.9517C51.5959 38.8742 51.2411 38.7985 50.8824 38.7228L50.9474 38.4887C51.3042 38.5644 51.661 38.6385 52.0217 38.7159L51.9586 38.9517ZM50.3462 38.6127C49.9855 38.5387 49.6268 38.4646 49.27 38.3958L49.3311 38.1617C49.6879 38.2323 50.0467 38.3029 50.4093 38.3803L50.3462 38.6127ZM48.7319 38.2873C48.3692 38.2185 48.0125 38.148 47.6537 38.0774L47.7148 37.8433C48.0696 37.9105 48.4304 37.9793 48.793 38.0533L48.7319 38.2873ZM47.1156 37.9793C46.753 37.9105 46.3922 37.8451 46.0375 37.7797L46.0926 37.5439C46.4494 37.6076 46.8101 37.6747 47.1728 37.7418L47.1156 37.9793ZM45.4934 37.6833C45.1288 37.6213 44.7661 37.5611 44.4113 37.5009L44.4606 37.2651C44.8193 37.3219 45.18 37.3855 45.5466 37.4492L45.4934 37.6833ZM43.8693 37.4097C43.5007 37.3529 43.1399 37.2961 42.7832 37.241L42.8305 37.0018C43.1892 37.0552 43.5519 37.1119 43.9205 37.1722L43.8693 37.4097ZM42.2392 37.1601C41.8686 37.1102 41.5059 37.0586 41.1491 37.0121L41.1905 36.7729C41.5493 36.8194 41.9139 36.871 42.2845 36.9243L42.2392 37.1601ZM40.6051 36.945C40.2326 36.9019 39.866 36.8607 39.5112 36.8245L39.5427 36.5853C39.9015 36.6215 40.2661 36.661 40.6426 36.7058L40.6051 36.945ZM38.9632 36.7694C38.6971 36.7454 38.4369 36.7264 38.1827 36.7092L37.8673 36.6851L37.889 36.4442L38.2063 36.4666C38.4606 36.4855 38.7227 36.5061 38.9908 36.5302L38.9632 36.7694ZM26.6498 36.7333L26.6064 36.4941C26.8154 36.4631 27.0795 36.4373 27.387 36.4063L27.4146 36.649C27.113 36.6748 26.8548 36.7041 26.6498 36.7333ZM37.3173 36.6524C36.9468 36.6283 36.5802 36.6094 36.2175 36.5939L36.2313 36.3512C36.5959 36.3667 36.9645 36.3891 37.3351 36.4098L37.3173 36.6524ZM27.9606 36.6077L27.9389 36.365C28.272 36.3427 28.6426 36.3237 29.0447 36.3065L29.0585 36.5492C28.6584 36.5647 28.2898 36.5819 27.9606 36.6077ZM35.6656 36.5664C35.293 36.5509 34.9264 36.5389 34.5637 36.5268L34.5736 36.2842C34.9363 36.2962 35.3049 36.3099 35.6774 36.3237L35.6656 36.5664ZM29.6084 36.5268L29.5986 36.2858C29.9475 36.2755 30.316 36.2652 30.7043 36.2583L30.7083 36.501C30.3239 36.5078 29.9553 36.5148 29.6084 36.5268ZM34.0138 36.5147C33.6393 36.5044 33.2707 36.4992 32.912 36.4941L32.9159 36.2549C33.2766 36.2566 33.6432 36.2652 34.0217 36.2721L34.0138 36.5147ZM31.2622 36.4941L31.2582 36.2514C31.4967 36.248 31.7411 36.248 31.9895 36.248H32.362L32.364 36.4907H31.9895C31.7392 36.4907 31.4987 36.4906 31.2622 36.4941Z" fill="#0F0F0F"/>
<path d="M78.3115 47.1434L77.9054 47.0694C79.4902 40.4849 81.8318 27.4122 80.5605 20.1892C79.0467 11.586 76.7405 6.33012 68.9133 3.21857L69.0848 2.88811C77.8699 6.38517 79.7208 13.042 80.9705 20.1359C82.2497 27.4088 79.8982 40.5348 78.3115 47.1434Z" fill="#0F0F0F"/>
<path d="M52.8038 65.25C52.5535 65.25 52.3031 65.2448 52.0508 65.2362C45.4634 65.0005 39.7256 61.2607 34.175 57.6432C30.1165 54.998 26.2828 52.4992 22.2006 51.3272C12.8143 48.6321 8.64349 50.8298 6.63889 51.8813C5.9628 52.241 5.55479 52.4561 5.19211 52.315C4.91024 52.2066 4.81563 51.9312 4.76833 51.7316C4.09224 48.9057 22.3189 39.6451 26.5686 38.1306L26.7775 38.5781C21.5482 40.4402 4.7762 49.4203 5.30446 51.6335C5.35373 51.84 5.4109 51.8762 5.4109 51.8762C5.52128 51.9106 5.98054 51.6679 6.35307 51.4735C8.267 50.465 12.7473 48.1055 22.3741 50.8711C26.541 52.0672 30.4102 54.5884 34.5062 57.2577C39.9878 60.8305 45.6566 64.5255 52.0745 64.7544C62.7755 65.1467 72.5561 56.9772 82.4529 47.856L82.855 48.1846C73.0942 57.1837 63.4457 65.25 52.8038 65.25Z" fill="#0F0F0F"/>
<path d="M8.22788 53.6404C7.39608 53.6404 6.66875 53.5285 6.09319 53.2875C5.33235 52.9674 4.8849 52.4391 4.7627 51.718L5.30869 51.6474C5.4033 52.2085 5.74037 52.606 6.33366 52.8539C8.76402 53.8796 14.5393 52.1879 18.7358 50.0745L19.0117 50.4909C15.5505 52.2326 11.2121 53.6404 8.22788 53.6404Z" fill="#0F0F0F"/>
<path d="M53.2118 62.2727C52.8314 62.2658 52.4549 62.2417 52.0962 62.1987L52.1337 61.9594C52.4825 62.0024 52.8472 62.0266 53.2177 62.0317L53.2118 62.2727ZM53.7716 62.2658L53.7618 62.0265C54.1146 62.0162 54.4773 61.987 54.8459 61.9423L54.8853 62.1814C54.5068 62.2262 54.1323 62.2555 53.7716 62.2658ZM51.5423 62.1143L51.4162 62.0903C51.0949 62.0266 50.7756 61.9594 50.4661 61.8923L50.5331 61.6565C50.8426 61.7237 51.156 61.7908 51.4773 61.8544L51.5995 61.8785L51.5423 62.1143ZM55.4313 62.1074L55.384 61.8699C55.7309 61.8166 56.0877 61.7495 56.4543 61.6669L56.5213 61.8992C56.1488 61.9835 55.7841 62.0541 55.4313 62.1074ZM57.0574 61.7753L56.9806 61.5413C57.3196 61.4552 57.6724 61.3571 58.0233 61.2469L58.1159 61.4724C57.7572 61.586 57.4004 61.6841 57.0574 61.7753ZM49.926 61.7684C49.5633 61.6824 49.2105 61.5929 48.8616 61.4999L48.9444 61.2676C49.2894 61.3623 49.6402 61.4517 49.999 61.5361L49.926 61.7684ZM48.3373 61.3554C47.9786 61.2538 47.6317 61.1506 47.2907 61.0387L47.3853 60.8133C47.7243 60.9217 48.0712 61.025 48.4221 61.1265L48.3373 61.3554ZM58.6363 61.3054L58.5358 61.0783C58.8669 60.9699 59.2099 60.8459 59.5528 60.7134L59.6652 60.9338C59.3183 61.0697 58.9714 61.1936 58.6363 61.3054ZM46.7703 60.87C46.4214 60.7547 46.0785 60.6326 45.7434 60.5104L45.8518 60.2849C46.1829 60.4088 46.5219 60.5276 46.8689 60.6446L46.7703 60.87ZM60.1698 60.7358L60.0535 60.5173C60.3807 60.383 60.7118 60.2436 61.041 60.0956L61.1652 60.3108C60.834 60.4588 60.5009 60.6016 60.1698 60.7358ZM45.2348 60.3159C44.8919 60.1851 44.5588 60.0474 44.2296 59.908L44.3518 59.6929C44.675 59.8289 45.0062 59.9631 45.3452 60.0956L45.2348 60.3159ZM61.658 60.087L61.5279 59.8736C61.8492 59.7239 62.1685 59.569 62.4898 59.4089L62.6277 59.6172C62.3064 59.7789 61.9832 59.9373 61.658 60.087ZM43.7348 59.6929C43.4017 59.5449 43.0745 59.3952 42.7572 59.2403L42.8892 59.032C43.2066 59.1818 43.5298 59.3315 43.859 59.4778L43.7348 59.6929ZM63.1067 59.3711L62.9668 59.1663C63.2782 59.0045 63.5916 58.8341 63.905 58.662L64.0528 58.8668C63.7375 59.0424 63.4221 59.2093 63.1067 59.3711ZM42.2743 59.0045C41.951 58.8427 41.6337 58.6792 41.3222 58.5106L41.4661 58.3075C41.7756 58.471 42.091 58.6345 42.4103 58.7928L42.2743 59.0045ZM64.518 58.6052L64.3682 58.4039C64.6737 58.2284 64.9792 58.0528 65.2848 57.8721L65.4405 58.07C65.131 58.2524 64.8255 58.4314 64.518 58.6052ZM40.8511 58.2593C40.5358 58.0855 40.2283 57.91 39.9208 57.7344L40.0745 57.5331C40.3781 57.7086 40.6856 57.8824 40.997 58.0545L40.8511 58.2593ZM65.8938 57.7947L65.7381 57.5967C66.0377 57.416 66.3373 57.2267 66.633 57.0392L66.7966 57.2319C66.497 57.4212 66.1974 57.6105 65.8938 57.7947ZM39.4635 57.4625C39.156 57.2835 38.8524 57.0993 38.5548 56.9152L38.7125 56.7208C39.0101 56.9015 39.3117 57.0856 39.6152 57.2646L39.4635 57.4625ZM67.2421 56.9445L67.0785 56.75C67.3702 56.5607 67.6639 56.3662 67.9556 56.17L68.1251 56.3593C67.8334 56.559 67.5397 56.7534 67.2421 56.9445ZM38.1054 56.6347C37.8058 56.4454 37.5062 56.2561 37.2105 56.0651L37.3741 55.874C37.6678 56.0616 37.9674 56.2526 38.2651 56.4402L38.1054 56.6347ZM68.5607 56.0633L68.3892 55.874C68.6809 55.6761 68.9648 55.4748 69.2486 55.2717L69.4221 55.4576C69.1382 55.6606 68.8524 55.862 68.5607 56.0633ZM36.767 55.7777C36.4714 55.5866 36.1757 55.3938 35.882 55.2011L36.0456 55.0083C36.3393 55.2011 36.633 55.3921 36.9306 55.5832L36.767 55.7777ZM69.8518 55.1495L69.6744 54.9653C69.9563 54.7605 70.2381 54.5557 70.516 54.3475L70.6974 54.5282C70.4175 54.7364 70.1356 54.9447 69.8518 55.1495ZM35.4365 54.9154C35.1429 54.7244 34.8492 54.5316 34.5515 54.3423L34.7151 54.1496C35.0128 54.3406 35.3065 54.5317 35.6021 54.7244L35.4365 54.9154ZM71.1133 54.2116L70.9319 54.0308C71.2118 53.8192 71.4858 53.6075 71.7598 53.3923L71.9431 53.5731C71.6711 53.7847 71.3951 53.9999 71.1133 54.2116ZM34.11 54.0567C33.8143 53.8691 33.5167 53.6798 33.2171 53.4939L33.3768 53.2977C33.6764 53.4853 33.976 53.6746 34.2716 53.8622L34.11 54.0567ZM72.3531 53.2478L72.1678 53.0688C72.4438 52.8503 72.7138 52.6334 72.9779 52.4166L73.1691 52.5938C72.9011 52.8107 72.631 53.0292 72.3531 53.2478ZM32.7677 53.2168C32.4701 53.0361 32.1665 52.8537 31.861 52.6764L32.0128 52.4751C32.3203 52.6575 32.6238 52.8382 32.9234 53.0223L32.7677 53.2168ZM31.4017 52.4097C31.0962 52.2341 30.7867 52.0637 30.4733 51.8951L30.6172 51.6903C30.9346 51.8607 31.246 52.0328 31.5535 52.2083L31.4017 52.4097ZM73.5693 52.2617L73.3781 52.0861C73.6481 51.8607 73.9122 51.637 74.1724 51.4167L74.3656 51.5887C74.1073 51.8142 73.8393 52.038 73.5693 52.2617ZM30.0042 51.6472C29.6908 51.4855 29.3755 51.3237 29.0522 51.1688L29.1862 50.9589C29.5134 51.1155 29.8327 51.279 30.1461 51.4391L30.0042 51.6472ZM74.7618 51.2515L74.5666 51.0793C74.8327 50.8505 75.0929 50.6216 75.3452 50.3978L75.5423 50.5665C75.2861 50.7919 75.0279 51.0208 74.7618 51.2515ZM28.5693 50.94C28.25 50.7902 27.9247 50.6439 27.5936 50.5011L27.7138 50.286C28.0489 50.4288 28.3761 50.5768 28.6994 50.7266L28.5693 50.94ZM27.0988 50.2946C26.7716 50.1603 26.4366 50.0312 26.0975 49.9039L26.2059 49.6802C26.5489 49.8093 26.886 49.9418 27.2151 50.076L27.0988 50.2946ZM75.9267 50.2188L75.7296 50.0519C75.9937 49.8144 76.246 49.5821 76.4904 49.3532L76.6915 49.5167C76.4431 49.7456 76.1908 49.9796 75.9267 50.2188ZM25.589 49.7181C25.2559 49.601 24.9149 49.4857 24.564 49.3756L24.6586 49.1501C25.0095 49.2603 25.3544 49.379 25.6915 49.496L25.589 49.7181ZM6.91881 49.4324L6.79858 49.2138C7.10805 49.083 7.45298 48.9556 7.82551 48.83L7.92407 49.0555C7.55745 49.1777 7.22039 49.3016 6.91881 49.4324ZM24.0476 49.2172C23.7086 49.1122 23.3597 49.0159 23.0029 48.9212L23.0837 48.6889C23.4444 48.7835 23.7933 48.8834 24.1363 48.9883L24.0476 49.2172ZM77.066 49.1639L76.8629 49.0021C77.1192 48.756 77.3656 48.5151 77.6001 48.2845L77.8071 48.4445C77.5745 48.6768 77.3262 48.9178 77.066 49.1639ZM8.43656 48.892L8.34588 48.6665C8.68688 48.5632 9.04365 48.4652 9.40633 48.374L9.48321 48.6063C9.12447 48.694 8.77165 48.7904 8.43656 48.892ZM22.4766 48.7836C22.1317 48.6958 21.7789 48.6131 21.4162 48.5323L21.4832 48.2982C21.8478 48.3791 22.2046 48.4634 22.5535 48.5495L22.4766 48.7836ZM10.0115 48.4806L9.94444 48.2483C10.2992 48.1692 10.6639 48.0969 11.0266 48.0332L11.0798 48.269C10.721 48.3309 10.3603 48.4032 10.0115 48.4806ZM20.882 48.4204C20.5252 48.3498 20.1626 48.2862 19.8058 48.2294L19.8571 47.9936C20.2178 48.0487 20.5824 48.1141 20.9431 48.1846L20.882 48.4204ZM11.6199 48.1812L11.5726 47.942C11.9372 47.8869 12.3058 47.837 12.6705 47.8009L12.7059 48.0401C12.3432 48.078 11.9786 48.1279 11.6199 48.1812ZM19.2657 48.1485C18.9011 48.0986 18.5344 48.0538 18.1796 48.0211L18.2112 47.7802C18.5719 47.8164 18.9405 47.8594 19.3111 47.9093L19.2657 48.1485ZM78.1717 48.078L77.9648 47.9213C78.219 47.6649 78.4556 47.4188 78.6744 47.1865L78.8873 47.3379C78.6665 47.5737 78.428 47.8198 78.1717 48.078ZM13.25 47.9867L13.2224 47.7475C13.587 47.7131 13.9596 47.6907 14.3321 47.6735L14.3459 47.9145C13.9773 47.9299 13.6107 47.9558 13.25 47.9867ZM17.6337 47.9695C17.2631 47.9402 16.8945 47.9196 16.5397 47.9058L16.5496 47.6666C16.9122 47.6804 17.2848 47.701 17.6593 47.7303L17.6337 47.9695ZM14.8919 47.8955L14.884 47.6529C15.1166 47.646 15.3531 47.646 15.5916 47.646C15.7256 47.646 15.8597 47.6459 15.9957 47.6494L15.9878 47.8921C15.836 47.8886 15.6843 47.8869 15.5345 47.8869C15.3176 47.8886 15.1028 47.8903 14.8919 47.8955Z" fill="#0F0F0F"/>
<path d="M53.5825 59.9941V59.7549C53.9314 59.7515 54.296 59.7308 54.6646 59.6912L54.7001 59.9304C54.3216 59.97 53.9432 59.9941 53.5825 59.9941ZM53.0227 59.9803C52.6383 59.9597 52.2638 59.9098 51.909 59.8409L51.9701 59.6069C52.3131 59.674 52.6699 59.7205 53.0404 59.7394L53.0227 59.9803ZM55.25 59.8547L55.2027 59.6172C55.5457 59.5639 55.9025 59.4933 56.2651 59.4056L56.3381 59.6396C55.9675 59.7274 55.6009 59.7996 55.25 59.8547ZM51.3689 59.7205C51.0082 59.6379 50.6534 59.5467 50.3046 59.4572L50.3834 59.2283C50.7303 59.3178 51.0812 59.4072 51.4399 59.4899L51.3689 59.7205ZM56.8722 59.4985L56.7894 59.2696C57.1285 59.1749 57.4754 59.0682 57.8203 58.9495L57.9208 59.1749C57.57 59.2971 57.2172 59.4055 56.8722 59.4985ZM49.7743 59.3143C49.4176 59.2128 49.0706 59.113 48.7257 59.0046L48.8184 58.7774C49.1594 58.8823 49.5063 58.9839 49.8591 59.082L49.7743 59.3143ZM58.4373 58.9942L58.3289 58.7705C58.662 58.65 58.997 58.5158 59.3282 58.3764L59.4504 58.5915C59.1114 58.7326 58.7724 58.8669 58.4373 58.9942ZM48.2053 58.8376C47.8545 58.7257 47.5115 58.6053 47.1764 58.4848L47.2809 58.2628C47.616 58.3833 47.957 58.4986 48.3039 58.6122L48.2053 58.8376ZM59.9452 58.3747L59.819 58.1596C60.1423 58.0167 60.4655 57.8635 60.7868 57.7035L60.9228 57.9152C60.5956 58.077 60.2704 58.2284 59.9452 58.3747ZM46.6639 58.2955C46.3229 58.1681 45.9859 58.0373 45.6547 57.9031L45.771 57.6846C46.1002 57.8188 46.4353 57.9461 46.7743 58.0786L46.6639 58.2955ZM45.1541 57.6949C44.821 57.5537 44.4918 57.4075 44.1646 57.2595L44.2927 57.0443C44.614 57.1923 44.9432 57.3386 45.2724 57.4763L45.1541 57.6949ZM61.4038 57.6742L61.2638 57.466C61.5772 57.3042 61.8906 57.1373 62.204 56.9652L62.3519 57.1665C62.0345 57.342 61.7211 57.509 61.4038 57.6742ZM43.6777 57.0323C43.3486 56.8774 43.0273 56.7208 42.7099 56.5607L42.8479 56.3525C43.1633 56.5108 43.4826 56.6674 43.8078 56.8206L43.6777 57.0323ZM62.8151 56.9084L62.6652 56.707C62.9688 56.5315 63.2763 56.3508 63.5779 56.1684L63.7355 56.3662C63.43 56.5521 63.1245 56.7294 62.8151 56.9084ZM42.2329 56.3181C41.9116 56.1546 41.5982 55.9876 41.2868 55.819L41.4327 55.6142C41.7421 55.7811 42.0555 55.9464 42.3729 56.1116L42.2329 56.3181ZM64.1909 56.0892L64.0312 55.893C64.3288 55.7088 64.6265 55.5178 64.9222 55.3251L65.0858 55.5195C64.7881 55.7123 64.4905 55.9016 64.1909 56.0892ZM40.8177 55.5626C40.5043 55.3905 40.1968 55.2149 39.8893 55.0376L40.0411 54.8363C40.3486 55.0136 40.6541 55.1857 40.9675 55.3578L40.8177 55.5626ZM65.5292 55.2287L65.3617 55.036C65.6534 54.8415 65.9452 54.6453 66.231 54.4439L66.4024 54.6315C66.1147 54.8346 65.8249 55.0325 65.5292 55.2287ZM39.4281 54.7726C39.1206 54.5954 38.8151 54.4147 38.5135 54.2322L38.6672 54.0326C38.9688 54.2133 39.2743 54.394 39.5798 54.573L39.4281 54.7726ZM66.8341 54.3303L66.6606 54.1427C66.9484 53.9414 67.2303 53.74 67.5102 53.5352L67.6876 53.7194C67.4057 53.9225 67.1239 54.129 66.8341 54.3303ZM38.0562 53.9603C37.7526 53.7762 37.4511 53.5903 37.1515 53.4096L37.3091 53.2134C37.6088 53.3975 37.9103 53.5782 38.2139 53.7624L38.0562 53.9603ZM68.1133 53.4061L67.934 53.2255C68.2158 53.0138 68.4938 52.8056 68.7677 52.5956L68.9511 52.7746C68.6751 52.9845 68.3952 53.1962 68.1133 53.4061ZM36.6961 53.1308L35.7894 52.5784L35.9491 52.3805L36.8538 52.9346L36.6961 53.1308ZM69.365 52.4545L69.1817 52.2738C69.4596 52.0586 69.7316 51.8435 69.9997 51.6284L70.1869 51.8074C69.9169 52.0208 69.6429 52.2394 69.365 52.4545ZM35.3381 52.303C35.0345 52.1189 34.7329 51.9364 34.4294 51.7557L34.5851 51.5578C34.8887 51.7385 35.1922 51.9227 35.4958 52.1051L35.3381 52.303ZM33.9741 51.4855C33.6685 51.3048 33.363 51.1276 33.0575 50.952L33.2093 50.7524C33.5168 50.9279 33.8243 51.1035 34.1278 51.2859L33.9741 51.4855ZM70.595 51.4786L70.4057 51.3031C70.6797 51.0794 70.9478 50.8591 71.2099 50.6423L71.3992 50.8178C71.137 51.0363 70.867 51.2584 70.595 51.4786ZM32.5963 50.6887C32.2888 50.5166 31.9774 50.348 31.6639 50.181L31.8078 49.9762C32.1232 50.1449 32.4346 50.3153 32.7441 50.4874L32.5963 50.6887ZM71.7993 50.4822L71.6061 50.3084C71.8801 50.0795 72.1442 49.8558 72.3985 49.6355L72.5917 49.8075C72.3354 50.0313 72.0713 50.2551 71.7993 50.4822ZM31.1948 49.9332C30.8814 49.7697 30.5641 49.6096 30.2448 49.453L30.3788 49.2448C30.7021 49.4031 31.0214 49.5649 31.3387 49.7284L31.1948 49.9332ZM72.9859 49.4685L72.7907 49.2964C73.0608 49.0606 73.319 48.8317 73.5693 48.6132L73.7664 48.7801C73.5161 49.0039 73.2539 49.2328 72.9859 49.4685ZM29.7618 49.2207C29.4406 49.071 29.1153 48.9247 28.7862 48.7801L28.9103 48.565C29.2415 48.7096 29.5706 48.8576 29.8939 49.0125L29.7618 49.2207ZM28.2934 48.5719C27.9662 48.4377 27.6331 48.3034 27.294 48.1761L27.4044 47.9558C27.7454 48.0831 28.0825 48.2156 28.4136 48.355L28.2934 48.5719ZM74.1488 48.4342L73.9497 48.2655C74.2198 48.0229 74.476 47.7923 74.7165 47.5703L74.9175 47.7389C74.6771 47.9558 74.4208 48.1916 74.1488 48.4342ZM26.7875 47.9902C26.4504 47.8732 26.1114 47.7544 25.7645 47.646L25.8591 47.4188C26.208 47.5307 26.5529 47.646 26.8919 47.7665L26.7875 47.9902ZM25.2481 47.4859C24.8972 47.3844 24.5463 47.288 24.2014 47.2003L24.2783 46.9679C24.6272 47.0557 24.982 47.1538 25.3348 47.2605L25.2481 47.4859ZM75.294 47.3861L75.093 47.2209C75.3689 46.9628 75.6193 46.727 75.842 46.5119L76.047 46.6771C75.8243 46.887 75.572 47.1263 75.294 47.3861ZM23.6732 47.0678C23.3262 46.9869 22.9695 46.9077 22.6088 46.8372L22.6699 46.6014C23.0325 46.6754 23.3913 46.7528 23.7441 46.8372L23.6732 47.0678ZM10.2835 47.0093L10.1929 46.7838C10.319 46.7442 10.4491 46.7063 10.5792 46.6719L10.66 46.9025C10.5339 46.9352 10.4077 46.9714 10.2835 47.0093ZM11.1863 46.77L11.1153 46.536C11.4583 46.4568 11.823 46.3862 12.2034 46.3226L12.2546 46.5618C11.8821 46.622 11.5214 46.6909 11.1863 46.77ZM22.0726 46.7373C21.7178 46.6736 21.3591 46.6134 20.9944 46.5618L21.0378 46.3226C21.4084 46.3759 21.7691 46.4344 22.1278 46.5015L22.0726 46.7373ZM20.4524 46.4878C20.0976 46.4448 19.7329 46.4035 19.3644 46.369L19.3939 46.1281C19.7684 46.1659 20.1331 46.2055 20.4938 46.2486L20.4524 46.4878ZM12.7927 46.4774L12.7513 46.2417C13.1061 46.1935 13.4787 46.1505 13.8532 46.1143L13.8827 46.357C13.5102 46.3897 13.1456 46.431 12.7927 46.4774ZM18.8164 46.3226C18.4537 46.295 18.0871 46.2761 17.7205 46.2623L17.7323 46.0197C18.1048 46.0334 18.4754 46.0576 18.84 46.0834L18.8164 46.3226ZM14.4287 46.3123L14.4051 46.0713C14.7737 46.0438 15.1462 46.0266 15.5148 46.0163L15.5247 46.2554C15.16 46.2658 14.7894 46.2864 14.4287 46.3123ZM17.1725 46.2468C16.8059 46.2382 16.4412 46.2348 16.0746 46.2417L16.0707 46.0024C16.4392 45.9956 16.8098 45.999 17.1804 46.0042L17.1725 46.2468Z" fill="#0F0F0F"/>
<path d="M53.4817 57.5829V57.3438C53.8207 57.3403 54.1814 57.3127 54.556 57.2628L54.5993 57.5003C54.211 57.5571 53.8365 57.5829 53.4817 57.5829ZM52.918 57.5623C52.7583 57.5451 52.6026 57.5279 52.4489 57.5003C52.236 57.4625 52.0251 57.4212 51.8181 57.3816L51.8792 57.1458C52.0862 57.1888 52.2931 57.2267 52.504 57.2628C52.6479 57.2869 52.7958 57.3059 52.9475 57.3197L52.918 57.5623ZM55.1512 57.4074L55.0901 57.1734C55.4232 57.1063 55.778 57.0185 56.1387 56.9152L56.2255 57.1441C55.8529 57.2508 55.4922 57.3403 55.1512 57.4074ZM51.278 57.268C50.9213 57.1906 50.5625 57.1028 50.2097 57.0099L50.2905 56.7775C50.6394 56.8722 50.9942 56.96 51.3451 57.0357L51.278 57.268ZM56.7517 56.9823L56.6532 56.7569C56.9824 56.6485 57.3234 56.5245 57.6663 56.3903L57.7807 56.6089C57.4318 56.7483 57.0849 56.8705 56.7517 56.9823ZM49.6795 56.8602C49.3286 56.7586 48.9778 56.6519 48.6368 56.5349L48.7353 56.3094C49.0724 56.423 49.4213 56.5331 49.7662 56.6329L49.6795 56.8602ZM58.2872 56.4041L58.1631 56.1889C58.4863 56.0513 58.8175 55.9033 59.1407 55.7518L59.2728 55.9635C58.9456 56.1184 58.6125 56.2664 58.2872 56.4041ZM48.1203 56.3576C47.7754 56.2371 47.4384 56.1063 47.1033 55.9738L47.2176 55.7535C47.5487 55.8861 47.8838 56.0117 48.2248 56.1339L48.1203 56.3576ZM46.6006 55.769C46.2675 55.6279 45.9364 55.4833 45.6111 55.3353L45.7393 55.1202C46.0625 55.2699 46.3917 55.4128 46.7209 55.5522L46.6006 55.769ZM59.7596 55.726L59.6236 55.516C59.939 55.3629 60.2544 55.1994 60.5717 55.029L60.7136 55.2338C60.3963 55.4059 60.077 55.5694 59.7596 55.726ZM45.1204 55.103C44.7971 54.9481 44.4758 54.7898 44.1565 54.6263L44.2964 54.4215C44.6138 54.5832 44.9311 54.7399 45.2524 54.8931L45.1204 55.103ZM61.1847 54.9791L61.0369 54.7777C61.3444 54.6056 61.6519 54.4318 61.9594 54.2494L62.1131 54.4508C61.8056 54.6315 61.4942 54.8104 61.1847 54.9791ZM43.6834 54.3802C43.368 54.215 43.0547 54.0463 42.7432 53.8708L42.891 53.6694C43.2025 53.8415 43.5119 54.0068 43.8273 54.1754L43.6834 54.3802ZM62.5724 54.1788L62.4147 53.9809C62.7163 53.8002 63.0178 53.6144 63.3155 53.4268L63.4771 53.6212C63.1775 53.8105 62.8759 53.9964 62.5724 54.1788ZM42.278 53.6143C41.9706 53.4388 41.6631 53.2615 41.3556 53.0826L41.5093 52.8812C41.8148 53.0602 42.1203 53.2375 42.4278 53.4096L42.278 53.6143ZM63.9265 53.3338L63.7609 53.1428C64.0586 52.9518 64.3542 52.759 64.646 52.5646L64.8115 52.7538C64.5198 52.9518 64.2222 53.1445 63.9265 53.3338ZM40.8963 52.8141C40.5928 52.6334 40.2872 52.4544 39.9837 52.272L40.1414 52.0723C40.4449 52.2565 40.7485 52.4355 41.052 52.6162L40.8963 52.8141ZM65.2491 52.4596L65.0796 52.2702C65.3713 52.0723 65.6611 51.8744 65.9469 51.6731L66.1184 51.8607C65.8326 52.0603 65.5408 52.2582 65.2491 52.4596ZM39.5303 52.0001L38.6217 51.4528L38.7754 51.2549L39.6841 51.8004L39.5303 52.0001ZM66.5481 51.5561L66.3746 51.3702C66.6624 51.1671 66.9482 50.9623 67.2261 50.7575L67.4035 50.9417C67.1236 51.1465 66.8378 51.3513 66.5481 51.5561ZM38.1663 51.1826C37.8628 51.0019 37.5592 50.8212 37.2537 50.6439L37.4075 50.4443C37.715 50.6233 38.0185 50.8057 38.3221 50.983L38.1663 51.1826ZM67.8253 50.6302L67.6479 50.4477C67.9338 50.236 68.2097 50.0261 68.4856 49.8196L68.665 50.0002C68.391 50.2085 68.1111 50.4168 67.8253 50.6302ZM36.7925 50.3755C36.4889 50.1999 36.1815 50.0244 35.872 49.8488L36.0218 49.6475C36.3332 49.823 36.6407 49.9968 36.9462 50.1741L36.7925 50.3755ZM69.0829 49.6819L68.8996 49.5012C69.1814 49.2844 69.4574 49.0709 69.7274 48.861L69.9127 49.0417C69.6427 49.2499 69.3667 49.465 69.0829 49.6819ZM35.4088 49.5907C35.0993 49.4186 34.7879 49.2516 34.4725 49.0847L34.6144 48.8782C34.9338 49.0451 35.2452 49.2138 35.5566 49.3859L35.4088 49.5907ZM33.9995 48.8369C33.6861 48.6751 33.3707 48.5133 33.0474 48.3585L33.1815 48.1485C33.5067 48.3068 33.826 48.4668 34.1414 48.6286L33.9995 48.8369ZM70.3227 48.7199L70.1354 48.5391C70.4213 48.3171 70.6913 48.0986 70.9515 47.8886L71.1387 48.0641C70.8786 48.2758 70.6046 48.4927 70.3227 48.7199ZM32.5645 48.1278C32.2452 47.9764 31.92 47.8284 31.5908 47.6838L31.715 47.4687C32.0461 47.6133 32.3733 47.7647 32.6946 47.9144L32.5645 48.1278ZM71.5448 47.7389L71.3575 47.5599C71.6433 47.3276 71.9114 47.1073 72.1617 46.9008L72.3529 47.0763C72.1006 47.2828 71.8325 47.5031 71.5448 47.7389ZM31.1 47.4687C30.7728 47.331 30.4416 47.1968 30.1046 47.066L30.2169 46.844C30.556 46.9748 30.8911 47.1125 31.2183 47.2536L31.1 47.4687ZM29.6 46.8715C29.2669 46.7459 28.9278 46.6237 28.5849 46.5084L28.6854 46.283C29.0323 46.4 29.3753 46.5256 29.7104 46.6495L29.6 46.8715ZM72.7531 46.7425L72.5619 46.5669L73.3602 45.8975L73.5513 46.073L72.7531 46.7425ZM28.0704 46.3363C27.7314 46.2261 27.3865 46.1211 27.0356 46.0179L27.1243 45.789C27.4791 45.8923 27.824 45.999 28.169 46.1108L28.0704 46.3363ZM26.5133 45.8699C26.1703 45.7752 25.8175 45.684 25.4607 45.598L25.5356 45.3656C25.8963 45.4534 26.2491 45.5446 26.596 45.641L26.5133 45.8699ZM24.9305 45.4724C24.5816 45.3915 24.2248 45.3174 23.8641 45.2469L23.9232 45.0111C24.2879 45.0817 24.6466 45.1591 24.9995 45.2383L24.9305 45.4724ZM13.1907 45.24L13.1118 45.0094C13.2281 44.9801 13.3523 44.9474 13.4863 44.913L13.5632 45.1454C13.4292 45.1798 13.305 45.2125 13.1907 45.24ZM23.326 45.1454C22.9712 45.08 22.6144 45.0232 22.2478 44.9664L22.2951 44.7289C22.6657 44.7839 23.0264 44.8442 23.3832 44.9079L23.326 45.1454ZM14.0915 45.0231L14.0244 44.7891C14.3852 44.7134 14.7518 44.6463 15.1144 44.5912L15.1637 44.827C14.807 44.8838 14.4443 44.9474 14.0915 45.0231ZM21.7058 44.8872C21.347 44.8356 20.9863 44.7891 20.6177 44.7495L20.6512 44.5103C21.0238 44.5499 21.3884 44.5981 21.7491 44.6463L21.7058 44.8872ZM15.7038 44.753L15.6644 44.5138C16.0271 44.4673 16.3976 44.4312 16.7702 44.4053L16.7938 44.6463C16.4272 44.6721 16.0606 44.7082 15.7038 44.753ZM20.054 44.6893C19.6972 44.6549 19.3385 44.629 18.9817 44.6153L18.9936 44.3726C19.3582 44.3898 19.7229 44.4157 20.0796 44.4501L20.0875 44.5705L20.054 44.6893ZM17.3398 44.6153L17.326 44.3761C17.6197 44.3623 17.9193 44.352 18.2347 44.3554C18.3037 44.3554 18.3707 44.3554 18.4377 44.3589L18.4338 44.5981C18.3451 44.5981 18.2564 44.5981 18.1677 44.5981C17.8838 44.5981 17.6079 44.6049 17.3398 44.6153Z" fill="#0F0F0F"/>
<path d="M71.7381 3.55086C71.062 3.55086 70.246 3.44588 69.3826 3.33573C67.1868 3.05349 65.2887 2.80738 65.5292 1.37551C65.7184 0.249986 67.0646 0.25 67.5101 0.25C68.1822 0.25 69.0002 0.354993 69.8636 0.466857C70.9161 0.601094 71.9076 0.728442 72.6073 0.977986C73.4569 1.2826 73.8294 1.76962 73.7171 2.42876C73.5278 3.55084 72.1796 3.55086 71.7381 3.55086ZM67.5081 0.733608C66.3531 0.733608 66.1363 1.07265 66.0732 1.4461C65.9194 2.35478 67.2617 2.57508 69.4595 2.85732C70.3051 2.96575 71.1034 3.06898 71.7361 3.06898C72.8912 3.06898 73.106 2.72478 73.1691 2.35649C73.244 1.9228 73.0114 1.644 72.3945 1.42199C71.7598 1.19654 70.7999 1.07265 69.7828 0.941852C68.9391 0.83515 68.1409 0.733608 67.5081 0.733608Z" fill="#0F0F0F"/>
<path d="M89.9037 17.5959C89.4404 17.5959 88.9556 17.5013 88.5022 17.3274C87.8537 17.0745 87.3215 16.6769 86.9983 16.2053C86.6454 15.6873 86.5824 15.1177 86.8268 14.641C87.1402 14.0266 87.8892 13.66 88.8314 13.66C89.2946 13.66 89.7775 13.7529 90.2328 13.9285C90.8793 14.1797 91.4135 14.5773 91.7348 15.0506C92.0896 15.5669 92.1507 16.1365 91.9082 16.6132C91.5948 17.2276 90.8458 17.5959 89.9037 17.5959ZM88.8314 14.6221C88.3465 14.6221 87.966 14.7769 87.836 15.0316C87.7059 15.2863 87.8517 15.5669 87.9503 15.7114C88.1513 16.0092 88.516 16.2776 88.9516 16.4446C89.7538 16.7578 90.6881 16.6356 90.899 16.2226C91.0291 15.9644 90.8852 15.6839 90.7867 15.5411C90.5817 15.2433 90.2171 14.9766 89.7854 14.8079C89.47 14.6875 89.1408 14.6221 88.8314 14.6221Z" fill="#871313"/>
<path d="M68.3302 15.2606C67.8453 15.2606 67.3466 15.1556 66.8874 14.9576C66.2448 14.6788 65.7323 14.2469 65.4485 13.7358C65.141 13.1902 65.1232 12.5982 65.4011 12.1094C65.7559 11.4847 66.5207 11.113 67.4511 11.113C67.936 11.113 68.4346 11.218 68.8939 11.4159C69.5365 11.6912 70.047 12.1249 70.3348 12.636C70.6403 13.1833 70.66 13.7753 70.3821 14.2606C70.0293 14.8888 69.2605 15.2606 68.3302 15.2606ZM67.4491 12.075C66.9485 12.075 66.5523 12.2471 66.3867 12.5397C66.2625 12.7582 66.2783 13.0336 66.436 13.3124C66.6153 13.6308 66.9563 13.9148 67.3762 14.0955C67.6837 14.228 68.0148 14.3002 68.3302 14.3002C68.8308 14.3002 69.227 14.1247 69.3906 13.8321C69.5168 13.6136 69.4991 13.3382 69.3433 13.0629C69.1659 12.7445 68.823 12.4588 68.4031 12.2798C68.0956 12.1455 67.7645 12.075 67.4491 12.075Z" fill="#871313"/>
<path d="M44.1761 11.9699C43.0447 11.9699 42.1518 11.4347 42.006 10.6688C41.9173 10.2128 42.1144 9.73772 42.5421 9.36426C42.9284 9.02523 43.4744 8.78949 44.0776 8.70172C44.253 8.67418 44.4304 8.66212 44.6058 8.66212C45.7372 8.66212 46.6282 9.19564 46.776 9.96321C46.9514 10.8702 46.0408 11.7324 44.7024 11.9337C44.527 11.9561 44.3496 11.9699 44.1761 11.9699ZM44.6058 9.6276C44.4935 9.6276 44.3772 9.63619 44.2609 9.65512C43.8864 9.70847 43.5454 9.85135 43.3207 10.0458C43.2182 10.1353 43.0546 10.3143 43.092 10.5122C43.1571 10.8495 43.8135 11.0887 44.5191 10.982C45.2819 10.8701 45.7471 10.4416 45.688 10.1267C45.6328 9.84274 45.1676 9.6276 44.6058 9.6276Z" fill="#871313"/>
</g>
<defs>
<filter id="filter0_d_580_61552" x="0.75" y="0.25" width="108" height="73" filterUnits="userSpaceOnUse" color-interpolation-filters="sRGB">
<feFlood flood-opacity="0" result="BackgroundImageFix"/>
<feColorMatrix in="SourceAlpha" type="matrix" values="0 0 0 0 0 0 0 0 0 0 0 0 0 0 0 0 0 0 127 0" result="hardAlpha"/>
<feOffset dy="4"/>
<feGaussianBlur stdDeviation="2"/>
<feComposite in2="hardAlpha" operator="out"/>
<feColorMatrix type="matrix" values="0 0 0 0 0 0 0 0 0 0 0 0 0 0 0 0 0 0 0.25 0"/>
<feBlend mode="normal" in2="BackgroundImageFix" result="effect1_dropShadow_580_61552"/>
<feBlend mode="normal" in="SourceGraphic" in2="effect1_dropShadow_580_61552" result="shape"/>
</filter>
</defs>
</svg>
