<svg width="13" height="20" viewBox="0 0 13 20" fill="none" xmlns="http://www.w3.org/2000/svg">
<path opacity="0.0909" d="M11.6999 11.2528C11.6019 11.2628 11.8549 9.9478 11.9589 9.2078C12.0619 8.4768 12.1389 6.5518 12.1879 6.5458C12.2349 6.5388 12.2549 8.2688 12.1259 9.1858C11.9669 10.3118 11.7819 11.2438 11.6999 11.2528Z" fill="#FFB561"/>
<path opacity="0.1736" d="M11.7243 11.1168C11.6343 11.1258 11.8683 9.90576 11.9663 9.20576C12.0623 8.51476 12.1363 6.74076 12.1813 6.73476C12.2243 6.72876 12.2413 8.32576 12.1203 9.18576C11.9723 10.2378 11.7993 11.1088 11.7243 11.1168Z" fill="#F3AE5F"/>
<path opacity="0.2562" d="M11.7467 10.9818C11.6647 10.9898 11.8807 9.86479 11.9717 9.20579C12.0617 8.55579 12.1307 6.93179 12.1727 6.92579C12.2127 6.92079 12.2257 8.38479 12.1137 9.18779C11.9767 10.1638 11.8147 10.9748 11.7467 10.9818Z" fill="#E7A75D"/>
<path opacity="0.3388" d="M11.7699 10.8458C11.6969 10.8528 11.8929 9.82184 11.9779 9.20484C12.0619 8.59484 12.1269 7.12184 12.1639 7.11684C12.1999 7.11184 12.2099 8.44384 12.1059 9.18984C11.9819 10.0888 11.8319 10.8398 11.7699 10.8458Z" fill="#DBA05B"/>
<path opacity="0.4215" d="M11.7934 10.7107C11.7284 10.7167 11.9054 9.78075 11.9844 9.20475C12.0624 8.63475 12.1234 7.31175 12.1564 7.30775C12.1884 7.30375 12.1954 8.50375 12.1004 9.19175C11.9874 10.0147 11.8484 10.7057 11.7934 10.7107Z" fill="#CF9959"/>
<path opacity="0.5041" d="M11.8158 10.5748C11.7588 10.5798 11.9178 9.73879 11.9898 9.20379C12.0608 8.67379 12.1178 7.50179 12.1478 7.49879C12.1768 7.49579 12.1798 8.56279 12.0938 9.19379C11.9918 9.94079 11.8648 10.5708 11.8158 10.5748Z" fill="#C39257"/>
<path opacity="0.5868" d="M11.8403 10.4398C11.7913 10.4438 11.9313 9.69782 11.9973 9.20382C12.0623 8.71382 12.1153 7.69182 12.1413 7.68982C12.1663 7.68782 12.1663 8.62182 12.0883 9.19582C11.9973 9.86582 11.8813 10.4358 11.8403 10.4398Z" fill="#B88B54"/>
<path opacity="0.6694" d="M11.8628 10.3038C11.8218 10.3068 11.9428 9.65576 12.0028 9.20276C12.0618 8.75376 12.1098 7.88176 12.1328 7.87976C12.1548 7.87876 12.1498 8.67976 12.0818 9.19676C12.0018 9.79176 11.8978 10.3018 11.8628 10.3038Z" fill="#AC8452"/>
<path opacity="0.7521" d="M11.886 10.1688C11.854 10.1708 11.956 9.61478 12.009 9.20278C12.062 8.79378 12.106 8.07278 12.125 8.07178C12.143 8.07078 12.135 8.74078 12.075 9.19978C12.007 9.71778 11.914 10.1668 11.886 10.1688Z" fill="#A07D50"/>
<path opacity="0.8347" d="M11.9086 10.0328C11.8846 10.0338 11.9676 9.57284 12.0146 9.20184C12.0616 8.83284 12.1016 8.26184 12.1166 8.26184C12.1316 8.26184 12.1196 8.79884 12.0686 9.20184C12.0116 9.64284 11.9306 10.0328 11.9086 10.0328Z" fill="#94764E"/>
<path opacity="0.9174" d="M11.9322 9.89774C11.9162 9.89774 11.9812 9.53174 12.0212 9.20174C12.0612 8.87274 12.0972 8.45274 12.1092 8.45374C12.1202 8.45474 12.1052 8.85874 12.0622 9.20474C12.0172 9.56874 11.9472 9.89774 11.9322 9.89774Z" fill="#886F4C"/>
<path d="M11.955 9.7618C11.947 9.7608 11.993 9.4888 12.027 9.2008C12.061 8.9128 12.093 8.6428 12.101 8.6438C12.109 8.6448 12.09 8.9178 12.056 9.2058C12.022 9.4948 11.963 9.7638 11.955 9.7618Z" fill="#7C684A"/>
<path d="M7.53067 19.1478C7.53067 19.1478 3.05967 19.2008 5.04767 9.08377C6.81567 0.0837746 10.8687 0.937775 10.8687 0.937775C10.8687 0.937775 10.2887 0.273775 8.87867 0.052775C7.80567 -0.115225 7.11367 0.156775 6.78967 0.325775C5.05067 1.15677 2.08467 6.06577 1.67267 8.08477C1.19367 10.4328 2.18167 16.2628 3.30767 17.8448C3.60867 18.2688 3.86767 18.9988 5.25667 19.3278C6.64367 19.6558 7.53067 19.1478 7.53067 19.1478Z" fill="url(#paint0_linear_1165_23664)"/>
<path d="M12.1688 10.6827C13.1718 5.57573 12.3468 1.11373 10.3248 0.716734C8.30277 0.319734 4.38577 6.17373 3.86677 8.81073C3.33077 11.5327 4.66877 18.8137 6.69077 19.2107C8.71277 19.6077 11.1658 15.7897 12.1688 10.6827ZM5.16977 9.32073C6.08377 4.67173 8.30277 1.19373 10.1268 1.55273C11.9508 1.91073 12.6898 5.97073 11.7758 10.6187C10.8628 15.2677 8.64277 18.7457 6.81877 18.3877C4.99477 18.0287 4.25677 13.9697 5.16977 9.32073Z" fill="url(#paint1_linear_1165_23664)"/>
<path d="M8.82985 1.87973C10.2348 2.59373 10.3098 6.60573 9.59385 10.2527C8.88985 13.8357 7.27585 17.7877 5.79785 17.6707C6.08385 18.0597 6.42685 18.3097 6.81985 18.3867C8.64385 18.7447 10.8639 15.2667 11.7769 10.6177C12.6899 5.96873 11.9519 1.90973 10.1279 1.55173C9.70885 1.47073 9.26985 1.59073 8.82985 1.87973Z" fill="url(#paint2_linear_1165_23664)"/>
<path d="M9.7594 1.53379C9.8564 1.53179 9.9534 1.53379 10.0484 1.55279C11.8724 1.91079 12.6114 5.97079 11.6974 10.6188C10.8444 14.9598 8.8534 18.2768 7.1084 18.4068C8.8724 18.3748 10.9104 15.0258 11.7764 10.6188C12.6894 5.96979 11.9514 1.91079 10.1274 1.55279C10.0054 1.52879 9.8834 1.52379 9.7594 1.53379Z" fill="#B1A093"/>
<path d="M6.69061 19.2107C4.66861 18.8137 3.33061 11.5327 3.86661 8.81075C4.35261 6.33975 7.82361 1.04275 9.92261 0.713745C7.83361 0.913745 4.28061 6.30675 3.78761 8.81075C3.25161 11.5327 4.59061 18.8137 6.61161 19.2107C6.74461 19.2367 6.88061 19.2427 7.01761 19.2327C6.90761 19.2347 6.79861 19.2317 6.69061 19.2107Z" fill="#B1A093"/>
<path opacity="0.3" d="M2.12134 13.6147C2.66734 16.1137 4.40734 16.6787 4.10034 15.3357C3.61334 13.2057 3.84534 10.5087 3.11834 10.0327C2.82134 9.83772 2.00533 9.70272 1.84433 10.0867C1.68433 10.4717 1.95834 12.8687 2.12134 13.6147Z" fill="#FFFFDD"/>
<path opacity="0.3" d="M4.57127 2.7128C6.07227 0.640795 7.89327 0.819795 7.07427 1.9278C5.77527 3.6848 4.90927 6.24979 4.05227 6.39479C3.70227 6.45379 2.90027 6.2518 2.90727 5.8348C2.91327 5.4178 4.12327 3.3318 4.57127 2.7128Z" fill="url(#paint3_linear_1165_23664)"/>
<path opacity="0.5" d="M8.2566 1.91681C8.3446 2.05681 9.4226 1.17681 10.2556 1.43581C11.0886 1.69481 11.5626 2.68981 11.7176 3.13881C12.0696 4.15681 12.1866 5.12481 12.3286 5.17981C12.4706 5.23581 12.2656 3.63881 12.0286 2.87981C11.7916 2.12081 11.2736 1.01881 10.3666 0.820806C9.4596 0.620806 8.1646 1.76881 8.2566 1.91681Z" fill="#FFE7B1"/>
<path d="M4.9358 6.3938C4.9358 6.3938 5.5148 7.0548 5.2888 8.3038C5.0618 9.5528 4.2948 9.9258 4.2948 9.9258L3.8418 9.3898L4.3278 6.7118L4.9358 6.3938Z" fill="url(#paint4_linear_1165_23664)"/>
<path d="M4.73169 6.30884C4.73169 6.30884 5.31069 6.96984 5.08469 8.21884C4.85769 9.46784 4.09069 9.84084 4.09069 9.84084L3.6377 9.30584L4.1237 6.62784L4.73169 6.30884Z" fill="#624126"/>
<path d="M4.74396 6.55188C4.74396 6.55188 5.19896 7.11088 5.00296 8.18288C4.80696 9.25488 4.18996 9.58288 4.18996 9.58288L3.83496 9.12888L4.25396 6.83188L4.74396 6.55188Z" fill="#CAAE98"/>
<path d="M1.40137 4.81482L2.34336 5.13282L1.72337 5.32582L1.40137 4.81482Z" fill="url(#paint5_linear_1165_23664)"/>
<path d="M3.48242 9.95078L4.28342 9.37878L4.51842 9.75178C4.56742 9.82978 4.54743 9.93178 4.47243 9.98478L3.95342 10.3558C3.87242 10.4138 3.75943 10.3918 3.70643 10.3068L3.48242 9.95078Z" fill="url(#paint6_linear_1165_23664)"/>
<path d="M0.729288 5.2918L1.40129 4.8158L1.68629 5.2708L0.883288 5.8408L0.683291 5.5228C0.635291 5.4448 0.655288 5.3438 0.729288 5.2918Z" fill="url(#paint7_linear_1165_23664)"/>
<path d="M4.78019 6.70179L4.24219 5.85079L4.57019 5.61679C4.65319 5.55779 4.76919 5.57979 4.82419 5.66679L5.17219 6.21679C5.22219 6.29679 5.20219 6.40179 5.12519 6.45679L4.78019 6.70179Z" fill="url(#paint8_linear_1165_23664)"/>
<path d="M0.394737 9.62776L0.0247346 9.04576C-0.0202654 8.97476 -0.00226503 8.88176 0.065735 8.83276L0.377739 8.60876L0.91774 9.45876L0.620735 9.67276C0.546735 9.72376 0.443737 9.70476 0.394737 9.62776Z" fill="url(#paint9_linear_1165_23664)"/>
<path d="M4.54765 6.26586C5.30765 7.43686 5.04365 9.00686 3.95765 9.77186C2.87165 10.5369 1.37465 10.2069 0.614647 9.03586C-0.145353 7.86386 0.118644 6.29486 1.20464 5.52986C2.29164 4.76586 3.78765 5.09486 4.54765 6.26586Z" fill="#CCCDCE"/>
<path opacity="0.3" d="M2.6111 7.72178L2.4571 7.48278L2.12109 5.19678L2.6951 7.36278L2.6111 7.72178Z" fill="url(#paint10_linear_1165_23664)"/>
<path opacity="0.3" d="M3.89835 5.62976L2.69435 7.36276L2.61035 7.72176L2.90635 7.55476L3.89835 5.62976Z" fill="url(#paint11_linear_1165_23664)"/>
<path opacity="0.3" d="M4.90135 7.17578L2.90635 7.55478L2.61035 7.72178L2.92735 7.82278C2.92735 7.82278 4.87935 7.19178 4.90135 7.17578Z" fill="url(#paint12_linear_1165_23664)"/>
<path opacity="0.3" d="M4.56835 9.0378L2.92735 7.8228L2.61035 7.7218L2.80235 8.0178L4.56835 9.0378Z" fill="url(#paint13_linear_1165_23664)"/>
<path opacity="0.3" d="M0.603516 6.22974L2.45652 7.48274L2.61052 7.72174L2.28851 7.62974L0.603516 6.22974Z" fill="url(#paint14_linear_1165_23664)"/>
<path opacity="0.3" d="M3.03297 10.1078L2.80297 8.0178L2.61098 7.7218L2.50098 8.0408L3.03297 10.1078Z" fill="url(#paint15_linear_1165_23664)"/>
<path opacity="0.3" d="M0.222656 8.07276L2.28865 7.62976L2.61066 7.72176L2.31766 7.91076L0.222656 8.07276Z" fill="url(#paint16_linear_1165_23664)"/>
<path opacity="0.3" d="M1.20605 9.6838L2.31806 7.9108L2.61106 7.7218L2.50106 8.0408L1.20605 9.6838Z" fill="url(#paint17_linear_1165_23664)"/>
<path opacity="0.5" d="M2.80078 8.85573L3.91378 9.74673L3.56979 8.34973L2.80078 8.85573Z" fill="url(#paint18_linear_1165_23664)"/>
<path opacity="0.5" d="M4.90033 8.08382C4.89233 8.05382 3.70934 7.46082 3.70934 7.46082L3.56934 8.34882L4.90033 8.08382Z" fill="url(#paint19_linear_1165_23664)"/>
<path opacity="0.5" d="M4.59118 6.30981C4.59118 6.30981 3.27418 6.55482 3.29018 6.57782C3.30618 6.60182 3.71018 7.46081 3.71018 7.46081L4.59118 6.30981Z" fill="url(#paint20_linear_1165_23664)"/>
<path opacity="0.5" d="M3.06652 5.21375C3.08152 5.26175 3.29053 6.57775 3.29053 6.57775L2.31152 6.18175L3.06652 5.21375Z" fill="url(#paint21_linear_1165_23664)"/>
<path opacity="0.5" d="M1.28223 5.53979L1.35923 6.76979L2.31123 6.1818L1.28223 5.53979Z" fill="url(#paint22_linear_1165_23664)"/>
<path opacity="0.5" d="M0.236328 7.11278L1.16833 7.94178L1.35933 6.76978L0.236328 7.11278Z" fill="url(#paint23_linear_1165_23664)"/>
<path opacity="0.5" d="M1.8433 8.79675C1.8433 8.79675 0.562303 9.02975 0.574303 8.99775C0.586303 8.96575 1.1683 7.94275 1.1683 7.94275L1.8433 8.79675Z" fill="url(#paint24_linear_1165_23664)"/>
<path opacity="0.5" d="M2.12675 10.1088L1.84375 8.79675L2.80075 8.85575L2.12675 10.1088Z" fill="url(#paint25_linear_1165_23664)"/>
<path opacity="0.7" d="M3.03223 10.1077L3.52923 9.23872L4.56823 9.03772L3.03223 10.1077Z" fill="url(#paint26_linear_1165_23664)"/>
<path opacity="0.7" d="M4.93201 7.15479L4.29102 8.01879C4.29102 8.01879 4.53202 9.09879 4.56902 9.03679C4.60602 8.97579 4.93201 7.15479 4.93201 7.15479Z" fill="url(#paint27_linear_1165_23664)"/>
<path opacity="0.7" d="M3.89844 5.62976L4.05344 6.55876L4.93144 7.15476L3.89844 5.62976Z" fill="url(#paint28_linear_1165_23664)"/>
<path opacity="0.7" d="M2.12109 5.19678L2.92609 5.71378L3.89909 5.62978L2.12109 5.19678Z" fill="url(#paint29_linear_1165_23664)"/>
<path d="M0.603516 6.22978L1.48652 5.93778L2.12051 5.19678L0.603516 6.22978Z" fill="url(#paint30_linear_1165_23664)"/>
<path d="M0.238281 8.00779L0.667282 7.18679L0.604279 6.26379L0.238281 8.00779Z" fill="url(#paint31_linear_1165_23664)"/>
<path opacity="0.7" d="M1.20565 9.68375L1.03165 8.67475L0.222656 8.07275L1.20565 9.68375Z" fill="url(#paint32_linear_1165_23664)"/>
<path opacity="0.7" d="M3.03306 10.1078C2.98406 10.0478 2.22706 9.47278 2.22706 9.47278L1.20605 9.68478L3.03306 10.1078Z" fill="url(#paint33_linear_1165_23664)"/>
<path opacity="0.5" d="M2.63402 7.70581L2.40502 7.54681L1.24902 5.55481L2.57602 7.33581L2.63402 7.70581Z" fill="url(#paint34_linear_1165_23664)"/>
<path opacity="0.5" d="M3.02317 5.22083L2.57617 7.33582L2.63417 7.70582L2.84017 7.42683L3.02317 5.22083Z" fill="url(#paint35_linear_1165_23664)"/>
<path opacity="0.5" d="M4.50877 6.24585L2.84077 7.42685L2.63477 7.70585L2.95977 7.66885C2.95977 7.66885 4.49377 6.26985 4.50877 6.24585Z" fill="url(#paint36_linear_1165_23664)"/>
<path opacity="0.5" d="M4.89979 8.11982L2.95879 7.66882L2.63379 7.70582L2.91779 7.90182L4.89979 8.11982Z" fill="url(#paint37_linear_1165_23664)"/>
<path opacity="0.5" d="M0.257812 7.14685L2.40482 7.54685L2.63381 7.70585L2.30782 7.75385L0.257812 7.14685Z" fill="url(#paint38_linear_1165_23664)"/>
<path opacity="0.5" d="M3.90479 9.75481L2.91779 7.90181L2.63379 7.70581L2.65279 8.04881L3.90479 9.75481Z" fill="url(#paint39_linear_1165_23664)"/>
<path opacity="0.5" d="M0.598633 9.02281L2.30763 7.75381L2.63363 7.70581L2.43863 8.00281L0.598633 9.02281Z" fill="url(#paint40_linear_1165_23664)"/>
<path opacity="0.5" d="M2.09082 10.1178L2.43882 8.00281L2.63382 7.70581L2.65282 8.04881L2.09082 10.1178Z" fill="url(#paint41_linear_1165_23664)"/>
<path d="M3.22754 8.68482L4.56854 9.05282L3.73754 7.89282L3.22754 8.68482Z" fill="url(#paint42_linear_1165_23664)"/>
<path d="M4.84618 7.09384C4.82818 7.06984 3.53418 7.00684 3.53418 7.00684L3.73818 7.89284L4.84618 7.09384Z" fill="url(#paint43_linear_1165_23664)"/>
<path d="M3.90461 5.56787C3.90461 5.56787 2.8006 6.34187 2.8246 6.35787C2.8476 6.37387 3.5346 7.00687 3.5346 7.00687L3.90461 5.56787Z" fill="url(#paint44_linear_1165_23664)"/>
<path d="M2.11307 5.17883C2.14507 5.21783 2.82407 6.35783 2.82407 6.35783L1.78906 6.39483L2.11307 5.17883Z" fill="white"/>
<path d="M0.616211 6.2218L1.14521 7.3378L1.78921 6.3938L0.616211 6.2218Z" fill="url(#paint45_linear_1165_23664)"/>
<path d="M0.253906 8.12189L1.40791 8.50889L1.14491 7.33789L0.253906 8.12189Z" fill="url(#paint46_linear_1165_23664)"/>
<path d="M2.33773 9.02589C2.33773 9.02589 1.26272 9.77389 1.26172 9.73989C1.26072 9.70489 1.40773 8.50989 1.40773 8.50989L2.33773 9.02589Z" fill="url(#paint47_linear_1165_23664)"/>
<path d="M3.08389 10.1318L2.33789 9.02582L3.22789 8.68481L3.08389 10.1318Z" fill="url(#paint48_linear_1165_23664)"/>
<path opacity="0.5" d="M3.90527 9.75487L4.03227 8.73887L4.90027 8.11987L3.90527 9.75487Z" fill="url(#paint49_linear_1165_23664)"/>
<path opacity="0.5" d="M4.52758 6.21387L4.26758 7.28587C4.26758 7.28587 4.88857 8.19187 4.89957 8.11987C4.90957 8.04787 4.52758 6.21387 4.52758 6.21387Z" fill="url(#paint50_linear_1165_23664)"/>
<path opacity="0.5" d="M3.02246 5.22083L3.50846 6.02283L4.52747 6.21383L3.02246 5.22083Z" fill="url(#paint51_linear_1165_23664)"/>
<path opacity="0.7" d="M1.24902 5.55482L2.17202 5.70283L3.02302 5.22083L1.24902 5.55482Z" fill="url(#paint52_linear_1165_23664)"/>
<path opacity="0.7" d="M0.257812 7.14681L0.949814 6.50881L1.24882 5.55481L0.257812 7.14681Z" fill="url(#paint53_linear_1165_23664)"/>
<path opacity="0.7" d="M0.588486 8.95583L0.671486 8.01283L0.271484 7.17883L0.588486 8.95583Z" fill="url(#paint54_linear_1165_23664)"/>
<path opacity="0.5" d="M2.09063 10.1178L1.55663 9.24883L0.598633 9.02283L2.09063 10.1178Z" fill="url(#paint55_linear_1165_23664)"/>
<path opacity="0.5" d="M3.90482 9.75483C3.83782 9.71983 2.93782 9.49683 2.93782 9.49683L2.09082 10.1178L3.90482 9.75483Z" fill="url(#paint56_linear_1165_23664)"/>
<g opacity="0.5">
<path d="M2.73563 8.90684L1.72762 8.68484L1.14062 7.77984L1.31863 6.72284L2.15762 6.13184L3.16563 6.35384L3.75362 7.25884L3.57462 8.31584L2.73563 8.90684Z" fill="white"/>
<path d="M0.937729 8.64691L1.14073 7.77991L0.639732 7.15991L0.219727 8.07991L0.937729 8.64691Z" fill="white"/>
<path d="M1.31268 6.69793L1.44768 5.92993L0.59668 6.23493L0.639679 7.15993L1.31268 6.69793Z" fill="url(#paint57_linear_1165_23664)"/>
<path d="M2.15726 6.13189L1.44727 5.92989L2.13026 5.21289L2.85626 5.65689L2.15726 6.13189Z" fill="white"/>
<path d="M3.14745 6.32489L2.85645 5.65689L3.92145 5.61389L4.02444 6.49689L3.14745 6.32489Z" fill="white"/>
<path d="M3.75391 7.25895L4.0249 6.49695L4.8969 7.16795L4.3029 7.98695L3.75391 7.25895Z" fill="white"/>
<path d="M3.51855 9.22294L3.57455 8.31594L4.30255 7.98694L4.56355 9.02994L3.51855 9.22294Z" fill="url(#paint58_linear_1165_23664)"/>
<path d="M3.03272 10.1079L2.13672 9.50086L2.73573 8.90686L3.51872 9.22286L3.03272 10.1079Z" fill="white"/>
<path d="M1.72807 8.68491L0.914062 8.62891L1.22906 9.66891L2.13706 9.50091L1.72807 8.68491Z" fill="white"/>
</g>
<path opacity="0.7" d="M3.75391 7.25883L4.0249 6.49683L4.8969 7.16783L4.3029 7.98683L3.75391 7.25883Z" fill="white"/>
<path opacity="0.7" d="M3.51855 9.22282L3.57455 8.31582L4.30255 7.98682L4.56355 9.02982L3.51855 9.22282Z" fill="url(#paint59_linear_1165_23664)"/>
<path opacity="0.7" d="M2.15726 6.13189L1.44727 5.92989L2.13026 5.21289L2.85626 5.65689L2.15726 6.13189Z" fill="white"/>
<path opacity="0.5" d="M2.73563 8.90684L1.72762 8.68484L1.14062 7.77984L1.31863 6.72284L2.15762 6.13184L3.16563 6.35384L3.75362 7.25884L3.57462 8.31584L2.73563 8.90684Z" fill="white"/>
<path d="M3.14745 6.32489L2.85645 5.65689L3.92145 5.61389L4.02444 6.49689L3.14745 6.32489Z" fill="white"/>
<path opacity="0.25" d="M4.88285 7.17883C4.88285 7.37483 4.72385 7.53383 4.52785 7.53383C4.33185 7.53383 4.17285 7.37483 4.17285 7.17883C4.17285 6.98283 4.33185 6.82483 4.52785 6.82483C4.72385 6.82383 4.88285 6.98283 4.88285 7.17883Z" fill="white"/>
<path opacity="0.5" d="M4.80805 7.17893C4.80805 7.33393 4.68305 7.45893 4.52805 7.45893C4.37405 7.45893 4.24805 7.33393 4.24805 7.17893C4.24805 7.02493 4.37305 6.89893 4.52805 6.89893C4.68205 6.89893 4.80805 7.02393 4.80805 7.17893Z" fill="white"/>
<path opacity="0.75" d="M4.73226 7.17888C4.73226 7.29188 4.64027 7.38388 4.52727 7.38388C4.41427 7.38388 4.32227 7.29188 4.32227 7.17888C4.32227 7.06588 4.41427 6.97388 4.52727 6.97388C4.64027 6.97388 4.73226 7.06588 4.73226 7.17888Z" fill="white"/>
<path d="M4.65746 7.17894C4.65746 7.25094 4.59947 7.30894 4.52747 7.30894C4.45547 7.30894 4.39746 7.25094 4.39746 7.17894C4.39746 7.10794 4.45547 7.04994 4.52747 7.04994C4.59947 7.04894 4.65746 7.10694 4.65746 7.17894Z" fill="white"/>
<path opacity="0.25" d="M4.27711 5.97987C4.27711 6.10387 4.17711 6.20387 4.05311 6.20387C3.92911 6.20387 3.8291 6.10387 3.8291 5.97987C3.8291 5.85587 3.92911 5.75587 4.05311 5.75587C4.17611 5.75487 4.27711 5.85587 4.27711 5.97987Z" fill="white"/>
<path opacity="0.5" d="M4.229 5.97986C4.229 6.07786 4.14999 6.15686 4.05199 6.15686C3.95399 6.15686 3.875 6.07786 3.875 5.97986C3.875 5.88186 3.95399 5.80286 4.05199 5.80286C4.14999 5.80286 4.229 5.88186 4.229 5.97986Z" fill="white"/>
<path opacity="0.75" d="M4.18183 5.97984C4.18183 6.05084 4.12383 6.10884 4.05283 6.10884C3.98183 6.10884 3.92383 6.05084 3.92383 5.97984C3.92383 5.90884 3.98183 5.85084 4.05283 5.85084C4.12383 5.84984 4.18183 5.90784 4.18183 5.97984Z" fill="white"/>
<path d="M4.05368 6.06183C4.09897 6.06183 4.13567 6.02511 4.13567 5.97983C4.13567 5.93454 4.09897 5.89783 4.05368 5.89783C4.00839 5.89783 3.97168 5.93454 3.97168 5.97983C3.97168 6.02511 4.00839 6.06183 4.05368 6.06183Z" fill="white"/>
<path opacity="0.25" d="M3.9353 7.44983C3.9353 7.57383 3.8353 7.67383 3.7113 7.67383C3.5873 7.67383 3.4873 7.57383 3.4873 7.44983C3.4873 7.32583 3.5873 7.22583 3.7113 7.22583C3.8353 7.22583 3.9353 7.32583 3.9353 7.44983Z" fill="white"/>
<path opacity="0.5" d="M3.88818 7.44983C3.88818 7.54783 3.80918 7.62683 3.71118 7.62683C3.61318 7.62683 3.53418 7.54783 3.53418 7.44983C3.53418 7.35183 3.61318 7.27283 3.71118 7.27283C3.80918 7.27283 3.88818 7.35183 3.88818 7.44983Z" fill="white"/>
<path opacity="0.75" d="M3.71103 7.5788C3.78227 7.5788 3.84003 7.52105 3.84003 7.4498C3.84003 7.37856 3.78227 7.3208 3.71103 7.3208C3.63978 7.3208 3.58203 7.37856 3.58203 7.4498C3.58203 7.52105 3.63978 7.5788 3.71103 7.5788Z" fill="white"/>
<path d="M3.71188 7.5318C3.75717 7.5318 3.79388 7.49508 3.79388 7.4498C3.79388 7.40451 3.75717 7.3678 3.71188 7.3678C3.6666 7.3678 3.62988 7.40451 3.62988 7.4498C3.62988 7.49508 3.6666 7.5318 3.71188 7.5318Z" fill="white"/>
<path opacity="0.25" d="M2.67065 8.93689C2.67065 9.06089 2.57066 9.16089 2.44666 9.16089C2.32266 9.16089 2.22266 9.06089 2.22266 8.93689C2.22266 8.81289 2.32266 8.71289 2.44666 8.71289C2.57066 8.71289 2.67065 8.81389 2.67065 8.93689Z" fill="white"/>
<path opacity="0.5" d="M2.62354 8.93689C2.62354 9.03489 2.54453 9.11389 2.44653 9.11389C2.34853 9.11389 2.26953 9.03489 2.26953 8.93689C2.26953 8.83889 2.34853 8.75989 2.44653 8.75989C2.54453 8.76089 2.62354 8.83989 2.62354 8.93689Z" fill="white"/>
<path opacity="0.75" d="M2.44638 9.06586C2.51763 9.06586 2.57538 9.00811 2.57538 8.93686C2.57538 8.86562 2.51763 8.80786 2.44638 8.80786C2.37514 8.80786 2.31738 8.86562 2.31738 8.93686C2.31738 9.00811 2.37514 9.06586 2.44638 9.06586Z" fill="white"/>
<path d="M2.52924 8.93686C2.52924 8.98186 2.49224 9.01886 2.44724 9.01886C2.40224 9.01886 2.36523 8.98186 2.36523 8.93686C2.36523 8.89186 2.40224 8.85486 2.44724 8.85486C2.49224 8.85586 2.52924 8.89186 2.52924 8.93686Z" fill="white"/>
<path opacity="0.25" d="M1.51733 9.53285C1.51733 9.65685 1.41733 9.75685 1.29333 9.75685C1.16933 9.75685 1.06934 9.65685 1.06934 9.53285C1.06934 9.40885 1.16933 9.30885 1.29333 9.30885C1.41733 9.30785 1.51733 9.40885 1.51733 9.53285Z" fill="white"/>
<path opacity="0.5" d="M1.47021 9.53284C1.47021 9.63084 1.39121 9.70984 1.29321 9.70984C1.19521 9.70984 1.11621 9.63084 1.11621 9.53284C1.11621 9.43484 1.19521 9.35583 1.29321 9.35583C1.39121 9.35583 1.47021 9.43484 1.47021 9.53284Z" fill="white"/>
<path opacity="0.75" d="M1.42303 9.53282C1.42303 9.60382 1.36504 9.66182 1.29404 9.66182C1.22304 9.66182 1.16504 9.60382 1.16504 9.53282C1.16504 9.46182 1.22304 9.40382 1.29404 9.40382C1.36504 9.40282 1.42303 9.46082 1.42303 9.53282Z" fill="white"/>
<path d="M1.37592 9.53281C1.37592 9.57781 1.33891 9.61481 1.29391 9.61481C1.24891 9.61481 1.21191 9.57781 1.21191 9.53281C1.21191 9.48781 1.24891 9.45081 1.29391 9.45081C1.33891 9.45081 1.37592 9.48681 1.37592 9.53281Z" fill="white"/>
<path opacity="0.25" d="M2.1257 6.92883C2.1257 7.24783 1.8667 7.50683 1.5477 7.50683C1.2287 7.50683 0.970703 7.24783 0.970703 6.92883C0.970703 6.60983 1.2297 6.35083 1.5477 6.35083C1.8667 6.35183 2.1257 6.60983 2.1257 6.92883Z" fill="white"/>
<path opacity="0.5" d="M2.00375 6.92888C2.00375 7.17988 1.79975 7.38388 1.54875 7.38388C1.29775 7.38388 1.09375 7.17988 1.09375 6.92888C1.09375 6.67688 1.29775 6.47388 1.54875 6.47388C1.79975 6.47388 2.00375 6.67788 2.00375 6.92888Z" fill="white"/>
<path opacity="0.75" d="M1.88084 6.92883C1.88084 7.11283 1.73184 7.26183 1.54784 7.26183C1.36384 7.26183 1.21484 7.11283 1.21484 6.92883C1.21484 6.74483 1.36384 6.59583 1.54784 6.59583C1.73184 6.59583 1.88084 6.74483 1.88084 6.92883Z" fill="white"/>
<path d="M1.75891 6.9289C1.75891 7.0459 1.66391 7.1399 1.54791 7.1399C1.43191 7.1399 1.33691 7.0459 1.33691 6.9289C1.33691 6.8119 1.43191 6.7179 1.54791 6.7179C1.66491 6.7179 1.75891 6.8129 1.75891 6.9289Z" fill="white"/>
<path opacity="0.0625" d="M6.06409 1.02183C4.12109 3.02983 4.22909 4.83383 4.46209 4.98183C5.11409 5.39483 6.94409 2.75883 7.34909 2.31083C8.84709 0.653835 9.90909 0.684834 9.71909 0.484834C9.01109 -0.255166 6.93109 0.129834 6.06409 1.02183Z" fill="#FFFFBB"/>
<path opacity="0.125" d="M6.13666 0.986809C4.30066 2.87781 4.40666 4.62181 4.63266 4.76781C5.24766 5.16681 6.98066 2.68281 7.38066 2.24581C8.80666 0.687809 9.81966 0.691809 9.63366 0.495809C8.96666 -0.206191 6.96766 0.137809 6.13666 0.986809Z" fill="#FFFFBD"/>
<path opacity="0.1875" d="M6.20987 0.950795C4.47587 2.71879 4.58487 4.40779 4.80487 4.55379C5.38187 4.93779 7.01986 2.60679 7.41286 2.18179C8.76586 0.721795 9.73086 0.700795 9.54886 0.507795C8.92186 -0.156205 7.00387 0.141795 6.20987 0.950795Z" fill="#FFFFC0"/>
<path opacity="0.25" d="M6.2835 0.914738C4.6545 2.56374 4.7645 4.19374 4.9765 4.33874C5.5165 4.70674 7.0585 2.52874 7.4455 2.11674C8.7255 0.753737 9.6415 0.707737 9.4645 0.518737C8.8785 -0.106263 7.0415 0.148738 6.2835 0.914738Z" fill="#FFFFC2"/>
<path opacity="0.3125" d="M6.35616 0.879792C4.83316 2.40979 4.94216 3.98079 5.14816 4.12479C5.65116 4.47679 7.09616 2.45279 7.47716 2.05279C8.68217 0.786792 9.55217 0.715792 9.37917 0.530792C8.83317 -0.0552082 7.07816 0.154792 6.35616 0.879792Z" fill="#FFFFC5"/>
<path opacity="0.375" d="M6.42948 0.843783C5.01148 2.25578 5.12047 3.76678 5.31947 3.90978C5.78547 4.24578 7.13347 2.37578 7.50947 1.98678C8.64047 0.817783 9.46247 0.722783 9.29447 0.540783C8.78847 -0.00521734 7.11548 0.161783 6.42948 0.843783Z" fill="#FFFFC7"/>
<path opacity="0.4375" d="M6.50196 0.808814C5.18996 2.10281 5.29896 3.55381 5.49096 3.69581C5.92096 4.01481 7.17096 2.29981 7.54196 1.92281C8.59696 0.849814 9.37396 0.730814 9.21096 0.552814C8.74296 0.0448137 7.15196 0.167814 6.50196 0.808814Z" fill="#FFFFCA"/>
<path opacity="0.5" d="M6.57515 0.772766C5.37015 1.94877 5.47715 3.33877 5.66215 3.48077C6.05615 3.78277 7.20915 2.22177 7.57315 1.85777C8.55215 0.879767 9.28415 0.737766 9.12515 0.563766C8.69715 0.0957664 7.18915 0.174766 6.57515 0.772766Z" fill="#FFFFCC"/>
<path opacity="0.5625" d="M6.64801 0.737767C5.54901 1.79577 5.65601 3.12577 5.83401 3.26677C6.19201 3.55177 7.24601 2.14577 7.60601 1.79377C8.50801 0.910767 9.19501 0.746767 9.04101 0.575767C8.65201 0.146767 7.22601 0.181767 6.64801 0.737767Z" fill="#FFFFCF"/>
<path opacity="0.625" d="M6.72118 0.701813C5.72918 1.64181 5.83518 2.91081 6.00518 3.05281C6.32718 3.31981 7.28318 2.06881 7.63818 1.72981C8.46218 0.939813 9.10618 0.754813 8.95618 0.587813C8.60618 0.197813 7.26318 0.187813 6.72118 0.701813Z" fill="#FFFFD1"/>
<path opacity="0.6875" d="M6.79387 0.666735C5.90987 1.48974 6.01287 2.69674 6.17587 2.83874C6.46287 3.08674 7.31987 1.99174 7.66887 1.66474C8.41387 0.967735 9.01487 0.762735 8.86987 0.598735C8.55987 0.248735 7.30087 0.194735 6.79387 0.666735Z" fill="#FFFFD3"/>
<path opacity="0.75" d="M6.86747 0.630752C6.09047 1.33675 6.19247 2.48175 6.34847 2.62375C6.60047 2.85275 7.35647 1.91375 7.70247 1.59975C8.36747 0.994752 8.92647 0.769752 8.78647 0.609752C8.51447 0.299752 7.33947 0.202752 6.86747 0.630752Z" fill="#FFFFD6"/>
<path opacity="0.8125" d="M6.93991 0.595779C6.27191 1.18578 6.37191 2.26778 6.51891 2.40978C6.73691 2.61978 7.39191 1.83578 7.73391 1.53578C8.31891 1.02178 8.83691 0.778779 8.70091 0.621779C8.46791 0.350779 7.37691 0.209779 6.93991 0.595779Z" fill="#FFFFD9"/>
<path opacity="0.875" d="M7.01286 0.559762C6.45386 1.03476 6.55185 2.05176 6.69085 2.19476C6.87485 2.38476 7.42786 1.75576 7.76586 1.47076C8.26886 1.04676 8.74686 0.786762 8.61586 0.632762C8.42186 0.402762 7.41486 0.217762 7.01286 0.559762Z" fill="#FFFFDB"/>
<path opacity="0.9375" d="M7.08582 0.523756C6.63682 0.884756 6.73182 1.83476 6.86182 1.97976C7.01282 2.14876 7.46082 1.67376 7.79782 1.40476C8.21782 1.06876 8.65682 0.793756 8.53182 0.642756C8.37482 0.454756 7.45482 0.226756 7.08582 0.523756Z" fill="#FFFFDD"/>
<path d="M7.15949 0.488745C6.82249 0.738745 6.91549 1.61774 7.03449 1.76574C7.15349 1.91374 7.49449 1.59074 7.83149 1.34074C8.16849 1.09074 8.5675 0.802745 8.4485 0.654745C8.3285 0.506745 7.49649 0.238745 7.15949 0.488745Z" fill="#FFFFE0"/>
<defs>
<linearGradient id="paint0_linear_1165_23664" x1="6.94897" y1="0.057975" x2="3.97997" y2="19.4469" gradientUnits="userSpaceOnUse">
<stop stop-color="#DBAB60"/>
<stop offset="0.00029627" stop-color="#DCAB60"/>
<stop offset="0.0099" stop-color="#E8B36B"/>
<stop offset="0.0228" stop-color="#EFB870"/>
<stop offset="0.0536" stop-color="#F1B972"/>
<stop offset="0.1083" stop-color="#F7CB88"/>
<stop offset="0.1727" stop-color="#FBDB9A"/>
<stop offset="0.24" stop-color="#FEE4A5"/>
<stop offset="0.3142" stop-color="#FFE7A9"/>
<stop offset="0.3478" stop-color="#FBE1A3"/>
<stop offset="0.3932" stop-color="#F0D292"/>
<stop offset="0.4454" stop-color="#DFB875"/>
<stop offset="0.5023" stop-color="#C6954E"/>
<stop offset="0.5364" stop-color="#B57C33"/>
<stop offset="0.5605" stop-color="#C3944E"/>
<stop offset="0.5964" stop-color="#D5B170"/>
<stop offset="0.6348" stop-color="#E3CA8C"/>
<stop offset="0.676" stop-color="#EEDCA2"/>
<stop offset="0.7212" stop-color="#F6EAB1"/>
<stop offset="0.7738" stop-color="#FBF2BA"/>
<stop offset="0.8506" stop-color="#FCF4BD"/>
<stop offset="0.9387" stop-color="#F0D397"/>
<stop offset="0.9508" stop-color="#EDD094"/>
<stop offset="0.9602" stop-color="#E5C68C"/>
<stop offset="0.9688" stop-color="#D6B57F"/>
<stop offset="0.9769" stop-color="#C29E6B"/>
<stop offset="0.9846" stop-color="#A88053"/>
<stop offset="0.9919" stop-color="#885B35"/>
<stop offset="0.9962" stop-color="#724220"/>
</linearGradient>
<linearGradient id="paint1_linear_1165_23664" x1="4.52957" y1="8.84033" x2="12.2819" y2="11.0277" gradientUnits="userSpaceOnUse">
<stop offset="0.0038" stop-color="#683D11"/>
<stop offset="0.1533" stop-color="#ECB879"/>
<stop offset="0.2053" stop-color="#DBA965"/>
<stop offset="0.2605" stop-color="#CC9C54"/>
<stop offset="0.2859" stop-color="#DAAD69"/>
<stop offset="0.3103" stop-color="#E4BA78"/>
<stop offset="0.3595" stop-color="#EAC17E"/>
<stop offset="0.4406" stop-color="#EDC481"/>
<stop offset="0.4973" stop-color="#E3B978"/>
<stop offset="0.596" stop-color="#C99D60"/>
<stop offset="0.7242" stop-color="#9E6E3A"/>
<stop offset="0.7356" stop-color="#9A6A36"/>
<stop offset="0.9056" stop-color="#E0BE84"/>
<stop offset="0.9464" stop-color="#F1D397"/>
<stop offset="0.9661" stop-color="#F0D295"/>
<stop offset="0.9744" stop-color="#EBCC8E"/>
<stop offset="0.9805" stop-color="#E3C381"/>
<stop offset="0.9856" stop-color="#D8B670"/>
<stop offset="0.99" stop-color="#C9A659"/>
<stop offset="0.994" stop-color="#B7913D"/>
<stop offset="0.9975" stop-color="#A2791C"/>
<stop offset="1" stop-color="#906500"/>
</linearGradient>
<linearGradient id="paint2_linear_1165_23664" x1="8.50435" y1="17.9182" x2="10.0022" y2="1.36063" gradientUnits="userSpaceOnUse">
<stop stop-color="#BA8B4C"/>
<stop offset="0.0575" stop-color="#FEE09F"/>
<stop offset="0.1725" stop-color="#FCDE9D"/>
<stop offset="0.2224" stop-color="#F6D797"/>
<stop offset="0.2597" stop-color="#EBCA8C"/>
<stop offset="0.2908" stop-color="#DCB87C"/>
<stop offset="0.318" stop-color="#C8A167"/>
<stop offset="0.3424" stop-color="#AF844E"/>
<stop offset="0.3643" stop-color="#926330"/>
<stop offset="0.3831" stop-color="#744011"/>
<stop offset="0.426" stop-color="#7E4B1B"/>
<stop offset="0.5006" stop-color="#986737"/>
<stop offset="0.5975" stop-color="#C19663"/>
<stop offset="0.6743" stop-color="#E7BF8B"/>
<stop offset="0.7192" stop-color="#EDC994"/>
<stop offset="0.7949" stop-color="#FDE3AB"/>
<stop offset="0.8046" stop-color="#FFE7AE"/>
<stop offset="0.8356" stop-color="#FDE4AA"/>
<stop offset="0.8653" stop-color="#F7DC9F"/>
<stop offset="0.8945" stop-color="#ECCD8B"/>
<stop offset="0.9233" stop-color="#DDB970"/>
<stop offset="0.9518" stop-color="#CA9F4D"/>
<stop offset="0.9798" stop-color="#B27F23"/>
<stop offset="1" stop-color="#9F6500"/>
</linearGradient>
<linearGradient id="paint3_linear_1165_23664" x1="2.90667" y1="3.76079" x2="7.27737" y2="3.76079" gradientUnits="userSpaceOnUse">
<stop stop-color="#BA8B4C"/>
<stop offset="0.3831" stop-color="#744011"/>
<stop offset="0.426" stop-color="#7E4B1B"/>
<stop offset="0.5006" stop-color="#986737"/>
<stop offset="0.5975" stop-color="#C19663"/>
<stop offset="0.6743" stop-color="#E7BF8B"/>
<stop offset="0.7192" stop-color="#EDC994"/>
<stop offset="0.7949" stop-color="#FDE3AB"/>
<stop offset="0.8046" stop-color="#FFE7AE"/>
<stop offset="0.8356" stop-color="#FDE4AA"/>
<stop offset="0.8653" stop-color="#F7DC9F"/>
<stop offset="0.8945" stop-color="#ECCD8B"/>
<stop offset="0.9233" stop-color="#DDB970"/>
<stop offset="0.9518" stop-color="#CA9F4D"/>
<stop offset="0.9798" stop-color="#B27F23"/>
<stop offset="1" stop-color="#9F6500"/>
</linearGradient>
<linearGradient id="paint4_linear_1165_23664" x1="4.16771" y1="9.58152" x2="4.89601" y2="6.82579" gradientUnits="userSpaceOnUse">
<stop offset="0.0038" stop-color="#724220"/>
<stop offset="0.0243" stop-color="#885B35"/>
<stop offset="0.0594" stop-color="#A88053"/>
<stop offset="0.0964" stop-color="#C29E6B"/>
<stop offset="0.1351" stop-color="#D6B57F"/>
<stop offset="0.1763" stop-color="#E5C68C"/>
<stop offset="0.2218" stop-color="#EDD094"/>
<stop offset="0.2797" stop-color="#F0D397"/>
<stop offset="0.4981" stop-color="#FFEAB5"/>
<stop offset="0.5798" stop-color="#FEE7B1"/>
<stop offset="0.6539" stop-color="#FCDFA6"/>
<stop offset="0.725" stop-color="#F8D294"/>
<stop offset="0.794" stop-color="#F3BF7A"/>
<stop offset="0.8123" stop-color="#F1B972"/>
<stop offset="0.8963" stop-color="#EFB771"/>
<stop offset="0.9315" stop-color="#E8B16C"/>
<stop offset="0.9576" stop-color="#DBA564"/>
<stop offset="0.9791" stop-color="#CA9658"/>
<stop offset="0.9977" stop-color="#B38149"/>
<stop offset="1" stop-color="#B07E47"/>
</linearGradient>
<linearGradient id="paint5_linear_1165_23664" x1="1.40127" y1="5.07052" x2="2.34306" y2="5.07052" gradientUnits="userSpaceOnUse">
<stop stop-color="#B0B0BF"/>
<stop offset="0.2128" stop-color="#9E9FA9"/>
<stop offset="0.6015" stop-color="#808384"/>
<stop offset="0.7548" stop-color="#919494"/>
<stop offset="0.8307" stop-color="#666C6A"/>
<stop offset="0.8812" stop-color="#4E5652"/>
<stop offset="0.8824" stop-color="#505754"/>
<stop offset="0.9388" stop-color="#949899"/>
<stop offset="0.9794" stop-color="#C0C1C4"/>
<stop offset="1" stop-color="#D0D0D5"/>
</linearGradient>
<linearGradient id="paint6_linear_1165_23664" x1="4.35362" y1="9.71208" x2="3.46572" y2="10.2974" gradientUnits="userSpaceOnUse">
<stop stop-color="#B0B0BF"/>
<stop offset="0.2128" stop-color="#9E9FA9"/>
<stop offset="0.6015" stop-color="#808384"/>
<stop offset="0.7548" stop-color="#919494"/>
<stop offset="0.8307" stop-color="#666C6A"/>
<stop offset="0.8812" stop-color="#4E5652"/>
<stop offset="0.8824" stop-color="#505754"/>
<stop offset="0.9388" stop-color="#949899"/>
<stop offset="0.9794" stop-color="#C0C1C4"/>
<stop offset="1" stop-color="#D0D0D5"/>
</linearGradient>
<linearGradient id="paint7_linear_1165_23664" x1="1.57079" y1="5.114" x2="0.53509" y2="5.6294" gradientUnits="userSpaceOnUse">
<stop stop-color="#B0B0BF"/>
<stop offset="0.2128" stop-color="#9E9FA9"/>
<stop offset="0.6015" stop-color="#808384"/>
<stop offset="0.7548" stop-color="#919494"/>
<stop offset="0.8307" stop-color="#666C6A"/>
<stop offset="0.8812" stop-color="#4E5652"/>
<stop offset="0.8824" stop-color="#505754"/>
<stop offset="0.9388" stop-color="#949899"/>
<stop offset="0.9794" stop-color="#C0C1C4"/>
<stop offset="1" stop-color="#D0D0D5"/>
</linearGradient>
<linearGradient id="paint8_linear_1165_23664" x1="4.50299" y1="5.81239" x2="5.10239" y2="6.55749" gradientUnits="userSpaceOnUse">
<stop stop-color="#B0B0BF"/>
<stop offset="0.2128" stop-color="#9E9FA9"/>
<stop offset="0.6015" stop-color="#808384"/>
<stop offset="0.7548" stop-color="#919494"/>
<stop offset="0.8307" stop-color="#666C6A"/>
<stop offset="0.8812" stop-color="#4E5652"/>
<stop offset="0.8824" stop-color="#505754"/>
<stop offset="0.9388" stop-color="#949899"/>
<stop offset="0.9794" stop-color="#C0C1C4"/>
<stop offset="1" stop-color="#D0D0D5"/>
</linearGradient>
<linearGradient id="paint9_linear_1165_23664" x1="0.314937" y1="8.97576" x2="0.767335" y2="9.77447" gradientUnits="userSpaceOnUse">
<stop stop-color="#B0B0BF"/>
<stop offset="0.2128" stop-color="#9E9FA9"/>
<stop offset="0.6015" stop-color="#808384"/>
<stop offset="0.7548" stop-color="#919494"/>
<stop offset="0.8307" stop-color="#666C6A"/>
<stop offset="0.8812" stop-color="#4E5652"/>
<stop offset="0.8824" stop-color="#505754"/>
<stop offset="0.9388" stop-color="#949899"/>
<stop offset="0.9794" stop-color="#C0C1C4"/>
<stop offset="1" stop-color="#D0D0D5"/>
</linearGradient>
<linearGradient id="paint10_linear_1165_23664" x1="1.94864" y1="6.74185" x2="2.7839" y2="6.17683" gradientUnits="userSpaceOnUse">
<stop stop-color="white"/>
<stop offset="0.1135" stop-color="#EFEFEF"/>
<stop offset="0.524" stop-color="#BABABA"/>
<stop offset="0.8319" stop-color="#999999"/>
<stop offset="1" stop-color="#8D8D8C"/>
</linearGradient>
<linearGradient id="paint11_linear_1165_23664" x1="2.33524" y1="7.31443" x2="4.18963" y2="6.06004" gradientUnits="userSpaceOnUse">
<stop stop-color="white"/>
<stop offset="0.1135" stop-color="#EFEFEF"/>
<stop offset="0.524" stop-color="#BABABA"/>
<stop offset="0.8319" stop-color="#999999"/>
<stop offset="1" stop-color="#8D8D8C"/>
</linearGradient>
<linearGradient id="paint12_linear_1165_23664" x1="2.84365" y1="8.06605" x2="4.66881" y2="6.83143" gradientUnits="userSpaceOnUse">
<stop stop-color="white"/>
<stop offset="0.1135" stop-color="#EFEFEF"/>
<stop offset="0.524" stop-color="#BABABA"/>
<stop offset="0.8319" stop-color="#999999"/>
<stop offset="1" stop-color="#8D8D8C"/>
</linearGradient>
<linearGradient id="paint13_linear_1165_23664" x1="3.21765" y1="8.63128" x2="3.95583" y2="8.13194" gradientUnits="userSpaceOnUse">
<stop stop-color="white"/>
<stop offset="0.1135" stop-color="#EFEFEF"/>
<stop offset="0.524" stop-color="#BABABA"/>
<stop offset="0.8319" stop-color="#999999"/>
<stop offset="1" stop-color="#8D8D8C"/>
</linearGradient>
<linearGradient id="paint14_linear_1165_23664" x1="1.26537" y1="7.20699" x2="1.95411" y2="6.7411" gradientUnits="userSpaceOnUse">
<stop stop-color="#8D8D8C"/>
<stop offset="0.1681" stop-color="#999999"/>
<stop offset="0.476" stop-color="#BABABA"/>
<stop offset="0.8865" stop-color="#EFEFEF"/>
<stop offset="1" stop-color="white"/>
</linearGradient>
<linearGradient id="paint15_linear_1165_23664" x1="2.41352" y1="9.19123" x2="3.23122" y2="8.6381" gradientUnits="userSpaceOnUse">
<stop stop-color="#8D8D8C"/>
<stop offset="0.1681" stop-color="#999999"/>
<stop offset="0.476" stop-color="#BABABA"/>
<stop offset="0.8865" stop-color="#EFEFEF"/>
<stop offset="1" stop-color="white"/>
</linearGradient>
<linearGradient id="paint16_linear_1165_23664" x1="0.516693" y1="8.50627" x2="2.31767" y2="7.28801" gradientUnits="userSpaceOnUse">
<stop stop-color="#8D8D8C"/>
<stop offset="0.1681" stop-color="#999999"/>
<stop offset="0.476" stop-color="#BABABA"/>
<stop offset="0.8865" stop-color="#EFEFEF"/>
<stop offset="1" stop-color="white"/>
</linearGradient>
<linearGradient id="paint17_linear_1165_23664" x1="0.969576" y1="9.3339" x2="2.84419" y2="8.06582" gradientUnits="userSpaceOnUse">
<stop stop-color="#8D8D8C"/>
<stop offset="0.1681" stop-color="#999999"/>
<stop offset="0.476" stop-color="#BABABA"/>
<stop offset="0.8865" stop-color="#EFEFEF"/>
<stop offset="1" stop-color="white"/>
</linearGradient>
<linearGradient id="paint18_linear_1165_23664" x1="3.18185" y1="9.41971" x2="3.94504" y2="8.90345" gradientUnits="userSpaceOnUse">
<stop stop-color="white"/>
<stop offset="0.1135" stop-color="#EFEFEF"/>
<stop offset="0.524" stop-color="#BABABA"/>
<stop offset="0.8319" stop-color="#999999"/>
<stop offset="1" stop-color="#8D8D8C"/>
</linearGradient>
<linearGradient id="paint19_linear_1165_23664" x1="3.53289" y1="8.29489" x2="4.56926" y2="7.59385" gradientUnits="userSpaceOnUse">
<stop stop-color="white"/>
<stop offset="0.1135" stop-color="#EFEFEF"/>
<stop offset="0.524" stop-color="#BABABA"/>
<stop offset="0.8319" stop-color="#999999"/>
<stop offset="1" stop-color="#8D8D8C"/>
</linearGradient>
<linearGradient id="paint20_linear_1165_23664" x1="3.43829" y1="7.06031" x2="4.57754" y2="6.28968" gradientUnits="userSpaceOnUse">
<stop stop-color="white"/>
<stop offset="0.3247" stop-color="#B9C1D3"/>
<stop offset="0.6301" stop-color="#7E8DAD"/>
<stop offset="0.8542" stop-color="#5A6C96"/>
<stop offset="0.9732" stop-color="#4C608D"/>
<stop offset="0.9799" stop-color="#606E8D"/>
<stop offset="0.9929" stop-color="#80848C"/>
<stop offset="1" stop-color="#8D8D8C"/>
</linearGradient>
<linearGradient id="paint21_linear_1165_23664" x1="2.45081" y1="6.38809" x2="3.41786" y2="5.73394" gradientUnits="userSpaceOnUse">
<stop stop-color="white"/>
<stop offset="0.2389" stop-color="#DED7DE"/>
<stop offset="0.5911" stop-color="#B2A2B2"/>
<stop offset="0.8556" stop-color="#978196"/>
<stop offset="1" stop-color="#8D748C"/>
</linearGradient>
<linearGradient id="paint22_linear_1165_23664" x1="1.07439" y1="6.34918" x2="2.00043" y2="5.72277" gradientUnits="userSpaceOnUse">
<stop stop-color="white"/>
<stop offset="0.1135" stop-color="#EFEFEF"/>
<stop offset="0.524" stop-color="#BABABA"/>
<stop offset="0.8319" stop-color="#999999"/>
<stop offset="1" stop-color="#8D8D8C"/>
</linearGradient>
<linearGradient id="paint23_linear_1165_23664" x1="0.575499" y1="7.61332" x2="1.50452" y2="6.98488" gradientUnits="userSpaceOnUse">
<stop stop-color="white"/>
<stop offset="0.1135" stop-color="#EFEFEF"/>
<stop offset="0.524" stop-color="#BABABA"/>
<stop offset="0.8319" stop-color="#999999"/>
<stop offset="1" stop-color="#8D8D8C"/>
</linearGradient>
<linearGradient id="paint24_linear_1165_23664" x1="0.574743" y1="8.99881" x2="1.53888" y2="8.34663" gradientUnits="userSpaceOnUse">
<stop stop-color="white"/>
<stop offset="0.1135" stop-color="#EFEFEF"/>
<stop offset="0.524" stop-color="#BABABA"/>
<stop offset="0.8319" stop-color="#999999"/>
<stop offset="1" stop-color="#8D8D8C"/>
</linearGradient>
<linearGradient id="paint25_linear_1165_23664" x1="1.77758" y1="9.59283" x2="2.82132" y2="8.8868" gradientUnits="userSpaceOnUse">
<stop stop-color="white"/>
<stop offset="0.1135" stop-color="#EFEFEF"/>
<stop offset="0.524" stop-color="#BABABA"/>
<stop offset="0.8319" stop-color="#999999"/>
<stop offset="1" stop-color="#8D8D8C"/>
</linearGradient>
<linearGradient id="paint26_linear_1165_23664" x1="2.9088" y1="9.92444" x2="4.45897" y2="8.87583" gradientUnits="userSpaceOnUse">
<stop stop-color="white"/>
<stop offset="0.1135" stop-color="#EFEFEF"/>
<stop offset="0.524" stop-color="#BABABA"/>
<stop offset="0.8319" stop-color="#999999"/>
<stop offset="1" stop-color="#8D8D8C"/>
</linearGradient>
<linearGradient id="paint27_linear_1165_23664" x1="4.1835" y1="8.48" x2="5.31239" y2="7.71637" gradientUnits="userSpaceOnUse">
<stop stop-color="white"/>
<stop offset="0.1135" stop-color="#EFEFEF"/>
<stop offset="0.524" stop-color="#BABABA"/>
<stop offset="0.8319" stop-color="#999999"/>
<stop offset="1" stop-color="#8D8D8C"/>
</linearGradient>
<linearGradient id="paint28_linear_1165_23664" x1="4.08966" y1="6.61246" x2="4.41584" y2="6.39181" gradientUnits="userSpaceOnUse">
<stop stop-color="white"/>
<stop offset="0.1135" stop-color="#EFEFEF"/>
<stop offset="0.524" stop-color="#BABABA"/>
<stop offset="0.8319" stop-color="#999999"/>
<stop offset="1" stop-color="#8D8D8C"/>
</linearGradient>
<linearGradient id="paint29_linear_1165_23664" x1="2.50061" y1="5.75805" x2="3.51975" y2="5.06866" gradientUnits="userSpaceOnUse">
<stop stop-color="white"/>
<stop offset="0.1135" stop-color="#EFEFEF"/>
<stop offset="0.524" stop-color="#BABABA"/>
<stop offset="0.8319" stop-color="#999999"/>
<stop offset="1" stop-color="#8D8D8C"/>
</linearGradient>
<linearGradient id="paint30_linear_1165_23664" x1="0.673248" y1="6.33168" x2="2.19276" y2="5.30381" gradientUnits="userSpaceOnUse">
<stop stop-color="white"/>
<stop offset="0.1135" stop-color="#EFEFEF"/>
<stop offset="0.524" stop-color="#BABABA"/>
<stop offset="0.8319" stop-color="#999999"/>
<stop offset="1" stop-color="#8D8D8C"/>
</linearGradient>
<linearGradient id="paint31_linear_1165_23664" x1="-0.1089" y1="7.49458" x2="0.951573" y2="6.77723" gradientUnits="userSpaceOnUse">
<stop stop-color="white"/>
<stop offset="0.1135" stop-color="#EFEFEF"/>
<stop offset="0.524" stop-color="#BABABA"/>
<stop offset="0.8319" stop-color="#999999"/>
<stop offset="1" stop-color="#8D8D8C"/>
</linearGradient>
<linearGradient id="paint32_linear_1165_23664" x1="0.67782" y1="8.90313" x2="1.02686" y2="8.66702" gradientUnits="userSpaceOnUse">
<stop stop-color="white"/>
<stop offset="0.1135" stop-color="#EFEFEF"/>
<stop offset="0.524" stop-color="#BABABA"/>
<stop offset="0.8319" stop-color="#999999"/>
<stop offset="1" stop-color="#8D8D8C"/>
</linearGradient>
<linearGradient id="paint33_linear_1165_23664" x1="1.59146" y1="10.2532" x2="2.64837" y2="9.53826" gradientUnits="userSpaceOnUse">
<stop stop-color="white"/>
<stop offset="0.1135" stop-color="#EFEFEF"/>
<stop offset="0.524" stop-color="#BABABA"/>
<stop offset="0.8319" stop-color="#999999"/>
<stop offset="1" stop-color="#8D8D8C"/>
</linearGradient>
<linearGradient id="paint34_linear_1165_23664" x1="1.65515" y1="7.07474" x2="2.22789" y2="6.1858" gradientUnits="userSpaceOnUse">
<stop stop-color="white"/>
<stop offset="0.1135" stop-color="#EFEFEF"/>
<stop offset="0.524" stop-color="#BABABA"/>
<stop offset="0.8319" stop-color="#999999"/>
<stop offset="1" stop-color="#8D8D8C"/>
</linearGradient>
<linearGradient id="paint35_linear_1165_23664" x1="2.21581" y1="7.43589" x2="3.46117" y2="5.50302" gradientUnits="userSpaceOnUse">
<stop stop-color="white"/>
<stop offset="0.1135" stop-color="#EFEFEF"/>
<stop offset="0.524" stop-color="#BABABA"/>
<stop offset="0.8319" stop-color="#999999"/>
<stop offset="1" stop-color="#8D8D8C"/>
</linearGradient>
<linearGradient id="paint36_linear_1165_23664" x1="2.96404" y1="7.91827" x2="4.17842" y2="6.03347" gradientUnits="userSpaceOnUse">
<stop stop-color="white"/>
<stop offset="0.1135" stop-color="#EFEFEF"/>
<stop offset="0.524" stop-color="#BABABA"/>
<stop offset="0.8319" stop-color="#999999"/>
<stop offset="1" stop-color="#8D8D8C"/>
</linearGradient>
<linearGradient id="paint37_linear_1165_23664" x1="3.52282" y1="8.29133" x2="4.00463" y2="7.54353" gradientUnits="userSpaceOnUse">
<stop stop-color="white"/>
<stop offset="0.1135" stop-color="#EFEFEF"/>
<stop offset="0.524" stop-color="#BABABA"/>
<stop offset="0.8319" stop-color="#999999"/>
<stop offset="1" stop-color="#8D8D8C"/>
</linearGradient>
<linearGradient id="paint38_linear_1165_23664" x1="1.22481" y1="7.76951" x2="1.67212" y2="7.07526" gradientUnits="userSpaceOnUse">
<stop stop-color="#8D8D8C"/>
<stop offset="0.1681" stop-color="#999999"/>
<stop offset="0.476" stop-color="#BABABA"/>
<stop offset="0.8865" stop-color="#EFEFEF"/>
<stop offset="1" stop-color="white"/>
</linearGradient>
<linearGradient id="paint39_linear_1165_23664" x1="2.98939" y1="9.16466" x2="3.54946" y2="8.2954" gradientUnits="userSpaceOnUse">
<stop stop-color="#8D8D8C"/>
<stop offset="0.1681" stop-color="#999999"/>
<stop offset="0.476" stop-color="#BABABA"/>
<stop offset="0.8865" stop-color="#EFEFEF"/>
<stop offset="1" stop-color="white"/>
</linearGradient>
<linearGradient id="paint40_linear_1165_23664" x1="1.01791" y1="9.29297" x2="2.21468" y2="7.4355" gradientUnits="userSpaceOnUse">
<stop stop-color="#8D8D8C"/>
<stop offset="0.1681" stop-color="#998E99"/>
<stop offset="0.476" stop-color="#BA91BA"/>
<stop offset="0.8865" stop-color="#EF96EF"/>
<stop offset="1" stop-color="#FF97FF"/>
</linearGradient>
<linearGradient id="paint41_linear_1165_23664" x1="1.73203" y1="9.88679" x2="2.98973" y2="7.93474" gradientUnits="userSpaceOnUse">
<stop stop-color="#8D8D8C"/>
<stop offset="0.1681" stop-color="#999999"/>
<stop offset="0.476" stop-color="#BABABA"/>
<stop offset="0.8865" stop-color="#EFEFEF"/>
<stop offset="1" stop-color="white"/>
</linearGradient>
<linearGradient id="paint42_linear_1165_23664" x1="3.78528" y1="9.0436" x2="4.2952" y2="8.25217" gradientUnits="userSpaceOnUse">
<stop stop-color="#8D8D8C"/>
<stop offset="0.1681" stop-color="#999999"/>
<stop offset="0.476" stop-color="#BABABA"/>
<stop offset="0.8865" stop-color="#EFEFEF"/>
<stop offset="1" stop-color="white"/>
</linearGradient>
<linearGradient id="paint43_linear_1165_23664" x1="3.6738" y1="7.8514" x2="4.36293" y2="6.78182" gradientUnits="userSpaceOnUse">
<stop stop-color="white"/>
<stop offset="0.2056" stop-color="#FBFBFB"/>
<stop offset="0.3892" stop-color="#F1F1F1"/>
<stop offset="0.5644" stop-color="#DFDFDE"/>
<stop offset="0.7344" stop-color="#C5C5C5"/>
<stop offset="0.8991" stop-color="#A5A5A4"/>
<stop offset="1" stop-color="#8D8D8C"/>
</linearGradient>
<linearGradient id="paint44_linear_1165_23664" x1="3.13438" y1="6.74973" x2="3.89842" y2="5.56389" gradientUnits="userSpaceOnUse">
<stop stop-color="white"/>
<stop offset="0.4373" stop-color="#FDFDFD"/>
<stop offset="0.5948" stop-color="#F6F6F6"/>
<stop offset="0.7071" stop-color="#EBEBEB"/>
<stop offset="0.7979" stop-color="#DADADA"/>
<stop offset="0.8756" stop-color="#C4C4C4"/>
<stop offset="0.9432" stop-color="#AAAAA9"/>
<stop offset="1" stop-color="#8D8D8C"/>
</linearGradient>
<linearGradient id="paint45_linear_1165_23664" x1="0.717385" y1="7.06197" x2="1.33589" y2="6.10201" gradientUnits="userSpaceOnUse">
<stop stop-color="#8D8D8C"/>
<stop offset="0.1681" stop-color="#999999"/>
<stop offset="0.476" stop-color="#BABABA"/>
<stop offset="0.8865" stop-color="#EFEFEF"/>
<stop offset="1" stop-color="white"/>
</linearGradient>
<linearGradient id="paint46_linear_1165_23664" x1="0.74987" y1="8.44166" x2="1.36838" y2="7.48169" gradientUnits="userSpaceOnUse">
<stop stop-color="#8D8D8C"/>
<stop offset="0.1681" stop-color="#999999"/>
<stop offset="0.476" stop-color="#BABABA"/>
<stop offset="0.8865" stop-color="#EFEFEF"/>
<stop offset="1" stop-color="white"/>
</linearGradient>
<linearGradient id="paint47_linear_1165_23664" x1="1.25077" y1="9.73268" x2="1.89154" y2="8.73816" gradientUnits="userSpaceOnUse">
<stop stop-color="#608D8C"/>
<stop offset="0.1296" stop-color="#6D9695"/>
<stop offset="0.3671" stop-color="#8EAEAD"/>
<stop offset="0.6836" stop-color="#C3D4D4"/>
<stop offset="1" stop-color="white"/>
</linearGradient>
<linearGradient id="paint48_linear_1165_23664" x1="2.5683" y1="9.79973" x2="3.26968" y2="8.71116" gradientUnits="userSpaceOnUse">
<stop stop-color="#8D8D8C"/>
<stop offset="0.1681" stop-color="#999999"/>
<stop offset="0.476" stop-color="#BABABA"/>
<stop offset="0.8865" stop-color="#EFEFEF"/>
<stop offset="1" stop-color="white"/>
</linearGradient>
<linearGradient id="paint49_linear_1165_23664" x1="3.71893" y1="9.63445" x2="4.75485" y2="8.02664" gradientUnits="userSpaceOnUse">
<stop stop-color="#8D8D8C"/>
<stop offset="0.1681" stop-color="#999999"/>
<stop offset="0.476" stop-color="#BABABA"/>
<stop offset="0.8865" stop-color="#EFEFEF"/>
<stop offset="1" stop-color="white"/>
</linearGradient>
<linearGradient id="paint50_linear_1165_23664" x1="4.33039" y1="7.76193" x2="5.09302" y2="6.57829" gradientUnits="userSpaceOnUse">
<stop stop-color="#8D8D8C"/>
<stop offset="0.1681" stop-color="#999999"/>
<stop offset="0.476" stop-color="#BABABA"/>
<stop offset="0.8865" stop-color="#EFEFEF"/>
<stop offset="1" stop-color="white"/>
</linearGradient>
<linearGradient id="paint51_linear_1165_23664" x1="3.55798" y1="6.05452" x2="3.78047" y2="5.7092" gradientUnits="userSpaceOnUse">
<stop stop-color="#8D8D8C"/>
<stop offset="0.1681" stop-color="#999999"/>
<stop offset="0.476" stop-color="#BABABA"/>
<stop offset="0.8865" stop-color="#EFEFEF"/>
<stop offset="1" stop-color="white"/>
</linearGradient>
<linearGradient id="paint52_linear_1165_23664" x1="1.79994" y1="5.91009" x2="2.47255" y2="4.86615" gradientUnits="userSpaceOnUse">
<stop stop-color="#8D8D8C"/>
<stop offset="0.1681" stop-color="#999999"/>
<stop offset="0.476" stop-color="#BABABA"/>
<stop offset="0.8865" stop-color="#EFEFEF"/>
<stop offset="1" stop-color="white"/>
</linearGradient>
<linearGradient id="paint53_linear_1165_23664" x1="0.345036" y1="7.20263" x2="1.36026" y2="5.62692" gradientUnits="userSpaceOnUse">
<stop stop-color="#8D8D8C"/>
<stop offset="0.1681" stop-color="#999999"/>
<stop offset="0.476" stop-color="#BABABA"/>
<stop offset="0.8865" stop-color="#EFEFEF"/>
<stop offset="1" stop-color="white"/>
</linearGradient>
<linearGradient id="paint54_linear_1165_23664" x1="0.0716654" y1="8.62323" x2="0.78793" y2="7.51154" gradientUnits="userSpaceOnUse">
<stop stop-color="#8D8D8C"/>
<stop offset="0.1681" stop-color="#999999"/>
<stop offset="0.476" stop-color="#BABABA"/>
<stop offset="0.8865" stop-color="#EFEFEF"/>
<stop offset="1" stop-color="white"/>
</linearGradient>
<linearGradient id="paint55_linear_1165_23664" x1="1.3139" y1="9.61752" x2="1.55296" y2="9.24648" gradientUnits="userSpaceOnUse">
<stop stop-color="#8D8D8C"/>
<stop offset="0.1681" stop-color="#999999"/>
<stop offset="0.476" stop-color="#BABABA"/>
<stop offset="0.8865" stop-color="#EFEFEF"/>
<stop offset="1" stop-color="white"/>
</linearGradient>
<linearGradient id="paint56_linear_1165_23664" x1="2.64879" y1="10.4775" x2="3.34643" y2="9.39469" gradientUnits="userSpaceOnUse">
<stop stop-color="#8D8D8C"/>
<stop offset="0.1681" stop-color="#999999"/>
<stop offset="0.476" stop-color="#BABABA"/>
<stop offset="0.8865" stop-color="#EFEFEF"/>
<stop offset="1" stop-color="white"/>
</linearGradient>
<linearGradient id="paint57_linear_1165_23664" x1="0.417928" y1="6.83244" x2="1.54367" y2="6.07094" gradientUnits="userSpaceOnUse">
<stop stop-color="#8D8D8C"/>
<stop offset="0.0607" stop-color="#979596"/>
<stop offset="0.3601" stop-color="#C4BBC3"/>
<stop offset="0.6271" stop-color="#E4D6E4"/>
<stop offset="0.8495" stop-color="#F8E6F8"/>
<stop offset="1" stop-color="#FFECFF"/>
</linearGradient>
<linearGradient id="paint58_linear_1165_23664" x1="3.4365" y1="9.10081" x2="4.54741" y2="8.34934" gradientUnits="userSpaceOnUse">
<stop stop-color="#8D8D8C"/>
<stop offset="0.0664" stop-color="#9C9C9B"/>
<stop offset="0.2523" stop-color="#BFBFBF"/>
<stop offset="0.4397" stop-color="#DBDBDB"/>
<stop offset="0.6268" stop-color="#EFEFEF"/>
<stop offset="0.8136" stop-color="#FBFBFB"/>
<stop offset="1" stop-color="white"/>
</linearGradient>
<linearGradient id="paint59_linear_1165_23664" x1="3.4365" y1="9.10069" x2="4.54741" y2="8.34922" gradientUnits="userSpaceOnUse">
<stop stop-color="#8D8D8C"/>
<stop offset="0.0664" stop-color="#9C9C9B"/>
<stop offset="0.2523" stop-color="#BFBFBF"/>
<stop offset="0.4397" stop-color="#DBDBDB"/>
<stop offset="0.6268" stop-color="#EFEFEF"/>
<stop offset="0.8136" stop-color="#FBFBFB"/>
<stop offset="1" stop-color="white"/>
</linearGradient>
</defs>
</svg>
