<svg width="1747" height="1694" viewBox="0 0 1747 1694" fill="none" xmlns="http://www.w3.org/2000/svg">
<g clip-path="url(#clip0_1170_2121)">
<path d="M1383.72 1572.34V1551.26C1375.38 1560.97 1370.3 1573.56 1370.3 1587.37C1370.3 1616.53 1392.82 1640.38 1421.41 1642.59C1416.9 1632.23 1414.36 1620.8 1414.36 1608.77C1414.36 1608.75 1414.36 1608.72 1414.36 1608.7C1397.02 1605.68 1383.72 1590.5 1383.72 1572.34Z" fill="#424242"/>
<path d="M1383.72 1572.34C1383.72 1590.5 1397.02 1605.68 1414.36 1608.7C1414.39 1578.6 1430.13 1552.25 1453.78 1537.21V1528.03L1450.27 1512.66H1383.72V1521.15V1551.26V1572.34Z" fill="#0F0F0F"/>
<path d="M1438.3 1460.17H1371.76L1383.72 1512.66H1450.27L1438.3 1460.17Z" fill="#1A1A1A"/>
<path d="M808.413 1587.37C808.413 1613.15 790.788 1634.76 766.948 1640.97C771.029 1631.03 773.314 1620.17 773.314 1608.77C773.314 1607.83 773.204 1606.92 773.173 1605.99C772.232 1577.03 756.826 1551.79 733.896 1537.21V1569.75C742.919 1580.24 748.407 1593.85 748.407 1608.77C748.407 1641.86 721.582 1668.69 688.492 1668.69C655.402 1668.69 628.577 1641.86 628.577 1608.77C628.577 1593.85 634.064 1580.24 643.086 1569.75V1537.21C619.419 1552.26 603.668 1578.65 603.668 1608.77C603.668 1655.62 641.645 1693.59 688.491 1693.59C713.362 1693.59 735.66 1682.82 751.175 1665.77C751.778 1665.79 752.364 1665.86 752.969 1665.86C796.32 1665.86 831.461 1630.72 831.461 1587.37C831.461 1559.49 816.887 1535.07 794.986 1521.15V1551.26C803.335 1560.97 808.413 1573.56 808.413 1587.37Z" fill="#050505"/>
<path d="M766.948 1640.97C790.789 1634.76 808.413 1613.15 808.413 1587.37C808.413 1573.56 803.335 1560.97 794.987 1551.26V1572.34C794.987 1587.27 785.996 1600.18 773.172 1605.99C773.203 1606.92 773.313 1607.83 773.313 1608.77C773.313 1620.17 771.028 1631.03 766.948 1640.97Z" fill="#424242"/>
<path d="M733.895 1528.03V1537.21C756.825 1551.79 772.23 1577.03 773.172 1605.99C785.995 1600.18 794.987 1587.27 794.987 1572.34V1551.26V1521.15V1512.66H737.401L733.895 1528.03Z" fill="#0F0F0F"/>
<path d="M737.401 1512.66H794.987L806.953 1460.17H749.367L737.401 1512.66Z" fill="#1A1A1A"/>
<path d="M693.972 1632.45H683.01C661.051 1632.45 643.085 1614.48 643.085 1592.53V1569.75C634.063 1580.24 628.576 1593.85 628.576 1608.77C628.576 1641.86 655.401 1668.69 688.491 1668.69C721.581 1668.69 748.406 1641.86 748.406 1608.77C748.406 1593.85 742.919 1580.24 733.895 1569.75V1592.53C733.895 1614.48 715.931 1632.45 693.972 1632.45Z" fill="#424242"/>
<path d="M643.086 1592.53C643.086 1614.48 661.052 1632.45 683.011 1632.45H693.973C715.932 1632.45 733.896 1614.48 733.896 1592.53V1569.75V1537.21V1528.03H643.086V1537.21V1569.75V1592.53Z" fill="#1A1A1A"/>
<path d="M737.401 1512.66L749.367 1460.17H627.614L643.086 1528.03H733.895L737.401 1512.66Z" fill="#242424"/>
<path d="M1559.1 1608.77C1559.1 1641.86 1532.27 1668.69 1499.18 1668.69C1466.09 1668.69 1439.27 1641.86 1439.27 1608.77C1439.27 1593.85 1444.76 1580.24 1453.78 1569.75V1537.21C1430.13 1552.25 1414.39 1578.6 1414.36 1608.7C1414.36 1608.72 1414.36 1608.75 1414.36 1608.77C1414.36 1620.8 1416.9 1632.23 1421.41 1642.59C1392.82 1640.38 1370.3 1616.53 1370.3 1587.37C1370.3 1573.56 1375.38 1560.97 1383.72 1551.26V1521.15C1361.82 1535.08 1347.25 1559.49 1347.25 1587.37C1347.25 1630.72 1382.39 1665.86 1425.74 1665.86C1429.2 1665.86 1432.57 1665.56 1435.91 1665.13C1451.45 1682.56 1474 1693.59 1499.18 1693.59C1546.03 1693.59 1584 1655.62 1584 1608.77C1584 1578.65 1568.25 1552.26 1544.59 1537.21V1569.75C1553.61 1580.24 1559.1 1593.85 1559.1 1608.77Z" fill="#050505"/>
<path d="M1499.18 1668.69C1532.27 1668.69 1559.1 1641.86 1559.1 1608.77C1559.1 1593.85 1553.61 1580.24 1544.59 1569.75V1592.53C1544.59 1614.48 1526.62 1632.45 1504.66 1632.45H1493.7C1471.74 1632.45 1453.78 1614.48 1453.78 1592.53V1569.75C1444.76 1580.24 1439.27 1593.85 1439.27 1608.77C1439.27 1641.86 1466.09 1668.69 1499.18 1668.69Z" fill="#424242"/>
<path d="M1453.78 1537.21V1569.75V1592.53C1453.78 1614.48 1471.74 1632.45 1493.7 1632.45H1504.66C1526.62 1632.45 1544.59 1614.48 1544.59 1592.53V1569.75V1537.21V1528.03H1453.78V1537.21Z" fill="#1A1A1A"/>
<path d="M1450.27 1512.66L1453.78 1528.03H1544.59L1560.06 1460.17H1438.3L1450.27 1512.66Z" fill="#242424"/>
<path d="M489.233 411.159L459.707 258.056C458.441 249.663 440.021 137.986 353.881 107.588L189.96 54.2639L182.097 79.8149L345.298 132.9C417.269 158.302 433.152 261.191 433.301 262.213L433.347 262.525L462.011 411.158H401.123L360.39 244.616C359.33 239.877 344.165 175.835 295.766 154.716C260.296 139.238 209.099 124.22 171.537 114.143L163.659 139.744C200.555 149.633 251.12 164.398 285.077 179.215C321.684 195.189 334.199 249.964 334.317 250.494L373.61 411.158H373.2L512.468 1086.23C521.621 1130.6 564.004 1162.63 612.352 1162.63C614.237 1162.63 616.133 1162.58 618.034 1162.48L654.973 1160.57L511.229 1357.72C495.895 1376.65 492.823 1402.04 503.235 1424.11C513.725 1446.35 535.521 1460.17 560.113 1460.17H627.616H749.369H806.955H1371.76H1438.31H1560.06H1645.77C1655.5 1460.17 1663.4 1452.28 1663.4 1442.54C1663.4 1432.8 1655.5 1424.91 1645.77 1424.91H560.112C549.142 1424.91 539.799 1418.99 535.12 1409.07C530.44 1399.15 531.812 1388.17 538.788 1379.7L675.313 1192.51L870.593 1179.63C880.307 1178.99 887.662 1170.6 887.022 1160.88C886.704 1156.05 884.463 1151.81 881.105 1148.84L1615.18 1110.79C1666.97 1108.1 1708.16 1069.95 1711 1022.03L1718.64 892.897L1719.25 892.882L1719.07 885.64L1747.16 411.159H489.233ZM1207.01 446.415L1215.14 659.643H1082.95L1067.78 446.415H1207.01ZM1071.97 882.044L957.657 884.852L932.615 686.374H1058.05L1071.97 882.044ZM1040.98 446.415L1056.15 659.643H929.242L902.338 446.415H1040.98ZM612.446 686.375H750.954L785.891 889.072L648.809 892.44L612.446 686.375ZM621.783 893.103L582.363 894.072L542.308 686.375H585.303L621.783 893.103ZM778.079 686.375H905.672L930.798 885.512L812.902 888.408L778.079 686.375ZM875.396 446.415L902.3 659.643H773.471L736.718 446.415H875.396ZM709.593 446.415L746.346 659.643H607.729L570.101 446.415H709.593ZM542.958 446.415L580.587 659.643H537.155L496.033 446.415H542.958ZM416.467 446.415H468.809L509.931 659.643H460.457L416.467 446.415ZM509.19 895.869L465.971 686.375H515.086L555.269 894.737L509.19 895.869ZM546.993 1079.11L514.678 922.474L560.4 921.351L599.921 1126.28C573.547 1121.82 552.014 1103.44 546.993 1079.11ZM627.227 1126.7L587.496 920.685L626.481 919.728L662.682 1124.86L627.227 1126.7ZM689.579 1123.47L653.507 919.063L790.48 915.698L825.082 1116.44L689.579 1123.47ZM851.966 1115.05L817.491 915.034L934.16 912.168L959.058 1109.5L851.966 1115.05ZM985.826 1108.11L961.02 911.508L1073.87 908.736L1087.67 1102.83L985.826 1108.11ZM1084.85 686.375H1216.16L1223.49 878.322L1098.72 881.387L1084.85 686.375ZM1114.37 1101.45L1100.62 908.08L1224.51 905.037L1231.77 1095.36L1114.37 1101.45ZM1233.76 446.415H1373.25L1376.7 659.643H1241.89L1233.76 446.415ZM1242.91 686.375H1377.13L1380.18 874.472L1250.21 877.665L1242.91 686.375ZM1258.47 1093.98L1251.23 904.38L1380.61 901.202L1383.62 1087.49L1258.47 1093.98ZM1540.14 1079.37L1410.33 1086.1L1407.33 900.545L1545.08 897.161L1540.14 1079.37ZM1545.8 870.403L1406.9 873.815L1403.87 686.374H1550.78L1545.8 870.403ZM1551.51 659.643H1403.44L1399.99 446.415H1557.28L1551.51 659.643ZM1675.81 1019.95C1674.03 1049.91 1647.18 1073.82 1613.35 1075.58L1568.4 1077.91L1573.31 896.467L1683.27 893.766L1675.81 1019.95ZM1684.86 866.988L1574.03 869.71L1579 686.375H1695.55L1684.86 866.988ZM1697.13 659.643H1579.72L1585.5 446.415H1709.76L1697.13 659.643Z" fill="#424242"/>
<path d="M182.097 79.815L189.96 54.264L194.71 38.8249C194.71 38.8249 135.528 17.8049 76.1389 2.32095C44.7439 -5.86505 15.1089 5.53695 5.66192 33.2879C-16.1841 97.4619 34.1379 121.88 34.1379 121.88L156.743 162.221L163.658 139.745L171.536 114.144L182.097 79.815Z" fill="#242424"/>
</g>
<defs>
<clipPath id="clip0_1170_2121">
<rect width="1747" height="1694" fill="white"/>
</clipPath>
</defs>
</svg>
