<svg width="877" height="2210" viewBox="0 0 877 2210" fill="none" xmlns="http://www.w3.org/2000/svg">
<g clip-path="url(#clip0_1174_2121)">
<path d="M861.175 479.676C820.638 347.691 695.534 241.869 549.867 216.351C525.012 211.997 499.346 209.789 473.579 209.789L473.574 209.797V209.789H473.564C364.303 209.793 252.454 248.741 158.621 319.458C92.9272 368.968 40.6952 438.925 3.37924 527.387C-5.93476 549.464 3.27124 574.993 24.5302 586.047C63.8622 606.496 102.103 630.253 139.085 653.227C174.01 674.923 210.124 697.359 247.962 717.607C254.71 721.219 262.17 723.047 269.657 723.047C275.142 723.047 280.641 722.065 285.889 720.085C298.296 715.402 308.077 705.59 312.721 693.167C332.323 640.721 371.981 610.643 421.527 610.645C425.243 610.645 429.062 610.813 432.88 611.146C452.727 612.873 473.463 624.811 485.707 641.558C491.309 649.22 497.375 661.068 494.465 674C491.885 685.463 483.319 698.194 473.224 712.448C461.882 728.463 449.974 744.781 438.459 760.563C385.147 833.627 330.02 909.179 297.463 998.012C256.266 1110.42 256.181 1232.67 256.105 1340.53C256.083 1358.62 268.833 1385.86 304.049 1386.65C306.104 1386.69 309.119 1386.74 312.956 1386.79C320.314 1386.89 330.826 1386.99 343.439 1387.1C360.49 1387.25 381.436 1387.4 403.589 1387.55C366.682 1394.31 333.448 1407.89 306.526 1427.62C257.355 1463.67 230.375 1521.06 232.504 1585.08C234.745 1652.45 268.637 1713.35 323.168 1748C339.047 1758.09 356.962 1766.07 376.581 1771.95H344.155L362.208 1803.34H391.582L401.385 1880.14H434.904L437.171 2210.33H458.634L460.972 1880.14H494.185L504.294 1803.34H533.105L551.721 1771.95H521.997C526.973 1770.27 531.891 1768.47 536.682 1766.42C579.863 1747.89 613.309 1711.07 630.857 1662.72C651.992 1604.5 648.215 1534.97 620.996 1481.28C618.835 1477.02 616.519 1472.84 614.112 1468.86C601.406 1447.85 586.279 1430.62 569.151 1417.63C550.719 1403.66 528.654 1393.77 504.005 1388.16C541.457 1388.36 569.064 1388.5 569.064 1388.5C569.143 1388.51 569.223 1388.51 569.302 1388.51C594.359 1388.51 614.821 1368.42 615.265 1343.34C615.281 1342.39 617 1247.8 622.105 1202.12C622.886 1195.13 623.606 1188.04 624.332 1180.91C627.001 1154.67 629.759 1127.54 636.031 1104.25C652.115 1044.61 678.797 1011.58 715.724 965.867C723.731 955.954 732.012 945.705 740.736 934.514C793.458 866.897 833.075 793.679 855.302 722.778C882.297 636.668 884.273 554.876 861.175 479.676Z" fill="#34AC62"/>
<path d="M861.175 479.676C820.638 347.691 695.534 241.869 549.867 216.351C527.001 212.346 503.441 210.247 479.755 209.922C491.14 176.232 465.082 142.686 472.702 108.354C480.439 73.4959 503.964 41.0479 488.403 4.59994C484.266 -5.08806 470.118 3.26792 474.225 12.8869C488.007 45.1689 459.845 80.5939 455.428 112.053C453.123 128.472 456.51 144.253 460.583 160.108C464.609 175.779 469.332 191.846 463.28 207.607C462.951 208.465 462.816 209.262 462.763 210.029C354.883 213.452 252.453 248.741 158.62 319.458C92.9263 368.968 40.6943 438.925 3.37826 527.387C-5.93574 549.464 3.27026 574.993 24.5293 586.047C63.8613 606.496 102.102 630.253 139.084 653.227C174.009 674.923 210.123 697.359 247.961 717.607C254.709 721.219 262.169 723.047 269.656 723.047C275.141 723.047 280.64 722.065 285.888 720.085C298.295 715.402 308.076 705.59 312.72 693.167C332.322 640.721 371.98 610.643 421.526 610.645C425.242 610.645 429.061 610.813 432.879 611.146C452.726 612.873 473.462 624.811 485.706 641.558C491.308 649.22 497.374 661.068 494.464 674C491.884 685.463 483.318 698.194 473.223 712.448C461.881 728.463 449.973 744.781 438.458 760.563C385.146 833.627 330.019 909.179 297.462 998.012C256.265 1110.42 256.18 1232.67 256.104 1340.53C256.082 1358.62 268.832 1385.85 304.048 1386.64C306.103 1386.69 309.118 1386.74 312.955 1386.79C320.313 1386.89 330.825 1386.99 343.438 1387.1C368.519 1387.31 401.96 1387.54 435.401 1387.75C502.233 1388.16 569.064 1388.5 569.064 1388.5C569.143 1388.5 569.223 1388.5 569.302 1388.5C594.359 1388.5 614.821 1368.42 615.265 1343.34C615.281 1342.39 617 1247.8 622.105 1202.11C622.886 1195.12 623.606 1188.04 624.332 1180.91C627.001 1154.67 629.759 1127.54 636.031 1104.24C652.115 1044.61 678.797 1011.58 715.724 965.866C723.731 955.953 732.012 945.704 740.736 934.513C793.458 866.896 833.075 793.678 855.302 722.777C882.297 636.668 884.273 554.876 861.175 479.676ZM704.479 906.245C654 970.987 614.013 1009.33 591.637 1092.29C582.6 1125.86 580.259 1162.6 576.414 1197.01C571.006 1245.4 569.296 1342.53 569.296 1342.53C569.296 1342.53 302.077 1341.18 302.077 1340.56C302.154 1230.29 302.682 1117.36 340.626 1013.83C377.827 912.331 448.257 827.239 510.739 739.02C522.749 722.063 534.752 704.368 539.315 684.096C552.32 626.313 495.867 570.481 436.863 565.346C431.672 564.894 426.554 564.672 421.527 564.672C349.566 564.67 294.693 610.079 269.654 677.074C193.081 636.095 123.931 585.913 45.7393 545.258C77.0953 470.926 122.697 404.102 186.291 356.175C268.681 294.083 371.041 255.769 473.565 255.765C496.424 255.764 519.277 257.668 541.934 261.637C666.213 283.408 780.184 372.566 817.227 493.176C860.817 635.093 795.766 789.166 704.479 906.245Z" fill="#F9ECE5"/>
<path d="M620.995 1481.28C618.834 1477.02 616.518 1472.84 614.111 1468.86C601.405 1447.85 586.278 1430.62 569.15 1417.63C539.028 1394.8 499.289 1382.73 454.23 1382.73C445.777 1382.73 437.066 1383.15 428.34 1383.98C381.479 1388.47 339.356 1403.56 306.524 1427.62C257.353 1463.67 230.373 1521.06 232.502 1585.08C234.743 1652.44 268.635 1713.35 323.166 1748C339.045 1758.09 356.96 1766.07 376.579 1771.95H344.153L362.206 1803.34H533.104L551.72 1771.95H521.996C526.972 1770.27 531.89 1768.47 536.681 1766.42C579.862 1747.89 613.308 1711.07 630.856 1662.72C651.991 1604.49 648.213 1534.97 620.995 1481.28ZM518.557 1724.16C497.539 1733.18 474.72 1737.13 451.793 1737.13C438.531 1737.13 425.232 1735.81 412.228 1733.38C389.548 1729.15 367.298 1721.57 347.825 1709.2C264.397 1656.18 251.806 1524.74 333.706 1464.7C362.279 1443.76 397.453 1433.12 432.719 1429.75C439.825 1429.07 447.021 1428.7 454.231 1428.7C485.414 1428.7 516.774 1435.62 541.376 1454.27C554.972 1464.58 565.942 1478.05 574.773 1492.65C576.618 1495.71 578.356 1498.85 579.991 1502.07C617.106 1575.28 599.165 1689.59 518.557 1724.16Z" fill="#F9ECE5"/>
<path d="M521.996 1771.95C500.167 1779.31 476.643 1783.1 451.792 1783.1C436.047 1783.1 419.899 1781.58 403.797 1778.58C394.377 1776.82 385.326 1774.57 376.579 1771.95H344.153L362.206 1803.34H391.58L401.383 1880.14H434.902L437.169 2210.33H458.632L460.97 1880.14H494.183L504.292 1803.34H533.103L551.719 1771.95H521.996Z" fill="#EADED8"/>
<path d="M494.184 1880.14L504.293 1803.34H391.58L401.384 1880.14H494.184Z" fill="#E0D0CA"/>
<path d="M458.633 2210.33L460.971 1880.14H434.903L437.169 2210.33H458.633Z" fill="#CCB4A9"/>
<path d="M163.788 492.461C196.589 493.123 228.684 480.816 253.464 459.609C289.363 428.887 302.689 380.755 317.823 337.903C319.526 333.08 321.266 328.269 323.106 323.497C323.942 321.328 324.83 319.181 325.674 317.016C323.017 323.825 325.616 317.173 326.912 314.374C331.006 305.529 336.217 297.754 341.213 289.491C341.501 289.161 341.744 288.881 341.791 288.831C343.457 287.031 345.07 285.207 346.832 283.496C347.071 283.263 348.919 281.559 350.217 280.392C351.288 279.666 352.34 278.876 353.411 278.205C355.242 277.057 357.126 275.984 359.047 274.993C360.017 274.493 361.08 274.091 362.022 273.547C362.28 273.399 362.389 273.331 362.538 273.242C366.935 271.727 374.378 269.845 374.976 270.504C375.229 270.782 367.574 270.955 372.905 270.924C374.01 270.918 375.121 270.801 376.226 270.77C378.438 270.708 380.647 270.74 382.857 270.852C383.962 270.908 385.063 271.024 386.167 271.079C386.458 271.093 386.569 271.099 386.801 271.111C388.843 271.553 391.331 272.191 391.738 272.288C396.569 273.433 401.322 274.901 405.992 276.585C406.689 276.836 409.648 278.02 411.184 278.616C412.742 279.326 415.003 280.343 415.659 280.654C436.111 290.358 455.236 302.578 475.031 313.506C521.476 339.147 571.749 354.878 622.643 331.723C637.148 325.124 649.625 315.77 660.539 304.702C638.633 292.195 615.442 281.891 591.478 274.065C591.196 274.216 590.904 274.35 590.625 274.507C590.974 274.309 591.167 274.201 591.435 274.05C591.352 274.022 591.266 273.994 591.183 273.966C590.189 274.417 588.999 274.932 588.021 275.241C585.172 276.141 582.285 276.735 579.406 277.496C578.971 277.611 578.636 277.706 578.357 277.79C578.325 277.792 578.308 277.792 578.275 277.794C572.742 278.151 567.396 278.067 561.868 277.821C561.63 277.811 561.465 277.808 561.283 277.803C560.965 277.732 560.611 277.655 560.176 277.564C557.868 277.083 555.564 276.629 553.276 276.063C547.469 274.627 541.772 272.779 536.183 270.656C535.051 270.226 533.906 269.734 533.162 269.403C533.586 269.601 534.136 269.858 534.994 270.265C532.762 269.207 530.485 268.245 528.253 267.186C522.588 264.5 517.022 261.607 511.511 258.618C510.859 258.264 510.222 257.885 509.571 257.529C423.198 249.786 335.372 270.522 257.856 311.085C257.127 313.088 256.398 315.091 255.685 317.082C251.906 327.624 248.394 338.259 244.651 348.814C243.043 353.346 241.399 357.868 239.673 362.357C238.837 364.531 237.948 366.684 237.093 368.85C236.445 370.281 235.821 371.725 235.159 373.15C230.74 382.671 225.545 391.592 219.674 400.279C219.586 400.407 219.578 400.43 219.504 400.541C219.394 400.662 219.364 400.685 219.231 400.833C217.458 402.812 215.753 404.831 213.896 406.738C212.05 408.633 210.109 410.405 208.153 412.183C207.936 412.381 207.811 412.497 207.663 412.634C206.064 413.781 204.445 414.907 202.78 415.949C200.239 417.539 197.632 419.006 194.958 420.358C194.257 420.712 193.542 421.038 192.834 421.378C192.129 421.661 190.9 422.164 190.398 422.316C187.524 423.186 184.697 424.154 181.78 424.891C179.84 425.382 177.882 425.768 175.924 426.184C175.601 426.252 175.434 426.272 175.172 426.32C169.013 426.679 163.05 426.655 156.885 426.351C155.67 426.092 154.443 425.878 153.232 425.601C149.704 424.798 146.314 423.709 142.874 422.62C141.981 422.337 141.108 421.981 140.227 421.657C137.965 420.55 135.665 419.521 133.435 418.342C130.704 416.898 128.025 415.36 125.383 413.757C111.149 430.368 98.1709 448.098 86.4209 466.753C109.533 481.882 135.936 491.9 163.788 492.461Z" fill="#7ABF82"/>
<path d="M216.163 646.539C247.576 646.175 278.103 634.152 301.884 613.799C337.782 583.077 351.109 534.945 366.242 492.093C367.946 487.27 369.686 482.459 371.526 477.686C372.361 475.518 373.25 473.37 374.094 471.205C371.436 478.014 374.035 471.363 375.331 468.563C379.425 459.718 384.636 451.943 389.632 443.68C389.919 443.35 390.163 443.071 390.21 443.02C391.875 441.22 393.489 439.397 395.251 437.685C395.491 437.452 397.338 435.749 398.636 434.581C399.706 433.855 400.76 433.065 401.83 432.395C403.661 431.247 405.545 430.174 407.467 429.183C408.437 428.682 409.5 428.281 410.442 427.737C410.7 427.589 410.809 427.522 410.958 427.432C415.355 425.917 422.797 424.035 423.395 424.694C423.648 424.973 415.993 425.146 421.323 425.115C422.428 425.108 423.54 424.992 424.645 424.961C426.857 424.898 429.066 424.931 431.276 425.042C432.381 425.098 433.48 425.214 434.585 425.27C434.876 425.285 434.986 425.29 435.218 425.302C437.261 425.744 439.749 426.383 440.155 426.479C444.987 427.624 449.739 429.093 454.41 430.776C455.108 431.027 458.07 432.212 459.605 432.807C461.163 433.517 463.421 434.533 464.077 434.845C484.529 444.548 503.656 456.769 523.449 467.697C569.894 493.338 620.166 509.069 671.06 485.913C713.011 466.827 738.288 425.057 756.433 383.731C741.282 365.918 724.236 349.627 705.717 335.079C705.427 335.853 705.15 336.628 704.858 337.402C702.98 342.387 701.003 347.33 698.989 352.261C698.575 353.217 697.758 355.127 697.264 356.228C695.765 359.577 694.217 362.905 692.611 366.205C687.291 377.137 681.355 387.799 674.458 397.821C673.541 399.152 671.272 402.148 671.006 402.57C669.896 403.923 668.8 405.287 667.642 406.6C663.715 411.057 659.387 414.967 655.103 419.052C654.875 419.271 654.545 419.538 654.212 419.799C654.656 419.481 655.222 419.079 655.937 418.576C655.315 419.014 654.698 419.455 654.082 419.901C653.2 420.582 652.378 421.138 653.168 420.555C653.083 420.611 653.006 420.676 652.921 420.731C650.853 422.076 648.819 423.452 646.685 424.698C644.198 426.151 641.544 427.289 639.043 428.699C644.615 425.558 639.434 428.487 636.439 429.433C633.589 430.333 630.703 430.927 627.824 431.688C627.389 431.803 627.054 431.898 626.775 431.982C626.743 431.984 626.725 431.984 626.693 431.986C621.159 432.343 615.814 432.259 610.287 432.014C610.048 432.004 609.883 432.001 609.702 431.996C609.384 431.925 609.03 431.847 608.594 431.756C606.288 431.276 603.983 430.822 601.694 430.256C595.889 428.819 590.191 426.972 584.601 424.849C583.469 424.419 582.323 423.927 581.578 423.595C582.003 423.793 582.553 424.05 583.413 424.457C581.181 423.4 578.904 422.437 576.672 421.378C571.007 418.691 565.442 415.799 559.931 412.809C549.874 407.353 540.018 401.535 530.106 395.824C509.467 383.933 488.169 372.266 465.296 365.242C442.096 358.118 415.733 356.682 392.554 364.715C367.412 373.428 348.169 389.265 332.724 410.684C319.678 428.774 311.572 450.437 304.104 471.274C300.325 481.816 296.814 492.451 293.07 503.006C291.462 507.539 289.818 512.06 288.091 516.55C287.257 518.721 286.369 520.872 285.514 523.036C284.864 524.47 284.24 525.915 283.578 527.343C279.159 536.864 273.964 545.785 268.092 554.472C268.006 554.601 267.996 554.624 267.922 554.734C267.813 554.854 267.783 554.878 267.649 555.026C265.877 557.006 264.171 559.024 262.314 560.931C260.469 562.826 258.528 564.598 256.571 566.376C256.354 566.573 256.229 566.689 256.082 566.827C254.483 567.974 252.864 569.1 251.199 570.141C248.658 571.731 246.051 573.199 243.376 574.55C242.675 574.905 241.96 575.23 241.251 575.571C240.545 575.854 239.317 576.357 238.817 576.509C235.942 577.379 233.115 578.347 230.199 579.085C228.258 579.576 226.301 579.962 224.343 580.378C224.021 580.447 223.854 580.466 223.591 580.514C217.432 580.872 211.469 580.848 205.303 580.545C204.089 580.286 202.861 580.071 201.65 579.795C198.122 578.991 194.733 577.903 191.293 576.814C190.399 576.531 189.527 576.174 188.645 575.851C186.383 574.743 184.082 573.715 181.852 572.536C176.579 569.747 171.482 566.628 166.523 563.316C164.37 561.878 162.245 560.398 160.14 558.892C159.678 558.562 157.327 556.839 155.758 555.692C155.084 555.134 150.788 551.819 150.163 551.317C147.769 549.397 145.391 547.457 143.018 545.514C123.89 529.847 104.916 512.956 82.9876 501.262C78.6626 498.955 74.2686 496.975 69.8426 495.148C61.0406 511.367 53.0046 528.101 45.7666 545.26C105.384 576.255 159.762 612.767 216.163 646.539Z" fill="#7ABF82"/>
<path d="M608.348 567C598.291 561.543 588.437 555.726 578.522 550.015C557.884 538.124 536.585 526.456 513.713 519.432C490.513 512.308 464.152 510.873 440.971 518.906C415.829 527.618 396.585 543.456 381.14 564.874C379.689 566.887 378.32 568.959 376.984 571.053C395.419 565.65 415.451 563.479 436.891 565.345C452.655 566.717 468.223 571.735 482.347 579.415C482.565 579.43 482.784 579.449 483.002 579.46C483.294 579.475 483.405 579.48 483.638 579.492C485.679 579.934 488.166 580.572 488.573 580.669C493.405 581.814 498.157 583.282 502.827 584.966C503.526 585.218 506.491 586.403 508.026 586.999C509.584 587.708 511.841 588.724 512.496 589.035C532.949 598.738 552.073 610.959 571.868 621.887C618.312 647.528 668.586 663.259 719.48 640.104C768.227 617.926 794.488 565.116 813.169 517.966C815.383 512.377 817.46 506.741 819.493 501.089C818.759 498.45 818.064 495.807 817.256 493.175C809.117 466.676 797.259 441.7 782.402 418.619C770.801 442.243 762.527 467.027 753.277 491.591C751.399 496.576 749.424 501.52 747.408 506.45C746.994 507.406 746.177 509.316 745.684 510.418C744.183 513.767 742.636 517.095 741.029 520.395C735.709 531.327 729.773 541.989 722.877 552.011C721.961 553.341 719.694 556.333 719.426 556.759C718.317 558.113 717.218 559.476 716.061 560.79C712.135 565.247 707.806 569.156 703.523 573.241C703.292 573.461 702.962 573.729 702.627 573.991C703.071 573.673 703.639 573.27 704.355 572.764C703.733 573.203 703.114 573.645 702.498 574.091C701.619 574.769 700.805 575.319 701.581 574.747C701.498 574.802 701.422 574.865 701.34 574.919C699.27 576.264 697.238 577.641 695.104 578.887C692.616 580.34 689.962 581.478 687.46 582.888C693.032 579.747 687.851 582.676 684.856 583.622C682.009 584.522 679.12 585.117 676.242 585.877C675.806 585.992 675.472 586.087 675.192 586.172C675.16 586.174 675.142 586.174 675.11 586.176C669.577 586.533 664.231 586.449 658.703 586.203C658.466 586.193 658.299 586.19 658.118 586.185C657.801 586.114 657.446 586.037 657.01 585.946C654.704 585.465 652.4 585.011 650.111 584.445C644.305 583.009 638.607 581.161 633.018 579.038C631.886 578.608 630.742 578.116 629.997 577.785C630.422 577.983 630.972 578.239 631.828 578.646C629.598 577.588 627.319 576.626 625.087 575.567C619.423 572.882 613.858 569.989 608.348 567Z" fill="#7ABF82"/>
<path d="M656.766 721.191C646.709 715.735 636.854 709.917 626.941 704.206C606.301 692.315 585.004 680.647 562.131 673.624C555.366 671.546 548.32 670.024 541.176 669.008C541.057 674.001 540.481 679.04 539.343 684.095C535.236 702.339 525.102 718.486 514.362 733.895C517.316 733.159 519.89 732.7 520.231 733.075C520.483 733.354 512.829 733.526 518.159 733.496C519.264 733.489 520.375 733.373 521.481 733.342C523.693 733.279 525.902 733.312 528.111 733.423C529.216 733.479 530.317 733.595 531.421 733.651C531.713 733.666 531.825 733.671 532.057 733.683C534.099 734.125 536.585 734.763 536.992 734.859C541.823 736.005 546.576 737.473 551.246 739.156C551.945 739.408 554.91 740.594 556.444 741.189C558.003 741.898 560.259 742.914 560.915 743.225C581.367 752.928 600.492 765.149 620.286 776.077C666.731 801.718 717.004 817.449 767.898 794.294C771.881 792.482 775.662 790.397 779.353 788.195C813.254 719.858 833.933 645.974 830.794 572.865C819.209 596.472 810.937 621.237 801.694 645.782C799.818 650.766 797.842 655.71 795.825 660.64C795.411 661.596 794.595 663.507 794.101 664.608C792.6 667.957 791.052 671.285 789.446 674.585C784.128 685.517 778.191 696.179 771.295 706.2C770.379 707.53 768.114 710.52 767.844 710.948C766.735 712.302 765.635 713.666 764.477 714.979C760.552 719.436 756.222 723.346 751.94 727.431C751.71 727.651 751.379 727.919 751.044 728.181C751.49 727.863 752.057 727.46 752.772 726.955C752.15 727.393 751.531 727.836 750.915 728.282C750.038 728.96 749.222 729.51 749.998 728.939C749.916 728.994 749.841 729.057 749.757 729.11C747.687 730.455 745.656 731.832 743.521 733.078C741.032 734.53 738.38 735.668 735.879 737.079C741.451 733.938 736.27 736.867 733.275 737.813C730.426 738.714 727.54 739.307 724.66 740.068C724.225 740.183 723.89 740.278 723.611 740.362C723.579 740.364 723.561 740.364 723.528 740.366C717.996 740.723 712.65 740.639 707.121 740.394C706.884 740.383 706.718 740.381 706.538 740.376C706.22 740.304 705.864 740.227 705.43 740.136C703.123 739.655 700.818 739.202 698.53 738.636C692.724 737.199 687.027 735.352 681.437 733.229C680.305 732.8 679.16 732.307 678.416 731.977C678.841 732.175 679.391 732.432 680.249 732.838C678.017 731.78 675.74 730.818 673.508 729.76C667.843 727.073 662.277 724.18 656.766 721.191Z" fill="#7ABF82"/>
<path d="M675.36 858.398C654.72 846.507 633.423 834.84 610.551 827.816C587.349 820.692 560.988 819.257 537.809 827.29C512.666 836.002 493.423 851.84 477.979 873.258C464.933 891.348 456.828 913.011 449.358 933.848C445.581 944.39 442.068 955.025 438.325 965.579C436.717 970.112 435.073 974.633 433.346 979.123C432.511 981.296 431.622 983.45 430.766 985.615C430.118 987.047 429.495 988.49 428.832 989.916C424.413 999.437 419.218 1008.36 413.348 1017.05C413.261 1017.17 413.251 1017.2 413.178 1017.31C413.069 1017.43 413.039 1017.45 412.905 1017.6C411.133 1019.58 409.427 1021.6 407.57 1023.51C405.725 1025.4 403.784 1027.17 401.827 1028.95C401.61 1029.15 401.485 1029.26 401.338 1029.4C399.739 1030.55 398.119 1031.67 396.455 1032.71C393.914 1034.3 391.307 1035.77 388.632 1037.12C387.931 1037.48 387.217 1037.8 386.509 1038.14C385.804 1038.43 384.574 1038.93 384.074 1039.08C381.199 1039.95 378.373 1040.92 375.456 1041.66C373.515 1042.15 371.557 1042.54 369.6 1042.95C369.278 1043.02 369.111 1043.04 368.85 1043.09C362.689 1043.45 356.726 1043.42 350.561 1043.12C349.346 1042.86 348.12 1042.64 346.909 1042.37C343.381 1041.56 339.991 1040.48 336.551 1039.39C335.657 1039.11 334.785 1038.75 333.904 1038.43C333.486 1038.22 333.067 1038.01 332.647 1037.81C326.145 1058.84 321.041 1080.22 317.023 1101.83C329.993 1106.29 343.546 1108.95 357.465 1109.23C390.266 1109.89 422.361 1097.58 447.141 1076.38C483.039 1045.65 496.366 997.521 511.499 954.67C513.202 949.847 514.942 945.036 516.783 940.263C517.618 938.095 518.507 935.947 519.351 933.782C516.693 940.592 519.293 933.94 520.588 931.14C524.682 922.295 529.893 914.52 534.889 906.257C535.176 905.926 535.421 905.647 535.467 905.597C537.132 903.797 538.746 901.974 540.507 900.262C540.747 900.029 542.595 898.326 543.893 897.158C544.963 896.432 546.016 895.643 547.086 894.971C548.917 893.823 550.801 892.75 552.722 891.759C553.693 891.259 554.755 890.857 555.698 890.313C555.955 890.165 556.064 890.098 556.214 890.009C560.61 888.494 568.053 886.612 568.651 887.271C568.904 887.549 561.249 887.722 566.579 887.691C567.684 887.684 568.795 887.568 569.902 887.537C572.113 887.475 574.322 887.507 576.532 887.619C577.637 887.674 578.737 887.79 579.842 887.847C580.134 887.862 580.244 887.867 580.478 887.879C582.519 888.321 585.006 888.959 585.412 889.055C590.243 890.2 594.996 891.67 599.666 893.352C600.364 893.604 603.327 894.789 604.863 895.385C606.421 896.095 608.678 897.11 609.333 897.421C629.785 907.124 648.91 919.345 668.705 930.273C672.582 932.413 676.496 934.453 680.425 936.438C688.155 926.867 696.172 916.938 704.509 906.248C710.258 898.874 715.902 891.351 721.422 883.696C715.934 881.079 710.53 878.285 705.185 875.386C695.127 869.927 685.273 864.109 675.36 858.398Z" fill="#7ABF82"/>
<path d="M546.196 1242.23C542.417 1252.77 538.905 1263.41 535.162 1273.96C533.555 1278.49 531.91 1283.02 530.184 1287.51C529.349 1289.68 528.462 1291.83 527.607 1293.99C526.957 1295.42 526.332 1296.87 525.67 1298.3C521.25 1307.82 516.056 1316.74 510.184 1325.43C510.096 1325.56 510.088 1325.58 510.014 1325.69C509.904 1325.81 509.875 1325.83 509.742 1325.98C507.969 1327.96 506.264 1329.98 504.407 1331.89C502.561 1333.78 500.62 1335.55 498.664 1337.33C498.445 1337.53 498.322 1337.64 498.173 1337.78C496.574 1338.93 494.955 1340.06 493.29 1341.1C492.708 1341.46 492.086 1341.76 491.496 1342.11C535.276 1342.36 569.322 1342.53 569.322 1342.53C569.322 1342.53 571.031 1245.41 576.44 1197.01C577.186 1190.34 577.875 1183.57 578.568 1176.76C577.306 1178.37 576.028 1179.96 574.814 1181.64C561.771 1199.73 553.665 1221.39 546.196 1242.23Z" fill="#7ABF82"/>
<path d="M586.227 981.48C561.085 990.193 541.842 1006.03 526.397 1027.45C513.352 1045.54 505.246 1067.2 497.777 1088.04C493.998 1098.58 490.487 1109.22 486.743 1119.77C485.136 1124.3 483.492 1128.82 481.765 1133.31C480.931 1135.48 480.044 1137.63 479.19 1139.8C478.539 1141.23 477.915 1142.68 477.253 1144.11C472.834 1153.63 467.638 1162.55 461.767 1171.24C461.681 1171.36 461.672 1171.39 461.598 1171.5C461.488 1171.62 461.458 1171.64 461.325 1171.79C459.553 1173.77 457.847 1175.79 455.99 1177.69C454.144 1179.59 452.204 1181.36 450.247 1183.14C450.03 1183.34 449.905 1183.45 449.757 1183.59C448.158 1184.74 446.539 1185.86 444.875 1186.9C442.335 1188.49 439.727 1189.96 437.053 1191.31C436.351 1191.67 435.636 1191.99 434.928 1192.33C434.222 1192.62 432.994 1193.12 432.493 1193.27C429.619 1194.14 426.792 1195.11 423.876 1195.85C421.934 1196.34 419.978 1196.73 418.02 1197.14C417.698 1197.21 417.53 1197.23 417.268 1197.28C411.109 1197.64 405.145 1197.61 398.98 1197.31C397.766 1197.05 396.539 1196.84 395.327 1196.56C391.799 1195.76 388.409 1194.67 384.969 1193.58C384.075 1193.3 383.203 1192.94 382.322 1192.62C380.06 1191.51 377.76 1190.48 375.529 1189.3C370.255 1186.51 365.158 1183.39 360.199 1180.08C358.046 1178.64 355.921 1177.16 353.816 1175.66C353.355 1175.33 351.003 1173.6 349.435 1172.46C348.772 1171.91 344.467 1168.58 343.84 1168.08C341.447 1166.16 339.069 1164.22 336.695 1162.28C328.152 1155.28 319.625 1148.06 310.866 1141.14C307.515 1167.22 305.426 1193.54 304.164 1219.98C311.63 1225.82 319.187 1231.54 327.052 1236.79C350.504 1252.45 377.45 1262.84 405.885 1263.42C438.685 1264.08 470.78 1251.77 495.56 1230.56C531.458 1199.84 544.785 1151.71 559.919 1108.86C561.623 1104.04 563.363 1099.23 565.202 1094.45C566.038 1092.28 566.926 1090.14 567.771 1087.97C565.113 1094.78 567.713 1088.13 569.009 1085.33C573.103 1076.48 578.312 1068.71 583.309 1060.45C583.597 1060.12 583.841 1059.84 583.888 1059.79C585.552 1057.99 587.167 1056.16 588.928 1054.45C589.168 1054.22 591.015 1052.51 592.314 1051.35C593.385 1050.62 594.437 1049.83 595.506 1049.16C597.339 1048.01 599.221 1046.94 601.144 1045.95C602.114 1045.45 603.176 1045.05 604.119 1044.5C604.377 1044.35 604.485 1044.29 604.635 1044.2C605.969 1043.74 607.586 1043.25 609.205 1042.8C619.899 1018.96 632.632 998.722 647.104 979C627.04 974.734 605.54 974.788 586.227 981.48Z" fill="#7ABF82"/>
<path d="M398.721 922.182C432.268 893.473 446.102 849.563 460.121 808.965C429.723 850.862 400.024 893.236 375.434 938.179C383.684 933.627 391.536 928.33 398.721 922.182Z" fill="#7ABF82"/>
<path d="M402.233 1329.85C401.772 1329.52 399.422 1327.79 397.852 1326.65C397.191 1326.1 392.884 1322.77 392.256 1322.27C389.863 1320.35 387.485 1318.41 385.111 1316.47C365.983 1300.8 347.01 1283.91 325.081 1272.22C317.78 1268.32 310.315 1265.18 302.729 1262.68C302.223 1286.8 302.134 1310.93 302.112 1334.94C303.628 1335.91 305.15 1336.87 306.639 1337.87C308.04 1338.82 309.413 1339.8 310.79 1340.78C329.044 1341.05 373.638 1341.38 420.754 1341.68C416.617 1339.36 412.558 1336.91 408.615 1334.27C406.463 1332.83 404.338 1331.35 402.233 1329.85Z" fill="#7ABF82"/>
<path d="M512.353 1726.51C499.068 1715.65 485.404 1705.15 470.338 1697.12C444.883 1683.54 417.629 1678.06 389.088 1683.18C371.942 1686.26 355.791 1694.33 341.793 1705.07C343.78 1706.48 345.777 1707.88 347.853 1709.2C367.325 1721.58 389.575 1729.15 412.256 1733.38C445.556 1739.59 480.728 1738.42 512.353 1726.51Z" fill="#7ABF82"/>
<path d="M595.502 1608.04C595.284 1608.24 595.16 1608.36 595.011 1608.49C593.413 1609.64 591.795 1610.77 590.13 1611.81C587.59 1613.4 584.982 1614.86 582.307 1616.22C581.606 1616.57 580.891 1616.9 580.182 1617.24C579.476 1617.52 578.248 1618.02 577.748 1618.17C574.873 1619.04 572.046 1620.01 569.131 1620.75C567.189 1621.24 565.232 1621.63 563.273 1622.04C562.952 1622.11 562.786 1622.13 562.524 1622.18C556.364 1622.54 550.4 1622.51 544.233 1622.21C543.018 1621.95 541.793 1621.74 540.581 1621.46C537.053 1620.66 533.664 1619.57 530.223 1618.48C529.328 1618.2 528.455 1617.84 527.572 1617.52C525.311 1616.41 523.012 1615.38 520.782 1614.2C515.508 1611.41 510.412 1608.29 505.452 1604.98C503.3 1603.54 501.174 1602.06 499.069 1600.56C498.608 1600.23 496.257 1598.5 494.688 1597.36C494.025 1596.81 489.72 1593.48 489.093 1592.98C486.7 1591.06 484.322 1589.12 481.948 1587.18C462.821 1571.51 443.846 1554.62 421.919 1542.93C396.464 1529.35 369.21 1523.87 340.669 1528.99C317.335 1533.18 295.786 1546.55 279.101 1563.42C276.215 1593.72 282.324 1625.1 296.521 1652.48C300.13 1645.58 303.887 1638.77 308.053 1632.2C309.758 1629.51 311.518 1626.86 313.34 1624.25C313.791 1623.6 315.789 1620.93 316.619 1619.78C317.758 1618.44 319.87 1615.92 320.552 1615.16C322.573 1612.9 324.667 1610.7 326.839 1608.59C328.973 1606.51 331.358 1604.68 333.473 1602.59C333.055 1603 332.745 1603.3 332.47 1603.57C333.11 1603 333.985 1602.28 334.871 1601.68C337.283 1600.06 339.773 1598.56 342.335 1597.19C343.25 1596.7 344.18 1596.24 345.106 1595.77C344.965 1595.82 344.826 1595.87 344.683 1595.9C344.835 1595.86 344.983 1595.8 345.134 1595.76C345.307 1595.67 345.48 1595.58 345.653 1595.5C348.702 1593.93 347.481 1594.94 345.652 1595.6C347.733 1595.01 349.78 1594.19 351.878 1593.65C353.534 1593.22 355.191 1592.91 356.857 1592.54C357.032 1592.5 357.323 1592.47 357.634 1592.44C359.137 1592.43 361.456 1592.39 362.077 1592.39C362.961 1592.38 367.062 1592.69 368.909 1592.77C370.233 1593.03 371.798 1593.32 372.312 1593.45C374.989 1594.09 377.635 1594.86 380.241 1595.74C381.451 1596.15 382.541 1596.61 383.223 1596.92C382.786 1596.71 382.183 1596.41 381.224 1595.92C381.908 1596.27 382.596 1596.61 383.285 1596.95C383.975 1597.26 384.2 1597.39 383.602 1597.1C385.692 1598.11 387.796 1599.09 389.839 1600.21C394.527 1602.76 399.057 1605.59 403.479 1608.58C405.565 1609.99 407.621 1611.44 409.661 1612.92C410.689 1613.66 411.7 1614.43 412.732 1615.17C413.017 1615.37 413.131 1615.45 413.34 1615.6C432.681 1631.26 451.588 1647.86 472.306 1661.69C495.758 1677.35 522.704 1687.75 551.139 1688.32C555.917 1688.42 560.67 1688.16 565.399 1687.72C583.122 1665.07 593.593 1636.37 597.117 1606.51C596.57 1607.01 596.052 1607.54 595.502 1608.04Z" fill="#7ABF82"/>
<path d="M361.242 1458.72C362.271 1459.47 363.281 1460.24 364.314 1460.98C364.602 1461.18 364.717 1461.26 364.927 1461.41C384.266 1477.07 403.171 1493.67 423.886 1507.5C447.338 1523.16 474.285 1533.55 502.719 1534.13C531.558 1534.71 559.84 1525.25 583.097 1508.55C582.114 1506.36 581.094 1504.19 580.017 1502.07C578.385 1498.85 576.645 1495.71 574.799 1492.66C566.498 1478.93 556.214 1466.29 543.722 1456.25C543.05 1456.7 542.396 1457.19 541.711 1457.61C539.17 1459.2 536.563 1460.67 533.888 1462.02C533.187 1462.38 532.471 1462.71 531.762 1463.05C531.057 1463.33 529.83 1463.83 529.33 1463.98C526.455 1464.85 523.628 1465.82 520.711 1466.56C518.771 1467.05 516.813 1467.43 514.855 1467.85C514.534 1467.92 514.367 1467.94 514.105 1467.99C507.945 1468.35 501.982 1468.32 495.815 1468.02C494.6 1467.76 493.374 1467.54 492.163 1467.27C488.635 1466.46 485.246 1465.38 481.805 1464.29C480.911 1464 480.039 1463.65 479.157 1463.32C476.894 1462.21 474.595 1461.19 472.365 1460.01C467.091 1457.22 461.995 1454.1 457.036 1450.79C454.883 1449.35 452.758 1447.87 450.653 1446.36C450.191 1446.04 447.84 1444.31 446.271 1443.17C445.609 1442.62 441.304 1439.29 440.676 1438.79C438.283 1436.87 435.905 1434.93 433.531 1432.99C432.359 1432.02 431.185 1431.05 430.014 1430.08C403.119 1432.94 376.425 1440.12 352.722 1452.88C353.498 1453.38 354.291 1453.87 355.06 1454.39C357.145 1455.8 359.202 1457.25 361.242 1458.72Z" fill="#7ABF82"/>
<path d="M436.862 565.346C466.392 567.916 495.281 583.185 515.146 605.04C513.095 555.004 463.014 510.928 410.908 506.394C331.432 499.477 270.488 546.446 243.699 618.122C181.258 584.707 123.683 545.241 62.1853 509.741C56.3313 521.359 50.8263 533.196 45.7383 545.258C123.931 585.914 193.08 636.096 269.652 677.074C296.442 605.398 357.386 558.429 436.862 565.346Z" fill="#2E9353"/>
<path d="M817.229 493.175C810.666 471.81 801.648 451.457 790.629 432.266C790.836 432.922 791.072 433.565 791.274 434.223C834.863 576.141 769.812 730.213 678.526 847.292C628.046 912.034 588.06 950.376 565.684 1033.34C556.645 1066.91 554.305 1103.65 550.459 1138.06C545.05 1186.45 543.342 1283.58 543.342 1283.58C543.342 1283.58 369.696 1282.7 302.374 1282.03C302.13 1301.58 302.091 1321.11 302.077 1340.56C302.077 1341.18 569.296 1342.53 569.296 1342.53C569.296 1342.53 571.003 1245.41 576.414 1197.01C580.259 1162.6 582.6 1125.86 591.637 1092.29C614.015 1009.33 654 970.986 704.479 906.245C795.766 789.166 860.817 635.093 817.229 493.175Z" fill="#2E9353"/>
<path d="M579.99 1502.07C578.358 1498.85 576.618 1495.71 574.772 1492.65C572.588 1489.05 570.271 1485.51 567.819 1482.07C583.52 1551.8 559.947 1636.32 492.602 1665.21C459.427 1679.44 421.76 1681.05 386.272 1674.43C363.592 1670.2 341.341 1662.62 321.869 1650.25C305.985 1640.15 292.687 1627.2 282.101 1612.46C290.479 1651.11 312.926 1687.02 347.823 1709.2C367.296 1721.57 389.546 1729.15 412.226 1733.38C447.713 1740 485.381 1738.39 518.556 1724.16C599.166 1689.59 617.107 1575.28 579.99 1502.07Z" fill="#2E9353"/>
<path d="M360.126 509.751C305.703 522.09 264.437 562.638 243.7 618.122C181.311 584.734 123.779 545.307 62.3376 509.831C61.1206 512.239 59.8396 514.607 58.6566 517.036C57.8246 518.742 56.9916 520.448 56.1756 522.164C52.5596 529.777 49.0566 537.459 45.7666 545.258C54.9176 550.016 63.9136 554.938 72.8446 559.926C74.7306 560.98 76.6006 562.051 78.4786 563.113C85.9456 567.337 93.3586 571.615 100.713 575.954C102.08 576.761 103.452 577.562 104.816 578.372C142.437 600.711 178.872 624.211 216.163 646.54C247.576 646.176 278.103 634.153 301.884 613.8C332.918 587.241 347.079 547.674 360.126 509.751Z" fill="#59B463"/>
<path d="M397.476 566.536C400.33 566.102 403.212 565.731 406.131 565.449C407.576 565.315 409.034 565.219 410.494 565.122C414.124 564.87 417.79 564.707 421.514 564.698C422.189 564.697 422.874 564.727 423.551 564.735C427.938 564.778 432.375 564.952 436.889 565.345C437.222 565.374 437.55 565.456 437.884 565.488C441.364 565.825 444.834 566.309 448.28 566.988C449.52 567.233 450.735 567.605 451.968 567.893C454.524 568.487 457.075 569.08 459.593 569.85C460.875 570.244 462.125 570.743 463.396 571.181C465.831 572.017 468.259 572.86 470.641 573.853C471.899 574.377 473.116 574.985 474.356 575.551C476.679 576.609 478.988 577.684 481.244 578.883C481.605 579.075 481.987 579.221 482.345 579.415C482.563 579.43 482.782 579.449 483 579.46C483.292 579.475 483.403 579.48 483.636 579.492C485.677 579.934 488.164 580.572 488.571 580.669C493.403 581.814 498.155 583.282 502.825 584.966C503.524 585.218 506.489 586.403 508.024 586.999C509.582 587.708 511.839 588.724 512.494 589.035C512.588 589.08 512.679 589.132 512.774 589.177C505.154 558.058 479.801 530.885 448.763 516.632C446.137 517.294 443.528 518.019 440.969 518.906C415.827 527.618 396.583 543.456 381.138 564.874C379.689 566.884 378.322 568.952 376.988 571.043C383.615 569.103 390.44 567.585 397.476 566.536Z" fill="#59B463"/>
<path d="M813.168 517.966C815.377 512.391 817.448 506.769 819.476 501.131C818.739 498.478 818.041 495.82 817.228 493.176C816.835 491.897 816.352 490.658 815.942 489.387C814.473 484.837 812.934 480.316 811.25 475.859C810.221 473.137 809.086 470.464 807.978 467.778C806.747 464.79 805.493 461.812 804.166 458.87C802.808 455.862 801.4 452.877 799.944 449.918C798.733 447.452 797.47 445.014 796.193 442.582C794.551 439.46 792.914 436.337 791.171 433.274C791.02 433.009 790.852 432.753 790.7 432.488C790.889 433.068 791.093 433.641 791.272 434.224C801.715 468.229 805.865 502.932 804.969 537.656C807.866 531.048 810.598 524.454 813.168 517.966Z" fill="#59B463"/>
<path d="M830.92 578.45C830.877 576.833 830.877 575.215 830.809 573.599C830.801 573.373 830.779 573.146 830.769 572.919C819.197 596.51 810.929 621.256 801.693 645.783C799.817 650.767 797.841 655.711 795.824 660.641C795.41 661.597 794.594 663.508 794.1 664.609C792.599 667.958 791.051 671.286 789.445 674.586C784.127 685.518 778.19 696.18 771.294 706.201C770.378 707.531 768.113 710.521 767.843 710.949C766.734 712.303 765.634 713.667 764.476 714.98C761.863 717.949 759.055 720.67 756.215 723.366C742.515 751.751 726.519 779.211 708.948 805.312C728.379 806.372 748.088 803.307 767.896 794.295C771.865 792.489 775.633 790.411 779.313 788.218C779.486 787.868 779.673 787.522 779.845 787.171C779.898 787.062 779.949 786.95 780.004 786.841C804.86 736.42 822.491 683.006 828.667 629.134C828.701 628.84 828.747 628.547 828.78 628.253C829.189 624.603 829.508 620.95 829.813 617.297C829.887 616.392 829.996 615.489 830.063 614.585C830.313 611.291 830.471 607.995 830.631 604.7C830.692 603.438 830.791 602.177 830.839 600.915C830.954 597.838 830.98 594.761 831.017 591.684C831.035 590.207 831.093 588.729 831.093 587.252C831.092 584.317 830.999 581.383 830.92 578.45Z" fill="#59B463"/>
<path d="M705.184 875.382C695.127 869.926 685.273 864.109 675.36 858.397C674.081 857.66 672.791 856.93 671.505 856.195C656.63 874.962 642.746 891.69 630.021 908.217C642.994 915.424 655.717 923.099 668.703 930.269C672.574 932.406 676.482 934.44 680.405 936.423C688.132 926.856 696.148 916.93 704.479 906.243C704.968 905.616 705.444 904.973 705.932 904.344C710.776 898.09 715.547 891.737 720.229 885.282C720.617 884.745 721.014 884.218 721.402 883.68C715.92 881.067 710.522 878.278 705.184 875.382Z" fill="#59B463"/>
<path d="M546.196 1242.23C545.529 1244.09 544.896 1245.97 544.241 1247.83C543.603 1268.75 543.341 1283.58 543.341 1283.58C543.341 1283.58 539.083 1283.56 531.649 1283.52C531.154 1284.84 530.692 1286.18 530.184 1287.5C529.349 1289.67 528.462 1291.82 527.607 1293.99C526.957 1295.42 526.332 1296.87 525.67 1298.3C521.25 1307.82 516.056 1316.74 510.184 1325.43C510.096 1325.55 510.088 1325.58 510.014 1325.69C509.904 1325.81 509.875 1325.83 509.742 1325.98C507.969 1327.96 506.264 1329.98 504.407 1331.88C502.561 1333.78 500.62 1335.55 498.664 1337.33C498.445 1337.53 498.322 1337.64 498.173 1337.78C496.574 1338.93 494.955 1340.05 493.29 1341.1C492.708 1341.46 492.086 1341.76 491.496 1342.11C499.429 1342.15 507.028 1342.2 514.177 1342.23C514.681 1342.24 515.179 1342.24 515.678 1342.24C547.017 1342.42 569.059 1342.53 569.295 1342.53C569.295 1342.53 571.002 1245.4 576.413 1197.01C577.157 1190.35 577.845 1183.59 578.536 1176.8C577.284 1178.4 576.019 1179.97 574.815 1181.64C561.771 1199.73 553.665 1221.39 546.196 1242.23Z" fill="#59B463"/>
<path d="M586.227 981.48C585.416 981.761 584.662 982.113 583.862 982.41C576.943 997.628 570.827 1014.27 565.684 1033.34C556.884 1066.02 554.425 1101.69 550.752 1135.3C553.865 1126.4 556.857 1117.52 559.916 1108.86C561.62 1104.04 563.36 1099.22 565.199 1094.45C566.035 1092.28 566.923 1090.13 567.768 1087.97C565.11 1094.78 567.71 1088.13 569.006 1085.33C573.1 1076.48 578.309 1068.71 583.306 1060.45C583.594 1060.12 583.838 1059.84 583.885 1059.79C585.549 1057.99 587.164 1056.16 588.925 1054.45C589.165 1054.22 591.012 1052.51 592.311 1051.35C593.382 1050.62 594.434 1049.83 595.503 1049.16C597.336 1048.01 599.218 1046.94 601.141 1045.95C602.111 1045.45 603.173 1045.05 604.116 1044.5C604.374 1044.35 604.482 1044.29 604.632 1044.2C605.958 1043.74 607.562 1043.26 609.171 1042.81C619.865 1018.96 632.601 998.722 647.077 978.995C627.023 974.735 605.531 974.79 586.227 981.48Z" fill="#59B463"/>
<path d="M306.64 1337.87C308.041 1338.82 309.414 1339.8 310.791 1340.78C329.045 1341.05 373.639 1341.38 420.755 1341.68C416.618 1339.36 412.559 1336.9 408.616 1334.27C406.464 1332.83 404.338 1331.35 402.233 1329.85C401.772 1329.52 399.422 1327.79 397.852 1326.65C397.191 1326.1 392.884 1322.77 392.256 1322.27C389.863 1320.35 387.485 1318.41 385.111 1316.47C370.99 1304.9 356.945 1292.68 341.741 1282.37C326.709 1282.25 313.228 1282.14 302.467 1282.03C302.42 1285.73 302.35 1289.43 302.316 1293.13C302.207 1305.46 302.148 1317.79 302.129 1330.09C302.127 1331.7 302.114 1333.33 302.112 1334.94C303.628 1335.91 305.15 1336.86 306.64 1337.87Z" fill="#59B463"/>
<path d="M470.339 1697.12C444.884 1683.54 417.63 1678.06 389.089 1683.18C371.992 1686.25 355.887 1694.28 341.917 1704.98C343.695 1706.24 345.389 1707.59 347.239 1708.78C347.447 1708.92 347.643 1709.07 347.853 1709.2C367.325 1721.57 389.575 1729.15 412.256 1733.38C413.271 1733.57 414.302 1733.69 415.32 1733.86C418.554 1734.42 421.793 1734.96 425.054 1735.38C427.599 1735.7 430.159 1735.9 432.714 1736.13C434.44 1736.29 436.161 1736.5 437.89 1736.62C441.114 1736.83 444.343 1736.92 447.572 1736.98C448.59 1737 449.607 1737.06 450.625 1737.06C454.306 1737.08 457.983 1736.97 461.653 1736.77C462.18 1736.75 462.71 1736.74 463.237 1736.71C467.187 1736.47 471.121 1736.1 475.038 1735.6C475.274 1735.57 475.511 1735.55 475.748 1735.52C479.826 1734.99 483.882 1734.32 487.905 1733.5C487.979 1733.49 488.053 1733.48 488.127 1733.46C492.209 1732.62 496.256 1731.64 500.26 1730.5C500.303 1730.48 500.347 1730.47 500.391 1730.46C504.35 1729.32 508.264 1728.03 512.126 1726.58C512.2 1726.55 512.272 1726.53 512.344 1726.5C499.061 1715.64 485.402 1705.15 470.339 1697.12Z" fill="#59B463"/>
<path d="M595.501 1608.04C595.283 1608.24 595.159 1608.35 595.01 1608.49C593.412 1609.64 591.794 1610.76 590.129 1611.81C587.589 1613.4 584.981 1614.86 582.306 1616.21C581.605 1616.57 580.89 1616.89 580.181 1617.24C579.475 1617.52 578.247 1618.02 577.747 1618.17C574.872 1619.04 572.045 1620.01 569.13 1620.75C567.188 1621.24 565.231 1621.63 563.272 1622.04C562.951 1622.11 562.785 1622.13 562.523 1622.18C556.363 1622.54 550.399 1622.51 544.232 1622.21C544.219 1622.21 544.206 1622.2 544.194 1622.2C531.429 1640.73 514.326 1655.89 492.601 1665.21C489.65 1666.48 486.624 1667.53 483.607 1668.59C504.266 1680.32 527.159 1687.84 551.137 1688.32C555.905 1688.41 560.648 1688.16 565.366 1687.72C565.472 1687.58 565.579 1687.45 565.684 1687.32C569.906 1681.88 573.714 1676.1 577.108 1670.04C577.294 1669.71 577.472 1669.37 577.657 1669.04C579.188 1666.25 580.636 1663.41 581.998 1660.52C582.137 1660.22 582.287 1659.93 582.426 1659.63C585.322 1653.36 587.807 1646.86 589.913 1640.19C590.097 1639.61 590.277 1639.02 590.456 1638.44C591.405 1635.31 592.286 1632.16 593.065 1628.97C593.105 1628.81 593.15 1628.65 593.188 1628.49C594.015 1625.07 594.736 1621.6 595.367 1618.12C595.458 1617.61 595.534 1617.11 595.62 1616.6C596.133 1613.64 596.573 1610.65 596.944 1607.66C596.991 1607.28 597.039 1606.91 597.082 1606.54C596.55 1607.03 596.04 1607.55 595.501 1608.04Z" fill="#59B463"/>
<path d="M304.952 1637.4C296.415 1629.95 288.756 1621.68 282.236 1612.63C282.437 1613.55 282.658 1614.46 282.874 1615.38C283.551 1618.24 284.303 1621.09 285.134 1623.92C285.637 1625.62 286.143 1627.32 286.702 1629C287.587 1631.69 288.584 1634.33 289.609 1636.96C290.233 1638.56 290.796 1640.19 291.471 1641.77C293.017 1645.39 294.724 1648.94 296.538 1652.44C299.206 1647.35 302.018 1642.34 304.952 1637.4Z" fill="#59B463"/>
<path d="M574.771 1492.65C572.629 1489.11 570.348 1485.65 567.948 1482.27C567.909 1482.21 567.865 1482.16 567.826 1482.11C570.273 1492.99 571.649 1504.24 572.166 1515.57C575.896 1513.38 579.558 1511.09 583.075 1508.56C582.089 1506.37 581.067 1504.2 579.988 1502.07C578.357 1498.85 576.617 1495.71 574.771 1492.65Z" fill="#59B463"/>
<path d="M463.279 207.607C462.95 208.465 462.815 209.262 462.762 210.029C466.363 209.944 469.967 209.789 473.563 209.789H473.573V209.797L473.578 209.789C475.64 209.789 477.694 209.893 479.754 209.922C491.139 176.232 465.081 142.686 472.701 108.354C480.438 73.4959 503.963 41.0479 488.402 4.59994C484.265 -5.08806 470.117 3.26792 474.224 12.8869C488.006 45.1689 459.844 80.5939 455.427 112.053C453.122 128.472 456.509 144.253 460.582 160.108C464.609 175.779 469.332 191.845 463.279 207.607Z" fill="#12080E"/>
</g>
<defs>
<clipPath id="clip0_1174_2121">
<rect width="877" height="2210" fill="white"/>
</clipPath>
</defs>
</svg>
