<svg width="985" height="985" viewBox="0 0 985 985" fill="none" xmlns="http://www.w3.org/2000/svg">
<path d="M29.3781 228.285C48.2041 183.774 75.154 143.802 109.478 109.478C143.802 75.154 183.775 48.205 228.286 29.378C274.375 9.88399 323.326 0 373.782 0C424.237 0 473.189 9.88399 519.277 29.378C563.788 48.205 603.76 75.154 638.085 109.478C672.409 143.802 699.358 183.774 718.185 228.285C737.679 274.373 747.563 323.325 747.563 373.781C747.563 424.237 737.679 473.188 718.185 519.277C707.064 545.57 693.086 570.265 676.45 593.162L709.708 626.42C719.496 621.758 731.585 623.468 739.678 631.56L962.534 854.416C992.342 884.225 992.341 932.726 962.534 962.533C948.094 976.972 928.896 984.925 908.475 984.925C888.054 984.925 868.856 976.973 854.416 962.533L631.56 739.677C623.468 731.585 621.758 719.495 626.42 709.707L593.163 676.449C570.266 693.085 545.571 707.063 519.277 718.184C473.189 737.677 424.237 747.562 373.782 747.562C323.326 747.562 274.375 737.677 228.286 718.184C183.775 699.358 143.803 672.408 109.478 638.084C75.155 603.76 48.2051 563.787 29.3781 519.276C9.88505 473.188 0 424.236 0 373.78C0 323.324 9.88505 274.374 29.3781 228.285ZM646.257 724.979L869.113 947.835C879.627 958.349 893.606 964.139 908.474 964.139C923.342 964.139 937.322 958.349 947.835 947.835C969.539 926.132 969.539 890.816 947.835 869.112L724.98 646.256C723.897 645.174 722.475 644.632 721.053 644.632C719.631 644.632 718.209 645.174 717.127 646.256L715.996 647.387C715.993 647.39 715.99 647.394 715.987 647.397C715.984 647.4 715.98 647.403 715.977 647.406L647.407 715.977C647.404 715.98 647.401 715.984 647.398 715.987C647.395 715.99 647.391 715.993 647.388 715.996L646.258 717.126C644.092 719.292 644.092 722.814 646.257 724.979ZM640.048 693.941L693.941 640.048L663.663 609.77C655.653 619.583 647.132 629.035 638.083 638.084C629.035 647.132 619.583 655.653 609.77 663.663L640.048 693.941ZM124.175 623.387C190.848 690.059 279.492 726.777 373.781 726.777C451.98 726.777 526.284 701.498 587.404 654.844C587.742 654.555 588.09 654.283 588.454 654.044C600.649 644.663 612.326 634.447 623.386 623.387C634.447 612.326 644.663 600.649 654.044 588.454C654.283 588.09 654.554 587.742 654.844 587.404C701.498 526.284 726.776 451.98 726.776 373.781C726.776 279.492 690.058 190.847 623.386 124.175C556.714 57.503 468.069 20.785 373.781 20.785C279.492 20.785 190.847 57.503 124.175 124.175C57.503 190.847 20.785 279.492 20.785 373.781C20.785 468.07 57.503 556.715 124.175 623.387Z" fill="#0F0F0F"/>
<path d="M151.159 151.159C210.624 91.695 289.685 58.946 373.781 58.946C457.877 58.946 536.938 91.695 596.403 151.159C655.867 210.623 688.616 289.685 688.616 373.781C688.616 457.877 655.867 536.939 596.403 596.403C536.938 655.867 457.877 688.616 373.781 688.616C289.685 688.616 210.624 655.867 151.159 596.403C91.6952 536.939 58.9463 457.877 58.9463 373.781C58.9463 289.685 91.6952 210.623 151.159 151.159ZM165.856 581.705C221.395 637.244 295.237 667.83 373.781 667.83C452.325 667.83 526.167 637.244 581.706 581.705C637.245 526.167 667.831 452.324 667.831 373.781C667.831 295.238 637.245 221.395 581.706 165.856C526.167 110.317 452.325 79.731 373.781 79.731C295.237 79.731 221.395 110.317 165.856 165.856C110.317 221.395 79.7312 295.237 79.7312 373.781C79.7312 452.325 110.317 526.167 165.856 581.705Z" fill="#0F0F0F"/>
</svg>
